<?xml version="1.0" standalone="no"?>
<!DOCTYPE svg PUBLIC "-//W3C//DTD SVG 1.1//EN" "http://www.w3.org/Graphics/SVG/1.1/DTD/svg11.dtd" >
<svg xmlns="http://www.w3.org/2000/svg">
<metadata></metadata>
<defs>
<font id="netto_otbold" horiz-adv-x="1064" >
<font-face units-per-em="2048" ascent="1591" descent="-457" />
<missing-glyph horiz-adv-x="512" />
<glyph unicode="&#xfb01;" horiz-adv-x="1140" d="M129 86v1065q0 126 89.5 215.5t215.5 89.5q55 0 123 -10q38 -6 63 -35.5t25 -67.5q0 -40 -29.5 -68t-72.5 -28q-9 0 -37 6.5t-72 6.5q-38 0 -66 -27.5t-28 -65.5v-129h201q44 0 74 -28.5t30 -71.5q0 -44 -30 -72t-74 -28h-201v-752q0 -44 -30.5 -75t-73.5 -31 q-44 0 -75.5 31t-31.5 75zM774 1337q0 49 35 84t84 35t84 -35t35 -84t-34.5 -83.5t-84.5 -34.5t-84.5 34.5t-34.5 83.5zM786 86v866q0 44 32 75.5t75 31.5q44 0 74 -31t30 -76v-866q0 -44 -30 -75t-74 -31q-43 0 -75 31t-32 75z" />
<glyph unicode="&#xfb02;" horiz-adv-x="1163" d="M129 86v1065q0 126 89.5 215.5t215.5 89.5q55 0 123 -10q38 -6 63 -35.5t25 -67.5q0 -40 -29.5 -68t-72.5 -28q-9 0 -37 6.5t-72 6.5q-38 0 -66 -27.5t-28 -65.5v-129h201q44 0 74 -28.5t30 -71.5q0 -44 -30 -72t-74 -28h-201v-752q0 -44 -30.5 -75t-73.5 -31 q-44 0 -75.5 31t-31.5 75zM813 86v1264q0 44 31.5 75t75.5 31q43 0 73.5 -31t30.5 -75v-1264q0 -44 -30.5 -75t-73.5 -31q-44 0 -75.5 31t-31.5 75z" />
<glyph horiz-adv-x="0" />
<glyph horiz-adv-x="0" />
<glyph horiz-adv-x="682" />
<glyph unicode="&#xd;" horiz-adv-x="512" />
<glyph unicode=" "  horiz-adv-x="512" />
<glyph unicode="&#x09;" horiz-adv-x="512" />
<glyph unicode="&#xa0;" horiz-adv-x="512" />
<glyph unicode="!" horiz-adv-x="743" d="M240 113q0 55 39 94t94 39q54 0 92.5 -39t38.5 -94t-38.5 -94t-92.5 -39q-55 0 -94 39t-39 94zM266 539v811q0 44 31.5 75t75.5 31q43 0 73.5 -31t30.5 -75v-811q0 -43 -30.5 -74t-73.5 -31q-44 0 -75.5 31t-31.5 74z" />
<glyph unicode="&#x22;" horiz-adv-x="901" d="M166 1059v291q0 44 31 75t75 31q43 0 74 -31t31 -75v-291q0 -44 -31 -75.5t-74 -31.5q-44 0 -75 31.5t-31 75.5zM522 1059v291q0 44 32 75t75 31q44 0 75 -31t31 -75v-291q0 -44 -31 -75.5t-75 -31.5q-43 0 -75 31.5t-32 75.5z" />
<glyph unicode="#" d="M10 467q0 40 26 66t66 26h95l47 318h-70q-40 0 -66 25t-26 65t26 66t66 26h96l47 315q4 35 32.5 58.5t62.5 23.5q38 0 68 -28t30 -68q0 -9 -2 -23l-41 -278h233l48 315q4 35 32 58.5t62 23.5q38 0 68 -28t30 -68q0 -9 -2 -23l-41 -278h64q40 0 67 -26t27 -66 q0 -39 -27 -64.5t-67 -25.5h-93l-47 -318h68q40 0 67 -26t27 -66q0 -39 -27 -64.5t-67 -25.5h-94l-47 -316q-4 -35 -31.5 -58t-63.5 -23q-37 0 -66.5 28.5t-29.5 67.5q0 11 4 35l39 266h-235l-48 -316q-4 -35 -31 -58t-63 -23q-37 0 -66.5 28.5t-29.5 67.5q0 11 4 35l39 266 h-68q-40 0 -66 25t-26 65zM391 559h236l47 318h-236z" />
<glyph unicode="$" d="M90 154q0 44 27 74t71 30q34 0 66 -14q145 -64 266 -64q112 0 174 53.5t62 153.5q0 71 -50.5 126t-127.5 89l-246 109q-119 52 -180.5 142.5t-61.5 211.5q0 146 98.5 246t247.5 133v170q0 44 31.5 75t75.5 31q43 0 73.5 -31t30.5 -75v-164q130 -13 244 -61 q80 -33 80 -105q0 -40 -30 -69t-73 -29q-20 0 -39 8q-7 2 -31.5 12.5t-44 17t-51 15t-72 12.5t-87.5 4q-41 0 -79.5 -9t-74.5 -28.5t-58 -56t-22 -86.5q0 -68 31.5 -107t97.5 -69l234 -102q66 -29 114.5 -59t94.5 -75t70 -107.5t24 -141.5q0 -156 -88 -270.5t-238 -149.5 v-172q0 -44 -31.5 -75.5t-74.5 -31.5q-44 0 -75.5 31.5t-31.5 75.5v164q-152 16 -282 71q-30 12 -47 38t-17 59z" />
<glyph unicode="%" horiz-adv-x="1832" d="M139 963v184q0 135 85.5 222t224.5 87q134 0 220.5 -85.5t86.5 -223.5v-184q0 -135 -85 -222.5t-222 -87.5q-134 0 -222 85.5t-88 224.5zM311 963q0 -66 36 -102t102 -36q65 0 100 36t35 102v184q0 66 -35 101.5t-100 35.5q-66 0 -102 -35.5t-36 -101.5v-184zM381 59 q0 25 14 45l914 1317q21 35 65 35q30 0 54 -22.5t24 -55.5q0 -27 -14 -47l-912 -1317q-24 -34 -65 -34q-32 0 -56 23t-24 56zM1077 289v184q0 135 85 222t224 87q134 0 221 -85.5t87 -223.5v-184q0 -135 -85.5 -222t-222.5 -87q-134 0 -221.5 85t-87.5 224zM1249 289 q0 -66 35.5 -101.5t101.5 -35.5q65 0 100.5 35.5t35.5 101.5v184q0 66 -35.5 101.5t-100.5 35.5q-66 0 -101.5 -35.5t-35.5 -101.5v-184z" />
<glyph unicode="&#x26;" horiz-adv-x="1425" d="M129 383q0 122 72 231q71 104 200 185l-30 32q-127 133 -127 281q0 142 105 243t253 101t252 -100.5t104 -243.5q0 -43 -30.5 -74.5t-73.5 -31.5q-44 0 -75 31.5t-31 74.5q0 57 -43.5 102.5t-102.5 45.5t-102 -45.5t-43 -102.5q0 -63 67 -133l467 -490l156 181 q30 37 80 37q42 0 74 -30t32 -75q0 -40 -24 -70l-172 -198l168 -174q28 -28 28 -74q0 -42 -31 -74t-75 -32t-76 32l-160 168q-95 -92 -200 -146t-242 -54q-173 0 -296.5 118t-123.5 285zM340 383q0 -81 62 -144t147 -63q84 0 148.5 38.5t148.5 119.5l-301 317 q-116 -69 -168 -145q-37 -56 -37 -123z" />
<glyph unicode="'" horiz-adv-x="542" d="M166 1059v291q0 44 31 75t75 31q43 0 74 -31t31 -75v-291q0 -44 -31 -75.5t-74 -31.5q-44 0 -75 31.5t-31 75.5z" />
<glyph unicode="(" horiz-adv-x="636" d="M102 649q0 472 215 889q28 57 95 57q43 0 73.5 -32.5t30.5 -73.5q0 -25 -12 -49q-191 -374 -191 -791q0 -445 191 -792q12 -21 12 -47q0 -44 -31 -75.5t-73 -31.5q-30 0 -56 14.5t-39 40.5q-215 408 -215 891z" />
<glyph unicode=")" horiz-adv-x="645" d="M129 -190q0 26 12 47q191 347 191 792q0 417 -191 791q-12 24 -12 49q0 41 30.5 73.5t73.5 32.5q67 0 95 -57q215 -417 215 -889q0 -483 -215 -891q-13 -26 -39 -40.5t-56 -14.5q-42 0 -73 31.5t-31 75.5z" />
<glyph unicode="*" horiz-adv-x="917" d="M92 1165q0 34 26 61t62 27q21 0 31 -4l158 -51v168q0 37 26.5 63.5t63.5 26.5t63.5 -26.5t26.5 -63.5v-168l158 49q15 6 30 6q32 0 60 -26.5t28 -63.5q0 -28 -17 -51.5t-44 -32.5l-160 -51l98 -135q19 -25 19 -53q0 -36 -25.5 -63t-64.5 -27q-48 0 -74 36l-98 136 l-99 -136q-23 -36 -71 -36q-36 0 -63 25.5t-27 64.5q0 32 16 53l98 135l-159 51q-29 9 -45.5 32.5t-16.5 53.5z" />
<glyph unicode="+" d="M27 520q0 43 29.5 72t72.5 29h297v331q0 44 31.5 75.5t74.5 31.5q44 0 74.5 -31.5t30.5 -75.5v-331h299q43 0 72.5 -29t29.5 -72t-30 -71.5t-72 -28.5h-299v-334q0 -44 -30.5 -75t-74.5 -31q-43 0 -74.5 31t-31.5 75v334h-297q-42 0 -72 28.5t-30 71.5z" />
<glyph unicode="," horiz-adv-x="411" d="M0 -145q0 16 6 34l98 287q10 32 39 52t62 20q41 0 73.5 -31t32.5 -74q0 -16 -6 -34l-98 -289q-10 -32 -39 -52t-62 -20q-42 0 -74 31.5t-32 75.5z" />
<glyph unicode="-" horiz-adv-x="897" d="M111 610q0 41 28 71t70 30h477q41 0 70.5 -30t29.5 -71t-29.5 -70.5t-70.5 -29.5h-477q-41 0 -69.5 29.5t-28.5 70.5z" />
<glyph unicode="." horiz-adv-x="411" d="M74 117q0 54 39 92.5t94 38.5q54 0 92.5 -38.5t38.5 -92.5q0 -55 -38.5 -94t-92.5 -39q-55 0 -94 39t-39 94z" />
<glyph unicode="/" horiz-adv-x="1118" d="M203 84q0 22 8 41l500 1264q12 30 40 48.5t60 18.5q43 0 73.5 -32t30.5 -72q0 -22 -8 -41l-499 -1264q-12 -30 -40.5 -48.5t-60.5 -18.5q-42 0 -73 32.5t-31 71.5z" />
<glyph unicode="0" horiz-adv-x="1181" d="M121 451v534q0 211 129 340q131 131 340 131q211 0 340 -129q131 -131 131 -342v-534q0 -211 -129 -340q-131 -131 -342 -131q-209 0 -340 131q-129 129 -129 340zM332 432q0 -123 67.5 -190.5t190.5 -67.5t191.5 67.5t68.5 190.5v572q0 124 -68 191t-192 67 q-123 0 -190.5 -67t-67.5 -191v-572z" />
<glyph unicode="1" horiz-adv-x="786" d="M37 1163q0 60 53 90l324 187q29 16 59 16q49 0 84 -35t35 -84v-1251q0 -44 -31 -75t-74 -31q-44 0 -75 31t-31 75v1102l-184 -107q-29 -18 -60 -18q-42 0 -71 29t-29 71z" />
<glyph unicode="2" horiz-adv-x="1011" d="M55 119q0 42 27 76l516 620q86 105 86 225q0 94 -57 158t-154 64q-129 0 -242 -58q-32 -16 -53 -16q-41 0 -71.5 28t-30.5 68q0 29 15 54t42 38q88 46 166.5 63t173.5 17q189 0 305 -119q117 -117 117 -307q0 -57 -11.5 -107t-36 -95.5t-43 -72.5t-52.5 -71 q-14 -18 -84 -101.5t-164.5 -196.5t-153.5 -185h455q44 0 74 -29t30 -70q0 -44 -30 -73t-74 -29h-631q-50 0 -84.5 35t-34.5 84z" />
<glyph unicode="3" horiz-adv-x="1040" d="M55 147q0 41 31.5 70t75.5 29q15 0 45 -13q124 -59 258 -59q102 0 178 63t76 179q0 92 -80.5 158.5t-194.5 66.5h-38q-45 0 -76 30t-31 74q0 43 31.5 74t75.5 31h26q101 0 173.5 58.5t72.5 140.5q0 96 -57 154.5t-156 58.5q-131 0 -246 -56q-21 -12 -49 -12 q-39 0 -69.5 28t-30.5 68q0 64 57 92q88 43 166.5 58.5t171.5 15.5q186 0 305 -113t119 -294q0 -176 -150 -295q90 -61 140.5 -148.5t50.5 -189.5q0 -192 -130 -314t-335 -122q-188 0 -350 75q-60 29 -60 92z" />
<glyph unicode="4" horiz-adv-x="1017" d="M47 408q0 22 8 41l348 937q12 32 40 51t63 19q41 0 69.5 -31t28.5 -75q0 -19 -6 -37l-309 -817h282v204q0 44 31 75.5t74 31.5q44 0 75 -31.5t31 -75.5v-204h123q43 0 73 -29t30 -72q0 -42 -30 -71t-73 -29h-123v-211q0 -44 -31 -74t-75 -30q-43 0 -74 30t-31 74v211 h-405q-49 0 -84 31.5t-35 81.5z" />
<glyph unicode="5" horiz-adv-x="1069" d="M111 147q0 42 30 71.5t74 29.5q23 0 49 -15q109 -59 256 -59q92 0 158.5 74t66.5 170v67q0 96 -66.5 170t-158.5 74q-115 0 -215 -53q-28 -14 -55 -14q-50 0 -84.5 34.5t-34.5 83.5v525q0 54 38.5 92.5t92.5 38.5h555q41 0 71 -30t30 -71q0 -40 -29.5 -70t-71.5 -30h-475 v-336q89 25 178 25q181 0 309.5 -128.5t128.5 -310.5v-67q0 -119 -58.5 -220t-159.5 -159.5t-220 -58.5q-193 0 -350 77q-59 27 -59 90z" />
<glyph unicode="6" horiz-adv-x="1079" d="M121 418v336q0 317 131 497q74 100 185.5 152.5t252.5 52.5q69 0 141 -16q38 -7 61 -34.5t23 -64.5q0 -40 -29.5 -67t-72.5 -27q-14 0 -51 7.5t-72 7.5q-23 0 -44 -2t-55.5 -11t-63 -24.5t-61.5 -46t-57.5 -72.5t-44 -107t-26.5 -145q94 70 219 70q181 0 309.5 -128.5 t128.5 -310.5v-67q0 -182 -128.5 -310t-309.5 -128q-180 0 -308 128.5t-128 309.5zM332 399q0 -93 66 -159t159 -66q94 0 160.5 65.5t66.5 159.5v105q0 94 -66.5 159.5t-160.5 65.5q-93 0 -159 -66t-66 -159v-105z" />
<glyph unicode="7" horiz-adv-x="972" d="M18 1333q0 43 29.5 73t73.5 30h686q50 0 84.5 -36t34.5 -83q0 -24 -8 -43l-510 -1229q-12 -30 -39.5 -47.5t-59.5 -17.5q-44 0 -73 30.5t-29 73.5q0 22 8 41l465 1110h-559q-44 0 -73.5 29t-29.5 69z" />
<glyph unicode="8" horiz-adv-x="1134" d="M111 412q0 105 49 194.5t139 149.5q-74 56 -115 133.5t-41 167.5q0 165 124.5 282t299.5 117t299.5 -117t124.5 -282q0 -86 -44 -164t-116 -137q86 -63 139.5 -153.5t53.5 -190.5q0 -117 -61 -216.5t-166.5 -157.5t-229.5 -58t-229 58t-166 157.5t-61 216.5zM322 412 q0 -98 72 -168t173 -70t173.5 70t72.5 168t-72.5 169.5t-173.5 71.5t-173 -71t-72 -170zM356 1057q0 -85 62 -146t149 -61q88 0 150.5 61t62.5 146q0 86 -62.5 145.5t-150.5 59.5t-149.5 -59.5t-61.5 -145.5z" />
<glyph unicode="9" horiz-adv-x="1079" d="M84 950v70q0 180 128 308t308 128q181 0 309.5 -128t128.5 -308v-375q0 -114 -18 -209.5t-49 -163t-76 -119.5t-93.5 -84.5t-107 -52.5t-112.5 -28t-113 -8q-62 0 -141 14q-37 8 -60.5 35t-23.5 63q0 40 29 69t73 29q12 0 51 -8t72 -8q44 0 82 6.5t78.5 22.5t72 47 t58.5 75t43.5 111t21.5 152q-96 -76 -225 -76q-180 0 -308 128.5t-128 309.5zM295 934q0 -94 66.5 -160.5t158.5 -66.5q94 0 161 66.5t67 160.5v102q0 92 -67 159t-161 67q-92 0 -158.5 -67t-66.5 -159v-102z" />
<glyph unicode=":" horiz-adv-x="411" d="M74 113q0 55 39 94t94 39q54 0 92.5 -39t38.5 -94t-38.5 -94t-92.5 -39q-55 0 -94 39t-39 94zM74 926q0 56 39 94.5t94 38.5q54 0 92.5 -39t38.5 -94q0 -54 -38.5 -92.5t-92.5 -38.5q-55 0 -94 38.5t-39 92.5z" />
<glyph unicode=";" horiz-adv-x="411" d="M0 -145q0 16 6 34l98 287q10 32 39 52t62 20q41 0 73.5 -31t32.5 -74q0 -16 -6 -34l-98 -289q-10 -32 -39 -52t-62 -20q-41 0 -73.5 32t-32.5 75zM74 926q0 56 38 94.5t93 38.5t94 -38.5t39 -94.5q0 -54 -39 -92.5t-94 -38.5t-93 38.5t-38 92.5z" />
<glyph unicode="&#x3c;" d="M96 520q0 72 62 111l659 411q31 17 55 17q44 0 73.5 -29.5t29.5 -71.5q0 -58 -49 -86l-582 -352l582 -352q23 -13 36 -37t13 -51q0 -43 -30 -71.5t-71 -28.5q-26 0 -55 16l-661 412q-62 39 -62 112z" />
<glyph unicode="=" d="M27 311q0 41 28 71t70 30h813q41 0 70.5 -30t29.5 -71t-29.5 -70.5t-70.5 -29.5h-813q-41 0 -69.5 29.5t-28.5 70.5zM27 733q0 41 28 71t70 30h813q41 0 70.5 -30t29.5 -71t-29.5 -70.5t-70.5 -29.5h-813q-41 0 -69.5 29.5t-28.5 70.5z" />
<glyph unicode="&#x3e;" d="M90 80q0 27 13 51t36 37l582 352l-582 352q-49 28 -49 86q0 42 29.5 71.5t73.5 29.5q24 0 55 -17l659 -411q62 -39 62 -111q0 -73 -62 -112l-661 -412q-29 -16 -56 -16q-41 0 -70.5 28.5t-29.5 71.5z" />
<glyph unicode="?" horiz-adv-x="983" d="M111 1294q0 64 61 92q143 70 309 70q169 0 289.5 -116.5t120.5 -280.5q0 -92 -40 -170t-112 -131l-131 -94q-35 -24 -35 -72v-53q0 -43 -31 -74t-75 -31q-43 0 -74 31t-31 74v41q0 70 32 136t87 105l121 86q78 55 78 160q0 87 -62 141t-147 54q-105 0 -207 -54 q-24 -14 -53 -14q-40 0 -70 29t-30 71zM336 113q0 55 38.5 94t92.5 39q55 0 94 -39t39 -94t-39 -94t-94 -39q-54 0 -92.5 39t-38.5 94z" />
<glyph unicode="@" horiz-adv-x="1509" d="M221 219v694q0 147 73 272t198 198t272 73t272 -73t198 -198t73 -272v-546q0 -41 -23.5 -75t-60.5 -48q-122 -49 -260 -49q-154 0 -262.5 108t-108.5 262t108.5 262.5t262.5 108.5h131q0 131 -99.5 228.5t-230.5 97.5q-137 0 -234.5 -97t-97.5 -233v-727q0 -124 82 -215 q83 -96 199 -111q40 -6 65 -32.5t25 -63.5q0 -42 -29 -71t-74 -29q-44 0 -112 22q-67 23 -129 65.5t-105 94.5q-133 152 -133 354zM803 565q0 -77 46.5 -126.5t113.5 -49.5q43 0 133 21v329h-133q-67 0 -113.5 -48.5t-46.5 -125.5z" />
<glyph unicode="A" horiz-adv-x="1196" d="M29 86q0 17 6 35l450 1257q12 33 44 55.5t69 22.5q36 0 68.5 -22.5t44.5 -57.5l450 -1255q6 -15 6 -35q0 -42 -30.5 -74t-75.5 -32q-33 0 -60.5 18.5t-39.5 50.5l-111 311h-504l-113 -311q-12 -32 -39 -50.5t-61 -18.5q-42 0 -73 31t-31 75zM420 567h356l-178 496z" />
<glyph unicode="B" horiz-adv-x="1140" d="M139 131v1174q0 54 39 92.5t94 38.5h334q181 0 292.5 -109.5t111.5 -288.5q0 -170 -138 -284q88 -60 132.5 -146t44.5 -182q0 -192 -118 -309t-310 -117h-349q-55 0 -94 38.5t-39 92.5zM356 207h265q103 0 156.5 57t53.5 162q0 90 -69 152.5t-174 62.5h-1h-1h-1h-1h-1h-1 h-1h-1h-1h-1h-1h-1h-1h-1h-1h-1h-1h-1h-1h-1h-1h-1h-1h-1h-1h-1h-1h-1h-1h-1h-1h-1h-1h-1h-1h-1h-1h-1h-1h-1h-1h-1h-1h-1h-1h-1h-1h-1h-1h-1h-1h-1h-1h-1h-1h-1h-1h-1h-1h-1h-1h-1h-1h-1h-1h-1h-1h-1h-1h-1h-1h-1h-1h-1h-1h-1h-1h-1h-1h-1h-1h-1h-1h-1h-1h-1h-1h-1h-1h-1 h-1h-1h-1h-1h-1h-1h-1h-1h-1h-1h-1h-1h-1h-1h-1h-1h-1h-1h-1h-1h-1h-1h-1h-1h-1h-1h-1h-1h-1h-1h-1h-1h-1h-1h-1h-1h-1h-1h-1h-1h-1h-1h-1h-1h-1h-1h-1h-1h-1h-1h-1h-1h-1h-1h-1h-1h-1h-1h-1h-1h-1h-1h-1h-1h-1h-1h-1h-1h-1h-1h-1h-1h-1h-1h-1h-1h-1h-1h-1h-1h-1h-1h-1h-1 h-1h-1h-1h-1h-1h-1h-1h-1h-1h-1h-1h-1h-1h-1h-1h-1h-1h-1h-1h-1h-1h-1h-1h-1h-1h-1h-1h-1h-1h-1h-1h-1h-1h-1h-1h-1h-1h-1h-1h-1h-1h-1h-1h-1h-1h-1h-1h-1h-10v-434zM356 848h219q93 0 155.5 55t62.5 135q0 92 -47 141.5t-140 49.5h-250v-381z" />
<glyph unicode="C" horiz-adv-x="1050" d="M102 510v416q0 238 146 384t383 146q166 0 315 -96q49 -32 49 -88q0 -41 -31 -71t-75 -30q-24 0 -55 17q-108 67 -203 67q-147 0 -229.5 -89t-82.5 -240v-416q0 -151 82.5 -240.5t229.5 -89.5q87 0 200 70q27 18 60 18q42 0 73 -29.5t31 -72.5q0 -58 -49 -90 q-149 -96 -315 -96q-237 0 -383 146t-146 384z" />
<glyph unicode="D" horiz-adv-x="1208" d="M139 131v1174q0 54 39 92.5t94 38.5h271q252 0 407.5 -153.5t155.5 -403.5v-322q0 -250 -155.5 -403.5t-407.5 -153.5h-271q-55 0 -94 38.5t-39 92.5zM356 207h189q163 0 253.5 92t90.5 254v330q0 163 -90 254.5t-254 91.5h-189v-1022z" />
<glyph unicode="E" horiz-adv-x="1052" d="M139 131v1174q0 53 39 92t94 39h594q44 0 75.5 -31.5t31.5 -75.5q0 -42 -31 -71t-76 -29h-510v-381h484q44 0 75 -30.5t31 -74.5q0 -43 -31 -72.5t-75 -29.5h-484v-434h525q43 0 74.5 -30.5t31.5 -72.5q0 -44 -31.5 -74t-74.5 -30h-609q-53 0 -93 38t-40 93z" />
<glyph unicode="F" horiz-adv-x="995" d="M139 86v1219q0 53 39 92t94 39h588q44 0 75.5 -30.5t31.5 -74.5q0 -43 -31.5 -72.5t-75.5 -29.5h-504v-381h478q44 0 75 -30.5t31 -74.5q0 -43 -31 -72.5t-75 -29.5h-478v-555q0 -44 -31.5 -75t-74.5 -31q-45 0 -78 31t-33 75z" />
<glyph unicode="G" horiz-adv-x="1177" d="M102 510v416q0 238 146 384t383 146q85 0 177.5 -25t162.5 -67q51 -31 51 -94q0 -41 -31.5 -70t-75.5 -29q-28 0 -55 17q-43 27 -107 47t-122 20q-148 0 -230 -85.5t-82 -235.5v-434q0 -150 82 -235t230 -85q114 0 227 37v379h-201q-43 0 -73.5 30t-30.5 74q0 43 30.5 74 t73.5 31h285q56 0 94.5 -38.5t38.5 -94.5v-500q0 -40 -21.5 -73t-56.5 -48q-162 -71 -366 -71q-237 0 -383 146t-146 384z" />
<glyph unicode="H" horiz-adv-x="1245" d="M139 88v1260q0 44 32.5 76t76.5 32q43 0 75.5 -32t32.5 -76v-500h533v500q0 44 32 76t76 32t76.5 -32t32.5 -76v-1260q0 -44 -31.5 -76t-75.5 -32t-77 32t-33 76v553h-533v-553q0 -44 -31.5 -76t-74.5 -32q-45 0 -78 32t-33 76z" />
<glyph unicode="I" horiz-adv-x="495" d="M139 88v1260q0 44 32.5 76t76.5 32q43 0 75.5 -32t32.5 -76v-1260q0 -44 -32.5 -76t-75.5 -32q-44 0 -76.5 32t-32.5 76z" />
<glyph unicode="J" horiz-adv-x="804" d="M47 90q0 47 30 75t70 28q13 0 52.5 -6.5t72.5 -6.5q73 0 129 56q26 26 42 66.5t16 80.5v967q0 44 31.5 75t74.5 31q45 0 78 -31t33 -75v-967q0 -166 -119 -285q-115 -118 -285 -118q-76 0 -137 12q-40 7 -64 34t-24 64z" />
<glyph unicode="K" horiz-adv-x="1081" d="M139 88v1260q0 44 32.5 76t76.5 32q43 0 75.5 -32t32.5 -76v-465l486 538q30 35 80 35q42 0 73 -30.5t31 -75.5q0 -40 -27 -70l-491 -537l518 -587q27 -30 27 -70q0 -42 -31.5 -74t-75.5 -32q-51 0 -80 36l-510 588v-516q0 -44 -32.5 -76t-75.5 -32q-44 0 -76.5 32 t-32.5 76z" />
<glyph unicode="L" horiz-adv-x="1015" d="M139 133v1215q0 44 33 76t76 32q44 0 76 -33t32 -77v-1139h525q44 0 75 -30t31 -73q0 -44 -30 -74t-74 -30h-611q-55 0 -94 40t-39 93z" />
<glyph unicode="M" horiz-adv-x="1536" d="M139 88v1249q0 49 35.5 84t83.5 35q35 0 63.5 -17.5t43.5 -45.5l403 -721l403 721q15 28 45 45.5t62 17.5q50 0 84.5 -35t34.5 -84v-1249q0 -44 -33 -76t-78 -32q-43 0 -74.5 32t-31.5 76v895l-308 -557q-15 -28 -43.5 -44.5t-60.5 -16.5q-71 0 -104 61l-308 557v-895 q0 -44 -32.5 -76t-75.5 -32q-44 0 -76.5 32t-32.5 76z" />
<glyph unicode="N" horiz-adv-x="1257" d="M139 86v1251q0 49 36 84t83 35q72 0 104 -59l539 -951v904q0 44 33 75t78 31q43 0 74.5 -31t31.5 -75v-1252q0 -50 -36 -84t-83 -34q-67 0 -102 61l-541 948v-903q0 -44 -31.5 -75t-74.5 -31q-45 0 -78 31t-33 75z" />
<glyph unicode="O" horiz-adv-x="1210" d="M102 483v469q0 226 139 365t365 139q224 0 363 -139t139 -365v-469q0 -225 -139 -364t-363 -139q-226 0 -365 138.5t-139 364.5zM319 471q0 -137 75.5 -214t211.5 -77t210.5 77t74.5 214v494q0 137 -74.5 213.5t-210.5 76.5t-211.5 -76.5t-75.5 -213.5v-494z" />
<glyph unicode="P" horiz-adv-x="1114" d="M139 88v1217q0 54 39 92.5t94 38.5h342q193 0 314 -121.5t121 -317.5q0 -193 -119 -310.5t-316 -117.5h-258v-481q0 -44 -32.5 -76t-75.5 -32q-44 0 -76.5 32t-32.5 76zM356 776h258q42 0 77.5 10t68.5 33t52 68.5t19 109.5q0 109 -56.5 170.5t-160.5 61.5h-258v-453z " />
<glyph unicode="Q" horiz-adv-x="1222" d="M102 483v469q0 226 139 365t365 139q224 0 363 -139t139 -365v-469q0 -269 -188 -399l315 -84q35 -9 56.5 -37t21.5 -63q0 -42 -31 -75.5t-76 -33.5q-8 0 -28 4l-723 203q-163 45 -258 173t-95 312zM319 475q0 -137 75.5 -216t211.5 -79q135 0 210 78.5t75 216.5v486 q0 138 -75 216t-210 78q-136 0 -211.5 -78.5t-75.5 -215.5v-486z" />
<glyph unicode="R" horiz-adv-x="1134" d="M139 86v1219q0 54 39 92.5t94 38.5h381q186 0 301 -115q119 -119 119 -307q0 -187 -117 -301q-73 -70 -178 -97l285 -477q16 -26 16 -55q0 -40 -32 -72t-74 -32q-62 0 -90 51l-342 571h-185v-516q0 -44 -32.5 -75t-75.5 -31q-45 0 -77 31t-32 75zM356 809h297q39 0 72 9 t64 30.5t49 64t18 101.5q0 95 -53.5 155t-149.5 60h-297v-420z" />
<glyph unicode="S" horiz-adv-x="1030" d="M80 154q0 44 27 74t71 30q34 0 66 -14q145 -64 266 -64q111 0 173 53.5t62 153.5q0 71 -50.5 126t-127.5 89l-245 109q-119 52 -180.5 142.5t-61.5 211.5q0 89 39.5 164t104.5 123.5t148 76t171 27.5q187 0 338 -67q80 -33 80 -105q0 -40 -30 -69t-73 -29q-20 0 -39 8 q-6 2 -31 12.5t-44.5 17t-51.5 15t-72.5 12.5t-87.5 4q-41 0 -79.5 -9t-74 -28.5t-57.5 -56t-22 -86.5q0 -68 31.5 -107t97.5 -69l234 -102q66 -29 114.5 -59t94.5 -75t70 -107.5t24 -141.5q0 -189 -125.5 -311.5t-329.5 -122.5q-186 0 -367 77q-63 26 -63 97z" />
<glyph unicode="T" horiz-adv-x="1052" d="M10 1331q0 44 30.5 74.5t74.5 30.5h821q44 0 75 -30.5t31 -74.5q0 -43 -31 -72.5t-75 -29.5h-301v-1141q0 -44 -32.5 -76t-76.5 -32t-76 32t-32 76v1141h-303q-44 0 -74.5 29.5t-30.5 72.5z" />
<glyph unicode="U" horiz-adv-x="1261" d="M121 489v859q0 44 33 76t77 32q43 0 75 -32t32 -76v-871q0 -140 77 -218.5t216 -78.5t216 78.5t77 218.5v871q0 44 32 76t76 32q43 0 76 -32t33 -76v-859q0 -229 -140.5 -369t-369.5 -140t-369.5 140t-140.5 369z" />
<glyph unicode="V" horiz-adv-x="1136" d="M18 1350q0 43 32.5 74.5t74.5 31.5q33 0 61.5 -20t38.5 -52l342 -1034l344 1034q10 32 38 52t61 20q45 0 76.5 -33t31.5 -75q0 -18 -6 -33l-432 -1254q-12 -37 -43.5 -59t-69.5 -22q-39 0 -69.5 22.5t-42.5 58.5l-430 1254q-7 21 -7 35z" />
<glyph unicode="W" horiz-adv-x="1646" d="M29 1352q0 42 32 73t72 31q36 0 66 -22t39 -58l239 -944l230 934q9 39 43 64.5t73 25.5t72.5 -26t42.5 -62l229 -940l242 948q9 36 37.5 58t64.5 22q44 0 75.5 -32t31.5 -74q0 -11 -4 -27l-332 -1255q-9 -37 -43 -62.5t-72 -25.5q-40 0 -72.5 26t-41.5 62l-230 927 l-229 -925q-9 -39 -42.5 -64.5t-72.5 -25.5q-41 0 -73 25.5t-41 62.5l-332 1255q-4 20 -4 29z" />
<glyph unicode="X" horiz-adv-x="1110" d="M18 86q0 30 19 59l393 578l-387 567q-18 27 -18 60q0 42 31 74t75 32q58 0 88 -47l336 -502l336 502q30 47 88 47q41 0 72.5 -31.5t31.5 -74.5q0 -33 -18 -60l-387 -567l395 -578q19 -28 19 -59q0 -42 -31.5 -74t-75.5 -32q-58 0 -88 47l-342 512l-342 -512 q-30 -47 -88 -47q-42 0 -74.5 31.5t-32.5 74.5z" />
<glyph unicode="Y" horiz-adv-x="1069" d="M18 1350q0 42 31 74t74 32q64 0 92 -51l320 -561l319 561q28 51 92 51q42 0 73.5 -31t31.5 -75q0 -30 -15 -54l-395 -667v-543q0 -44 -31 -75t-75 -31t-75.5 31t-31.5 75v543l-395 667q-15 24 -15 54z" />
<glyph unicode="Z" horiz-adv-x="1067" d="M37 119q0 36 18 63l688 1047h-593q-44 0 -75.5 29.5t-31.5 72.5q0 44 31.5 74.5t75.5 30.5h753q50 0 84.5 -36t34.5 -83q0 -36 -16 -62l-689 -1048h607q44 0 75 -30t31 -73q0 -44 -31 -74t-75 -30h-768q-50 0 -84.5 36t-34.5 83z" />
<glyph unicode="[" horiz-adv-x="739" d="M121 -193v1682q0 42 30.5 74t75.5 32h279q44 0 74 -28.5t30 -71.5q0 -44 -29.5 -72t-74.5 -28h-174v-1491h174q44 0 74 -29t30 -72t-30 -71.5t-74 -28.5h-279q-43 0 -74.5 29.5t-31.5 74.5z" />
<glyph unicode="\" horiz-adv-x="1118" d="M203 1352q0 40 30.5 72t73.5 32q32 0 60.5 -18.5t40.5 -48.5l499 -1264q8 -19 8 -41q0 -39 -31 -71.5t-73 -32.5q-32 0 -60 18.5t-40 48.5l-500 1264q-8 19 -8 41z" />
<glyph unicode="]" horiz-adv-x="749" d="M139 -197q0 43 30.5 72t74.5 29h174v1491h-174q-45 0 -75 28t-30 72q0 43 30.5 71.5t74.5 28.5h278q45 0 76 -32t31 -74v-1682q0 -44 -32 -74t-75 -30h-278q-44 0 -74.5 28.5t-30.5 71.5z" />
<glyph unicode="^" horiz-adv-x="1116" d="M82 768q0 29 16 53l371 586q28 49 90 49q27 0 51 -13t37 -36l371 -584q16 -24 16 -57q0 -42 -29 -71t-71 -29q-54 0 -86 49l-289 467l-291 -467q-32 -49 -86 -49q-43 0 -71.5 30.5t-28.5 71.5z" />
<glyph unicode="_" horiz-adv-x="1185" d="M37 -240q0 41 28 72t70 31h914q41 0 70.5 -30.5t29.5 -72.5q0 -41 -29.5 -69.5t-70.5 -28.5h-914q-41 0 -69.5 28.5t-28.5 69.5z" />
<glyph unicode="`" horiz-adv-x="890" d="M233 1393q0 43 30.5 71.5t72.5 28.5q29 0 55 -16l215 -131q51 -31 51 -89q0 -43 -30 -71.5t-72 -28.5q-25 0 -59 21l-213 129q-50 29 -50 86z" />
<glyph unicode="a" horiz-adv-x="1015" d="M74 313q0 150 106 236q107 90 293 90h211v72q0 66 -46 109.5t-124 43.5q-73 0 -120.5 -11.5t-100.5 -43.5q-29 -18 -57 -18q-41 0 -71 27t-30 65q0 65 51 94q81 46 161.5 64t193.5 18q164 0 259 -102t95 -246v-553q0 -43 -25 -77t-65 -48q-151 -53 -332 -53 q-186 0 -293 90q-106 89 -106 243zM285 313q0 -15 2 -29t13 -35.5t29.5 -36.5t56 -26.5t87.5 -11.5q100 0 211 27v243h-211q-62 0 -103.5 -14.5t-58 -39t-21.5 -41.5t-5 -36z" />
<glyph unicode="b" horiz-adv-x="1052" d="M129 158v1192q0 44 31.5 75t75.5 31q43 0 73.5 -31t30.5 -75v-344q115 53 213 53q177 0 285 -111q112 -112 112 -299v-258q0 -183 -114 -297q-111 -114 -297 -114q-166 0 -320 53q-40 14 -65 48t-25 77zM340 199q103 -25 199 -25q95 0 147.5 52t52.5 147v293 q0 94 -52.5 146t-147.5 52q-110 0 -199 -73v-592z" />
<glyph unicode="c" horiz-adv-x="901" d="M92 391v258q0 182 113 295q115 115 297 115q149 0 284 -66q60 -28 60 -94q0 -39 -29.5 -67.5t-71.5 -28.5q-21 0 -49 12q-107 49 -194 49q-94 0 -146.5 -52t-52.5 -146v-291q0 -95 52.5 -147t146.5 -52q96 0 200 51q19 11 46 11q39 0 68.5 -28.5t29.5 -70.5 q0 -30 -16.5 -55.5t-45.5 -38.5q-133 -65 -282 -65q-183 0 -297 114q-113 113 -113 297z" />
<glyph unicode="d" horiz-adv-x="1042" d="M92 391v258q0 186 111 297q113 113 299 113q99 0 200 -53v344q0 44 30.5 75t74.5 31t75 -31t31 -75v-1192q0 -43 -25 -77t-65 -48q-154 -53 -321 -53q-183 0 -297 114q-113 113 -113 297zM303 373q0 -95 52.5 -147t146.5 -52q106 0 200 27v590q-85 73 -200 73 q-94 0 -146.5 -52t-52.5 -146v-293z" />
<glyph unicode="e" horiz-adv-x="1005" d="M92 391v258q0 182 113 295q115 115 297 115q185 0 297 -115q114 -114 114 -295v-96q0 -55 -38.5 -94t-94.5 -39h-477q0 -120 41 -176q54 -70 158 -70q101 0 221 53q26 11 43 11q39 0 69.5 -29t30.5 -68q0 -66 -53 -92q-144 -69 -311 -69q-183 0 -297 114 q-113 113 -113 297zM303 614h399q0 250 -200 250q-199 0 -199 -250z" />
<glyph unicode="f" horiz-adv-x="673" d="M129 86v1065q0 126 89.5 215.5t215.5 89.5q55 0 123 -10q38 -6 63 -35.5t25 -67.5q0 -40 -29.5 -68t-72.5 -28q-9 0 -37 6.5t-72 6.5q-38 0 -66 -27.5t-28 -65.5v-129h201q44 0 74 -28.5t30 -71.5q0 -44 -30 -72t-74 -28h-201v-752q0 -44 -30.5 -75t-73.5 -31 q-44 0 -75.5 31t-31.5 75z" />
<glyph unicode="g" horiz-adv-x="1042" d="M92 391v258q0 182 113 295q115 115 297 115q167 0 321 -53q40 -14 65 -48t25 -77v-928q0 -181 -114 -295q-112 -115 -297 -115q-157 0 -297 64q-64 30 -64 94q0 40 30 69t73 29q19 0 47 -12q115 -49 211 -49q93 0 146.5 59.5t53.5 155.5v80q-104 -53 -200 -53 q-183 0 -297 114q-113 113 -113 297zM303 373q0 -95 52.5 -147t146.5 -52q113 0 200 74v590q-102 26 -200 26q-94 0 -146.5 -52t-52.5 -146v-293z" />
<glyph unicode="h" horiz-adv-x="1071" d="M129 86v1264q0 44 31.5 75t75.5 31q43 0 73.5 -31t30.5 -75v-344q115 53 213 53q174 0 285 -111q112 -112 112 -299v-563q0 -44 -31 -75t-75 -31t-74.5 31t-30.5 75v580q0 94 -52.5 146t-147.5 52q-110 0 -199 -73v-705q0 -44 -30.5 -75t-73.5 -31q-44 0 -75.5 31 t-31.5 75z" />
<glyph unicode="i" horiz-adv-x="495" d="M129 1337q0 49 34.5 84t84.5 35t84.5 -35t34.5 -84t-34.5 -83.5t-84.5 -34.5t-84.5 34.5t-34.5 83.5zM141 86v866q0 44 32 75.5t75 31.5q44 0 74 -31t30 -76v-866q0 -44 -30 -75t-74 -31q-43 0 -75 31t-32 75z" />
<glyph unicode="j" horiz-adv-x="532" d="M-45 -350q0 37 22.5 63.5t59.5 34.5q71 17 110 76t39 145v983q0 44 31.5 75.5t75.5 31.5q43 0 73.5 -31.5t30.5 -75.5v-983q0 -148 -72.5 -256t-201.5 -151q-39 -13 -68 -13q-40 0 -70 28.5t-30 72.5zM174 1337q0 49 35 84t84 35t84 -35t35 -84t-34.5 -83.5t-84.5 -34.5 t-84.5 34.5t-34.5 83.5z" />
<glyph unicode="k" horiz-adv-x="940" d="M139 86v1264q0 44 31.5 75t75.5 31q43 0 73.5 -31t30.5 -75v-658l365 338q29 29 73 29q42 0 72.5 -31.5t30.5 -75.5q0 -45 -35 -75l-350 -312l373 -409q24 -24 24 -70q0 -41 -29.5 -73.5t-72.5 -32.5q-53 0 -82 36l-369 424v-354q0 -44 -30.5 -75t-73.5 -31 q-44 0 -75.5 31t-31.5 75z" />
<glyph unicode="l" horiz-adv-x="489" d="M139 86v1264q0 44 31.5 75t75.5 31q43 0 73.5 -31t30.5 -75v-1264q0 -44 -30.5 -75t-73.5 -31q-44 0 -75.5 31t-31.5 75z" />
<glyph unicode="m" horiz-adv-x="1587" d="M129 86v788q0 41 24 75.5t62 49.5q155 60 330 60q148 0 248 -84q128 84 286 84q166 0 276.5 -110.5t110.5 -276.5v-586q0 -44 -31 -75t-75 -31t-74.5 31t-30.5 75v602q0 72 -52 124t-124 52q-94 0 -176 -53v-725q0 -44 -31 -75t-75 -31q-43 0 -74 31t-31 75v629 q0 149 -168 149q-81 0 -184 -28v-750q0 -44 -30.5 -75t-73.5 -31q-44 0 -75.5 31t-31.5 75z" />
<glyph unicode="n" horiz-adv-x="1071" d="M129 86v795q0 43 24.5 77.5t65.5 47.5q151 53 320 53q185 0 297 -115q114 -114 114 -295v-563q0 -44 -31 -75t-75 -31t-74.5 31t-30.5 75v580q0 94 -52.5 146t-147.5 52q-97 0 -199 -26v-752q0 -44 -30.5 -75t-73.5 -31q-44 0 -75.5 31t-31.5 75z" />
<glyph unicode="o" horiz-adv-x="1044" d="M92 410v219q0 192 119 311t311 119q193 0 312 -119q118 -118 118 -311v-219q0 -194 -118 -312t-312 -118q-193 0 -311 118q-119 119 -119 312zM303 391q0 -103 57.5 -160t161.5 -57t161.5 57t57.5 160v254q0 98 -59.5 158.5t-159.5 60.5q-104 0 -161.5 -57.5 t-57.5 -161.5v-254z" />
<glyph unicode="p" horiz-adv-x="1052" d="M129 -350v1231q0 43 25 78t65 47q164 53 320 53q185 0 297 -115q114 -114 114 -295v-258q0 -189 -112 -301q-107 -110 -285 -110q-98 0 -213 53v-383q0 -44 -30.5 -75.5t-73.5 -31.5q-44 0 -75.5 31.5t-31.5 75.5zM340 246q87 -72 199 -72q95 0 147.5 52t52.5 147v293 q0 94 -52.5 146t-147.5 52q-100 0 -199 -24v-594z" />
<glyph unicode="q" horiz-adv-x="1042" d="M92 391v258q0 180 115 295q112 115 297 115q155 0 319 -53q40 -12 65 -47t25 -78v-1231q0 -44 -31 -75.5t-75 -31.5q-43 0 -74 31.5t-31 75.5v383q-115 -53 -213 -53q-177 0 -284 110q-113 113 -113 301zM303 373q0 -95 53 -147t148 -52q111 0 198 72v594q-99 24 -198 24 q-95 0 -148 -52t-53 -146v-293z" />
<glyph unicode="r" horiz-adv-x="700" d="M129 86v668q0 130 87.5 217.5t217.5 87.5q67 0 154 -17q37 -8 60.5 -35.5t23.5 -64.5q0 -42 -28.5 -70t-72.5 -28q-18 0 -34 4q-66 16 -103 16q-38 0 -66 -28t-28 -66v-684q0 -44 -30.5 -75t-73.5 -31q-44 0 -75.5 31t-31.5 75z" />
<glyph unicode="s" horiz-adv-x="882" d="M76 131q0 40 30 71t72 31q19 0 47 -12q89 -47 213 -47q150 0 150 107q0 51 -33 76.5t-104 50.5l-168 61q-197 73 -197 281q0 135 100 222t254 87q167 0 279 -51q31 -12 49 -38.5t18 -58.5q0 -40 -28.5 -69t-69.5 -29q-26 0 -49 10q-84 41 -203 41q-64 0 -101.5 -29 t-37.5 -81q0 -37 24 -63t60 -38l201 -65q217 -72 217 -287q0 -137 -101.5 -229t-263.5 -92q-171 0 -295 57q-63 29 -63 94z" />
<glyph unicode="t" horiz-adv-x="700" d="M129 299v1051q0 44 31.5 75t75.5 31q43 0 73.5 -31t30.5 -75v-312h199q44 0 75 -28.5t31 -71.5q0 -45 -30 -73.5t-76 -28.5h-199v-535q0 -57 26.5 -92t67.5 -35q32 0 62 8t47 8q41 0 71.5 -27t30.5 -71q0 -37 -25.5 -64.5t-64.5 -35.5q-61 -12 -121 -12q-128 0 -216.5 90 t-88.5 229z" />
<glyph unicode="u" horiz-adv-x="1071" d="M121 391v561q0 44 31 75.5t75 31.5q43 0 74 -31.5t31 -75.5v-577q0 -95 52 -147t146 -52q103 0 201 25v751q0 44 30.5 75.5t74.5 31.5t75 -31.5t31 -75.5v-794q0 -43 -25 -77t-65 -48q-151 -53 -322 -53q-191 0 -301 110q-108 108 -108 301z" />
<glyph unicode="v" horiz-adv-x="899" d="M29 952q0 41 30.5 74t73.5 33q33 0 60.5 -18.5t39.5 -51.5l224 -670l207 668q10 32 37.5 52t60.5 20q42 0 75 -31t33 -76q0 -17 -6 -32l-291 -857q-12 -37 -43.5 -60t-70.5 -23q-37 0 -70 25t-43 54l-311 859q-6 18 -6 34z" />
<glyph unicode="w" horiz-adv-x="1443" d="M47 952q0 43 30 75t75 32q35 0 64 -20.5t38 -53.5l182 -623l172 609q11 38 43 63t72 25q38 0 71.5 -27t41.5 -57l172 -613l182 623q9 33 38 53.5t64 20.5q42 0 73.5 -31t31.5 -76q0 -20 -4 -30l-273 -856q-12 -38 -43 -62t-69 -24q-39 0 -71.5 24.5t-43.5 61.5l-170 587 l-170 -585q-11 -38 -43 -63t-72 -25q-39 0 -70.5 23t-43.5 60l-273 859q-4 10 -4 30z" />
<glyph unicode="x" horiz-adv-x="915" d="M47 86q0 30 19 59l268 379l-262 369q-19 28 -19 59q0 42 31.5 74.5t75.5 32.5q55 0 86 -45l211 -309l211 309q29 45 88 45q43 0 73.5 -31.5t30.5 -75.5q0 -32 -18 -59l-262 -369l268 -379q20 -26 20 -59q0 -43 -32 -74.5t-76 -31.5q-57 0 -86 45l-217 319l-217 -319 q-31 -45 -86 -45q-42 0 -74.5 31.5t-32.5 74.5z" />
<glyph unicode="y" horiz-adv-x="935" d="M37 -356q0 40 29.5 68t70.5 30q157 7 197 131l51 168l-338 874q-8 24 -8 39q0 40 32.5 72.5t75.5 32.5q33 0 60 -18.5t37 -49.5l245 -674l211 670q10 32 38 52t61 20q42 0 75 -31t33 -76q0 -17 -6 -32l-366 -1096q-42 -128 -146 -204.5t-248 -76.5q-43 0 -73.5 28.5 t-30.5 72.5z" />
<glyph unicode="z" horiz-adv-x="931" d="M55 119q0 36 25 71l504 648h-418q-44 0 -74.5 28.5t-30.5 71.5t30.5 71.5t74.5 28.5h584q50 0 84 -34t34 -84q0 -42 -20 -68l-508 -651h430q45 0 76 -28.5t31 -70.5q0 -44 -30 -73t-75 -29h-598q-50 0 -84.5 35t-34.5 84z" />
<glyph unicode="{" horiz-adv-x="856" d="M92 649q0 40 27 70.5t67 34.5q56 6 93.5 48t37.5 99v363q0 137 97 234t233 97q46 0 76.5 -28t30.5 -72t-30.5 -72t-76.5 -28q-49 0 -84 -34.5t-35 -84.5v-375q0 -156 -122 -252q122 -96 122 -254v-372q0 -49 35 -84t84 -35q46 0 76.5 -28.5t30.5 -72.5q0 -43 -30 -71.5 t-77 -28.5q-137 0 -233.5 96.5t-96.5 233.5v362q0 57 -37.5 99.5t-93.5 48.5q-40 5 -67 35t-27 71z" />
<glyph unicode="|" horiz-adv-x="653" d="M221 -350v1839q0 44 31.5 75t75.5 31q43 0 73.5 -31t30.5 -75v-1839q0 -44 -30.5 -75.5t-73.5 -31.5q-44 0 -75.5 31.5t-31.5 75.5z" />
<glyph unicode="}" horiz-adv-x="856" d="M102 -197q0 44 30.5 72.5t76.5 28.5q49 0 84 35t35 84v372q0 157 123 254q-123 97 -123 252v375q0 50 -35 84.5t-84 34.5q-46 0 -76.5 28t-30.5 72t30.5 72t76.5 28q136 0 233 -97t97 -234v-363q0 -57 37.5 -99t93.5 -48q40 -4 67 -34.5t27 -70.5q0 -41 -27 -71t-67 -35 q-56 -6 -93.5 -48.5t-37.5 -99.5v-362q0 -137 -96.5 -233.5t-233.5 -96.5q-47 0 -77 28.5t-30 71.5z" />
<glyph unicode="~" horiz-adv-x="1116" d="M51 492q0 89 139 165q79 43 170 43q113 0 250 -82q86 -51 144 -51q33 0 64.5 18.5t51.5 45.5q36 51 91 51q44 0 73 -30t29 -72q0 -90 -139 -166q-76 -43 -170 -43q-109 0 -250 82q-93 51 -144 51q-33 0 -66 -18t-52 -46q-34 -51 -90 -51q-43 0 -72 30.5t-29 72.5z" />
<glyph unicode="&#xa1;" horiz-adv-x="743" d="M240 899q0 55 39 94t94 39q54 0 92.5 -39t38.5 -94q0 -54 -38.5 -92.5t-92.5 -38.5q-55 0 -94 38.5t-39 92.5zM266 -350v823q0 44 31.5 75.5t75.5 31.5q43 0 73.5 -31.5t30.5 -75.5v-823q0 -44 -30.5 -75.5t-73.5 -31.5q-44 0 -75.5 31.5t-31.5 75.5z" />
<glyph unicode="&#xa2;" d="M201 618v199q0 171 104 275q64 64 160 92v166q0 44 31 75t75 31q43 0 74 -31t31 -75v-160q82 -12 166 -51q27 -13 43 -39t16 -56q0 -41 -30 -69.5t-74 -28.5q-22 0 -45 10q-95 45 -172 45q-80 0 -124 -43t-44 -124v-232q0 -81 44 -124.5t124 -43.5q89 0 170 43 q26 15 47 15q42 0 73 -28t31 -71q0 -65 -59 -94q-80 -41 -166 -53v-160q0 -44 -31 -75t-74 -31q-44 0 -75 31t-31 75v168q-91 24 -160 90q-104 104 -104 274z" />
<glyph unicode="&#xa3;" d="M88 106q0 43 31 74q153 153 153 367v178h-79q-44 0 -74.5 28.5t-30.5 71.5t30.5 72t74.5 29h79v141q0 172 109 281q105 108 281 108q122 0 229 -67q49 -32 49 -91q0 -41 -29.5 -69.5t-72.5 -28.5q-32 0 -62 23q-51 39 -114 39q-85 0 -132 -53.5t-47 -141.5v-141h353 q44 0 74 -29t30 -72t-30 -71.5t-74 -28.5h-353v-178q0 -208 -100 -346h487q44 0 74.5 -29t30.5 -72q0 -44 -30 -72t-75 -28h-675q-41 0 -74 31.5t-33 74.5z" />
<glyph unicode="&#xa4;" d="M6 297q0 45 31 76l119 121q-62 105 -62 225q0 118 62 223l-119 121q-31 31 -31 74q0 42 30 74t75 32q44 0 75 -31l121 -120q101 63 223 63q125 0 226 -63l121 120q31 31 73 31t74.5 -30.5t32.5 -75.5q0 -43 -31 -74l-121 -121q64 -103 64 -223q0 -122 -64 -225l119 -119 q31 -31 31 -76q0 -41 -31 -72.5t-74 -31.5q-46 0 -76 30l-118 119q-101 -63 -226 -63q-122 0 -223 63l-121 -121q-30 -30 -73 -30t-75 30t-32 74zM305 719q0 -98 65.5 -168t159.5 -70q93 0 160.5 68t67.5 170q0 98 -67 166.5t-161 68.5q-91 0 -158 -67t-67 -168z" />
<glyph unicode="&#xa5;" d="M14 1350q0 42 31.5 74t75.5 32q59 0 90 -51l319 -549l320 549q31 51 90 51q42 0 75.5 -31.5t33.5 -74.5q0 -29 -17 -56l-295 -479h113q44 0 74 -28.5t30 -71.5q0 -44 -29.5 -72.5t-74.5 -28.5h-213v-182h213q44 0 74 -28.5t30 -71.5t-30 -72t-74 -29h-213v-145 q0 -44 -31.5 -75t-75.5 -31t-74 31t-30 75v145h-215q-44 0 -74.5 29t-30.5 72t30.5 71.5t74.5 28.5h215v182h-215q-44 0 -74.5 28.5t-30.5 72.5q0 43 30.5 71.5t74.5 28.5h113l-295 479q-15 27 -15 56z" />
<glyph unicode="&#xa6;" horiz-adv-x="653" d="M221 279q0 43 31.5 73.5t75.5 30.5q43 0 73.5 -30.5t30.5 -73.5v-629q0 -44 -30.5 -75.5t-73.5 -31.5q-44 0 -75.5 31.5t-31.5 75.5v629zM221 860v629q0 44 31.5 75t75.5 31q43 0 73.5 -31t30.5 -75v-629q0 -44 -30.5 -75t-73.5 -31q-44 0 -75.5 31t-31.5 75z" />
<glyph unicode="&#xa7;" d="M143 -127q0 39 30.5 68.5t72.5 29.5q22 0 45 -10q122 -51 233 -51q67 0 118.5 46.5t51.5 100.5q0 43 -24.5 79.5t-67.5 56.5l-252 116q-95 44 -151 127.5t-56 181.5q0 160 101 279q-101 88 -101 229q0 144 121 242q112 88 260 88q155 0 295 -55q32 -12 50 -37.5t18 -58.5 q0 -42 -28.5 -70.5t-72.5 -28.5q-21 0 -43 11q-99 45 -219 45q-67 0 -118.5 -43.5t-51.5 -92.5q0 -35 23 -66t63 -50l252 -117q98 -46 155.5 -134t57.5 -194q0 -157 -100 -272q100 -87 100 -236q0 -141 -111.5 -241.5t-269.5 -100.5q-161 0 -317 64q-29 12 -46.5 37.5 t-17.5 56.5zM354 618q0 -92 86 -133q0 -1 31 -15t82 -37.5t80 -37.5q61 64 61 170q0 108 -92 152l-178 82q-70 -67 -70 -181z" />
<glyph unicode="&#xa8;" horiz-adv-x="890" d="M133 1354q0 50 34.5 84.5t84.5 34.5t84.5 -34.5t34.5 -84.5t-34.5 -84.5t-84.5 -34.5t-84.5 34.5t-34.5 84.5zM516 1354q0 50 35 84.5t86 34.5q49 0 84 -34.5t35 -84.5t-35 -84.5t-84 -34.5q-51 0 -86 34.5t-35 84.5z" />
<glyph unicode="&#xa9;" horiz-adv-x="1697" d="M111 719q0 200 99 369.5t268.5 268.5t369.5 99q201 0 371 -99t269 -268.5t99 -369.5q0 -150 -58.5 -287t-157.5 -236t-236 -157.5t-287 -58.5q-200 0 -369.5 99t-268.5 269t-99 371zM270 719q0 -160 77.5 -296t210.5 -215t290 -79t290.5 79t211 215t77.5 296 q0 159 -77.5 294.5t-211 214.5t-290.5 79t-290 -79t-210.5 -214.5t-77.5 -294.5zM582 614v207q0 131 80 211q82 82 212 82q93 0 170 -51q39 -22 39 -68q0 -32 -23.5 -51.5t-55.5 -19.5q-20 0 -41 14q-47 29 -89 29q-66 0 -100.5 -34t-34.5 -99v-232q0 -65 34.5 -99 t100.5 -34q40 0 87 29q25 14 43 14q34 0 56.5 -21.5t22.5 -52.5q0 -45 -36 -65q-77 -51 -173 -51q-131 0 -212 81q-80 80 -80 211z" />
<glyph unicode="&#xaa;" horiz-adv-x="747" d="M115 995q0 100 65.5 150.5t184.5 50.5h90v45q0 24 -23.5 45.5t-56.5 22.5q-61 0 -125 -25q-10 -4 -27 -4q-29 0 -50 21.5t-21 52.5q0 52 53 71q88 31 170 31q91 0 165 -60t74 -155v-344q0 -29 -17.5 -54t-45.5 -34q-91 -31 -186 -31q-117 0 -183.5 58t-66.5 159zM274 993 q0 -14 2 -23.5t9.5 -23.5t27.5 -21t52 -7q51 0 90 8v131h-90q-32 0 -52 -6t-27.5 -17.5t-9.5 -19.5t-2 -21z" />
<glyph unicode="&#xab;" horiz-adv-x="1089" d="M111 512q0 44 24 78l203 278q31 45 86 45q42 0 73 -31t31 -75q0 -35 -18 -62l-168 -233l168 -231q18 -27 18 -62q0 -42 -30.5 -74t-73.5 -32q-56 0 -86 43l-201 280q-26 37 -26 76zM561 512q0 42 25 78l200 278q31 45 86 45q45 0 76 -32t31 -74q0 -35 -21 -62l-165 -233 l165 -231q21 -27 21 -64q0 -43 -32.5 -73.5t-74.5 -30.5q-56 0 -86 43l-200 280q-25 36 -25 76z" />
<glyph unicode="&#xac;" d="M49 522q0 43 30.5 72t74.5 29h729q54 0 93.5 -39t39.5 -92v-347q0 -43 -30.5 -73.5t-74.5 -30.5t-75 30.5t-31 73.5v277h-651q-44 0 -74.5 28.5t-30.5 71.5z" />
<glyph unicode="&#xad;" horiz-adv-x="897" d="M111 610q0 41 28 71t70 30h477q41 0 70.5 -30t29.5 -71t-29.5 -70.5t-70.5 -29.5h-477q-41 0 -69.5 29.5t-28.5 70.5z" />
<glyph unicode="&#xae;" horiz-adv-x="1697" d="M111 719q0 200 99 369.5t268.5 268.5t369.5 99q201 0 371 -99t269 -268.5t99 -369.5q0 -150 -58.5 -287t-157.5 -236t-236 -157.5t-287 -58.5q-200 0 -369.5 99t-268.5 269t-99 371zM270 719q0 -160 77.5 -296t210.5 -215t290 -79t290.5 79t211 215t77.5 296 q0 159 -77.5 294.5t-211 214.5t-290.5 79t-290 -79t-210.5 -214.5t-77.5 -294.5zM612 399v621q0 38 27.5 65t65.5 27h182q105 0 176.5 -67.5t71.5 -174.5q0 -76 -37 -131.5t-97 -83.5l123 -217q11 -16 11 -39q0 -32 -22.5 -56t-55.5 -24q-49 0 -70 41l-149 273h-68v-234 q0 -33 -23.5 -56.5t-56.5 -23.5q-32 0 -55 24t-23 56zM770 793h117q54 0 71 21t17 56q0 82 -88 82h-117v-159z" />
<glyph unicode="&#xaf;" horiz-adv-x="858" d="M166 1372q0 41 28 71t70 30h330q41 0 70.5 -30t29.5 -71t-29.5 -69.5t-70.5 -28.5h-330q-41 0 -69.5 28.5t-28.5 69.5z" />
<glyph unicode="&#xb0;" horiz-adv-x="815" d="M92 1141q0 130 92.5 222.5t223.5 92.5q130 0 222.5 -92t92.5 -223t-92.5 -223.5t-222.5 -92.5t-223 92.5t-93 223.5zM272 1141q0 -59 40.5 -99.5t95.5 -40.5t95 41.5t40 98.5q0 59 -40 99t-95 40q-57 0 -96.5 -40.5t-39.5 -98.5z" />
<glyph unicode="&#xb1;" d="M27 100q0 41 28 71t70 30h813q41 0 70.5 -30t29.5 -71t-29.5 -70.5t-70.5 -29.5h-813q-41 0 -69.5 29.5t-28.5 70.5zM27 731q0 43 29.5 71.5t72.5 28.5h297v250q0 44 31.5 75.5t74.5 31.5q44 0 74.5 -31.5t30.5 -75.5v-250h299q43 0 72.5 -28.5t29.5 -71.5t-30 -71.5 t-72 -28.5h-299v-252q0 -44 -30.5 -75.5t-74.5 -31.5q-43 0 -74.5 31.5t-31.5 75.5v252h-297q-42 0 -72 28.5t-30 71.5z" />
<glyph unicode="&#xb2;" horiz-adv-x="761" d="M117 688q0 33 20 60l281 342q51 64 51 112q0 42 -25 69t-75 27q-62 0 -117 -28q-20 -10 -41 -10q-34 0 -58 22t-24 57q0 53 47 74q93 43 201 43q117 0 190.5 -70.5t73.5 -183.5q0 -103 -94 -219l-185 -223h199q37 0 61.5 -23.5t24.5 -58.5t-24.5 -58.5t-61.5 -23.5h-350 q-40 0 -67 27t-27 65z" />
<glyph unicode="&#xb3;" horiz-adv-x="763" d="M111 702q0 34 24 58t60 24q18 0 38 -10q67 -31 134 -31q15 0 33 5.5t37 17t31.5 34.5t12.5 54q0 39 -37.5 69.5t-87.5 30.5h-22q-37 0 -61.5 22.5t-24.5 57.5q0 36 24.5 58t61.5 22h14q46 0 78.5 24.5t32.5 63.5q0 42 -25.5 69t-75.5 27q-61 0 -120 -30q-16 -8 -35 -8 q-34 0 -59 21.5t-25 57.5q0 53 47 74q93 43 201 43q117 0 190.5 -70.5t73.5 -183.5q0 -97 -78 -160q100 -72 100 -188q0 -119 -84 -197q-80 -71 -202 -71q-114 0 -207 43q-49 22 -49 73z" />
<glyph unicode="&#xb4;" horiz-adv-x="890" d="M233 1257q0 57 52 89l215 131q26 16 55 16q42 0 72 -28.5t30 -71.5q0 -58 -49 -86l-213 -129q-34 -21 -59 -21q-42 0 -72.5 28.5t-30.5 71.5z" />
<glyph unicode="&#xb5;" horiz-adv-x="1138" d="M170 -350v1302q0 44 31 75.5t75 31.5q43 0 74 -31.5t31 -75.5v-579q0 -92 52.5 -145.5t146.5 -53.5q105 0 200 25v753q0 44 30.5 75.5t74.5 31.5t75 -31.5t31 -75.5v-794q0 -41 -25.5 -77t-64.5 -48q-161 -53 -321 -53q-122 0 -199 61v-391q0 -44 -31 -75.5t-74 -31.5 q-44 0 -75 31.5t-31 75.5z" />
<glyph unicode="&#xb6;" horiz-adv-x="1116" d="M41 1026q0 107 51.5 200.5t147 151.5t211.5 58h489q53 0 93 -38t40 -93v-1655q0 -44 -31 -75.5t-75 -31.5q-43 0 -74 31.5t-31 75.5v1585h-200v-1585q0 -44 -31 -75.5t-74 -31.5q-44 0 -75 31.5t-31 75.5v966q-170 0 -290 119t-120 291z" />
<glyph unicode="&#xb7;" horiz-adv-x="595" d="M166 606q0 54 39 92.5t94 38.5q54 0 92.5 -38.5t38.5 -92.5q0 -55 -38.5 -94t-92.5 -39q-55 0 -94 38.5t-39 94.5z" />
<glyph unicode="&#xb8;" horiz-adv-x="890" d="M248 -371q0 66 67 84q4 1 18 4t25 5.5t26.5 7t27 9.5t22.5 11.5t17 15t6 17.5q0 19 -13.5 28.5t-52.5 22.5q-47 16 -47 74q0 23 6 47l23 84q19 70 90 70q37 0 64.5 -22.5t27.5 -59.5q0 -9 -4 -29l-12 -43q102 -61 102 -152q0 -147 -199 -231q-64 -29 -106 -29 q-35 0 -61.5 24t-26.5 62z" />
<glyph unicode="&#xb9;" horiz-adv-x="747" d="M139 1270q0 47 43 71l183 103q24 12 45 12q39 0 66.5 -27.5t27.5 -66.5v-690q0 -35 -25.5 -60.5t-60.5 -25.5t-60.5 25.5t-25.5 60.5v567l-64 -35q-25 -14 -47 -14q-33 0 -57.5 23t-24.5 57z" />
<glyph unicode="&#xba;" horiz-adv-x="751" d="M115 1038v156q0 116 72.5 189t187.5 73t188.5 -73t73.5 -189v-156q0 -115 -73 -187.5t-189 -72.5q-115 0 -187.5 72t-72.5 188zM274 1026q0 -100 101 -100q102 0 102 100v180q0 103 -102 103q-101 0 -101 -103v-180z" />
<glyph unicode="&#xbb;" horiz-adv-x="1089" d="M111 217q0 38 20 64l166 231l-166 233q-20 26 -20 62q0 42 30.5 74t75.5 32q55 0 86 -45l201 -278q24 -34 24 -78q0 -42 -24 -76l-201 -280q-30 -43 -86 -43q-42 0 -74 30.5t-32 73.5zM561 219q0 33 19 62l168 231l-168 233q-19 28 -19 62q0 44 31.5 75t73.5 31 q55 0 86 -45l202 -278q25 -36 25 -78q0 -37 -27 -76l-200 -280q-30 -43 -86 -43q-43 0 -74 32t-31 74z" />
<glyph unicode="&#xbc;" horiz-adv-x="1732" d="M74 1270q0 47 43 71l182 103q24 12 45 12q39 0 66.5 -27.5t27.5 -66.5v-690q0 -35 -25.5 -60.5t-60.5 -25.5t-60.5 25.5t-25.5 60.5v567l-63 -35q-25 -14 -47 -14q-33 0 -57.5 23t-24.5 57zM281 59q0 25 14 45l913 1317q21 35 66 35q30 0 54 -22.5t24 -55.5 q0 -26 -15 -47l-911 -1317q-24 -34 -66 -34q-31 0 -55 23t-24 56zM987 250q0 23 6 37l199 508q22 55 80 55q34 0 58 -24t24 -60q0 -18 -6 -33l-158 -405h151v98q0 35 25.5 60.5t60.5 25.5q36 0 61 -25t25 -61v-98h43q35 0 59.5 -23.5t24.5 -58.5t-24.5 -58.5t-59.5 -23.5 h-43v-98q0 -36 -25 -61t-61 -25q-35 0 -60.5 25.5t-25.5 60.5v98h-258q-39 0 -67.5 25t-28.5 61z" />
<glyph unicode="&#xbd;" horiz-adv-x="1787" d="M74 1270q0 47 43 71l182 103q24 12 45 12q39 0 66.5 -27.5t27.5 -66.5v-690q0 -35 -25.5 -60.5t-60.5 -25.5t-60.5 25.5t-25.5 60.5v567l-63 -35q-25 -14 -47 -14q-33 0 -57.5 23t-24.5 57zM262 59q0 25 14 45l914 1317q21 35 65 35q30 0 54 -22.5t24 -55.5 q0 -27 -14 -47l-911 -1317q-24 -34 -66 -34q-32 0 -56 23t-24 56zM1118 92q0 32 21 60l280 331q51 60 51 105q0 42 -25 69t-75 27q-60 0 -117 -29q-20 -10 -41 -10q-34 0 -58 22t-24 58q0 52 48 74q93 43 200 43q117 0 190.5 -70.5t73.5 -183.5q0 -103 -90 -211l-184 -213 h195q37 0 61.5 -23.5t24.5 -58.5t-24.5 -58.5t-61.5 -23.5h-351q-40 0 -67 27t-27 65z" />
<glyph unicode="&#xbe;" horiz-adv-x="1843" d="M90 702q0 34 24 58t60 24q19 0 39 -10q67 -31 133 -31q22 0 46 8.5t46.5 35.5t22.5 67q0 39 -37.5 69.5t-87.5 30.5h-23q-37 0 -61.5 22.5t-24.5 57.5q0 36 24.5 58t61.5 22h15q46 0 78 24.5t32 63.5q0 42 -25 69t-75 27q-62 0 -121 -30q-16 -8 -35 -8q-34 0 -59 21.5 t-25 57.5q0 53 47 74q93 43 201 43q117 0 190.5 -70.5t73.5 -183.5q0 -97 -78 -160q101 -73 101 -188q0 -119 -84 -197q-80 -71 -203 -71q-114 0 -207 43q-49 22 -49 73zM393 59q0 24 15 45l913 1317q21 35 65 35q30 0 54 -22.5t24 -55.5q0 -27 -14 -47l-911 -1317 q-24 -34 -66 -34q-32 0 -56 23t-24 56zM1102 250q0 23 6 37l199 508q22 55 79 55q34 0 58 -24t24 -60q0 -18 -6 -33l-157 -405h151v98q0 35 25.5 60.5t60.5 25.5q36 0 61 -25t25 -61v-98h43q35 0 59.5 -23.5t24.5 -58.5t-24.5 -58.5t-59.5 -23.5h-43v-98q0 -36 -25 -61 t-61 -25q-35 0 -60.5 25.5t-25.5 60.5v98h-258q-39 0 -67.5 25t-28.5 61z" />
<glyph unicode="&#xbf;" horiz-adv-x="983" d="M92 -59q0 92 40 170t112 131l131 94q35 24 35 72v67q0 43 31 74t75 31q43 0 74 -31t31 -74v-55q0 -70 -32 -136.5t-87 -105.5l-121 -86q-78 -55 -78 -160q0 -87 61.5 -140.5t147.5 -53.5q107 0 207 53q25 14 53 14q40 0 70 -29t30 -71q0 -64 -61 -92q-143 -70 -309 -70 q-169 0 -289.5 117t-120.5 281zM383 901q0 55 38.5 94t94.5 39q54 0 92.5 -39t38.5 -94t-38.5 -94t-92.5 -39q-56 0 -94.5 39t-38.5 94z" />
<glyph unicode="&#xc0;" horiz-adv-x="1196" d="M29 86q0 17 6 35l450 1257q12 33 44 55.5t69 22.5q36 0 68.5 -22.5t44.5 -57.5l450 -1255q6 -15 6 -35q0 -42 -30.5 -74t-75.5 -32q-33 0 -60.5 18.5t-39.5 50.5l-111 311h-504l-113 -311q-12 -32 -39 -50.5t-61 -18.5q-42 0 -73 31t-31 75zM352 1776q0 43 30.5 71.5 t72.5 28.5q29 0 55 -16l215 -131q51 -31 51 -89q0 -43 -30 -71.5t-72 -28.5q-26 0 -60 21l-213 129q-49 28 -49 86zM420 567h356l-178 496z" />
<glyph unicode="&#xc1;" horiz-adv-x="1196" d="M29 86q0 17 6 35l450 1257q12 33 44 55.5t69 22.5q36 0 68.5 -22.5t44.5 -57.5l450 -1255q6 -15 6 -35q0 -42 -30.5 -74t-75.5 -32q-33 0 -60.5 18.5t-39.5 50.5l-111 311h-504l-113 -311q-12 -32 -39 -50.5t-61 -18.5q-42 0 -73 31t-31 75zM420 567h356l-178 496z M422 1640q0 58 51 89l215 131q26 16 55 16q42 0 72.5 -28.5t30.5 -71.5q0 -58 -49 -86l-213 -129q-34 -21 -60 -21q-42 0 -72 28.5t-30 71.5z" />
<glyph unicode="&#xc2;" horiz-adv-x="1196" d="M29 86q0 17 6 35l450 1257q12 33 44 55.5t69 22.5q36 0 68.5 -22.5t44.5 -57.5l450 -1255q6 -15 6 -35q0 -42 -30.5 -74t-75.5 -32q-33 0 -60.5 18.5t-39.5 50.5l-111 311h-504l-113 -311q-12 -32 -39 -50.5t-61 -18.5q-42 0 -73 31t-31 75zM293 1640q0 55 45 84l184 127 q36 25 76 25q35 0 76 -25l182 -127q45 -29 45 -84q0 -42 -29 -71t-71 -29q-31 0 -62 21l-141 100l-143 -100q-32 -21 -62 -21q-42 0 -71 29t-29 71zM420 567h356l-178 496z" />
<glyph unicode="&#xc3;" horiz-adv-x="1196" d="M29 86q0 17 6 35l450 1257q12 33 44 55.5t69 22.5q36 0 68.5 -22.5t44.5 -57.5l450 -1255q6 -15 6 -35q0 -42 -30.5 -74t-75.5 -32q-33 0 -60.5 18.5t-39.5 50.5l-111 311h-504l-113 -311q-12 -32 -39 -50.5t-61 -18.5q-42 0 -73 31t-31 75zM279 1716q0 34 18 58 q42 54 92 77q51 25 115 25q79 0 153 -57q16 -13 35 -13q26 0 51 25q36 45 78 45q40 0 68.5 -29.5t28.5 -68.5q0 -33 -19 -58q-43 -53 -92 -75q-62 -27 -115 -27q-85 0 -153 53q-15 12 -35 12q-32 0 -49 -24q-33 -41 -80 -41q-39 0 -67.5 30t-28.5 68zM420 567h356l-178 496z " />
<glyph unicode="&#xc4;" horiz-adv-x="1196" d="M29 86q0 17 6 35l450 1257q12 33 44 55.5t69 22.5q36 0 68.5 -22.5t44.5 -57.5l450 -1255q6 -15 6 -35q0 -42 -30.5 -74t-75.5 -32q-33 0 -60.5 18.5t-39.5 50.5l-111 311h-504l-113 -311q-12 -32 -39 -50.5t-61 -18.5q-42 0 -73 31t-31 75zM287 1737q0 49 34.5 83.5 t84.5 34.5t84 -34.5t34 -83.5q0 -50 -34.5 -84.5t-83.5 -34.5q-50 0 -84.5 35t-34.5 84zM420 567h356l-178 496zM670 1737q0 50 35 84t86 34q49 0 83.5 -34.5t34.5 -83.5q0 -50 -34.5 -84.5t-83.5 -34.5q-51 0 -86 34.5t-35 84.5z" />
<glyph unicode="&#xc5;" horiz-adv-x="1196" d="M29 86q0 17 6 35l450 1257q12 33 44 55.5t69 22.5q36 0 68.5 -22.5t44.5 -57.5l450 -1255q6 -15 6 -35q0 -42 -30.5 -74t-75.5 -32q-33 0 -60.5 18.5t-39.5 50.5l-111 311h-504l-113 -311q-12 -32 -39 -50.5t-61 -18.5q-42 0 -73 31t-31 75zM358 1772q0 98 70 167.5 t168 69.5q100 0 170 -69.5t70 -167.5t-70 -168t-170 -70q-98 0 -168 70t-70 168zM420 567h356l-178 496zM516 1772q0 -35 23 -59.5t57 -24.5q35 0 58.5 23.5t23.5 60.5q0 36 -23 59.5t-59 23.5q-34 0 -57 -24t-23 -59z" />
<glyph unicode="&#xc6;" horiz-adv-x="1736" d="M29 88q0 31 16 55l797 1231q42 62 112 62h596q44 0 75.5 -31.5t31.5 -75.5q0 -42 -31 -71t-76 -29h-510v-381h484q44 0 75 -30.5t31 -74.5q0 -43 -31 -72.5t-75 -29.5h-484v-434h527q43 0 73.5 -30t30.5 -73q0 -44 -30.5 -74t-73.5 -30h-613q-52 0 -91.5 39t-39.5 92v229 h-385l-215 -331q-32 -49 -88 -49q-42 0 -74 32t-32 76zM571 567h252v387z" />
<glyph unicode="&#xc7;" horiz-adv-x="1050" d="M102 510v416q0 238 146 384t383 146q166 0 315 -96q49 -32 49 -88q0 -41 -31 -71t-75 -30q-24 0 -55 17q-108 67 -203 67q-147 0 -229.5 -89t-82.5 -240v-416q0 -151 82.5 -240.5t229.5 -89.5q87 0 200 70q27 18 60 18q42 0 73 -29.5t31 -72.5q0 -58 -49 -90 q-140 -90 -297 -96l-6 -25q102 -61 102 -152q0 -148 -198 -231q-64 -29 -107 -29q-35 0 -61.5 24t-26.5 62q0 66 68 84q4 1 18 4t24.5 5.5t26.5 7t27.5 9.5t22 11.5t16.5 15t6 17.5q0 19 -13.5 28.5t-51.5 22.5q-47 16 -47 74q0 23 6 47l12 45q-169 46 -267 181.5t-98 328.5 z" />
<glyph unicode="&#xc8;" horiz-adv-x="1052" d="M139 131v1174q0 53 39 92t94 39h594q44 0 75.5 -31.5t31.5 -75.5q0 -42 -31 -71t-76 -29h-510v-381h484q44 0 75 -30.5t31 -74.5q0 -43 -31 -72.5t-75 -29.5h-484v-434h525q43 0 74.5 -30.5t31.5 -72.5q0 -44 -31.5 -74t-74.5 -30h-609q-53 0 -93 38t-40 93zM313 1776 q0 43 30.5 71.5t72.5 28.5q29 0 55 -16l215 -131q51 -31 51 -89q0 -43 -30 -71.5t-72 -28.5q-26 0 -60 21l-213 129q-49 28 -49 86z" />
<glyph unicode="&#xc9;" horiz-adv-x="1052" d="M139 131v1174q0 53 39 92t94 39h594q44 0 75.5 -31.5t31.5 -75.5q0 -42 -31 -71t-76 -29h-510v-381h484q44 0 75 -30.5t31 -74.5q0 -43 -31 -72.5t-75 -29.5h-484v-434h525q43 0 74.5 -30.5t31.5 -72.5q0 -44 -31.5 -74t-74.5 -30h-609q-53 0 -93 38t-40 93zM383 1640 q0 58 51 89l215 131q26 16 56 16q42 0 72 -28.5t30 -71.5q0 -58 -49 -86l-213 -129q-34 -21 -60 -21q-42 0 -72 28.5t-30 71.5z" />
<glyph unicode="&#xca;" horiz-adv-x="1052" d="M139 131v1174q0 53 39 92t94 39h594q44 0 75.5 -31.5t31.5 -75.5q0 -42 -31 -71t-76 -29h-510v-381h484q44 0 75 -30.5t31 -74.5q0 -43 -31 -72.5t-75 -29.5h-484v-434h525q43 0 74.5 -30.5t31.5 -72.5q0 -44 -31.5 -74t-74.5 -30h-609q-53 0 -93 38t-40 93zM254 1640 q0 55 45 84l184 127q36 25 76 25q35 0 76 -25l182 -127q45 -29 45 -84q0 -42 -29 -71t-71 -29q-30 0 -62 21l-141 100l-143 -100q-32 -21 -62 -21q-42 0 -71 29t-29 71z" />
<glyph unicode="&#xcb;" horiz-adv-x="1052" d="M139 131v1174q0 53 39 92t94 39h594q44 0 75.5 -31.5t31.5 -75.5q0 -42 -31 -71t-76 -29h-510v-381h484q44 0 75 -30.5t31 -74.5q0 -43 -31 -72.5t-75 -29.5h-484v-434h525q43 0 74.5 -30.5t31.5 -72.5q0 -44 -31.5 -74t-74.5 -30h-609q-53 0 -93 38t-40 93zM248 1737 q0 49 34.5 83.5t84.5 34.5q49 0 83.5 -34.5t34.5 -83.5q0 -50 -34.5 -84.5t-83.5 -34.5t-84 35t-35 84zM631 1737q0 50 35 84t86 34q50 0 84 -34.5t34 -83.5q0 -50 -34.5 -84.5t-83.5 -34.5q-51 0 -86 34.5t-35 84.5z" />
<glyph unicode="&#xcc;" horiz-adv-x="495" d="M12 1776q0 43 30.5 71.5t72.5 28.5q29 0 55 -16l215 -131q51 -31 51 -89q0 -43 -30 -71.5t-72 -28.5q-26 0 -60 21l-213 129q-49 28 -49 86zM139 88v1260q0 44 32.5 76t76.5 32q43 0 75.5 -32t32.5 -76v-1260q0 -44 -32.5 -76t-75.5 -32q-44 0 -76.5 32t-32.5 76z" />
<glyph unicode="&#xcd;" horiz-adv-x="495" d="M84 1640q0 58 51 89l215 131q26 16 56 16q42 0 72 -28.5t30 -71.5q0 -58 -49 -86l-213 -129q-34 -21 -60 -21q-42 0 -72 28.5t-30 71.5zM139 88v1260q0 44 32.5 76t76.5 32q43 0 75.5 -32t32.5 -76v-1260q0 -44 -32.5 -76t-75.5 -32q-44 0 -76.5 32t-32.5 76z" />
<glyph unicode="&#xce;" horiz-adv-x="495" d="M-43 1640q0 55 45 84l184 127q36 25 76 25q35 0 76 -25l182 -127q45 -29 45 -84q0 -42 -29 -71t-71 -29q-31 0 -62 21l-141 100l-143 -100q-32 -21 -62 -21q-42 0 -71 29t-29 71zM139 88v1260q0 44 32.5 76t76.5 32q43 0 75.5 -32t32.5 -76v-1260q0 -44 -32.5 -76 t-75.5 -32q-44 0 -76.5 32t-32.5 76z" />
<glyph unicode="&#xcf;" horiz-adv-x="495" d="M-51 1737q0 49 34.5 83.5t84.5 34.5t84 -34.5t34 -83.5q0 -50 -34.5 -84.5t-83.5 -34.5q-50 0 -84.5 35t-34.5 84zM139 88v1260q0 44 32.5 76t76.5 32q43 0 75.5 -32t32.5 -76v-1260q0 -44 -32.5 -76t-75.5 -32q-44 0 -76.5 32t-32.5 76zM332 1737q0 50 35 84t86 34 q49 0 83.5 -34.5t34.5 -83.5q0 -50 -34.5 -84.5t-83.5 -34.5q-51 0 -86 34.5t-35 84.5z" />
<glyph unicode="&#xd0;" horiz-adv-x="1304" d="M37 743q0 44 30 74.5t74 30.5h95v457q0 54 39 92.5t94 38.5h270q252 0 407.5 -153.5t155.5 -403.5v-322q0 -250 -155.5 -403.5t-407.5 -153.5h-270q-55 0 -94 38.5t-39 92.5v510h-95q-44 0 -74 29.5t-30 72.5zM453 207h188q163 0 253.5 92t90.5 254v330q0 163 -90 254.5 t-254 91.5h-188v-381h192q44 0 75.5 -30.5t31.5 -74.5q0 -43 -31.5 -72.5t-75.5 -29.5h-192v-434z" />
<glyph unicode="&#xd1;" horiz-adv-x="1257" d="M139 86v1251q0 49 36 84t83 35q72 0 104 -59l539 -951v904q0 44 33 75t78 31q43 0 74.5 -31t31.5 -75v-1252q0 -50 -36 -84t-83 -34q-67 0 -102 61l-541 948v-903q0 -44 -31.5 -75t-74.5 -31q-45 0 -78 31t-33 75zM309 1716q0 33 19 58q42 54 92 77q51 25 115 25 q79 0 153 -57q16 -13 35 -13q26 0 51 25q36 45 78 45q40 0 68 -29.5t28 -68.5q0 -34 -18 -58q-43 -53 -92 -75q-62 -27 -115 -27q-86 0 -154 53q-15 12 -34 12q-33 0 -50 -24q-33 -41 -79 -41q-39 0 -68 30t-29 68z" />
<glyph unicode="&#xd2;" horiz-adv-x="1210" d="M102 483v469q0 226 139 365t365 139q224 0 363 -139t139 -365v-469q0 -225 -139 -364t-363 -139q-226 0 -365 138.5t-139 364.5zM319 471q0 -137 75.5 -214t211.5 -77t210.5 77t74.5 214v494q0 137 -74.5 213.5t-210.5 76.5t-211.5 -76.5t-75.5 -213.5v-494zM358 1776 q0 43 30.5 71.5t72.5 28.5q29 0 55 -16l215 -131q51 -31 51 -89q0 -43 -30 -71.5t-72 -28.5q-25 0 -59 21l-213 129q-50 29 -50 86z" />
<glyph unicode="&#xd3;" horiz-adv-x="1210" d="M102 483v469q0 226 139 365t365 139q224 0 363 -139t139 -365v-469q0 -225 -139 -364t-363 -139q-226 0 -365 138.5t-139 364.5zM319 471q0 -137 75.5 -214t211.5 -77t210.5 77t74.5 214v494q0 137 -74.5 213.5t-210.5 76.5t-211.5 -76.5t-75.5 -213.5v-494zM428 1640 q0 58 51 89l215 131q26 16 56 16q42 0 72 -28.5t30 -71.5q0 -58 -49 -86l-213 -129q-34 -21 -60 -21q-42 0 -72 28.5t-30 71.5z" />
<glyph unicode="&#xd4;" horiz-adv-x="1210" d="M102 483v469q0 226 139 365t365 139q224 0 363 -139t139 -365v-469q0 -225 -139 -364t-363 -139q-226 0 -365 138.5t-139 364.5zM299 1640q0 55 45 84l184 127q36 25 76 25q35 0 76 -25l182 -127q45 -29 45 -84q0 -42 -29 -71t-71 -29q-31 0 -62 21l-141 100l-143 -100 q-32 -21 -62 -21q-42 0 -71 29t-29 71zM319 471q0 -137 75.5 -214t211.5 -77t210.5 77t74.5 214v494q0 137 -74.5 213.5t-210.5 76.5t-211.5 -76.5t-75.5 -213.5v-494z" />
<glyph unicode="&#xd5;" horiz-adv-x="1210" d="M102 483v469q0 226 139 365t365 139q224 0 363 -139t139 -365v-469q0 -225 -139 -364t-363 -139q-226 0 -365 138.5t-139 364.5zM285 1716q0 34 18 58q42 54 92 77q51 25 115 25q80 0 154 -57q16 -13 34 -13q27 0 52 25q36 45 77 45q40 0 68.5 -29.5t28.5 -68.5 q0 -33 -19 -58q-43 -53 -92 -75q-62 -27 -115 -27q-85 0 -153 53q-15 12 -35 12q-32 0 -49 -24q-33 -41 -80 -41q-39 0 -67.5 30t-28.5 68zM319 471q0 -137 75.5 -214t211.5 -77t210.5 77t74.5 214v494q0 137 -74.5 213.5t-210.5 76.5t-211.5 -76.5t-75.5 -213.5v-494z" />
<glyph unicode="&#xd6;" horiz-adv-x="1210" d="M102 483v469q0 226 139 365t365 139q224 0 363 -139t139 -365v-469q0 -225 -139 -364t-363 -139q-226 0 -365 138.5t-139 364.5zM293 1737q0 49 34.5 83.5t84.5 34.5t84 -34.5t34 -83.5q0 -50 -34.5 -84.5t-83.5 -34.5q-50 0 -84.5 35t-34.5 84zM319 471 q0 -137 75.5 -214t211.5 -77t210.5 77t74.5 214v494q0 137 -74.5 213.5t-210.5 76.5t-211.5 -76.5t-75.5 -213.5v-494zM676 1737q0 50 35 84t86 34q49 0 83.5 -34.5t34.5 -83.5q0 -50 -34.5 -84.5t-83.5 -34.5q-51 0 -86 34.5t-35 84.5z" />
<glyph unicode="&#xd7;" d="M104 201q0 44 31 75l248 246l-248 246q-31 31 -31 76q0 41 31 73.5t74 32.5q46 0 76 -30l245 -250l248 250q30 30 74 30q42 0 74 -30.5t32 -75.5q0 -46 -30 -76l-248 -246l248 -246q30 -30 30 -75q0 -42 -31 -73.5t-75 -31.5q-43 0 -74 31l-248 248l-245 -248 q-31 -31 -74 -31t-75 30t-32 75z" />
<glyph unicode="&#xd8;" horiz-adv-x="1210" d="M102 483v469q0 226 139 365t365 139q133 0 234 -49l41 88q25 51 80 51q36 0 64 -26.5t28 -63.5q0 -21 -9 -39l-57 -119q121 -133 121 -346v-469q0 -225 -139 -364t-363 -139q-124 0 -235 49l-41 -88q-25 -52 -80 -52q-37 0 -64.5 27.5t-27.5 65.5q0 20 8 36l57 119 q-121 133 -121 346zM319 483q0 -69 15 -121l418 863q-56 30 -146 30q-136 0 -211.5 -76.5t-75.5 -213.5v-482zM459 211q64 -31 147 -31q136 0 210.5 77t74.5 214v481q0 80 -14 121z" />
<glyph unicode="&#xd9;" horiz-adv-x="1261" d="M121 489v859q0 44 33 76t77 32q43 0 75 -32t32 -76v-871q0 -140 77 -218.5t216 -78.5t216 78.5t77 218.5v871q0 44 32 76t76 32q43 0 76 -32t33 -76v-859q0 -229 -140.5 -369t-369.5 -140t-369.5 140t-140.5 369zM385 1776q0 43 30 71.5t72 28.5q30 0 56 -16l215 -131 q51 -31 51 -89q0 -43 -30 -71.5t-72 -28.5q-26 0 -60 21l-213 129q-49 28 -49 86z" />
<glyph unicode="&#xda;" horiz-adv-x="1261" d="M121 489v859q0 44 33 76t77 32q43 0 75 -32t32 -76v-871q0 -140 77 -218.5t216 -78.5t216 78.5t77 218.5v871q0 44 32 76t76 32q43 0 76 -32t33 -76v-859q0 -229 -140.5 -369t-369.5 -140t-369.5 140t-140.5 369zM455 1640q0 58 51 89l215 131q26 16 55 16 q42 0 72.5 -28.5t30.5 -71.5q0 -57 -50 -86l-213 -129q-34 -21 -59 -21q-42 0 -72 28.5t-30 71.5z" />
<glyph unicode="&#xdb;" horiz-adv-x="1261" d="M121 489v859q0 44 33 76t77 32q43 0 75 -32t32 -76v-871q0 -140 77 -218.5t216 -78.5t216 78.5t77 218.5v871q0 44 32 76t76 32q43 0 76 -32t33 -76v-859q0 -229 -140.5 -369t-369.5 -140t-369.5 140t-140.5 369zM326 1640q0 55 45 84l184 127q36 25 76 25q35 0 76 -25 l182 -127q45 -29 45 -84q0 -42 -29 -71t-71 -29q-30 0 -62 21l-141 100l-144 -100q-32 -21 -61 -21q-42 0 -71 29t-29 71z" />
<glyph unicode="&#xdc;" horiz-adv-x="1261" d="M121 489v859q0 44 33 76t77 32q43 0 75 -32t32 -76v-871q0 -140 77 -218.5t216 -78.5t216 78.5t77 218.5v871q0 44 32 76t76 32q43 0 76 -32t33 -76v-859q0 -229 -140.5 -369t-369.5 -140t-369.5 140t-140.5 369zM319 1737q0 49 34.5 83.5t84.5 34.5t84.5 -34.5 t34.5 -83.5t-34.5 -84t-84.5 -35t-84.5 35t-34.5 84zM702 1737q0 50 35 84t86 34q50 0 84.5 -34.5t34.5 -83.5t-35 -84t-84 -35q-51 0 -86 34.5t-35 84.5z" />
<glyph unicode="&#xdd;" horiz-adv-x="1069" d="M18 1350q0 42 31 74t74 32q64 0 92 -51l320 -561l319 561q28 51 92 51q42 0 73.5 -31t31.5 -75q0 -30 -15 -54l-395 -667v-543q0 -44 -31 -75t-75 -31t-75.5 31t-31.5 75v543l-395 667q-15 24 -15 54zM358 1640q0 57 52 89l215 131q26 16 55 16q42 0 72 -28.5t30 -71.5 q0 -58 -49 -86l-213 -129q-34 -21 -59 -21q-42 0 -72.5 28.5t-30.5 71.5z" />
<glyph unicode="&#xde;" horiz-adv-x="1140" d="M139 86v1264q0 44 33 75t78 31q43 0 74.5 -31t31.5 -75v-181h240q201 0 326 -125q127 -127 127 -333q0 -202 -121 -320q-125 -125 -332 -125h-240v-180q0 -44 -31.5 -75t-74.5 -31q-45 0 -78 31t-33 75zM356 473h240q105 0 167 63t62 175q0 111 -59.5 181.5t-169.5 70.5 h-240v-490z" />
<glyph unicode="&#xdf;" horiz-adv-x="1167" d="M121 88v983q0 169 115 278t292 109q175 0 288.5 -95t113.5 -243q0 -56 -12 -99.5t-37.5 -76.5t-40 -47t-45.5 -39q-41 -33 -55.5 -54.5t-14.5 -55.5q0 -25 16.5 -48t38.5 -34l138 -70q85 -42 134.5 -122.5t49.5 -172.5q0 -131 -94.5 -224t-227.5 -93q-126 0 -250 59 q-28 13 -43.5 39.5t-15.5 56.5q0 41 29.5 66.5t74.5 25.5q31 0 48 -10q35 -16 53 -23.5t42.5 -13.5t49.5 -6q51 0 87 32.5t36 90.5q0 47 -23.5 79.5t-46.5 43.5l-135 70q-80 41 -126 107.5t-46 148.5q0 48 12.5 88t37.5 71.5t42 47.5t47 40q36 28 51 54t15 69 q0 71 -57 107.5t-134 36.5q-78 0 -137 -48t-59 -145v-983q0 -43 -31 -73.5t-74 -30.5q-44 0 -75 30.5t-31 73.5z" />
<glyph unicode="&#xe0;" horiz-adv-x="1015" d="M74 313q0 150 106 236q107 90 293 90h211v72q0 66 -46 109.5t-124 43.5q-73 0 -120.5 -11.5t-100.5 -43.5q-29 -18 -57 -18q-41 0 -71 27t-30 65q0 65 51 94q81 46 161.5 64t193.5 18q164 0 259 -102t95 -246v-553q0 -43 -25 -77t-65 -48q-151 -53 -332 -53 q-186 0 -293 90q-106 89 -106 243zM270 1393q0 43 30.5 71.5t72.5 28.5q29 0 55 -16l215 -131q51 -31 51 -89q0 -43 -30 -71.5t-72 -28.5q-26 0 -60 21l-213 129q-49 28 -49 86zM285 313q0 -15 2 -29t13 -35.5t29.5 -36.5t56 -26.5t87.5 -11.5q100 0 211 27v243h-211 q-62 0 -103.5 -14.5t-58 -39t-21.5 -41.5t-5 -36z" />
<glyph unicode="&#xe1;" horiz-adv-x="1015" d="M74 313q0 150 106 236q107 90 293 90h211v72q0 66 -46 109.5t-124 43.5q-73 0 -120.5 -11.5t-100.5 -43.5q-29 -18 -57 -18q-41 0 -71 27t-30 65q0 65 51 94q81 46 161.5 64t193.5 18q164 0 259 -102t95 -246v-553q0 -43 -25 -77t-65 -48q-151 -53 -332 -53 q-186 0 -293 90q-106 89 -106 243zM285 313q0 -15 2 -29t13 -35.5t29.5 -36.5t56 -26.5t87.5 -11.5q100 0 211 27v243h-211q-62 0 -103.5 -14.5t-58 -39t-21.5 -41.5t-5 -36zM317 1257q0 57 52 89l215 131q26 16 55 16q42 0 72 -28.5t30 -71.5q0 -58 -49 -86l-213 -129 q-34 -21 -59 -21q-42 0 -72.5 28.5t-30.5 71.5z" />
<glyph unicode="&#xe2;" horiz-adv-x="1015" d="M74 313q0 150 106 236q107 90 293 90h211v72q0 66 -46 109.5t-124 43.5q-73 0 -120.5 -11.5t-100.5 -43.5q-29 -18 -57 -18q-41 0 -71 27t-30 65q0 65 51 94q81 46 161.5 64t193.5 18q164 0 259 -102t95 -246v-553q0 -43 -25 -77t-65 -48q-151 -53 -332 -53 q-186 0 -293 90q-106 89 -106 243zM203 1257q0 55 45 84l184 127q36 25 76 25q35 0 76 -25l182 -127q45 -29 45 -84q0 -42 -29 -71t-71 -29q-31 0 -62 21l-141 100l-143 -100q-32 -21 -62 -21q-42 0 -71 29t-29 71zM285 313q0 -15 2 -29t13 -35.5t29.5 -36.5t56 -26.5 t87.5 -11.5q100 0 211 27v243h-211q-62 0 -103.5 -14.5t-58 -39t-21.5 -41.5t-5 -36z" />
<glyph unicode="&#xe3;" horiz-adv-x="1015" d="M74 313q0 150 106 236q107 90 293 90h211v72q0 66 -46 109.5t-124 43.5q-73 0 -120.5 -11.5t-100.5 -43.5q-29 -18 -57 -18q-41 0 -71 27t-30 65q0 65 51 94q81 46 161.5 64t193.5 18q164 0 259 -102t95 -246v-553q0 -43 -25 -77t-65 -48q-151 -53 -332 -53 q-186 0 -293 90q-106 89 -106 243zM188 1333q0 33 19 58q42 54 92 77q51 25 115 25q79 0 153 -57q16 -13 35 -13q26 0 51 25q36 45 78 45q40 0 68 -29.5t28 -68.5q0 -34 -18 -58q-43 -53 -92 -75q-62 -27 -115 -27q-85 0 -153 53q-15 12 -35 12q-32 0 -49 -24 q-33 -41 -80 -41q-39 0 -68 30t-29 68zM285 313q0 -15 2 -29t13 -35.5t29.5 -36.5t56 -26.5t87.5 -11.5q100 0 211 27v243h-211q-62 0 -103.5 -14.5t-58 -39t-21.5 -41.5t-5 -36z" />
<glyph unicode="&#xe4;" horiz-adv-x="1015" d="M74 313q0 150 106 236q107 90 293 90h211v72q0 66 -46 109.5t-124 43.5q-73 0 -120.5 -11.5t-100.5 -43.5q-29 -18 -57 -18q-41 0 -71 27t-30 65q0 65 51 94q81 46 161.5 64t193.5 18q164 0 259 -102t95 -246v-553q0 -43 -25 -77t-65 -48q-151 -53 -332 -53 q-186 0 -293 90q-106 89 -106 243zM197 1354q0 50 34.5 84.5t83.5 34.5t84 -34.5t35 -84.5t-35 -84.5t-84 -34.5t-83.5 34.5t-34.5 84.5zM285 313q0 -15 2 -29t13 -35.5t29.5 -36.5t56 -26.5t87.5 -11.5q100 0 211 27v243h-211q-62 0 -103.5 -14.5t-58 -39t-21.5 -41.5 t-5 -36zM580 1354q0 50 34.5 84.5t85.5 34.5q50 0 84.5 -34.5t34.5 -84.5t-34.5 -84.5t-84.5 -34.5q-51 0 -85.5 34.5t-34.5 84.5z" />
<glyph unicode="&#xe5;" horiz-adv-x="1015" d="M74 313q0 150 106 236q107 90 293 90h211v72q0 66 -46 109.5t-124 43.5q-73 0 -120.5 -11.5t-100.5 -43.5q-29 -18 -57 -18q-41 0 -71 27t-30 65q0 65 51 94q81 46 161.5 64t193.5 18q164 0 259 -102t95 -246v-553q0 -43 -25 -77t-65 -48q-151 -53 -332 -53 q-186 0 -293 90q-106 89 -106 243zM268 1386q0 98 70 168t168 70q100 0 169.5 -70t69.5 -168t-69.5 -167.5t-169.5 -69.5q-98 0 -168 69.5t-70 167.5zM285 313q0 -15 2 -29t13 -35.5t29.5 -36.5t56 -26.5t87.5 -11.5q100 0 211 27v243h-211q-62 0 -103.5 -14.5t-58 -39 t-21.5 -41.5t-5 -36zM426 1386q0 -35 23 -59t57 -24q36 0 59 23.5t23 59.5q0 37 -23.5 60.5t-58.5 23.5q-34 0 -57 -24.5t-23 -59.5z" />
<glyph unicode="&#xe6;" horiz-adv-x="1591" d="M74 313q0 107 53 180.5t140 106.5t202 33h211v78q0 60 -51 105.5t-119 45.5q-69 0 -115.5 -12t-103.5 -41q-32 -16 -60 -16q-41 0 -70.5 29t-29.5 69q0 29 15 54.5t40 37.5q87 40 167 57t184 17q74 0 140.5 -32.5t115.5 -88.5q109 123 294 123t297 -115 q115 -115 115 -295v-84q0 -55 -38.5 -94t-94.5 -39h-475q0 -258 196 -258q102 0 222 53q26 11 43 11q39 0 69.5 -29t30.5 -68q0 -66 -53 -92q-144 -69 -312 -69q-90 0 -172.5 31.5t-132.5 101.5q-109 -133 -313 -133q-182 0 -289 90q-106 89 -106 243zM285 313 q0 -139 184 -139q117 0 163 67.5t46 190.5h-209q-54 0 -93 -13t-57.5 -33.5t-26 -38.5t-7.5 -34zM891 633h397q0 124 -49.5 177.5t-151.5 53.5q-95 0 -145.5 -52.5t-50.5 -178.5z" />
<glyph unicode="&#xe7;" horiz-adv-x="901" d="M92 391v258q0 182 113 295q115 115 297 115q149 0 284 -66q60 -28 60 -94q0 -39 -29.5 -67.5t-71.5 -28.5q-21 0 -49 12q-107 49 -194 49q-94 0 -146.5 -52t-52.5 -146v-291q0 -95 52.5 -147t146.5 -52q96 0 200 51q19 11 46 11q39 0 68.5 -28.5t29.5 -70.5 q0 -30 -16.5 -55.5t-45.5 -38.5q-101 -49 -213 -61l-8 -29q48 -29 75.5 -64.5t27.5 -87.5q0 -147 -199 -231q-64 -29 -107 -29q-35 0 -61.5 24t-26.5 62q0 66 68 84q4 1 18 4t24.5 5.5t26.5 7t27.5 9.5t22 11.5t16.5 15t6 17.5q0 19 -13.5 28.5t-51.5 22.5q-47 16 -47 74 q0 23 6 47l10 39q-104 24 -180 100q-113 113 -113 297z" />
<glyph unicode="&#xe8;" horiz-adv-x="1005" d="M92 391v258q0 182 113 295q115 115 297 115q185 0 297 -115q114 -114 114 -295v-96q0 -55 -38.5 -94t-94.5 -39h-477q0 -120 41 -176q54 -70 158 -70q101 0 221 53q26 11 43 11q39 0 69.5 -29t30.5 -68q0 -66 -53 -92q-144 -69 -311 -69q-183 0 -297 114 q-113 113 -113 297zM264 1393q0 43 30.5 71.5t72.5 28.5q29 0 55 -16l215 -131q51 -31 51 -89q0 -43 -30 -71.5t-72 -28.5q-26 0 -60 21l-213 129q-49 28 -49 86zM303 614h399q0 250 -200 250q-199 0 -199 -250z" />
<glyph unicode="&#xe9;" horiz-adv-x="1005" d="M92 391v258q0 182 113 295q115 115 297 115q185 0 297 -115q114 -114 114 -295v-96q0 -55 -38.5 -94t-94.5 -39h-477q0 -120 41 -176q54 -70 158 -70q101 0 221 53q26 11 43 11q39 0 69.5 -29t30.5 -68q0 -66 -53 -92q-144 -69 -311 -69q-183 0 -297 114 q-113 113 -113 297zM303 614h399q0 250 -200 250q-199 0 -199 -250zM311 1257q0 58 51 89l216 131q26 16 55 16q42 0 72 -28.5t30 -71.5q0 -58 -49 -86l-213 -129q-34 -21 -59 -21q-42 0 -72.5 28.5t-30.5 71.5z" />
<glyph unicode="&#xea;" horiz-adv-x="1005" d="M92 391v258q0 182 113 295q115 115 297 115q185 0 297 -115q114 -114 114 -295v-96q0 -55 -38.5 -94t-94.5 -39h-477q0 -120 41 -176q54 -70 158 -70q101 0 221 53q26 11 43 11q39 0 69.5 -29t30.5 -68q0 -66 -53 -92q-144 -69 -311 -69q-183 0 -297 114 q-113 113 -113 297zM197 1257q0 55 45 84l184 127q36 25 76 25q35 0 76 -25l182 -127q45 -29 45 -84q0 -42 -29 -71t-71 -29q-31 0 -62 21l-141 100l-144 -100q-32 -21 -61 -21q-42 0 -71 29t-29 71zM303 614h399q0 250 -200 250q-199 0 -199 -250z" />
<glyph unicode="&#xeb;" horiz-adv-x="1005" d="M92 391v258q0 182 113 295q115 115 297 115q185 0 297 -115q114 -114 114 -295v-96q0 -55 -38.5 -94t-94.5 -39h-477q0 -120 41 -176q54 -70 158 -70q101 0 221 53q26 11 43 11q39 0 69.5 -29t30.5 -68q0 -66 -53 -92q-144 -69 -311 -69q-183 0 -297 114 q-113 113 -113 297zM190 1354q0 50 35 84.5t84 34.5t84 -34.5t35 -84.5t-35 -84.5t-84 -34.5t-84 34.5t-35 84.5zM303 614h399q0 250 -200 250q-199 0 -199 -250zM573 1354q0 50 35 84.5t86 34.5q50 0 84.5 -34.5t34.5 -84.5t-34.5 -84.5t-84.5 -34.5q-51 0 -86 34.5 t-35 84.5z" />
<glyph unicode="&#xec;" horiz-adv-x="495" d="M10 1393q0 43 30.5 71.5t72.5 28.5q29 0 55 -16l215 -131q51 -31 51 -89q0 -43 -30 -71.5t-72 -28.5q-26 0 -60 21l-213 129q-49 28 -49 86zM143 86v866q0 44 31.5 75.5t75.5 31.5q43 0 73.5 -31.5t30.5 -75.5v-866q0 -44 -30.5 -75t-73.5 -31q-44 0 -75.5 31t-31.5 75z " />
<glyph unicode="&#xed;" horiz-adv-x="495" d="M57 1257q0 57 52 89l215 131q26 16 55 16q42 0 72 -28.5t30 -71.5q0 -58 -49 -86l-213 -129q-34 -21 -59 -21q-42 0 -72.5 28.5t-30.5 71.5zM143 86v866q0 44 31.5 75.5t75.5 31.5q43 0 73.5 -31.5t30.5 -75.5v-866q0 -44 -30.5 -75t-73.5 -31q-44 0 -75.5 31t-31.5 75z " />
<glyph unicode="&#xee;" horiz-adv-x="495" d="M-57 1257q0 55 45 84l184 127q36 25 76 25q35 0 76 -25l182 -127q45 -29 45 -84q0 -42 -29 -71t-71 -29q-31 0 -62 21l-141 100l-144 -100q-32 -21 -61 -21q-42 0 -71 29t-29 71zM143 86v866q0 44 31.5 75.5t75.5 31.5q43 0 73.5 -31.5t30.5 -75.5v-866q0 -44 -30.5 -75 t-73.5 -31q-44 0 -75.5 31t-31.5 75z" />
<glyph unicode="&#xef;" horiz-adv-x="495" d="M-63 1354q0 50 34.5 84.5t83.5 34.5t84 -34.5t35 -84.5t-35 -84.5t-84 -34.5t-83.5 34.5t-34.5 84.5zM143 86v866q0 44 31.5 75.5t75.5 31.5q43 0 73.5 -31.5t30.5 -75.5v-866q0 -44 -30.5 -75t-73.5 -31q-44 0 -75.5 31t-31.5 75zM319 1354q0 50 35 84.5t86 34.5 q50 0 84.5 -34.5t34.5 -84.5t-34.5 -84.5t-84.5 -34.5q-51 0 -86 34.5t-35 84.5z" />
<glyph unicode="&#xf0;" horiz-adv-x="1081" d="M92 410v155q0 193 119 312q118 118 311 118q98 0 183 -47q-36 116 -123 199l-191 -94l-23 -8q-6 -1 -10 -1q-31 0 -56.5 23t-25.5 57q0 50 46 72l104 51q-43 16 -72 21q-36 7 -57 33.5t-21 60.5q0 40 28 67t71 27q17 0 33 -4q123 -29 231 -100l199 96q16 8 34 8 q32 0 56 -23t24 -57q0 -49 -45 -71l-141 -70q67 -79 111 -182q75 -181 75 -441v-202q0 -194 -118 -312t-312 -118q-193 0 -311 118q-119 119 -119 312zM303 391q0 -103 57.5 -160t161.5 -57t161.5 57t57.5 160v191q0 98 -59.5 158.5t-159.5 60.5q-104 0 -161.5 -57.5 t-57.5 -161.5v-191z" />
<glyph unicode="&#xf1;" horiz-adv-x="1071" d="M129 86v795q0 43 24.5 77.5t65.5 47.5q151 53 320 53q185 0 297 -115q114 -114 114 -295v-563q0 -44 -31 -75t-75 -31t-74.5 31t-30.5 75v580q0 94 -52.5 146t-147.5 52q-97 0 -199 -26v-752q0 -44 -30.5 -75t-73.5 -31q-44 0 -75.5 31t-31.5 75zM215 1333q0 34 18 58 q41 53 93 77q51 25 114 25q80 0 154 -57q16 -13 35 -13q26 0 51 25q36 45 78 45q40 0 68 -29.5t28 -68.5q0 -34 -18 -58q-42 -52 -93 -75q-62 -27 -114 -27q-86 0 -154 53q-15 12 -35 12q-32 0 -49 -24q-33 -41 -80 -41q-39 0 -67.5 30t-28.5 68z" />
<glyph unicode="&#xf2;" horiz-adv-x="1044" d="M92 410v219q0 192 119 311t311 119q193 0 312 -119q118 -118 118 -311v-219q0 -194 -118 -312t-312 -118q-193 0 -311 118q-119 119 -119 312zM285 1393q0 43 30 71.5t72 28.5q29 0 55 -16l215 -131q52 -32 52 -89q0 -43 -30.5 -71.5t-72.5 -28.5q-25 0 -59 21l-213 129 q-49 28 -49 86zM303 391q0 -103 57.5 -160t161.5 -57t161.5 57t57.5 160v254q0 98 -59.5 158.5t-159.5 60.5q-104 0 -161.5 -57.5t-57.5 -161.5v-254z" />
<glyph unicode="&#xf3;" horiz-adv-x="1044" d="M92 410v219q0 192 119 311t311 119q193 0 312 -119q118 -118 118 -311v-219q0 -194 -118 -312t-312 -118q-193 0 -311 118q-119 119 -119 312zM303 391q0 -103 57.5 -160t161.5 -57t161.5 57t57.5 160v254q0 98 -59.5 158.5t-159.5 60.5q-104 0 -161.5 -57.5 t-57.5 -161.5v-254zM332 1257q0 58 51 89l215 131q26 16 55 16q42 0 72.5 -28.5t30.5 -71.5q0 -58 -49 -86l-213 -129q-34 -21 -60 -21q-42 0 -72 28.5t-30 71.5z" />
<glyph unicode="&#xf4;" horiz-adv-x="1044" d="M92 410v219q0 192 119 311t311 119q193 0 312 -119q118 -118 118 -311v-219q0 -194 -118 -312t-312 -118q-193 0 -311 118q-119 119 -119 312zM217 1257q0 55 45 84l184 127q36 25 76 25q35 0 76 -25l182 -127q45 -29 45 -84q0 -42 -29 -71t-71 -29q-29 0 -61 21 l-142 100l-143 -100q-32 -21 -62 -21q-42 0 -71 29t-29 71zM303 391q0 -103 57.5 -160t161.5 -57t161.5 57t57.5 160v254q0 98 -59.5 158.5t-159.5 60.5q-104 0 -161.5 -57.5t-57.5 -161.5v-254z" />
<glyph unicode="&#xf5;" horiz-adv-x="1044" d="M92 410v219q0 192 119 311t311 119q193 0 312 -119q118 -118 118 -311v-219q0 -194 -118 -312t-312 -118q-193 0 -311 118q-119 119 -119 312zM203 1333q0 34 18 58q42 54 92 77q51 25 115 25q80 0 154 -57q16 -13 34 -13q27 0 52 25q36 45 77 45q40 0 68.5 -29.5 t28.5 -68.5q0 -33 -19 -58q-43 -53 -92 -75q-62 -27 -115 -27q-85 0 -153 53q-15 12 -35 12q-32 0 -49 -24q-33 -41 -80 -41q-39 0 -67.5 30t-28.5 68zM303 391q0 -103 57.5 -160t161.5 -57t161.5 57t57.5 160v254q0 98 -59.5 158.5t-159.5 60.5q-104 0 -161.5 -57.5 t-57.5 -161.5v-254z" />
<glyph unicode="&#xf6;" horiz-adv-x="1044" d="M92 410v219q0 192 119 311t311 119q193 0 312 -119q118 -118 118 -311v-219q0 -194 -118 -312t-312 -118q-193 0 -311 118q-119 119 -119 312zM211 1354q0 50 34.5 84.5t84.5 34.5t84.5 -34.5t34.5 -84.5t-34.5 -84.5t-84.5 -34.5t-84.5 34.5t-34.5 84.5zM303 391 q0 -103 57.5 -160t161.5 -57t161.5 57t57.5 160v254q0 98 -59.5 158.5t-159.5 60.5q-104 0 -161.5 -57.5t-57.5 -161.5v-254zM594 1354q0 50 35 84.5t86 34.5q49 0 84 -34.5t35 -84.5t-35 -84.5t-84 -34.5q-51 0 -86 34.5t-35 84.5z" />
<glyph unicode="&#xf7;" d="M27 522q0 41 28 71t70 30h813q41 0 70.5 -30t29.5 -71t-29.5 -70.5t-70.5 -29.5h-813q-41 0 -69.5 29.5t-28.5 70.5zM401 113q0 56 38 94.5t93 38.5q56 0 95 -39t39 -94t-39 -94t-95 -39q-55 0 -93 38.5t-38 94.5zM401 926q0 56 38 94.5t93 38.5q56 0 95 -39t39 -94 q0 -54 -39.5 -92.5t-94.5 -38.5t-93 38.5t-38 92.5z" />
<glyph unicode="&#xf8;" horiz-adv-x="1044" d="M92 410v219q0 192 119 311t311 119q86 0 168 -29l37 70q25 49 80 49q36 0 63 -27t27 -63q0 -20 -10 -43l-45 -84q110 -119 110 -303v-219q0 -194 -118 -312t-312 -118q-89 0 -168 28l-37 -69q-26 -50 -79 -50q-36 0 -63.5 27.5t-27.5 65.5q0 15 11 41l45 86 q-111 117 -111 301zM303 391q0 -34 10 -76l285 539q-33 10 -76 10q-104 0 -161.5 -57.5t-57.5 -161.5v-254zM446 182q36 -8 76 -8q104 0 161.5 57t57.5 160v254q0 46 -12 78z" />
<glyph unicode="&#xf9;" horiz-adv-x="1071" d="M121 391v561q0 44 31 75.5t75 31.5q43 0 74 -31.5t31 -75.5v-577q0 -95 52 -147t146 -52q103 0 201 25v751q0 44 30.5 75.5t74.5 31.5t75 -31.5t31 -75.5v-794q0 -43 -25 -77t-65 -48q-151 -53 -322 -53q-191 0 -301 110q-108 108 -108 301zM297 1393q0 43 30 71.5 t72 28.5q30 0 56 -16l215 -131q51 -31 51 -89q0 -43 -30.5 -71.5t-72.5 -28.5q-25 0 -59 21l-213 129q-49 28 -49 86z" />
<glyph unicode="&#xfa;" horiz-adv-x="1071" d="M121 391v561q0 44 31 75.5t75 31.5q43 0 74 -31.5t31 -75.5v-577q0 -95 52 -147t146 -52q103 0 201 25v751q0 44 30.5 75.5t74.5 31.5t75 -31.5t31 -75.5v-794q0 -43 -25 -77t-65 -48q-151 -53 -322 -53q-191 0 -301 110q-108 108 -108 301zM354 1257q0 57 52 89l215 131 q26 16 55 16q42 0 72 -28.5t30 -71.5q0 -58 -49 -86l-213 -129q-34 -21 -59 -21q-42 0 -72.5 28.5t-30.5 71.5z" />
<glyph unicode="&#xfb;" horiz-adv-x="1071" d="M121 391v561q0 44 31 75.5t75 31.5q43 0 74 -31.5t31 -75.5v-577q0 -95 52 -147t146 -52q103 0 201 25v751q0 44 30.5 75.5t74.5 31.5t75 -31.5t31 -75.5v-794q0 -43 -25 -77t-65 -48q-151 -53 -322 -53q-191 0 -301 110q-108 108 -108 301zM229 1257q0 55 45 84l185 127 q36 25 76 25q34 0 75 -25l183 -127q45 -29 45 -84q0 -42 -29.5 -71t-71.5 -29q-29 0 -61 21l-141 100l-144 -100q-32 -21 -61 -21q-42 0 -71.5 29t-29.5 71z" />
<glyph unicode="&#xfc;" horiz-adv-x="1071" d="M121 391v561q0 44 31 75.5t75 31.5q43 0 74 -31.5t31 -75.5v-577q0 -95 52 -147t146 -52q103 0 201 25v751q0 44 30.5 75.5t74.5 31.5t75 -31.5t31 -75.5v-794q0 -43 -25 -77t-65 -48q-151 -53 -322 -53q-191 0 -301 110q-108 108 -108 301zM223 1354q0 50 34.5 84.5 t84.5 34.5t84.5 -34.5t34.5 -84.5t-34.5 -84.5t-84.5 -34.5t-84.5 34.5t-34.5 84.5zM606 1354q0 50 35 84.5t86 34.5q49 0 84 -34.5t35 -84.5t-35 -84.5t-84 -34.5q-51 0 -86 34.5t-35 84.5z" />
<glyph unicode="&#xfd;" horiz-adv-x="935" d="M37 -356q0 40 29.5 68t70.5 30q157 7 197 131l51 168l-338 874q-8 24 -8 39q0 40 32.5 72.5t75.5 32.5q33 0 60 -18.5t37 -49.5l245 -674l211 670q10 32 38 52t61 20q42 0 75 -31t33 -76q0 -17 -6 -32l-366 -1096q-42 -128 -146 -204.5t-248 -76.5q-43 0 -73.5 28.5 t-30.5 72.5zM276 1257q0 57 52 89l215 131q26 16 55 16q42 0 72 -28.5t30 -71.5q0 -58 -49 -86l-213 -129q-34 -21 -59 -21q-42 0 -72.5 28.5t-30.5 71.5z" />
<glyph unicode="&#xfe;" horiz-adv-x="1052" d="M129 -350v1700q0 44 31.5 75t75.5 31q43 0 73.5 -31t30.5 -75v-330q98 39 199 39q182 0 297 -115q114 -114 114 -295v-258q0 -183 -114 -297q-111 -114 -297 -114q-103 0 -199 38v-368q0 -44 -30.5 -75.5t-73.5 -31.5q-44 0 -75.5 31.5t-31.5 75.5zM340 246 q87 -72 199 -72q95 0 147.5 52t52.5 147v293q0 94 -52.5 146t-147.5 52q-110 0 -199 -73v-545z" />
<glyph unicode="&#xff;" horiz-adv-x="935" d="M37 -356q0 40 29.5 68t70.5 30q157 7 197 131l51 168l-338 874q-8 24 -8 39q0 40 32.5 72.5t75.5 32.5q33 0 60 -18.5t37 -49.5l245 -674l211 670q10 32 38 52t61 20q42 0 75 -31t33 -76q0 -17 -6 -32l-366 -1096q-42 -128 -146 -204.5t-248 -76.5q-43 0 -73.5 28.5 t-30.5 72.5zM156 1354q0 50 34.5 84.5t83.5 34.5q50 0 84.5 -34.5t34.5 -84.5t-34.5 -84.5t-84.5 -34.5q-49 0 -83.5 34.5t-34.5 84.5zM539 1354q0 50 34.5 84.5t85.5 34.5q49 0 84 -34.5t35 -84.5t-35 -84.5t-84 -34.5q-51 0 -85.5 34.5t-34.5 84.5z" />
<glyph unicode="&#x152;" horiz-adv-x="1808" d="M102 483v469q0 226 139 365t365 139q174 0 303 -90q18 31 50 50.5t69 19.5h594q44 0 75.5 -31.5t31.5 -75.5q0 -42 -31 -71t-76 -29h-512v-381h485q44 0 75.5 -30.5t31.5 -74.5q0 -43 -31.5 -72.5t-75.5 -29.5h-485v-434h526q43 0 75 -30.5t32 -72.5q0 -44 -32 -74 t-75 -30h-608q-37 0 -68.5 19t-48.5 51q-125 -90 -305 -90q-226 0 -365 138.5t-139 364.5zM319 471q0 -137 75.5 -214t211.5 -77t211.5 77t75.5 214v494q0 137 -75.5 213.5t-211.5 76.5t-211.5 -76.5t-75.5 -213.5v-494z" />
<glyph unicode="&#x153;" horiz-adv-x="1652" d="M92 410v219q0 192 119 311t311 119q198 0 318 -131q123 131 309 131q185 0 297 -115q115 -115 115 -295v-96q0 -55 -39 -94t-95 -39h-477q0 -120 41 -176q54 -70 158 -70q101 0 221 53q26 11 43 11q39 0 69.5 -29t30.5 -68q0 -66 -53 -92q-144 -69 -311 -69 q-186 0 -309 129q-120 -129 -318 -129q-193 0 -311 118q-119 119 -119 312zM303 391q0 -103 57.5 -160t161.5 -57t161.5 57t57.5 160v254q0 98 -59.5 158.5t-159.5 60.5q-104 0 -161.5 -57.5t-57.5 -161.5v-254zM950 621h400q0 125 -50.5 184t-150.5 59q-99 0 -149 -58.5 t-50 -184.5z" />
<glyph unicode="&#x178;" horiz-adv-x="1069" d="M18 1350q0 42 31 74t74 32q64 0 92 -51l320 -561l319 561q28 51 92 51q42 0 73.5 -31t31.5 -75q0 -30 -15 -54l-395 -667v-543q0 -44 -31 -75t-75 -31t-75.5 31t-31.5 75v543l-395 667q-15 24 -15 54zM223 1737q0 49 34.5 83.5t84.5 34.5t84.5 -34.5t34.5 -83.5 t-34.5 -84t-84.5 -35t-84.5 35t-34.5 84zM606 1737q0 50 35 84t86 34q50 0 84.5 -34.5t34.5 -83.5t-35 -84t-84 -35q-51 0 -86 34.5t-35 84.5z" />
<glyph unicode="&#x2c6;" horiz-adv-x="890" d="M141 1257q0 55 45 84l185 127q36 25 75 25q35 0 76 -25l183 -127q45 -29 45 -84q0 -42 -29.5 -71t-71.5 -29q-29 0 -61 21l-142 100l-143 -100q-31 -21 -61 -21q-42 0 -71.5 29t-29.5 71z" />
<glyph unicode="&#x2dc;" horiz-adv-x="890" d="M125 1331q0 34 18 58q41 53 93 77q51 25 114 25q80 0 154 -57q16 -13 35 -13q26 0 51 25q36 45 78 45q40 0 68 -29.5t28 -68.5q0 -33 -19 -58q-43 -53 -92 -75q-62 -27 -114 -27q-86 0 -154 53q-15 12 -35 12q-32 0 -49 -24q-33 -41 -80 -41q-39 0 -67.5 30t-28.5 68z " />
<glyph unicode="&#x2000;" horiz-adv-x="1004" />
<glyph unicode="&#x2001;" horiz-adv-x="2009" />
<glyph unicode="&#x2002;" horiz-adv-x="1004" />
<glyph unicode="&#x2003;" horiz-adv-x="2009" />
<glyph unicode="&#x2004;" horiz-adv-x="669" />
<glyph unicode="&#x2005;" horiz-adv-x="502" />
<glyph unicode="&#x2006;" horiz-adv-x="334" />
<glyph unicode="&#x2007;" horiz-adv-x="334" />
<glyph unicode="&#x2008;" horiz-adv-x="251" />
<glyph unicode="&#x2009;" horiz-adv-x="401" />
<glyph unicode="&#x200a;" horiz-adv-x="111" />
<glyph unicode="&#x2010;" horiz-adv-x="897" d="M111 610q0 41 28 71t70 30h477q41 0 70.5 -30t29.5 -71t-29.5 -70.5t-70.5 -29.5h-477q-41 0 -69.5 29.5t-28.5 70.5z" />
<glyph unicode="&#x2011;" horiz-adv-x="897" d="M111 610q0 41 28 71t70 30h477q41 0 70.5 -30t29.5 -71t-29.5 -70.5t-70.5 -29.5h-477q-41 0 -69.5 29.5t-28.5 70.5z" />
<glyph unicode="&#x2012;" horiz-adv-x="897" d="M111 610q0 41 28 71t70 30h477q41 0 70.5 -30t29.5 -71t-29.5 -70.5t-70.5 -29.5h-477q-41 0 -69.5 29.5t-28.5 70.5z" />
<glyph unicode="&#x2013;" horiz-adv-x="1554" d="M221 610q0 41 28 71t70 30h914q41 0 70.5 -30t29.5 -71t-29.5 -70.5t-70.5 -29.5h-914q-41 0 -69.5 29.5t-28.5 70.5z" />
<glyph unicode="&#x2014;" horiz-adv-x="2426" d="M221 610q0 41 28 71t70 30h1786q41 0 71 -30t30 -71t-30 -70.5t-71 -29.5h-1786q-41 0 -69.5 29.5t-28.5 70.5z" />
<glyph unicode="&#x2018;" horiz-adv-x="495" d="M102 1059q0 14 7 35l98 290q10 32 38 52t62 20q45 0 76 -32.5t31 -73.5q0 -17 -6 -35l-99 -291q-10 -32 -38.5 -52t-61.5 -20q-44 0 -75.5 33t-31.5 74z" />
<glyph unicode="&#x2019;" horiz-adv-x="495" d="M82 1059q0 17 6 35l98 290q10 32 38.5 52t62.5 20q44 0 75 -32.5t31 -73.5q0 -17 -6 -35l-98 -291q-10 -32 -39 -52t-62 -20q-44 0 -75 33t-31 74z" />
<glyph unicode="&#x201a;" horiz-adv-x="495" d="M102 -150q0 14 7 35l98 291q10 32 38.5 52t61.5 20q43 0 75 -32t32 -73q0 -16 -6 -34l-99 -291q-10 -33 -38.5 -52.5t-61.5 -19.5q-48 0 -77.5 31t-29.5 73z" />
<glyph unicode="&#x201c;" horiz-adv-x="917" d="M111 1059q0 17 6 35l98 290q10 32 38 52t62 20q45 0 76 -32.5t31 -73.5q0 -17 -6 -35l-99 -291q-10 -32 -38.5 -52t-61.5 -20q-44 0 -75 33t-31 74zM494 1059q0 17 6 35l100 290q10 32 37.5 52t60.5 20q43 0 76 -31t33 -75q0 -17 -6 -35l-101 -291q-10 -32 -38 -52 t-62 -20q-42 0 -74 31.5t-32 75.5z" />
<glyph unicode="&#x201d;" horiz-adv-x="880" d="M82 1059q0 17 6 35l98 290q10 32 38.5 52t62.5 20q44 0 75 -32.5t31 -73.5q0 -17 -6 -35l-98 -291q-10 -32 -39 -52t-62 -20q-44 0 -75 33t-31 74zM465 1059q0 17 6 35l100 290q10 32 38 52t61 20q43 0 75.5 -30.5t32.5 -75.5q0 -17 -6 -35l-100 -291q-10 -32 -38.5 -52 t-62.5 -20q-42 0 -74 31.5t-32 75.5z" />
<glyph unicode="&#x201e;" horiz-adv-x="880" d="M102 -150q0 14 7 35l98 291q10 32 38.5 52t61.5 20q43 0 75 -32t32 -73q0 -16 -6 -34l-99 -291q-10 -33 -38.5 -52.5t-61.5 -19.5q-48 0 -77.5 31t-29.5 73zM485 -150q0 14 7 35l100 291q10 32 37.5 52t60.5 20q42 0 75.5 -31t33.5 -76q0 -17 -6 -32l-101 -291 q-12 -33 -39 -52.5t-61 -19.5q-44 0 -75.5 29t-31.5 75z" />
<glyph unicode="&#x2022;" horiz-adv-x="1052" d="M295 647q0 95 68 163.5t163 68.5q96 0 164 -68t68 -164q0 -97 -67.5 -164t-164.5 -67q-96 0 -163.5 67.5t-67.5 163.5z" />
<glyph unicode="&#x2026;" horiz-adv-x="1654" d="M139 117q0 54 39 92.5t94 38.5q54 0 92.5 -38.5t38.5 -92.5q0 -55 -38.5 -94t-92.5 -39q-56 0 -94.5 39t-38.5 94zM694 117q0 54 39 92.5t94 38.5t94.5 -38.5t39.5 -92.5q0 -55 -39 -94t-95 -39q-55 0 -94 39t-39 94zM1251 117q0 54 38.5 92.5t92.5 38.5q55 0 94.5 -38.5 t39.5 -92.5q0 -55 -39 -94t-95 -39q-54 0 -92.5 39t-38.5 94z" />
<glyph unicode="&#x202f;" horiz-adv-x="401" />
<glyph unicode="&#x2039;" horiz-adv-x="638" d="M111 512q0 44 24 78l201 278q31 45 86 45q43 0 74.5 -31t31.5 -75q0 -36 -20 -62l-166 -233l166 -231q20 -26 20 -64q0 -43 -31 -73.5t-75 -30.5q-56 0 -86 43l-201 280q-24 34 -24 76z" />
<glyph unicode="&#x203a;" horiz-adv-x="638" d="M111 217q0 38 20 64l166 231l-166 233q-20 26 -20 62q0 44 31.5 75t74.5 31q55 0 86 -45l201 -278q24 -34 24 -78q0 -42 -24 -76l-201 -280q-30 -43 -86 -43q-44 0 -75 30.5t-31 73.5z" />
<glyph unicode="&#x205f;" horiz-adv-x="502" />
<glyph unicode="&#x20ac;" d="M18 535q0 44 30 72t75 28h80v174h-80q-45 0 -75 28t-30 70q0 44 30.5 73.5t74.5 29.5h86q29 207 151.5 326.5t331.5 119.5q171 0 316 -96q49 -32 49 -82q0 -42 -29.5 -72t-71.5 -30q-27 0 -63 20q-112 66 -201 66q-118 0 -181.5 -66.5t-88.5 -185.5h319q43 0 74 -29.5 t31 -73.5q0 -42 -31 -70t-74 -28h-327v-174h327q44 0 74.5 -28.5t30.5 -71.5q0 -42 -31 -71.5t-74 -29.5h-321q22 -124 86 -192t186 -68q100 0 201 66q33 22 61 22q42 0 72.5 -29.5t30.5 -72.5q0 -52 -49 -84q-145 -96 -316 -96q-213 0 -336 121t-147 333h-86 q-44 0 -74.5 29t-30.5 72z" />
<glyph unicode="&#x2122;" horiz-adv-x="1689" d="M74 1360q0 33 23 54.5t57 21.5h458q34 0 57 -21.5t23 -54.5q0 -32 -23 -54t-57 -22h-149v-666q0 -32 -23.5 -54.5t-56.5 -22.5t-56.5 22.5t-23.5 54.5v666h-149q-34 0 -57 22t-23 54zM799 618v742q0 37 25.5 62.5t60.5 25.5q54 0 78 -49l206 -414l209 414q24 49 78 49 q35 0 60.5 -25.5t25.5 -62.5v-742q0 -32 -23 -54.5t-57 -22.5q-32 0 -55 22.5t-23 54.5v461l-137 -276q-24 -49 -78 -49q-24 0 -44 14t-31 35l-138 276v-461q0 -32 -22.5 -54.5t-56.5 -22.5q-32 0 -55 22.5t-23 54.5z" />
<glyph unicode="&#x25fc;" horiz-adv-x="1054" d="M0 0v1055h1055v-1055h-1055z" />
</font>
</defs>
</svg>
