<?xml version="1.0" standalone="no"?>
<!DOCTYPE svg PUBLIC "-//W3C//DTD SVG 1.1//EN" "http://www.w3.org/Graphics/SVG/1.1/DTD/svg11.dtd" >
<svg xmlns="http://www.w3.org/2000/svg">
<metadata></metadata>
<defs>
<font id="uni_sanssemibold_italic" horiz-adv-x="1048" >
<font-face units-per-em="2048" ascent="1548" descent="-500" />
<missing-glyph horiz-adv-x="409" />
<glyph unicode="&#xfb01;" horiz-adv-x="1062" d="M-63 -217q76 54 92 180l157 1127q25 177 160.5 270.5t329.5 95.5l-31 -221q-96 0 -160.5 -38.5t-74.5 -106.5l-13 -80h203l-31 -222h-202l-115 -825q-28 -204 -229 -319zM633 0l147 1063h226l-148 -1063h-225zM782 1309q9 61 55.5 102t106.5 41q63 0 97.5 -40.5 t25.5 -102.5q-8 -61 -54.5 -102.5t-109.5 -41.5q-60 0 -94.5 41.5t-26.5 102.5z" />
<glyph unicode="&#xfb02;" horiz-adv-x="1140" d="M-63 -217q76 54 92 180l157 1127q25 177 160.5 270.5t329.5 95.5l-31 -221q-96 0 -160.5 -38.5t-74.5 -106.5l-11 -74h203l-31 -221h-202l-117 -832q-28 -204 -229 -319zM684 344l156 1106h225l-156 -1106q-10 -68 30.5 -111t131.5 -43l-29 -210q-195 0 -288 97t-70 267z " />
<glyph horiz-adv-x="0" />
<glyph horiz-adv-x="682" />
<glyph unicode=" "  horiz-adv-x="409" />
<glyph unicode="&#x09;" horiz-adv-x="409" />
<glyph unicode="&#xa0;" horiz-adv-x="409" />
<glyph unicode="!" horiz-adv-x="481" d="M20 129q9 63 57 106.5t111 43.5t100.5 -43.5t28.5 -106.5t-58 -106t-112 -43t-99.5 43t-27.5 106zM86 356l154 1094h229l-154 -1094h-229z" />
<glyph unicode="&#x22;" horiz-adv-x="722" d="M154 934l71 516h230l-111 -516h-190zM444 934l72 516h229l-110 -516h-191z" />
<glyph unicode="#" horiz-adv-x="1497" d="M25 403l77 224h277q41 82 76 166h-301l77 225h320q58 129 168 385h242l-168 -385h204l168 385h240l-172 -385h268l-92 -225h-274l-68 -166h303l-82 -224h-323q-154 -349 -177 -405h-237l174 405h-207l-174 -405h-240l177 405h-256zM621 627h204l72 166h-205z" />
<glyph unicode="$" horiz-adv-x="1189" d="M12 336l224 92q22 -76 75.5 -126.5t120.5 -68.5l57 414q-38 9 -68 18t-64 21.5t-59.5 25.5t-52 32t-44 40.5t-32 49.5t-20.5 60.5t-5 73t10 87.5q28 165 149 263.5t297 121.5l27 188h213l-27 -188q137 -21 241.5 -106t145.5 -224l-223 -94q-23 78 -76 128t-121 64 l-51 -370q44 -10 79.5 -20t74.5 -25t68.5 -33.5t57.5 -43.5t45.5 -57t28.5 -71t10.5 -89t-12.5 -108q-32 -163 -164.5 -265.5t-304.5 -125.5l-28 -193h-213l28 193q-139 23 -243 108.5t-144 227.5zM379 1040q-14 -66 23.5 -101t119.5 -58l45 323q-71 -20 -123 -62t-65 -100 v-2zM645 233q75 18 132 63t77 107q13 77 -29.5 123.5t-128.5 75.5z" />
<glyph unicode="%" horiz-adv-x="1544" d="M59 -29l1217 1532l170 -121l-1219 -1532zM121 1075q24 168 123 268.5t231 100.5q143 0 209 -97.5t41 -275.5q-24 -172 -123.5 -273.5t-232.5 -101.5q-144 0 -209 98t-39 281zM299 1075q-15 -105 8.5 -153t83.5 -48q126 0 152 197q26 199 -99 199q-116 0 -145 -195z M850 371q24 168 122 268t230 100q143 0 210 -97t42 -275q-24 -172 -123.5 -273.5t-232.5 -101.5q-144 0 -209 98t-39 281zM1028 373q-15 -105 7.5 -153t82.5 -48q128 0 154 197q26 198 -101 198q-117 0 -143 -194z" />
<glyph unicode="&#x26;" horiz-adv-x="1314" d="M41 414q8 56 29.5 106t49.5 87.5t68 73.5t77 61.5t85 52.5q-48 74 -71 139t-13 141q15 105 80.5 185t156.5 119.5t191 39.5q90 0 163.5 -40t112 -115t25.5 -168q-10 -66 -36 -120.5t-68 -96t-84.5 -71t-101.5 -60.5l163 -209l113 151l186 -98l-161 -217l217 -297h-297 l-80 102q-95 -93 -195 -140.5t-225 -47.5q-191 0 -301.5 115.5t-83.5 306.5zM256 414q-13 -95 47.5 -154t163.5 -59q128 0 254 133l-254 307q-42 -24 -72 -45t-62.5 -50t-52 -62.5t-24.5 -69.5zM496 1079q-13 -77 73 -186q187 89 201 197q7 55 -23.5 88.5t-87.5 33.5 q-61 0 -108.5 -37t-54.5 -96z" />
<glyph unicode="'" horiz-adv-x="436" d="M154 932l73 516h226l-101 -516h-198z" />
<glyph unicode="(" horiz-adv-x="600" d="M82 680q32 223 143.5 456t280.5 431l166 -121q-149 -159 -241.5 -366t-119.5 -400q-26 -191 14 -377.5t138 -392.5l-199 -119q-118 206 -165 440t-17 449z" />
<glyph unicode=")" horiz-adv-x="606" d="M-70 -137q150 163 246.5 368t122.5 392q57 398 -145 802l200 121q117 -205 163.5 -454.5t14.5 -468.5q-31 -222 -142.5 -455t-283.5 -432z" />
<glyph unicode="*" horiz-adv-x="913" d="M119 1087l86 199l231 -78l35 246h205l-35 -248l248 76l33 -199l-246 -71l121 -201l-179 -123l-124 205l-177 -205l-153 119l182 207z" />
<glyph unicode="+" horiz-adv-x="1171" d="M55 565l33 230h418l57 405h228l-58 -405h402l-33 -230h-402l-57 -411h-227l57 411h-418z" />
<glyph unicode="," horiz-adv-x="503" d="M-117 -250l228 537h256l-256 -537h-228z" />
<glyph unicode="-" horiz-adv-x="788" d="M90 489l33 230h569l-33 -230h-569z" />
<glyph unicode="." horiz-adv-x="462" d="M16 137q9 63 57 106.5t111 43.5t100.5 -43.5t28.5 -106.5t-58 -106t-112 -43t-99.5 43t-27.5 106z" />
<glyph unicode="/" horiz-adv-x="897" d="M-47 -6l819 1528l199 -74l-817 -1530z" />
<glyph unicode="0" horiz-adv-x="1247" d="M72 412l86 624q15 108 73.5 194t142.5 136.5t178.5 77t190.5 26.5q76 0 147 -16t134 -50.5t107 -84.5t64.5 -123t8.5 -160l-86 -624q-15 -107 -73 -192t-141.5 -136t-178 -77.5t-190.5 -26.5q-76 0 -147.5 16t-134.5 51t-107.5 84.5t-65 122t-8.5 158.5zM299 422 q-8 -54 13 -95.5t62 -64.5t89.5 -34t101.5 -11t104 11t98 34t79.5 64.5t40.5 95.5l88 604q8 56 -12.5 97.5t-61.5 64t-88.5 33t-101.5 10.5t-104.5 -10.5t-98 -33t-80.5 -64t-41 -97.5z" />
<glyph unicode="1" horiz-adv-x="684" d="M70 1073l409 377h197l-205 -1450h-227l155 1094l-174 -162z" />
<glyph unicode="2" horiz-adv-x="1159" d="M-2 162l758 643q77 69 116 145t34 138t-65.5 102.5t-170.5 40.5q-105 0 -196 -51t-146 -144l-195 84q93 166 249.5 258t328.5 92q121 0 211.5 -40t139.5 -105.5t65 -152t-4.5 -177.5t-78.5 -184t-147 -168l-479 -405h602l-33 -238h-942z" />
<glyph unicode="3" horiz-adv-x="1206" d="M0 319l227 101q34 -95 121 -149t191 -54q123 0 219 58.5t110 162.5q17 117 -44 172.5t-187 53.5h-172l29 215h172q92 0 155 45.5t76 130.5q11 88 -56 132t-169 44q-87 0 -169 -43t-141 -129l-190 106q92 145 238.5 225t294.5 80q94 0 175 -26t142.5 -75.5t90.5 -130.5 t15 -183q-12 -84 -58 -156t-136 -111q60 -25 99.5 -64t55.5 -84t20.5 -98t-5.5 -106q-17 -111 -76 -199.5t-143.5 -143t-183.5 -83t-203 -28.5q-168 0 -305.5 87.5t-192.5 249.5z" />
<glyph unicode="4" horiz-adv-x="1150" d="M-2 526l868 924h217l-125 -885h107l-29 -217h-106l-49 -348h-230l49 348h-594zM301 565h434l60 383q67 248 69 248h-30q-144 -199 -154 -211z" />
<glyph unicode="5" horiz-adv-x="1179" d="M18 307l222 99q33 -89 113 -139t175 -50q77 0 146.5 23.5t121 74.5t60.5 121l10 80q7 53 -11 93t-55.5 64t-86 36t-107.5 12q-89 0 -168.5 -19t-177.5 -61l-131 -4l115 811h915l-35 -236h-686l-41 -294q131 39 242 36q78 -1 149 -16.5t133.5 -50t105.5 -84.5t62.5 -123.5 t6.5 -161.5l-13 -84q-13 -88 -53.5 -162.5t-98 -127.5t-130 -90.5t-151 -55.5t-158.5 -18q-157 0 -288 85.5t-186 241.5z" />
<glyph unicode="6" horiz-adv-x="1236" d="M72 414l88 622q15 105 72.5 190t141 137.5t182.5 80t202 26.5q108 0 195.5 -27.5t158 -94.5t105.5 -170l-222 -84q-23 71 -96 104t-174 33q-81 0 -152.5 -22t-123.5 -70.5t-62 -114.5l-31 -213q64 70 152.5 99.5t173.5 29.5q103 -1 192.5 -29t156.5 -80.5t99.5 -137 t18.5 -189.5l-12 -90q-14 -105 -70 -189.5t-138 -136.5t-179.5 -80t-200.5 -28q-83 -1 -158 16t-139 52.5t-108 86t-64 122.5t-8 157zM303 426q-9 -67 29.5 -115.5t103.5 -71t146 -22.5q123 0 218.5 55.5t108.5 153.5l11 76q13 98 -67.5 153.5t-203.5 55.5 q-81 0 -152.5 -22.5t-123 -71.5t-60.5 -115z" />
<glyph unicode="7" horiz-adv-x="1060" d="M-23 0l840 1212h-663l34 238h906l51 -143l-907 -1307h-261z" />
<glyph unicode="8" horiz-adv-x="1253" d="M51 457q6 46 24.5 93t48.5 95t78 89.5t107 66.5q-71 32 -96 109.5t-14 156.5q12 85 48 154t87 114.5t116.5 76.5t134 44.5t142.5 13.5h35q93 0 172.5 -23.5t140.5 -70t89.5 -126t13.5 -183.5q-12 -82 -57 -155.5t-124 -104.5q194 -83 156 -350q-23 -148 -109.5 -257.5 t-213 -164.5t-277.5 -55h-35q-113 0 -205.5 32.5t-155.5 92t-91.5 150.5t-14.5 202zM281 440q-7 -57 14 -104t60.5 -76t89 -45t102.5 -16h37q72 0 143 26.5t126.5 83t64.5 131.5q10 67 -7.5 117t-57 78.5t-90 42.5t-112.5 14h-35q-129 0 -222.5 -61.5t-112.5 -190.5z M428 1073q-12 -95 54.5 -140.5t168.5 -45.5q48 0 95 10t90.5 31t73.5 58.5t36 86.5q11 89 -52.5 142t-160.5 53h-35q-99 0 -179 -53t-91 -142z" />
<glyph unicode="9" horiz-adv-x="1243" d="M39 299l203 94q85 -176 307 -176q129 0 226 52.5t110 150.5l28 205q-51 -63 -141.5 -93t-181.5 -30q-103 1 -192 28.5t-156 80t-100.5 136.5t-20.5 189l12 100q13 104 69 189t139 137t181 80t201 28q83 1 158 -16t139 -52.5t108 -86t64 -122.5t8 -157l-86 -618 q-12 -85 -52 -157t-99 -123t-132.5 -87t-153.5 -53.5t-161 -17.5q-160 0 -291.5 83.5t-185.5 235.5zM352 936q-11 -98 68.5 -152.5t202.5 -54.5q82 0 153.5 22t122.5 70.5t59 114.5l11 88q11 100 -69.5 153.5t-207.5 53.5q-125 0 -222 -54.5t-108 -152.5z" />
<glyph unicode=":" horiz-adv-x="520" d="M45 164q9 64 58 106.5t112 42.5t100.5 -42.5t28.5 -106.5q-9 -63 -58 -105.5t-112 -42.5t-100.5 42.5t-28.5 105.5zM141 850q9 63 58 105t112 42t100.5 -42t28.5 -105t-58 -106.5t-112 -43.5t-100.5 43.5t-28.5 106.5z" />
<glyph unicode=";" horiz-adv-x="544" d="M-80 -250l207 537h274l-256 -537h-225zM143 823q9 63 57.5 105.5t112.5 42.5q63 0 98.5 -42.5t26.5 -105.5t-56 -106t-110 -43q-64 0 -101 43t-28 106z" />
<glyph unicode="&#x3c;" horiz-adv-x="909" d="M37 530l22 158l824 453l-37 -262l-500 -269q20 -13 61.5 -38t135.5 -82.5t227 -141.5l-37 -262z" />
<glyph unicode="=" horiz-adv-x="1087" d="M70 313l30 217h861l-31 -217h-860zM119 664l31 221h860l-31 -221h-860z" />
<glyph unicode="&#x3e;" horiz-adv-x="915" d="M25 86l36 262l506 264l-430 265l37 264l698 -453l-22 -158z" />
<glyph unicode="?" horiz-adv-x="1001" d="M131 1229q95 124 215 182.5t244 58.5q92 0 171.5 -29t137.5 -83t85 -139t11 -189q-27 -189 -147.5 -304.5t-288.5 -141.5l-53 -254h-203l47 448q156 -32 281 62q94 70 124 172q31 105 -28 171q-55 60 -174 60q-66 0 -140.5 -37t-140.5 -106zM238 115q8 57 53.5 98 t103.5 41t93.5 -41t27.5 -98q-8 -54 -55 -94.5t-105 -40.5t-92 40t-26 95z" />
<glyph unicode="@" horiz-adv-x="1542" d="M85.5 525q-8.5 95 8.5 198q21 152 97 288.5t187 235t254.5 156t293.5 57.5q191 0 335 -80t212.5 -219.5t44.5 -310.5q-17 -122 -73 -233.5t-132.5 -189t-167.5 -123.5t-178 -46q-45 0 -81 20t-50 60q-73 -44 -146.5 -54t-132.5 12.5t-103.5 66.5t-64 110.5t-8.5 140.5 q25 172 109 307.5t223 198.5q46 21 101.5 32t110 9.5t95.5 -26.5t51 -72l23 47l147 -29l-215 -622q57 2 120 62t108.5 149.5t58.5 175.5q15 102 -10.5 183.5t-83.5 133t-139 78.5t-179 27q-122 0 -231.5 -47t-186.5 -125t-128.5 -174.5t-69.5 -200.5q-31 -189 43.5 -332.5 t239 -196.5t413.5 27l61 -164q-188 -71 -327 -71q-123 0 -224 26t-172 74t-123 115t-77 149t-33.5 177zM592 616q-8 -49 14 -84.5t64 -35.5q63 0 128 58.5t107 137.5t51 148q8 60 -8 94.5t-57 34.5q-61 1 -115 -32.5t-91 -87.5t-61 -114.5t-32 -118.5z" />
<glyph unicode="A" horiz-adv-x="1284" d="M-92 0l725 1450h248l321 -1450h-248l-90 377h-520l-182 -377h-254zM459 614h358l-67 367l-13 229h-28l-82 -233z" />
<glyph unicode="B" horiz-adv-x="1277" d="M51 0l203 1452h565q124 0 216 -44q91 -43 139 -135q34 -67 35 -153q0 -33 -5 -69q-11 -80 -55.5 -156t-116.5 -119q103 -48 135 -136q21 -57 21 -128q0 -38 -6 -80q-15 -94 -51.5 -167.5t-88 -122.5t-120 -81.5t-144.5 -46.5t-164 -14h-563zM319 227h328h14q115 1 189 49 q80 52 96 164q4 24 4 46q0 80 -50 122q-61 52 -182 51h-9h-328zM410 872h327q95 0 158 46t76 141q2 14 2 27q1 61 -43 95q-52 42 -144 42h-327z" />
<glyph unicode="C" horiz-adv-x="1226" d="M74 446l76 558q16 112 76 202.5t147.5 147t191 86.5t211.5 30q167 0 301.5 -85.5t186.5 -245.5l-226 -105q-37 95 -119.5 147t-181.5 52q-61 0 -120 -14.5t-108.5 -42t-83 -72t-40.5 -100.5l-76 -558q-2 -15 -2 -30q-1 -88 73 -139q86 -60 216 -60q101 0 197.5 51 t158.5 146l199 -99q-100 -162 -260 -248.5t-328 -86.5q-106 0 -199.5 30t-164.5 86t-106 147q-24 62 -24 135q0 33 5 68z" />
<glyph unicode="D" horiz-adv-x="1298" d="M49 0l203 1450h520q109 0 200.5 -27.5t160.5 -81.5q69 -53 101 -143q22 -60 22 -132q0 -35 -5 -73l-77 -544q-16 -114 -72.5 -202.5t-140.5 -141t-183.5 -79t-208.5 -26.5h-520zM317 238h285q85 0 154.5 20.5t119.5 69t60 121.5l78 544q2 16 2 32q0 86 -67 132 q-79 55 -210 55h-284z" />
<glyph unicode="E" horiz-adv-x="1179" d="M51 0l203 1452h956l-32 -238h-719l-53 -370h661l-33 -238h-661l-51 -368h718l-32 -238h-957z" />
<glyph unicode="F" horiz-adv-x="1155" d="M51 0l203 1450h954l-32 -238h-717l-58 -407h629l-35 -238h-628l-78 -567h-238z" />
<glyph unicode="G" horiz-adv-x="1292" d="M74 453l78 555q16 112 76 202t147 145.5t189.5 85t209.5 29.5q169 0 299 -78t184 -237l-227 -106q-32 91 -113 136.5t-182 45.5q-82 0 -155.5 -24.5t-127.5 -78t-65 -127.5l-78 -550q-2 -16 -2 -31q0 -56 31 -99q41 -55 109 -79.5t151 -24.5q84 0 160 24.5t132 79.5 t66 130l15 114h-408l33 228h643l-47 -340q-16 -115 -77 -207t-149 -148.5t-191 -86t-212 -29.5q-108 0 -201.5 29.5t-164.5 86t-105 148.5q-23 63 -23 136q0 34 5 71z" />
<glyph unicode="H" horiz-adv-x="1394" d="M49 0l203 1450h237l-86 -608h646l86 608h237l-203 -1450h-237l84 606h-645l-84 -606h-238z" />
<glyph unicode="I" horiz-adv-x="512" d="M51 0l203 1450h235l-202 -1450h-236z" />
<glyph unicode="J" horiz-adv-x="1220" d="M-14 420l243 39q6 -118 84 -180t187 -62q76 0 145.5 25t121 79t62.5 128l111 782h-360l30 219h598l-141 -1010q-16 -111 -75 -201t-144 -146t-184.5 -86t-202.5 -30q-91 0 -173 28.5t-148 82t-107.5 139.5t-46.5 193z" />
<glyph unicode="K" horiz-adv-x="1286" d="M49 0l203 1450h235l-90 -641l719 641h293l-750 -700l551 -750h-301l-442 582l-117 -103l-65 -479h-236z" />
<glyph unicode="L" horiz-adv-x="1058" d="M51 0l203 1450h235l-170 -1212h662l-33 -238h-897z" />
<glyph unicode="M" horiz-adv-x="1607" d="M49 0l203 1450h264l266 -942l537 942h266l-203 -1450h-237l92 666l100 393h-20l-170 -342l-311 -516h-187l-166 516l-71 348h-21l-14 -401l-92 -664h-236z" />
<glyph unicode="N" horiz-adv-x="1394" d="M49 0l203 1450h250l383 -856l108 -289l17 4l8 312l117 829h237l-203 -1450h-276l-377 840l-96 276l-14 -4l-7 -303l-112 -809h-238z" />
<glyph unicode="O" horiz-adv-x="1368" d="M72 451l80 550q16 113 78.5 204.5t153.5 148t198.5 86.5t220.5 30q89 0 171 -18.5t152 -57t119 -92.5t71 -132q14 -49 14 -103q0 -32 -5 -66l-80 -550q-16 -113 -79.5 -205t-155.5 -148.5t-200 -87t-220 -30.5q-113 0 -212 30.5t-174 87.5q-76 56 -112 148 q-25 64 -25 138q0 33 5 67zM309 453q-2 -15 -2 -29q1 -57 35 -101q44 -55 118 -80.5t165 -25.5q92 0 174 25.5t142 80.5t71 130l78 542q3 17 3 32q0 58 -36 102q-45 55 -119.5 78.5t-167.5 23.5q-92 -1 -172.5 -25t-140 -79t-70.5 -132z" />
<glyph unicode="P" horiz-adv-x="1249" d="M49 0l203 1450h561q97 0 176 -27t131 -73t84.5 -107t42.5 -129q5 -34 5 -69.5t-5 -71.5q-13 -92 -56.5 -176t-113 -150t-172.5 -105.5t-223 -39.5h-330l-69 -502h-234zM383 719h328q126 0 207 75.5t94 174.5q2 18 2 34q0 79 -50 139q-58 71 -174 70h-10h-327z" />
<glyph unicode="Q" horiz-adv-x="1368" d="M72 451l80 550q16 113 78.5 204.5t153.5 148t198.5 86.5t220.5 30q89 0 171 -18.5t152 -57t119 -93t71 -131.5q14 -49 14 -103q0 -32 -5 -66l-80 -550q-23 -161 -137 -275l100 -145l-176 -117l-98 141q-156 -75 -344 -75q-113 0 -212 30.5t-174 87t-112 148.5 q-25 64 -25 138q0 33 5 67zM307 453q-2 -15 -2 -29q0 -57 35 -101q43 -55 117.5 -80.5t165.5 -25.5q100 0 184 23l-92 133l176 114l88 -127q25 43 31 93l80 542q3 17 3 32q0 59 -36 102q-45 55 -119.5 78.5t-167.5 23.5q-144 0 -254.5 -61t-128.5 -175z" />
<glyph unicode="R" horiz-adv-x="1269" d="M49 0l203 1450h561q110 0 195.5 -26t147.5 -78q61 -52 88 -140q18 -58 18 -129q0 -37 -5 -76q-26 -194 -144 -300.5t-298 -131.5l369 -569h-289l-356 561h-174l-78 -561h-238zM393 768h326q268 0 301 231q3 23 3 44q0 82 -51 122q-60 47 -176 47h-14h-325z" />
<glyph unicode="S" horiz-adv-x="1200" d="M10 328l232 98q31 -101 112 -154t187 -53q77 0 143.5 18.5t116.5 60.5t63 103q5 22 5 42q-1 23 -7 43q-12 37 -36.5 60.5t-68.5 41.5t-86.5 28t-101.5 19q-76 12 -140.5 32t-124.5 55.5t-100 81.5q-40 47 -58 116q-12 43 -11 92q0 29 4 61q25 126 116.5 218.5t211 135.5 t250.5 43q85 0 157.5 -16.5t136.5 -51.5t111 -96.5t72 -144.5l-227 -94q-59 186 -281 186q-112 0 -201.5 -50t-107.5 -138q-3 -15 -3 -28q0 -21 7 -39q12 -30 36.5 -50.5t65.5 -38t80 -27.5t90 -20q40 -8 74.5 -16t73.5 -19t70.5 -25t65 -31t59 -38.5t48.5 -47.5t37.5 -57.5 t23.5 -68.5q8 -33 8 -73v-8q-1 -44 -11 -95q-18 -100 -77 -179t-142.5 -126.5t-180 -72.5t-198.5 -25q-173 0 -308 90.5t-186 257.5z" />
<glyph unicode="T" horiz-adv-x="1171" d="M106 1212l35 240h1119l-35 -240h-441l-168 -1212h-237l168 1212h-441z" />
<glyph unicode="U" horiz-adv-x="1374" d="M102 455l142 995h237l-141 -995q-2 -18 -2 -34q0 -90 73 -143q87 -63 218 -63q84 0 159 25.5t130.5 81.5t66.5 133l141 995h238l-141 -995q-13 -92 -55.5 -170.5t-104 -134t-139 -94.5t-160.5 -57.5t-168 -18.5q-108 0 -202.5 30.5t-166.5 87.5q-73 58 -107 150 q-24 63 -23 136q0 35 5 71z" />
<glyph unicode="V" horiz-adv-x="1284" d="M109 1450h251l191 -922q-1 0 7 -68l16 -136l8 -68h20l100 276l453 918h250l-725 -1450h-250z" />
<glyph unicode="W" horiz-adv-x="1894" d="M127 1450h246l129 -907v-17v-50l2 -136l2 -68h18l84 281l326 684h199l129 -688q-1 0 4.5 -68.5t11.5 -136.5l6 -68h19l71 271l381 903h244l-623 -1450h-252l-131 709l-2 182h-14q-4 -11 -10 -30t-19.5 -58.5t-22 -65.5t-7.5 -26l-322 -711h-252z" />
<glyph unicode="X" horiz-adv-x="1273" d="M-90 0l596 723l-389 727h286l275 -545l426 545h287l-596 -727l395 -723h-289l-276 539l-424 -539h-291z" />
<glyph unicode="Y" horiz-adv-x="1226" d="M106 1450h273l258 -659l440 659h277l-631 -887l-78 -563h-237l77 563z" />
<glyph unicode="Z" horiz-adv-x="1208" d="M-29 156l953 1056h-762l35 238h1011l49 -154l-956 -1079h778l-30 -217h-1035z" />
<glyph unicode="[" horiz-adv-x="581" d="M-4 -240l244 1731h395l-31 -217h-164l-182 -1299h164l-31 -215h-395z" />
<glyph unicode="\" horiz-adv-x="894" d="M154 1413l225 74l383 -1495l-223 -72z" />
<glyph unicode="]" horiz-adv-x="579" d="M-53 -238l30 209h160l182 1311h-161l30 211h396l-244 -1731h-393z" />
<glyph unicode="^" horiz-adv-x="1191" d="M102 868l535 578h145l383 -578h-280l-213 314l-293 -314h-277z" />
<glyph unicode="_" horiz-adv-x="1249" d="M4 -158l29 226h1028l-31 -226h-1026z" />
<glyph unicode="`" horiz-adv-x="526" d="M133 1858h305l144 -310h-246z" />
<glyph unicode="a" d="M49 342l53 369q15 101 62 175t116.5 115.5t148.5 60.5t169 19q95 0 197 -26t184 -68l-137 -987h-183l-16 92q-112 -112 -268 -112q-71 0 -135 25.5t-111 71t-69 114.5q-15 45 -15 96q0 26 4 55zM272 342q-2 -13 -2 -25q0 -55 38 -87q46 -38 126 -40h6q54 0 112 17 q60 18 101 49l86 598q-56 35 -147 35h-8q-94 -1 -168 -43q-77 -44 -90 -133z" />
<glyph unicode="b" horiz-adv-x="1044" d="M39 61l194 1391h226l-60 -414q98 43 205 43q79 -1 149 -25.5t123 -69.5q52 -46 78 -116q17 -48 17 -102q0 -26 -4 -53l-54 -379q-21 -96 -68.5 -167t-113.5 -111t-140 -59t-159 -19q-198 0 -393 81zM283 197q63 -29 139 -29h14q94 2 165 43t87 125l55 389v10 q1 73 -55 112q-60 42 -149 42q-91 0 -166 -43z" />
<glyph unicode="c" horiz-adv-x="968" d="M53 352l51 365q13 89 58.5 160t111.5 114.5t142.5 66.5t156.5 23q65 0 124.5 -15.5t112.5 -47t89.5 -87t46.5 -128.5l-215 -78q-10 67 -62 101t-124 36q-79 0 -142.5 -38.5t-72.5 -104.5l-54 -369q-1 -10 -1 -19q0 -55 45 -91q51 -41 126 -41h7q68 2 131.5 40.5 t91.5 104.5l194 -86q-31 -73 -83 -128.5t-114.5 -87t-127 -47t-129.5 -15.5q-79 0 -149 24t-123 69q-52 45 -78 117q-17 48 -17 104q0 28 4 58z" />
<glyph unicode="d" d="M49 336l53 379q24 166 161.5 265t303.5 101q108 0 193 -43l59 414h225l-194 -1391q-215 -81 -414 -81q-86 0 -155.5 18.5t-125.5 58.5t-84 111q-23 58 -23 135q0 16 1 33zM274 336q-1 -9 -1 -17q-1 -71 53 -108q60 -41 153 -43h14q76 0 150 29l90 649q-64 43 -152 43h-12 q-85 -3 -152.5 -45t-86.5 -119z" />
<glyph unicode="e" horiz-adv-x="980" d="M51 352l49 353q13 91 58.5 164.5t111.5 118.5t143 69t158 24t151 -23.5t122.5 -68.5t77.5 -117q16 -47 16 -102q0 -28 -4 -59q-14 -99 -75 -167t-150.5 -99t-202.5 -31q-118 0 -221 41l-13 -103q-2 -14 -2 -26q0 -58 42 -94q50 -44 130 -46h9q61 0 121 26q66 28 106 81 l143 -107q-80 -99 -186 -152.5t-211 -53.5q-78 0 -149.5 24.5t-126.5 69.5q-54 46 -82 118q-19 49 -19 105q0 27 4 55zM309 623q113 -35 211 -35q87 0 138.5 40t54.5 103v7q1 52 -41 90q-44 40 -129 40q-81 0 -145 -47t-76 -125z" />
<glyph unicode="f" horiz-adv-x="589" d="M-63 -217q76 54 92 180l157 1127q25 177 160.5 270.5t329.5 95.5l-31 -221q-96 0 -160.5 -38.5t-74.5 -106.5l-15 -84h203l-31 -222h-202l-113 -821q-28 -204 -229 -319z" />
<glyph unicode="g" horiz-adv-x="1032" d="M-25 -221l154 129q36 -59 107 -96t145 -37q84 0 151.5 66.5t81.5 178.5q-96 -38 -202 -38q-81 1 -151.5 25.5t-123 69.5t-77.5 116q-16 46 -16 99q0 28 5 58l51 359q13 95 62.5 169t121.5 117.5t156 64.5q80 21 166 21h8q101 -2 194 -30t157 -78l-144 -1002 q-11 -78 -43 -143t-77.5 -110t-103 -76t-119 -45.5t-126.5 -14.5q-124 0 -227.5 52t-149.5 145zM270 354q-1 -8 -1 -15q0 -66 50 -101q55 -39 140 -41q105 0 176 47l86 587q-56 43 -150 43h-8q-86 0 -153 -40q-71 -42 -84 -125z" />
<glyph unicode="h" horiz-adv-x="1064" d="M35 0l203 1450h223l-58 -410q103 41 209 41h7q75 1 139 -21q68 -22 119 -66q51 -46 75 -118q16 -47 16 -102q0 -30 -5 -63l-97 -711h-223l96 700q2 14 2 26q1 62 -45 96q-54 40 -143 40q-104 0 -180 -45l-113 -817h-225z" />
<glyph unicode="i" horiz-adv-x="466" d="M33 0l149 1063h226l-150 -1063h-225zM186 1327q9 61 55.5 102t106.5 41q64 0 98 -40q27 -32 26 -78q0 -12 -1 -25q-8 -60 -54.5 -101.5t-109.5 -41.5q-61 0 -95 42q-28 34 -28 79q0 11 2 22z" />
<glyph unicode="j" horiz-adv-x="466" d="M-160 -362q368 0 418 360l150 1065h-226l-149 -1065q-10 -75 -43.5 -112.5t-120.5 -37.5zM184 1327q9 61 56.5 102t107.5 41q62 0 97 -41q28 -33 28 -78q0 -12 -2 -24q-9 -60 -56 -101.5t-108 -41.5q-60 0 -96 42q-29 33 -29 78q0 11 2 23z" />
<glyph unicode="k" horiz-adv-x="1024" d="M35 0l203 1450h225l-115 -817l440 428h283l-510 -490l361 -571h-265l-274 434l-72 -63l-51 -371h-225z" />
<glyph unicode="l" horiz-adv-x="532" d="M74 344l153 1106h226l-154 -1106q-2 -13 -2 -26q1 -51 33 -85q40 -43 131 -43l-29 -210q-195 0 -288 97q-75 78 -75 202q0 31 5 65z" />
<glyph unicode="m" horiz-adv-x="1585" d="M31 0l133 969q78 50 181 81t200 31q98 -2 175 -39.5t111 -109.5q58 70 142 109.5t182 39.5q72 0 136 -25.5t111.5 -71.5t69.5 -118q15 -47 15 -98q0 -28 -4 -57l-99 -711h-223l99 702q3 16 3 31q-1 49 -33 84q-42 45 -110 45t-134 -45.5t-75 -105.5l-98 -711h-221 l100 721q1 11 1 21q1 52 -39 82q-48 36 -124 38h-11q-81 0 -154 -43l-113 -819h-221z" />
<glyph unicode="n" horiz-adv-x="1060" d="M31 0l139 995q183 86 391 86q91 -2 166 -24t133 -65.5t84 -117.5q18 -49 19 -108q0 -29 -5 -61l-98 -705h-223l96 694q1 9 1 17q0 71 -54 109q-60 42 -150 42q-95 0 -159 -37l-115 -825h-225z" />
<glyph unicode="o" horiz-adv-x="1015" d="M51 346l51 369q13 88 59 159t112 115t143 67.5t157 24.5q79 -1 149 -24.5t123.5 -67.5t79.5 -115q17 -47 18 -102q0 -27 -5 -57l-51 -369q-13 -89 -58.5 -160.5t-111.5 -115t-142 -66.5t-155 -24q-81 1 -151.5 24t-124.5 66.5t-80 114.5q-17 47 -17 103q0 28 4 58z M279 356q-2 -11 -1 -22q0 -56 45 -92q54 -43 130 -43q72 0 136.5 43t74.5 114l49 359q2 11 2 21q0 56 -45 88q-53 38 -127 38q-78 0 -141.5 -38.5t-73.5 -108.5z" />
<glyph unicode="p" horiz-adv-x="1046" d="M-18 -346l188 1343q203 84 416 84q90 -1 161.5 -20.5t128 -61t80.5 -114.5q16 -46 16 -103q0 -33 -5 -69l-54 -377q-13 -87 -59 -156.5t-112.5 -112.5t-143.5 -65q-75 -22 -151 -22h-7q-105 0 -184 36l-49 -362h-225zM283 203q74 -25 146 -25h15q91 0 158 38.5t86 119.5 l55 381q2 16 2 30q0 66 -47 100q-56 40 -146 40h-9q-90 0 -168 -35z" />
<glyph unicode="q" d="M51 336l51 377q13 99 58.5 172t114 114.5t146 61t167.5 20.5q213 0 393 -84l-188 -1343h-226l51 362q-91 -36 -200 -36q-79 0 -149.5 23t-124 66t-79.5 113q-18 47 -18 102q0 25 4 52zM276 336v-8q0 -74 53 -110q56 -38 146 -40h15q72 0 155 25l90 649q-70 35 -161 35 h-15q-90 -2 -154 -44t-75 -126z" />
<glyph unicode="r" horiz-adv-x="667" d="M25 0l100 717q15 111 81 196t161 123q109 45 217 45q64 0 118 -12l-28 -199q-33 12 -74 12h-4q-38 0 -78 -11q-42 -11 -77.5 -30.5t-60 -53t-30.5 -74.5l-100 -713h-225z" />
<glyph unicode="s" horiz-adv-x="911" d="M2 231l184 109q31 -72 97.5 -112t136.5 -40q62 0 108 31t56 88q3 22 -5.5 40.5t-22 29.5t-37.5 21t-41 15t-44 11q-335 67 -335 295q0 23 3 47q12 85 51 148t96.5 98.5t121.5 52t135 16.5q93 0 188 -35.5t158 -107.5l-156 -147q-32 35 -94 58.5t-129 24.5h-9 q-112 0 -136 -96q-3 -12 -2 -24q0 -46 42 -74q53 -36 134 -49q55 -10 99 -23.5t88.5 -39t72.5 -59.5q28 -35 42 -87q8 -33 8 -70q0 -22 -3 -47q-15 -106 -80.5 -181.5t-153.5 -109.5t-188 -34q-132 0 -239.5 64.5t-145.5 186.5z" />
<glyph unicode="t" horiz-adv-x="612" d="M72 356l139 969h205l-21 -264h203l-27 -207h-202l-74 -496q-3 -22 -3 -41q0 -23 4 -42q8 -34 25.5 -52.5t50.5 -28.5t61.5 -12t72.5 -2l-27 -194q-16 -3 -41.5 -4.5t-43.5 -1.5h-17q-77 0 -138 22.5t-103 67.5t-60 118q-10 41 -10 88q0 38 6 80z" />
<glyph unicode="u" horiz-adv-x="1062" d="M74 348l100 713h225l-100 -717q-1 -9 -1 -17q0 -71 54 -109q60 -44 150 -44q92 0 162 37l118 850h224l-140 -993q-216 -88 -420 -88q-89 1 -160.5 22t-125 63.5t-76.5 114.5q-15 46 -15 102q0 31 5 66z" />
<glyph unicode="v" horiz-adv-x="1005" d="M72 1061h237l127 -619l4 -211h15l67 211l293 619h240l-525 -1061h-231z" />
<glyph unicode="w" horiz-adv-x="1482" d="M78 1061h227l70 -483l20 -334h4l322 792h213l51 -788h4l103 334l204 479h228l-465 -1061h-228l-43 766h-4l-299 -766h-235z" />
<glyph unicode="x" horiz-adv-x="1017" d="M-66 0l435 530l-287 531h262l178 -356l273 356h258l-420 -531l274 -530h-260l-174 354l-276 -354h-263z" />
<glyph unicode="y" horiz-adv-x="1079" d="M0 -221l154 129q34 -57 105.5 -90t150.5 -33q96 0 164.5 59t84.5 176q-104 -40 -213 -40q-82 2 -154 27.5t-125.5 71t-79.5 116.5q-17 47 -17 100q0 27 4 55l98 711h225l-100 -707q-1 -7 -1 -14q0 -68 56 -109q60 -45 148 -47q111 0 182 47l115 830h223l-154 -1090 q-14 -98 -61 -174.5t-115 -122.5t-146 -70q-76 -22 -156 -22h-7q-125 0 -230 52t-151 145z" />
<glyph unicode="z" horiz-adv-x="962" d="M-20 133l634 715h-501l28 213h725l68 -135l-625 -709h531l-31 -217h-756z" />
<glyph unicode="{" horiz-adv-x="634" d="M49 520l31 211q126 0 158 217l36 264q20 138 90.5 209.5t215.5 71.5h106l-31 -211h-98q-28 0 -38 -18.5t-15 -63.5l-41 -291q-12 -98 -61 -176.5t-109 -105.5q55 -36 80 -110.5t10 -174.5l-41 -297q-6 -35 0 -54.5t20 -19.5h111l-31 -209h-125q-138 0 -182.5 70 t-25.5 209l36 264q31 215 -96 215z" />
<glyph unicode="|" horiz-adv-x="460" d="M-16 -322l256 1811h225l-256 -1811h-225z" />
<glyph unicode="}" horiz-adv-x="636" d="M-49 -238l31 209h88q28 0 41.5 17.5t19.5 56.5l41 297q12 101 58.5 180t109.5 107q-53 18 -79 97.5t-9 182.5l41 291q7 38 0.5 60t-37.5 22h-94l31 211h96q90 0 144.5 -19.5t75 -56.5t24 -89t-8.5 -116l-37 -264q-6 -56 -4 -104.5t28.5 -80.5t74.5 -32l-31 -211 q-129 0 -160 -215l-37 -264q-9 -69 -27.5 -117t-53.5 -86.5t-93.5 -57t-142.5 -18.5h-90z" />
<glyph unicode="~" horiz-adv-x="980" d="M80 618q137 164 278 164q102 0 203 -84q25 -23 45.5 -32t36 -10t36.5 15t36 31.5t47 51.5l139 -131q-133 -185 -295 -185q-16 0 -31.5 2.5t-32.5 9.5t-28 11.5t-29.5 16.5t-25.5 17t-27 19.5t-24 17.5q-38 31 -67 34.5t-55.5 -15t-68.5 -66.5z" />
<glyph unicode="&#xa1;" horiz-adv-x="464" d="M-25 -389l154 1094h229l-153 -1094h-230zM127 932q9 63 58 106t112 43t99.5 -43t27.5 -106t-57 -106.5t-111 -43.5t-100.5 43.5t-28.5 106.5z" />
<glyph unicode="&#xa2;" horiz-adv-x="985" d="M53 350l49 359q11 78 48.5 142.5t91.5 108t118.5 70.5t135.5 37l22 158h152l-23 -158q115 -17 197 -84t100 -188l-215 -78q-9 50 -39.5 82t-75.5 45l-88 -631q107 32 150 129l198 -78q-52 -121 -155.5 -189t-222.5 -83l-21 -148h-151l20 148q-68 10 -124.5 36.5t-98.5 70 t-60.5 108t-7.5 143.5zM276 348q0 -46 27.5 -79.5t73.5 -49.5l86 621q-110 -40 -135 -129z" />
<glyph unicode="&#xa3;" horiz-adv-x="1064" d="M-4 0l29 217h188l55 428h-188l31 209h188l25 184q9 59 29 115.5t58.5 115t91 102t131.5 71.5t173 28q88 0 161 -37.5t117 -113.5l-153 -139q-43 55 -106 68.5t-120 -10t-101.5 -77.5t-53.5 -123l-25 -184h297l-30 -209h-297l-56 -428h496l-29 -217h-911z" />
<glyph unicode="&#xa4;" horiz-adv-x="1247" d="M51 322l117 100q-66 121 -45 280q22 160 123 279l-23 31l-65 71l168 158l92 -111q131 80 289 80q152 0 264 -80l127 111l121 -158l-119 -100q68 -127 47 -281q-25 -163 -127 -280l24 -29l68 -71l-166 -158l-96 110q-130 -79 -287 -79q-148 0 -266 79l-37 -36l-86 -72z M344 700q-17 -120 56 -205t192 -85t216 85t114 205q17 122 -56 208.5t-192 86.5t-216 -86t-114 -209z" />
<glyph unicode="&#xa5;" horiz-adv-x="1298" d="M158 1450h266l248 -627l424 627h270l-514 -721h205l-70 -186h-239l-13 -78h285l-68 -178h-241l-39 -287h-230l39 287h-293l68 178h250l12 78h-289l72 186h168z" />
<glyph unicode="&#xa6;" horiz-adv-x="473" d="M-2 -262l106 758h228l-107 -758h-227zM125 645l106 756h228l-107 -756h-227z" />
<glyph unicode="&#xa7;" horiz-adv-x="962" d="M-20 -23l202 103q13 -42 45 -73t71 -44.5t82 -13.5t79.5 15t63 46.5t32.5 75.5q5 35 -9.5 65t-43 53t-66.5 44t-80.5 42t-85 43.5t-79.5 51.5t-64 62.5t-39 80t-4 101.5q19 147 170 243q-81 95 -64 220q13 90 64 164t121 118.5t154.5 63t162.5 7t146 -61t104 -130.5 l-197 -110q-24 62 -76 84t-103.5 8t-94 -53.5t-49.5 -89.5q-6 -41 18.5 -76t67.5 -62t96.5 -53t106 -57.5t94 -68t63.5 -90.5t13 -120q-21 -153 -150 -243q77 -93 62 -220q-17 -109 -77 -192t-140 -125.5t-173.5 -53.5t-177 12.5t-151 84t-94.5 149.5zM311 633 q-7 -45 13.5 -69.5t66.5 -49.5l156 -80q104 69 112 121q9 66 -100 131l-106 64q-132 -48 -142 -117z" />
<glyph unicode="&#xa8;" horiz-adv-x="696" d="M156 1700q7 60 52.5 100.5t104.5 40.5t93.5 -40.5t27.5 -100.5q-7 -58 -53 -98.5t-105 -40.5q-58 0 -93 40t-27 99zM567 1700q8 60 53 100.5t105 40.5t95.5 -40.5t27.5 -100.5q-8 -59 -54 -99t-106 -40t-94.5 40t-26.5 99z" />
<glyph unicode="&#xa9;" horiz-adv-x="1619" d="M88 719q28 198 150.5 367.5t306.5 268.5t383 99q148 0 276 -58.5t212.5 -157.5t124 -235t18.5 -284q-28 -199 -151 -368.5t-306 -268t-381 -98.5q-200 0 -355.5 98.5t-230.5 267.5t-47 369zM274 719q-21 -149 35 -276t172.5 -201t266.5 -74q148 0 284.5 74t227.5 201 t112 276q21 150 -35 276.5t-172 199.5t-264 73q-150 0 -287 -73t-228 -199.5t-112 -276.5zM412 600q-12 -84 12.5 -151.5t75.5 -109t117.5 -63.5t142.5 -22q85 0 164.5 24.5t154 86t113.5 153.5l-188 74q-23 -54 -70 -87.5t-99 -39.5t-100 5t-78.5 45.5t-29.5 82.5l30 231 q13 48 54 82.5t92 45.5t101.5 5.5t88 -39t45.5 -87.5l205 73q-10 70 -44.5 122.5t-84.5 83t-106.5 45t-118.5 14.5q-60 0 -119 -13.5t-114 -42t-99 -68.5t-74.5 -97.5t-40.5 -125.5z" />
<glyph unicode="&#xaa;" horiz-adv-x="794" d="M117 913q10 65 40 113t73 75t90 39.5t98 12.5q68 0 121 -18q9 59 -22.5 90.5t-84.5 31.5q-91 0 -162 -71l-88 96q61 76 147.5 116t174.5 40q124 0 201.5 -73.5t58.5 -203.5l-68 -477q-162 -43 -293 -43q-146 0 -226 63.5t-60 208.5zM324 918q-6 -53 26.5 -77t83.5 -24 q26 0 62 8l22 162q-27 12 -65 12q-47 0 -84 -20.5t-45 -60.5z" />
<glyph unicode="&#xab;" horiz-adv-x="997" d="M53 596l367 451l178 -117l-274 -334l180 -336l-211 -115zM422 596l364 451l181 -117l-275 -336q0 -1 180 -332l-213 -117z" />
<glyph unicode="&#xac;" horiz-adv-x="1202" d="M94 623l33 223h987l-76 -539h-223l43 316h-764z" />
<glyph unicode="&#xad;" horiz-adv-x="817" d="M90 385l33 229h569l-33 -229h-569z" />
<glyph unicode="&#xae;" horiz-adv-x="1619" d="M88 719q28 198 150.5 367.5t306.5 268.5t383 99q148 0 276 -58.5t212.5 -157.5t124 -235t18.5 -284q-28 -199 -151 -368.5t-306 -268t-381 -98.5q-200 0 -355.5 98.5t-230.5 267.5t-47 369zM274 719q-21 -149 35 -276t172.5 -201t266.5 -74q148 0 284.5 74t227.5 201 t112 276q21 150 -35 276.5t-172 199.5t-264 73q-150 0 -287 -73t-228 -199.5t-112 -276.5zM473 346l105 733h331q68 0 120 -21.5t80 -57.5t41.5 -80.5t5 -92.5t-29.5 -91.5t-60.5 -80t-90.5 -55.5l139 -254h-237l-125 240h-43l-35 -240h-201zM731 750h125q58 0 82 49 q22 43 -1 78q-19 28 -60 28h-123z" />
<glyph unicode="&#xaf;" horiz-adv-x="624" d="M143 1591l35 197h539l-35 -197h-539z" />
<glyph unicode="&#xb0;" horiz-adv-x="743" d="M139 1151q19 127 119.5 215t228.5 88q125 0 202.5 -88t58.5 -215q-17 -124 -119.5 -214.5t-225.5 -90.5q-128 0 -204.5 89t-59.5 216zM334 1149q-6 -44 23 -76.5t73 -32.5t80.5 32.5t42.5 76.5q6 45 -21 78t-71 33t-82.5 -33.5t-44.5 -77.5z" />
<glyph unicode="&#xb1;" horiz-adv-x="1110" d="M33 106l30 224h902l-31 -224h-901zM125 729l31 225h329l45 316h228l-45 -316h338l-31 -225h-338l-45 -315h-227l45 315h-330z" />
<glyph unicode="&#xb2;" horiz-adv-x="839" d="M92 688l438 381q39 29 55 72.5t-6.5 77.5t-82.5 32q-90 -3 -164 -98l-166 92q124 213 358 213q86 0 152 -34.5t97.5 -91.5t35 -125t-34 -141.5t-110.5 -133.5l-228 -182h322l-29 -207h-596z" />
<glyph unicode="&#xb3;" horiz-adv-x="790" d="M92 768l180 86q14 -43 47 -63.5t72 -22.5q31 -3 67 7.5t60 31.5q18 24 21 49q5 37 -20 65.5t-73 24.5h-86l25 162h88q52 7 70.5 42.5t-3.5 68t-71 32.5q-64 0 -115 -47l-18 -22l-164 90q63 93 145.5 134.5t163.5 45.5q80 5 147 -22.5t103 -83.5q28 -45 31.5 -103 t-26.5 -115t-93 -86q75 -32 98.5 -101t-2.5 -143.5t-86 -133.5q-58 -56 -140.5 -83.5t-162.5 -25.5q-87 5 -153.5 53.5t-98.5 132.5z" />
<glyph unicode="&#xb4;" horiz-adv-x="458" d="M2 1548l234 310h288l-288 -310h-234z" />
<glyph unicode="&#xb5;" horiz-adv-x="1064" d="M-35 -412l207 1469h231l-92 -651q-14 -105 61 -158q65 -46 152 -25q95 24 141 114q20 39 27 87l88 633h232l-146 -1061h-213l-2 82q-46 -61 -128 -87t-158 -2t-101 95l-69 -496h-230z" />
<glyph unicode="&#xb6;" horiz-adv-x="1284" d="M95.5 938q15.5 178 131.5 316q140 166 363 192q36 4 74 4h606l-236 -1679h-229l207 1468h-154l-207 -1468h-231l100 714q-230 0 -345 150q-95 125 -79.5 303z" />
<glyph unicode="&#xb7;" horiz-adv-x="483" d="M94 637q9 63 57.5 106t112.5 43q63 0 98.5 -43t26.5 -106t-56 -105.5t-110 -42.5q-64 0 -101 42.5t-28 105.5z" />
<glyph unicode="&#xb8;" horiz-adv-x="514" d="M41 -432l70 137q98 -62 170 -34q44 16 48 54q5 42 -45 65q-33 16 -85 17l118 216h175l-76 -132q93 -12 122.5 -90.5t-16.5 -167.5q-35 -68 -106.5 -100.5t-161.5 -32.5q-106 0 -213 68z" />
<glyph unicode="&#xb9;" horiz-adv-x="573" d="M106 1151l277 262h178l-125 -891h-215l84 586l-100 -84z" />
<glyph unicode="&#xba;" horiz-adv-x="845" d="M125 922l29 208q13 93 73.5 160.5t139.5 98t165 30.5q51 0 97.5 -11t87 -34.5t68.5 -57t41 -81.5t5 -105l-28 -208q-13 -92 -74 -159.5t-141 -98.5t-166 -31q-85 0 -156 31t-112.5 98.5t-28.5 159.5zM340 922q-4 -54 54.5 -77t121 -0.5t70.5 77.5l28 208q6 60 -52 84 t-121 -0.5t-72 -83.5z" />
<glyph unicode="&#xbb;" horiz-adv-x="995" d="M20 260l279 336l-180 334l209 117l239 -451l-366 -451zM391 262l275 334l-181 336l211 115l240 -451l-367 -451z" />
<glyph unicode="&#xbc;" horiz-adv-x="1525" d="M100 29l1096 1460l174 -113l-1096 -1460zM125 1194l98 -127l99 84l-82 -586h215l125 891h-179zM684 362l82 -157h334l-29 -205h225l29 205h74l26 190h-73l75 541h-194zM952 393l213 221l-37 -221h-176z" />
<glyph unicode="&#xbd;" horiz-adv-x="1669" d="M109 31l1093 1458l170 -113l-1096 -1460zM125 1194l98 -127l99 84l-82 -586h215l125 891h-179zM872 145l43 -145h596l29 207h-321l227 182q61 50 96.5 110.5t44 118t-7 112t-51 95.5t-93.5 65.5t-130 24.5q-233 0 -357 -213l164 -92q75 96 166 99q60 2 82 -29t7.5 -74 t-54.5 -80z" />
<glyph unicode="&#xbe;" horiz-adv-x="1662" d="M74 768l6 -27q20 -52 53 -90.5t71.5 -58t73.5 -28.5t68 -9q177 0 289 109q60 59 86 133.5t2.5 143.5t-98.5 101q63 29 93 86t26.5 115t-31.5 103q-68 106 -250 106q-78 0 -162 -43t-147 -137l163 -90q39 40 66 54.5t68 14.5q29 0 50 -14.5t27 -35.5t2.5 -42.5t-23.5 -36 t-52 -14.5h-88l-25 -162h86q48 0 72.5 -27t19.5 -63q-4 -40 -41 -65t-86 -25q-109 0 -139 88zM240 31l1095 1458l170 -113l-1095 -1460zM829 362l82 -157h334l-28 -205h225l28 205h74l27 190h-74l76 541h-195zM1098 393l213 221l-37 -221h-176z" />
<glyph unicode="&#xbf;" horiz-adv-x="989" d="M-27 31q27 188 148 304t289 142l53 254h203l-48 -448q-156 32 -281 -62q-93 -70 -123 -172q-31 -105 28 -171q55 -60 174 -60q66 0 140 37t140 106l142 -129q-95 -124 -215 -183t-244 -59q-92 0 -171.5 29t-138 83t-85.5 139.5t-11 189.5zM453 946q8 55 54.5 95t104.5 40 t92.5 -40t26.5 -95q-8 -57 -54 -98t-104 -41t-93 41t-27 98z" />
<glyph unicode="&#xc0;" horiz-adv-x="1284" d="M-92 0l725 1450h248l321 -1450h-248l-90 377h-520l-182 -377h-254zM459 614h358l-67 367l-13 229h-28l-82 -233zM506 1858h305l143 -310h-245z" />
<glyph unicode="&#xc1;" horiz-adv-x="1284" d="M-92 0l725 1450h248l321 -1450h-248l-90 377h-520l-182 -377h-254zM459 614h358l-67 367l-13 229h-28l-82 -233zM618 1548l234 310h289l-289 -310h-234z" />
<glyph unicode="&#xc2;" horiz-adv-x="1284" d="M-92 0l725 1450h248l321 -1450h-248l-90 377h-520l-182 -377h-254zM408 1548l327 310h166l240 -310h-260l-95 109l-114 -109h-264zM459 614h358l-67 367l-13 229h-28l-82 -233z" />
<glyph unicode="&#xc3;" horiz-adv-x="1284" d="M-92 0l725 1450h248l321 -1450h-248l-90 377h-520l-182 -377h-254zM430 1645q38 116 92.5 165.5t130.5 49.5q33 0 71 -14.5t65.5 -29.5t55 -24t50 3t39.5 50l151 -61q-20 -102 -75.5 -156.5t-116.5 -54.5q-36 0 -78 15.5t-73.5 31t-63 24.5t-58 -6.5t-47.5 -60.5z M459 614h358l-67 367l-13 229h-28l-82 -233z" />
<glyph unicode="&#xc4;" horiz-adv-x="1284" d="M-92 0l725 1450h248l321 -1450h-248l-90 377h-520l-182 -377h-254zM444 1700q7 60 53 100.5t105 40.5t93.5 -40.5t27.5 -100.5q-7 -58 -53 -98.5t-105 -40.5q-58 0 -93.5 40t-27.5 99zM459 614h358l-67 367l-13 229h-28l-82 -233zM856 1700q8 60 53 100.5t105 40.5 t95.5 -40.5t27.5 -100.5q-8 -59 -54 -99t-106 -40t-94.5 40t-26.5 99z" />
<glyph unicode="&#xc5;" horiz-adv-x="1284" d="M-92 0l725 1450q-47 30 -71 80t-17 110q13 106 90.5 166t179.5 60q95 0 157 -68.5t48 -159.5q-7 -58 -45 -108t-94 -80l321 -1450h-248l-90 377h-520l-182 -377h-254zM459 614h358l-67 367l-13 229h-28l-82 -233zM672 1638q-6 -42 23.5 -70t74.5 -28q43 0 79.5 27 t43.5 71q6 43 -24 73t-74 30q-47 0 -81.5 -26.5t-41.5 -76.5z" />
<glyph unicode="&#xc6;" horiz-adv-x="1642" d="M-109 0l975 1450h807l-33 -238h-522l-53 -370h467l-33 -236h-467l-51 -373h522l-33 -233h-753l61 440h-336l-280 -440h-271zM575 664h234l39 276l45 225h-12q-95 -180 -103 -198z" />
<glyph unicode="&#xc7;" horiz-adv-x="1226" d="M74 446l76 558q16 112 76 202.5t147.5 147t191 86.5t211.5 30q167 0 301.5 -85.5t186.5 -245.5l-226 -105q-37 95 -119.5 147t-181.5 52q-61 0 -120 -14.5t-108.5 -42t-83 -72t-40.5 -100.5l-76 -558q-14 -109 71.5 -169t215.5 -60q101 0 197.5 51t158.5 146l199 -99 q-82 -130 -203 -212t-258 -111l-57 -101q93 -12 122.5 -90.5t-16.5 -167.5q-35 -68 -106.5 -100.5t-161.5 -32.5q-106 0 -213 68l70 137q98 -62 170 -34q44 16 48 54q5 42 -45 65q-33 16 -85 17l96 175q-98 7 -182.5 39.5t-147.5 88.5t-93 143t-15 193z" />
<glyph unicode="&#xc8;" horiz-adv-x="1179" d="M51 0l203 1452h956l-32 -238h-719l-53 -370h661l-33 -238h-661l-51 -368h718l-32 -238h-957zM481 1858h305l144 -310h-246z" />
<glyph unicode="&#xc9;" horiz-adv-x="1179" d="M51 0l203 1452h956l-32 -238h-719l-53 -370h661l-33 -238h-661l-51 -368h718l-32 -238h-957zM594 1548l233 310h289l-289 -310h-233z" />
<glyph unicode="&#xca;" horiz-adv-x="1179" d="M51 0l203 1452h956l-32 -238h-719l-53 -370h661l-33 -238h-661l-51 -368h718l-32 -238h-957zM383 1548l328 310h166l239 -310h-260l-94 109l-115 -109h-264z" />
<glyph unicode="&#xcb;" horiz-adv-x="1179" d="M51 0l203 1452h956l-32 -238h-719l-53 -370h661l-33 -238h-661l-51 -368h718l-32 -238h-957zM420 1700q7 60 53 100.5t105 40.5t93 -40.5t27 -100.5q-7 -58 -52.5 -98.5t-104.5 -40.5q-58 0 -93.5 40t-27.5 99zM831 1700q8 60 53 100.5t105 40.5t95.5 -40.5t27.5 -100.5 q-8 -59 -54 -99t-106 -40t-94.5 40t-26.5 99z" />
<glyph unicode="&#xcc;" horiz-adv-x="512" d="M51 0l203 1450h235l-202 -1450h-236zM121 1858h305l143 -310h-245z" />
<glyph unicode="&#xcd;" horiz-adv-x="512" d="M51 0l203 1450h235l-202 -1450h-236zM233 1548l234 310h289l-289 -310h-234z" />
<glyph unicode="&#xce;" horiz-adv-x="512" d="M49 1548l287 310h166l198 -310h-198l-96 117l-134 -117h-223zM51 0l203 1450h235l-202 -1450h-236z" />
<glyph unicode="&#xcf;" horiz-adv-x="512" d="M51 0l203 1450h235l-202 -1450h-236zM63 1704q7 58 52 97.5t102 39.5t90.5 -39.5t26.5 -97.5q-7 -57 -52 -96t-102 -39t-91 39t-26 96zM469 1704q8 59 52 98t102 39t92 -39t26 -98q-8 -57 -52.5 -96t-102.5 -39t-91.5 39t-25.5 96z" />
<glyph unicode="&#xd0;" horiz-adv-x="1314" d="M31 618l26 195h117l90 637h545q85 0 158.5 -16t135 -51.5t101.5 -87.5t56.5 -127.5t3.5 -168.5l-78 -550q-16 -114 -69 -202t-133 -141t-175.5 -79.5t-202.5 -26.5h-545l86 618h-116zM332 238h307q84 0 148.5 20.5t108.5 69t54 121.5l78 550q16 110 -53 161.5t-199 51.5 h-307l-57 -399h233l-27 -195h-233z" />
<glyph unicode="&#xd1;" horiz-adv-x="1394" d="M49 0l203 1450h250l383 -856l108 -289l17 4l8 312l117 829h237l-203 -1450h-276l-377 840l-96 276l-14 -4l-7 -303l-112 -809h-238zM506 1645q38 116 92.5 165.5t130.5 49.5q33 0 71 -14.5t65.5 -29.5t55 -24t50 3t39.5 50l151 -61q-20 -102 -75.5 -156.5t-116.5 -54.5 q-36 0 -78 15.5t-73.5 31t-63 24.5t-58 -6.5t-47.5 -60.5z" />
<glyph unicode="&#xd2;" horiz-adv-x="1368" d="M72 451l80 550q16 113 78.5 204.5t153.5 148t198.5 86.5t220.5 30q89 0 171 -18.5t152 -57t119 -93t71 -132t9 -168.5l-80 -550q-16 -113 -79.5 -205t-155.5 -148.5t-200 -87t-220 -30.5q-113 0 -212 30.5t-174 87t-111.5 148.5t-20.5 205zM309 453q-11 -75 32.5 -130 t118 -80.5t165.5 -25.5q92 0 174 25.5t142 80.5t71 130l78 542q12 79 -33 134t-119.5 78.5t-167.5 23.5q-92 -1 -172.5 -25t-140 -79t-70.5 -132zM551 1878h305l143 -309h-245z" />
<glyph unicode="&#xd3;" horiz-adv-x="1368" d="M72 451l80 550q16 113 78.5 204.5t153.5 148t198.5 86.5t220.5 30q89 0 171 -18.5t152 -57t119 -93t71 -132t9 -168.5l-80 -550q-16 -113 -79.5 -205t-155.5 -148.5t-200 -87t-220 -30.5q-113 0 -212 30.5t-174 87t-111.5 148.5t-20.5 205zM309 453q-11 -75 32.5 -130 t118 -80.5t165.5 -25.5q92 0 174 25.5t142 80.5t71 130l78 542q12 79 -33 134t-119.5 78.5t-167.5 23.5q-92 -1 -172.5 -25t-140 -79t-70.5 -132zM664 1569l233 309h289l-289 -309h-233z" />
<glyph unicode="&#xd4;" horiz-adv-x="1368" d="M72 451l80 550q16 113 78.5 204.5t153.5 148t198.5 86.5t220.5 30q89 0 171 -18.5t152 -57t119 -93t71 -132t9 -168.5l-80 -550q-16 -113 -79.5 -205t-155.5 -148.5t-200 -87t-220 -30.5q-113 0 -212 30.5t-174 87t-111.5 148.5t-20.5 205zM309 453q-11 -75 32.5 -130 t118 -80.5t165.5 -25.5q92 0 174 25.5t142 80.5t71 130l78 542q12 79 -33 134t-119.5 78.5t-167.5 23.5q-92 -1 -172.5 -25t-140 -79t-70.5 -132zM453 1569l327 309h166l240 -309h-260l-95 108l-114 -108h-264z" />
<glyph unicode="&#xd5;" horiz-adv-x="1368" d="M72 451l80 550q16 113 78.5 204.5t153.5 148t198.5 86.5t220.5 30q89 0 171 -18.5t152 -57t119 -93t71 -132t9 -168.5l-80 -550q-16 -113 -79.5 -205t-155.5 -148.5t-200 -87t-220 -30.5q-113 0 -212 30.5t-174 87t-111.5 148.5t-20.5 205zM309 453q-11 -75 32.5 -130 t118 -80.5t165.5 -25.5q92 0 174 25.5t142 80.5t71 130l78 542q12 79 -33 134t-119.5 78.5t-167.5 23.5q-92 -1 -172.5 -25t-140 -79t-70.5 -132zM475 1665q38 116 92.5 165.5t130.5 49.5q33 0 71 -14.5t65.5 -29.5t55 -23.5t50 3.5t39.5 50l151 -62q-20 -102 -75.5 -156.5 t-116.5 -54.5q-36 0 -78 15.5t-73.5 31t-63 24.5t-58 -6.5t-47.5 -60.5z" />
<glyph unicode="&#xd6;" horiz-adv-x="1368" d="M72 451l80 550q16 113 78.5 204.5t153.5 148t198.5 86.5t220.5 30q89 0 171 -18.5t152 -57t119 -93t71 -132t9 -168.5l-80 -550q-16 -113 -79.5 -205t-155.5 -148.5t-200 -87t-220 -30.5q-113 0 -212 30.5t-174 87t-111.5 148.5t-20.5 205zM309 453q-11 -75 32.5 -130 t118 -80.5t165.5 -25.5q92 0 174 25.5t142 80.5t71 130l78 542q12 79 -33 134t-119.5 78.5t-167.5 23.5q-92 -1 -172.5 -25t-140 -79t-70.5 -132zM489 1720q7 60 53 101t105 41t93.5 -41t27.5 -101q-7 -58 -53 -98.5t-105 -40.5q-58 0 -93.5 40t-27.5 99zM901 1720 q8 60 53 101t105 41t95.5 -41t27.5 -101q-8 -59 -54 -99t-106 -40t-94.5 40t-26.5 99z" />
<glyph unicode="&#xd7;" horiz-adv-x="1050" d="M35 319l332 289l-254 297l178 158l256 -295l332 293l135 -162l-328 -289l246 -284l-180 -160l-246 287l-340 -297z" />
<glyph unicode="&#xd8;" horiz-adv-x="1368" d="M72 451l80 550q16 113 78.5 204.5t153.5 148t198.5 86.5t220.5 30q110 0 201 -26l88 160l131 -58l-86 -157q103 -60 154.5 -158.5t33.5 -229.5l-80 -550q-16 -113 -79.5 -205t-155.5 -148.5t-200 -87t-220 -30.5q-114 0 -205 26l-88 -164l-141 58l90 168 q-98 60 -145.5 157.5t-28.5 225.5zM309 453q-14 -97 62 -160l510 928q-58 10 -111 10q-92 -1 -172.5 -25t-140 -79t-70.5 -132zM508 229q56 -12 117 -12q92 0 174 25.5t142 80.5t71 130l78 542q16 107 -72 172z" />
<glyph unicode="&#xd9;" horiz-adv-x="1374" d="M102 455l142 995h237l-141 -995q-16 -114 71 -177t218 -63q84 0 159 25.5t130.5 81.5t66.5 133l141 995h238l-141 -995q-13 -92 -55.5 -170.5t-104 -134t-139 -94.5t-160.5 -57.5t-168 -18.5q-108 0 -202.5 30.5t-166.5 87.5t-106.5 149.5t-18.5 207.5zM553 1858h305 l143 -310h-245z" />
<glyph unicode="&#xda;" horiz-adv-x="1374" d="M102 455l142 995h237l-141 -995q-16 -114 71 -177t218 -63q84 0 159 25.5t130.5 81.5t66.5 133l141 995h238l-141 -995q-13 -92 -55.5 -170.5t-104 -134t-139 -94.5t-160.5 -57.5t-168 -18.5q-108 0 -202.5 30.5t-166.5 87.5t-106.5 149.5t-18.5 207.5zM666 1548l233 310 h289l-289 -310h-233z" />
<glyph unicode="&#xdb;" horiz-adv-x="1374" d="M102 455l142 995h237l-141 -995q-16 -114 71 -177t218 -63q84 0 159 25.5t130.5 81.5t66.5 133l141 995h238l-141 -995q-13 -92 -55.5 -170.5t-104 -134t-139 -94.5t-160.5 -57.5t-168 -18.5q-108 0 -202.5 30.5t-166.5 87.5t-106.5 149.5t-18.5 207.5zM455 1548l327 310 h166l240 -310h-260l-94 109l-115 -109h-264z" />
<glyph unicode="&#xdc;" horiz-adv-x="1374" d="M102 455l142 995h237l-141 -995q-16 -114 71 -177t218 -63q84 0 159 25.5t130.5 81.5t66.5 133l141 995h238l-141 -995q-13 -92 -55.5 -170.5t-104 -134t-139 -94.5t-160.5 -57.5t-168 -18.5q-108 0 -202.5 30.5t-166.5 87.5t-106.5 149.5t-18.5 207.5zM492 1700 q7 60 52.5 100.5t104.5 40.5t93.5 -40.5t27.5 -100.5q-7 -58 -53 -98.5t-105 -40.5q-58 0 -93 40t-27 99zM903 1700q8 60 53 100.5t105 40.5t95.5 -40.5t27.5 -100.5q-8 -59 -54 -99t-106 -40t-94.5 40t-26.5 99z" />
<glyph unicode="&#xdd;" horiz-adv-x="1226" d="M106 1450h273l258 -659l440 659h277l-631 -887l-78 -563h-237l77 563zM592 1548l233 310h289l-289 -310h-233z" />
<glyph unicode="&#xde;" horiz-adv-x="1245" d="M49 0l203 1450h233l-32 -238h327q97 0 176 -27t131 -73t84.5 -107t42.5 -129.5t0 -140.5q-13 -92 -56.5 -176t-113 -150t-172.5 -105.5t-223 -39.5h-330l-36 -264h-234zM350 481h328q126 0 207 75.5t94 174.5t-47 173t-184 71h-328z" />
<glyph unicode="&#xdf;" horiz-adv-x="1187" d="M35 0l147 1063q14 95 65.5 173.5t125 127.5t160 75.5t174.5 26.5t166.5 -24.5t138.5 -71.5t89.5 -123.5t16.5 -171.5q-12 -90 -58.5 -174t-123.5 -121q187 -100 154 -338q-17 -107 -71.5 -194t-132 -141.5t-168 -83t-185 -23.5t-177.5 41l33 229q59 -41 136.5 -49 t146.5 14t121.5 77t62.5 130q14 110 -49.5 163.5t-179.5 53.5h-189l31 215h188q84 0 151 56.5t79 144.5q9 59 -21 101t-79 59.5t-109 17.5q-97 0 -176 -49.5t-92 -140.5l-148 -1063h-227z" />
<glyph unicode="&#xe0;" d="M49 342l53 369q15 101 62 175t116.5 115.5t148.5 60.5t169 19q95 0 197 -26t184 -68l-137 -987h-183l-16 92q-112 -112 -268 -112q-71 0 -135 25.5t-111 71t-69.5 114.5t-10.5 151zM272 342q-10 -75 36.5 -112.5t125.5 -39.5q58 -1 118.5 17t100.5 49l86 598 q-56 35 -147 35q-99 2 -176 -42.5t-90 -133.5zM350 1489h285l143 -309h-225z" />
<glyph unicode="&#xe1;" d="M49 342l53 369q15 101 62 175t116.5 115.5t148.5 60.5t169 19q95 0 197 -26t184 -68l-137 -987h-183l-16 92q-112 -112 -268 -112q-71 0 -135 25.5t-111 71t-69.5 114.5t-10.5 151zM272 342q-10 -75 36.5 -112.5t125.5 -39.5q58 -1 118.5 17t100.5 49l86 598 q-56 35 -147 35q-99 2 -176 -42.5t-90 -133.5zM463 1180l233 309h289l-289 -309h-233z" />
<glyph unicode="&#xe2;" d="M49 342l53 369q15 101 62 175t116.5 115.5t148.5 60.5t169 19q95 0 197 -26t184 -68l-137 -987h-183l-16 92q-112 -112 -268 -112q-71 0 -135 25.5t-111 71t-69.5 114.5t-10.5 151zM231 1180l328 309h166l240 -309h-254l-90 131l-125 -131h-265zM272 342 q-10 -75 36.5 -112.5t125.5 -39.5q58 -1 118.5 17t100.5 49l86 598q-56 35 -147 35q-99 2 -176 -42.5t-90 -133.5z" />
<glyph unicode="&#xe3;" d="M49 342l53 369q15 101 62 175t116.5 115.5t148.5 60.5t169 19q95 0 197 -26t184 -68l-137 -987h-183l-16 92q-112 -112 -268 -112q-71 0 -135 25.5t-111 71t-69.5 114.5t-10.5 151zM272 342q-10 -75 36.5 -112.5t125.5 -39.5q58 -1 118.5 17t100.5 49l86 598 q-56 35 -147 35q-99 2 -176 -42.5t-90 -133.5zM274 1276q38 116 92.5 165.5t131.5 49.5q33 0 71 -14.5t65.5 -29.5t54.5 -23.5t49.5 3.5t39.5 50l152 -62q-20 -102 -76 -156.5t-117 -54.5q-36 0 -78 15.5t-73 31t-62.5 24.5t-58 -6.5t-47.5 -60.5z" />
<glyph unicode="&#xe4;" d="M49 342l53 369q15 101 62 175t116.5 115.5t148.5 60.5t169 19q95 0 197 -26t184 -68l-137 -987h-183l-16 92q-112 -112 -268 -112q-71 0 -135 25.5t-111 71t-69.5 114.5t-10.5 151zM272 342q-10 -75 36.5 -112.5t125.5 -39.5q58 -1 118.5 17t100.5 49l86 598 q-56 35 -147 35q-99 2 -176 -42.5t-90 -133.5zM289 1331q7 60 52.5 101t104.5 41t93.5 -41t27.5 -101q-7 -58 -52.5 -98.5t-104.5 -40.5q-58 0 -93.5 40t-27.5 99zM700 1331q8 60 53 101t105 41t95.5 -41t27.5 -101q-8 -59 -54 -99t-106 -40t-94.5 40t-26.5 99z" />
<glyph unicode="&#xe5;" d="M49 342l53 369q15 101 62 175t116.5 115.5t148.5 60.5t169 19q95 0 197 -26t184 -68l-137 -987h-183l-16 92q-112 -112 -268 -112q-71 0 -135 25.5t-111 71t-69.5 114.5t-10.5 151zM272 342q-10 -75 36.5 -112.5t125.5 -39.5q58 -1 118.5 17t100.5 49l86 598 q-56 35 -147 35q-99 2 -176 -42.5t-90 -133.5zM406 1370q13 105 93 165t183 60q96 0 160 -68.5t51 -158.5q-12 -90 -94 -156.5t-178 -66.5q-98 0 -162.5 65.5t-52.5 159.5zM543 1368q-6 -41 22 -68.5t72 -27.5t78.5 26t40.5 70q6 42 -23 71t-71 29q-46 0 -79.5 -26 t-39.5 -74z" />
<glyph unicode="&#xe6;" horiz-adv-x="1595" d="M51 342l49 360q11 78 42.5 141.5t76.5 106.5t103 72t120.5 43t130.5 16q182 3 347 -73q124 73 268 73q81 0 151 -24t122 -69t77 -117.5t12 -161.5q-14 -101 -78.5 -170.5t-151.5 -99t-190 -29.5q-130 0 -231 49l-14 -107q-11 -78 42.5 -122t135.5 -44q62 0 122 26.5 t101 78.5l144 -107q-80 -99 -178.5 -148.5t-204.5 -49.5q-137 0 -238 61l-12 -47h-152l4 92q-121 -112 -268 -112q-71 0 -135.5 25.5t-112 70.5t-70.5 114.5t-12 151.5zM274 350q-11 -79 38.5 -121.5t131.5 -42.5q59 0 118.5 20.5t103.5 59.5q-2 25 6 86l49 350 q10 80 37 136q-73 45 -174 45q-100 0 -175 -46t-85 -132zM922 612q123 -37 192 -37q197 0 215 134q10 75 -42 118t-130 43q-81 0 -147 -44t-76 -121z" />
<glyph unicode="&#xe7;" horiz-adv-x="968" d="M51 352l51 365q13 89 58.5 160t111.5 114.5t142.5 66.5t156.5 23q65 0 124.5 -15.5t112.5 -47t89.5 -87t46.5 -128.5l-215 -78q-10 67 -62 101t-124 36q-79 0 -142.5 -38.5t-72.5 -104.5l-54 -369q-9 -68 44 -110.5t133 -40.5q68 2 131.5 40.5t91.5 104.5l194 -86 q-47 -107 -132.5 -172t-190.5 -90l-60 -105q93 -12 123 -90.5t-16 -167.5q-35 -68 -106.5 -100.5t-161.5 -32.5q-106 0 -213 68l69 137q98 -62 170 -34q44 16 48 54q5 42 -45 65q-33 16 -85 17l97 175q-150 15 -243.5 112.5t-70.5 257.5z" />
<glyph unicode="&#xe8;" horiz-adv-x="980" d="M51 352l49 353q13 91 58.5 164.5t111.5 118.5t143 69t158 24t151 -23.5t122.5 -68.5t77.5 -117t12 -161q-14 -99 -75 -167t-150.5 -99t-202.5 -31q-118 0 -221 41l-13 -103q-11 -76 39.5 -120t130.5 -46q64 -2 129.5 26t106.5 81l143 -107q-80 -99 -186 -152.5 t-211 -53.5q-78 0 -149.5 24.5t-126.5 69.5t-82.5 117.5t-14.5 160.5zM309 623q113 -35 211 -35q87 0 138.5 40t54.5 103q3 57 -41.5 97t-128.5 40q-81 0 -145 -47t-76 -125zM319 1489h306l143 -309h-246z" />
<glyph unicode="&#xe9;" horiz-adv-x="980" d="M51 352l49 353q13 91 58.5 164.5t111.5 118.5t143 69t158 24t151 -23.5t122.5 -68.5t77.5 -117t12 -161q-14 -99 -75 -167t-150.5 -99t-202.5 -31q-118 0 -221 41l-13 -103q-11 -76 39.5 -120t130.5 -46q64 -2 129.5 26t106.5 81l143 -107q-80 -99 -186 -152.5 t-211 -53.5q-78 0 -149.5 24.5t-126.5 69.5t-82.5 117.5t-14.5 160.5zM309 623q113 -35 211 -35q87 0 138.5 40t54.5 103q3 57 -41.5 97t-128.5 40q-81 0 -145 -47t-76 -125zM391 1180l234 309h288l-288 -309h-234z" />
<glyph unicode="&#xea;" horiz-adv-x="980" d="M51 352l49 353q13 91 58.5 164.5t111.5 118.5t143 69t158 24t151 -23.5t122.5 -68.5t77.5 -117t12 -161q-14 -99 -75 -167t-150.5 -99t-202.5 -31q-118 0 -221 41l-13 -103q-11 -76 39.5 -120t130.5 -46q64 -2 129.5 26t106.5 81l143 -107q-80 -99 -186 -152.5 t-211 -53.5q-78 0 -149.5 24.5t-126.5 69.5t-82.5 117.5t-14.5 160.5zM201 1180l327 309h166l240 -309h-260l-88 120l-121 -120h-264zM309 623q113 -35 211 -35q87 0 138.5 40t54.5 103q3 57 -41.5 97t-128.5 40q-81 0 -145 -47t-76 -125z" />
<glyph unicode="&#xeb;" horiz-adv-x="980" d="M51 352l49 353q13 91 58.5 164.5t111.5 118.5t143 69t158 24t151 -23.5t122.5 -68.5t77.5 -117t12 -161q-14 -99 -75 -167t-150.5 -99t-202.5 -31q-118 0 -221 41l-13 -103q-11 -76 39.5 -120t130.5 -46q64 -2 129.5 26t106.5 81l143 -107q-80 -99 -186 -152.5 t-211 -53.5q-78 0 -149.5 24.5t-126.5 69.5t-82.5 117.5t-14.5 160.5zM238 1331q7 60 52.5 101t104.5 41t93.5 -41t27.5 -101q-7 -58 -53 -98.5t-105 -40.5q-58 0 -93 40t-27 99zM309 623q113 -35 211 -35q87 0 138.5 40t54.5 103q3 57 -41.5 97t-128.5 40q-81 0 -145 -47 t-76 -125zM649 1331q8 60 53 101t105 41t95.5 -41t27.5 -101q-8 -59 -54 -99t-106 -40t-94.5 40t-26.5 99z" />
<glyph unicode="&#xec;" horiz-adv-x="466" d="M33 0l149 1063h226l-150 -1063h-225zM45 1489h285l143 -309h-225z" />
<glyph unicode="&#xed;" horiz-adv-x="466" d="M33 0l149 1063h226l-150 -1063h-225zM158 1180l233 309h268l-268 -309h-233z" />
<glyph unicode="&#xee;" horiz-adv-x="466" d="M-12 1159l286 309h166l199 -309h-227l-78 135l-117 -135h-229zM33 0l149 1063h226l-150 -1063h-225z" />
<glyph unicode="&#xef;" horiz-adv-x="466" d="M8 1315q7 58 52 97.5t102 39.5t90.5 -39.5t26.5 -97.5q-7 -57 -52 -96t-102 -39t-91 39t-26 96zM33 0l149 1063h226l-150 -1063h-225zM379 1315q8 59 51.5 98t101.5 39t92.5 -39t26.5 -98q-8 -57 -52.5 -96t-102.5 -39t-91.5 39t-25.5 96z" />
<glyph unicode="&#xf0;" horiz-adv-x="1032" d="M53 350l39 277q13 95 64.5 166t123 107t153.5 50t160.5 2t139.5 -45l21 154q10 70 -43 106l-64 -125l-151 45l55 109q-42 0 -92.5 -18t-91.5 -48l-111 154q90 70 198.5 107t196.5 20l82 172l152 -43l-80 -158q98 -36 143.5 -119t28.5 -202l-139 -998q-269 -75 -430 -75 q-77 1 -145.5 24.5t-120.5 67t-77 113.5t-12 157zM272 334q-9 -66 41.5 -105t122.5 -39q109 0 201 29l68 494q-41 32 -104 46t-123.5 7.5t-107.5 -42.5t-55 -97z" />
<glyph unicode="&#xf1;" horiz-adv-x="1060" d="M31 0l139 995q183 86 391 86q91 -2 166 -24t133 -65.5t84.5 -117t13.5 -169.5l-98 -705h-223l96 694q7 83 -53 125.5t-150 42.5q-95 0 -159 -37l-115 -825h-225zM274 1276q38 116 92.5 165.5t131.5 49.5q33 0 71 -14.5t65.5 -29.5t54.5 -23.5t49.5 3.5t39.5 50l152 -62 q-20 -102 -76 -156.5t-117 -54.5q-36 0 -78 15.5t-73 31t-62.5 24.5t-58 -6.5t-47.5 -60.5z" />
<glyph unicode="&#xf2;" horiz-adv-x="1015" d="M51 346l51 369q13 88 59 159t112 115t143 67.5t157 24.5q79 -1 149 -24.5t123.5 -67.5t79.5 -115t13 -159l-51 -369q-13 -89 -58.5 -160.5t-111.5 -115t-142 -66.5t-155 -24q-81 1 -151.5 24t-124.5 66.5t-80 114.5t-13 161zM279 356q-10 -71 44 -114t130 -43 q72 0 136.5 43t74.5 114l49 359q10 70 -43 108.5t-127 38.5q-78 0 -141.5 -38.5t-73.5 -108.5zM291 1489h305l143 -309h-245z" />
<glyph unicode="&#xf3;" horiz-adv-x="1015" d="M51 346l51 369q13 88 59 159t112 115t143 67.5t157 24.5q79 -1 149 -24.5t123.5 -67.5t79.5 -115t13 -159l-51 -369q-13 -89 -58.5 -160.5t-111.5 -115t-142 -66.5t-155 -24q-81 1 -151.5 24t-124.5 66.5t-80 114.5t-13 161zM279 356q-10 -71 44 -114t130 -43 q72 0 136.5 43t74.5 114l49 359q10 70 -43 108.5t-127 38.5q-78 0 -141.5 -38.5t-73.5 -108.5zM434 1180l234 309h288l-288 -309h-234z" />
<glyph unicode="&#xf4;" horiz-adv-x="1015" d="M51 346l51 369q13 88 59 159t112 115t143 67.5t157 24.5q79 -1 149 -24.5t123.5 -67.5t79.5 -115t13 -159l-51 -369q-13 -89 -58.5 -160.5t-111.5 -115t-142 -66.5t-155 -24q-81 1 -151.5 24t-124.5 66.5t-80 114.5t-13 161zM223 1180l328 309h166l239 -309h-260l-94 108 l-115 -108h-264zM279 356q-10 -71 44 -114t130 -43q72 0 136.5 43t74.5 114l49 359q10 70 -43 108.5t-127 38.5q-78 0 -141.5 -38.5t-73.5 -108.5z" />
<glyph unicode="&#xf5;" horiz-adv-x="1015" d="M51 346l51 369q13 88 59 159t112 115t143 67.5t157 24.5q79 -1 149 -24.5t123.5 -67.5t79.5 -115t13 -159l-51 -369q-13 -89 -58.5 -160.5t-111.5 -115t-142 -66.5t-155 -24q-81 1 -151.5 24t-124.5 66.5t-80 114.5t-13 161zM246 1276q38 116 92.5 165.5t130.5 49.5 q33 0 71 -14.5t65.5 -29.5t55 -23.5t50 3.5t39.5 50l151 -62q-20 -102 -75.5 -156.5t-116.5 -54.5q-36 0 -78 15.5t-73.5 31t-63 24.5t-58 -6.5t-47.5 -60.5zM279 356q-10 -71 44 -114t130 -43q72 0 136.5 43t74.5 114l49 359q10 70 -43 108.5t-127 38.5q-78 0 -141.5 -38.5 t-73.5 -108.5z" />
<glyph unicode="&#xf6;" horiz-adv-x="1015" d="M51 346l51 369q13 88 59 159t112 115t143 67.5t157 24.5q79 -1 149 -24.5t123.5 -67.5t79.5 -115t13 -159l-51 -369q-13 -89 -58.5 -160.5t-111.5 -115t-142 -66.5t-155 -24q-81 1 -151.5 24t-124.5 66.5t-80 114.5t-13 161zM260 1331q7 60 53 101t105 41t93.5 -41 t27.5 -101q-7 -58 -53 -98.5t-105 -40.5q-58 0 -93.5 40t-27.5 99zM279 356q-10 -71 44 -114t130 -43q72 0 136.5 43t74.5 114l49 359q10 70 -43 108.5t-127 38.5q-78 0 -141.5 -38.5t-73.5 -108.5zM672 1331q8 60 52.5 101t104.5 41t95.5 -41t27.5 -101q-8 -59 -53.5 -99 t-105.5 -40t-94.5 40t-26.5 99z" />
<glyph unicode="&#xf7;" d="M61 555l31 231h907l-30 -231h-908zM338 340q9 65 59.5 107.5t114.5 44.5q65 0 104.5 -44t30.5 -108q-9 -65 -60.5 -110.5t-115.5 -45.5t-103 45.5t-30 110.5zM422 999q9 64 60 108t114 44q64 0 104 -44t31 -108q-9 -63 -62 -109t-116 -46t-101.5 46t-29.5 109z" />
<glyph unicode="&#xf8;" horiz-adv-x="1015" d="M51 346l51 369q13 88 59 159t112 115t143 67.5t157 24.5q59 0 121 -16l70 131l129 -57l-72 -131q142 -103 117 -293l-51 -369q-13 -89 -58.5 -160.5t-111.5 -115t-142 -66.5t-155 -24q-72 0 -133 18l-68 -129l-113 57l64 125q-147 101 -119 295zM279 356q-6 -41 12 -75 l299 577q-32 4 -47 4q-78 0 -141.5 -38.5t-73.5 -108.5zM397 205q27 -6 56 -6q72 0 136.5 43t74.5 114l49 359q6 37 -11 67z" />
<glyph unicode="&#xf9;" horiz-adv-x="1062" d="M74 348l100 713h225l-100 -717q-7 -83 52.5 -126.5t150.5 -43.5q92 0 162 37l118 850h224l-140 -993q-216 -88 -420 -88q-89 1 -160.5 22t-125 63.5t-76.5 114.5t-10 168zM338 1468h305l143 -309h-245z" />
<glyph unicode="&#xfa;" horiz-adv-x="1062" d="M74 348l100 713h225l-100 -717q-7 -83 52.5 -126.5t150.5 -43.5q92 0 162 37l118 850h224l-140 -993q-216 -88 -420 -88q-89 1 -160.5 22t-125 63.5t-76.5 114.5t-10 168zM451 1159l233 309h289l-289 -309h-233z" />
<glyph unicode="&#xfb;" horiz-adv-x="1062" d="M74 348l100 713h225l-100 -717q-7 -83 52.5 -126.5t150.5 -43.5q92 0 162 37l118 850h224l-140 -993q-216 -88 -420 -88q-89 1 -160.5 22t-125 63.5t-76.5 114.5t-10 168zM258 1174l311 294h158l227 -294h-247l-91 102l-108 -102h-250z" />
<glyph unicode="&#xfc;" horiz-adv-x="1062" d="M74 348l100 713h225l-100 -717q-7 -83 52.5 -126.5t150.5 -43.5q92 0 162 37l118 850h224l-140 -993q-216 -88 -420 -88q-89 1 -160.5 22t-125 63.5t-76.5 114.5t-10 168zM276 1311q7 60 53 100.5t105 40.5t93.5 -40.5t27.5 -100.5q-7 -58 -53 -99t-105 -41 q-58 0 -93.5 40.5t-27.5 99.5zM688 1311q8 60 53 100.5t105 40.5t95.5 -40.5t27.5 -100.5q-8 -59 -54 -99.5t-106 -40.5t-94.5 40.5t-26.5 99.5z" />
<glyph unicode="&#xfd;" horiz-adv-x="1081" d="M6 -193l154 130q34 -57 105.5 -90t150.5 -33q99 0 168 52t75 154q-104 -40 -213 -40q-82 2 -154 27.5t-125.5 71t-79.5 116.5t-13 155l98 711h225l-100 -707q-4 -52 25 -88t74.5 -52t103.5 -17q111 0 182 47l115 817h223l-148 -1061q-14 -98 -61 -174.5t-115 -122.5 t-146.5 -69.5t-162.5 -22.5q-126 0 -230.5 51.5t-150.5 144.5zM457 1159l233 309h289l-289 -309h-233z" />
<glyph unicode="&#xfe;" horiz-adv-x="1046" d="M-14 -346l245 1749h226l-54 -363q106 41 215 41q79 0 146.5 -22t118.5 -65t75 -114t11 -161l-51 -371q-15 -107 -87.5 -193t-172 -130.5t-203.5 -44.5q-111 0 -191 51l-53 -377h-225zM291 227q70 -47 170 -47q85 0 150 41.5t81 126.5l53 383q7 80 -47 118t-139 38 q-102 0 -182 -41z" />
<glyph unicode="&#xff;" horiz-adv-x="1081" d="M6 -193l154 130q34 -57 105.5 -90t150.5 -33q99 0 168 52t75 154q-104 -40 -213 -40q-82 2 -154 27.5t-125.5 71t-79.5 116.5t-13 155l98 711h225l-100 -707q-4 -52 25 -88t74.5 -52t103.5 -17q111 0 182 47l115 817h223l-148 -1061q-14 -98 -61 -174.5t-115 -122.5 t-146.5 -69.5t-162.5 -22.5q-126 0 -230.5 51.5t-150.5 144.5zM283 1311q7 60 52.5 100.5t104.5 40.5t93.5 -40.5t27.5 -100.5q-7 -58 -53 -99t-105 -41q-58 0 -93 40.5t-27 99.5zM694 1311q8 60 53 100.5t105 40.5t95.5 -40.5t27.5 -100.5q-8 -59 -54 -99.5t-106 -40.5 t-94.5 40.5t-26.5 99.5z" />
<glyph unicode="&#x152;" horiz-adv-x="1835" d="M76 403l88 639q11 79 49 149t95 120.5t127.5 87.5t147.5 54.5t154 16.5q149 0 258 -71l9 49h862l-33 -238h-637l-53 -370h579l-32 -236h-580l-51 -368h637l-35 -238h-862l6 45q-132 -63 -281 -63q-78 -1 -149.5 15.5t-131 51.5t-101 84.5t-59.5 119.5t-7 152zM313 408 q-7 -57 16.5 -98.5t70.5 -64.5t104.5 -33.5t126.5 -10.5q106 0 207 69l123 893q-37 44 -103.5 67t-142.5 21q-119 -2 -211 -57t-105 -154z" />
<glyph unicode="&#x153;" horiz-adv-x="1591" d="M49 348l53 367q13 88 59 159t112 115t143 67.5t157 24.5q95 -2 176 -36.5t111 -102.5q113 139 322 139q80 0 150.5 -25.5t122.5 -72.5t77 -120.5t12 -162.5q-11 -79 -53 -139.5t-104 -95.5t-134 -52.5t-151 -17.5q-88 0 -203 51l-12 -94q-10 -78 40.5 -122t131.5 -44 q62 0 121 26.5t100 78.5l143 -107q-80 -98 -186.5 -151t-212.5 -53q-89 0 -164 33t-119 102q-118 -131 -323 -135q-81 1 -151.5 24t-125 67t-80 115.5t-12.5 161.5zM274 348q-10 -71 44.5 -114.5t130.5 -43.5q87 0 143.5 41t66.5 117l52 350l2 17q10 70 -43 108.5t-127 38.5 q-78 0 -141.5 -38.5t-73.5 -108.5zM924 621q109 -37 184 -37q198 0 215 125q10 75 -41.5 114t-130.5 39q-80 0 -142 -44t-73 -122z" />
<glyph unicode="&#x178;" horiz-adv-x="1226" d="M106 1450h273l258 -659l440 659h277l-631 -887l-78 -563h-237l77 563zM418 1700q7 60 52.5 100.5t104.5 40.5t93.5 -40.5t27.5 -100.5q-7 -58 -52.5 -98.5t-104.5 -40.5q-58 0 -93.5 40t-27.5 99zM829 1700q8 60 53 100.5t105 40.5t95.5 -40.5t27.5 -100.5 q-8 -59 -54 -99t-106 -40t-94.5 40t-26.5 99z" />
<glyph unicode="&#x2c6;" horiz-adv-x="802" d="M186 1548l328 310h166l240 -310h-261l-94 109l-114 -109h-265z" />
<glyph unicode="&#x2dc;" horiz-adv-x="555" d="M104 1645q38 116 92.5 165.5t131.5 49.5q33 0 71 -14.5t65.5 -29.5t54.5 -24t49.5 3t39.5 50l152 -61q-20 -102 -76 -156.5t-117 -54.5q-36 0 -78 15.5t-73 31t-62.5 24.5t-58 -6.5t-47.5 -60.5z" />
<glyph unicode="&#x2000;" horiz-adv-x="940" />
<glyph unicode="&#x2001;" horiz-adv-x="1880" />
<glyph unicode="&#x2002;" horiz-adv-x="940" />
<glyph unicode="&#x2003;" horiz-adv-x="1880" />
<glyph unicode="&#x2004;" horiz-adv-x="626" />
<glyph unicode="&#x2005;" horiz-adv-x="470" />
<glyph unicode="&#x2006;" horiz-adv-x="313" />
<glyph unicode="&#x2007;" horiz-adv-x="313" />
<glyph unicode="&#x2008;" horiz-adv-x="235" />
<glyph unicode="&#x2009;" horiz-adv-x="376" />
<glyph unicode="&#x200a;" horiz-adv-x="104" />
<glyph unicode="&#x2010;" horiz-adv-x="788" d="M90 489l33 230h569l-33 -230h-569z" />
<glyph unicode="&#x2011;" horiz-adv-x="788" d="M90 489l33 230h569l-33 -230h-569z" />
<glyph unicode="&#x2012;" horiz-adv-x="788" d="M90 489l33 230h569l-33 -230h-569z" />
<glyph unicode="&#x2013;" horiz-adv-x="1181" d="M88 489l33 228h964l-32 -228h-965z" />
<glyph unicode="&#x2014;" horiz-adv-x="1966" d="M88 489l33 228h1747l-33 -228h-1747z" />
<glyph unicode="&#x2018;" horiz-adv-x="536" d="M111 911l251 537h236l-229 -537h-258z" />
<glyph unicode="&#x2019;" horiz-adv-x="534" d="M115 913l225 537h262l-256 -537h-231z" />
<glyph unicode="&#x201a;" horiz-adv-x="514" d="M-115 -250l217 510h267l-258 -510h-226z" />
<glyph unicode="&#x201c;" horiz-adv-x="884" d="M109 907l253 537h232l-223 -537h-262zM459 907l256 537h229l-223 -537h-262z" />
<glyph unicode="&#x201d;" horiz-adv-x="876" d="M115 911l225 537h262l-256 -537h-231zM459 911l223 537h262l-254 -537h-231z" />
<glyph unicode="&#x201e;" horiz-adv-x="874" d="M-119 -250l221 502h265l-256 -502h-230zM244 -250l223 502h262l-254 -502h-231z" />
<glyph unicode="&#x2022;" horiz-adv-x="833" d="M125 702q17 126 118 215t228 89q126 0 200.5 -89t57.5 -215q-19 -127 -119 -216t-225 -89q-127 0 -203 89.5t-57 215.5z" />
<glyph unicode="&#x2026;" horiz-adv-x="1218" d="M16 137q9 63 58 106.5t112 43.5t100.5 -43.5t28.5 -106.5t-58 -106t-112 -43t-100.5 43t-28.5 106zM395 137q9 63 57 106.5t111 43.5t100.5 -43.5t28.5 -106.5t-58 -106t-112 -43t-99.5 43t-27.5 106zM772 137q9 63 57 106.5t111 43.5q64 0 101 -43.5t28 -106.5 t-57.5 -106t-112.5 -43q-63 0 -99.5 43t-27.5 106z" />
<glyph unicode="&#x202f;" horiz-adv-x="376" />
<glyph unicode="&#x2039;" horiz-adv-x="628" d="M53 596l367 451l178 -117l-276 -334l182 -336l-211 -115z" />
<glyph unicode="&#x203a;" horiz-adv-x="626" d="M20 260l277 336l-178 334l211 117l237 -451l-364 -451z" />
<glyph unicode="&#x205f;" horiz-adv-x="470" />
<glyph unicode="&#x20ac;" horiz-adv-x="1247" d="M35 502l61 178h101l12 90h-121l57 166h88l11 78q14 109 69 197.5t134 144t172.5 85t189.5 29.5q149 0 271.5 -84t174.5 -239l-221 -105q-34 95 -105 145t-153 50q-111 0 -201.5 -59.5t-103.5 -163.5l-10 -78h504l-58 -166h-465l-12 -90h494l-58 -178h-467l-10 -70 q-16 -104 57 -163.5t183 -59.5q85 0 169.5 49.5t145.5 144.5l193 -100q-96 -157 -242.5 -240t-298.5 -83q-97 0 -181 28.5t-147 83t-92.5 142.5t-13.5 198l10 70h-137z" />
<glyph unicode="&#x2122;" horiz-adv-x="1712" d="M141 1210l29 211h641l-29 -211h-213l-88 -616h-217l88 616h-211zM784 594l117 827h195l149 -415q78 132 166.5 262.5t101.5 152.5h189l-117 -827h-217l68 371l-174 -256h-109l-111 262l-41 -377h-217z" />
<glyph unicode="&#x25fc;" horiz-adv-x="1064" d="M0 0v1065h1065v-1065h-1065z" />
</font>
</defs>
</svg>
