<?xml version="1.0" standalone="no"?>
<!DOCTYPE svg PUBLIC "-//W3C//DTD SVG 1.1//EN" "http://www.w3.org/Graphics/SVG/1.1/DTD/svg11.dtd" >
<svg xmlns="http://www.w3.org/2000/svg">
<metadata></metadata>
<defs>
<font id="uni_sanssemibold" horiz-adv-x="1368" >
<font-face units-per-em="2048" ascent="1548" descent="-500" />
<missing-glyph horiz-adv-x="409" />
<glyph unicode="&#xfb01;" horiz-adv-x="1062" d="M119 0v1092q0 179 125.5 277.5t314.5 86.5v-221q-102 0 -158.5 -37.5t-56.5 -105.5v-193h203v-225h-203v-674h-225zM686 1309q0 61 40.5 102t100.5 41q63 0 103.5 -40.5t40.5 -102.5q0 -61 -41 -102.5t-103 -41.5q-60 0 -100.5 42t-40.5 102zM719 0v1063h225v-1063h-225z " />
<glyph unicode="&#xfb02;" horiz-adv-x="1142" d="M117 0v1092q0 179 125.5 277.5t314.5 86.5v-221q-102 0 -158.5 -37.5t-56.5 -105.5v-193h203v-225h-203v-674h-225zM719 356v1094h225v-1094q0 -68 46.5 -110.5t137.5 -42.5v-211q-195 0 -302 97t-107 267z" />
<glyph horiz-adv-x="0" />
<glyph horiz-adv-x="682" />
<glyph unicode=" "  horiz-adv-x="409" />
<glyph unicode="&#x09;" horiz-adv-x="409" />
<glyph unicode="&#xa0;" horiz-adv-x="409" />
<glyph unicode="!" horiz-adv-x="481" d="M92 125q0 63 42.5 106t105.5 43t106 -43t43 -106t-43 -106.5t-106 -43.5t-105.5 43.5t-42.5 106.5zM125 352v1092h229v-1092h-229z" />
<glyph unicode="&#x22;" horiz-adv-x="724" d="M113 934v516h229l-39 -516h-190zM403 934v516h230l-39 -516h-191z" />
<glyph unicode="#" horiz-adv-x="1495" d="M53 403l45 224h277q36 95 53 166h-301l47 225h320q45 151 112 385h242l-113 -385h205l113 385h239l-116 -385h268l-62 -225h-274l-45 -166h303l-49 -224h-324q-104 -343 -119 -405h-237l117 405h-207l-117 -405h-240l119 405h-256zM616 627h205l49 166h-204z" />
<glyph unicode="$" horiz-adv-x="1189" d="M53 336l211 92q32 -76 93 -126.5t130 -68.5v414q-52 12 -90.5 23.5t-83 30t-76 39t-62 51.5t-48.5 67.5t-27 86.5t-6 110q4 165 112 263.5t281 121.5v188h213v-188q140 -21 256 -106t177 -224l-209 -94q-34 78 -94.5 128t-129.5 64v-370q62 -13 109.5 -27.5t100 -38.5 t89 -57t66.5 -77.5t42.5 -107t8.5 -139.5q-5 -83 -40.5 -153t-93 -118t-129.5 -78.5t-153 -41.5v-193h-213v193q-141 23 -257.5 108.5t-176.5 227.5zM322 1040q-4 -66 38 -101t127 -58v323q-68 -20 -114.5 -62t-50.5 -100v-2zM700 233q74 18 125.5 63t61.5 107 q1 78 -47.5 124t-139.5 75v-369z" />
<glyph unicode="%" horiz-adv-x="1542" d="M55 1075q0 168 84 268.5t217 100.5q143 0 223 -97.5t80 -275.5q0 -172 -85 -273.5t-218 -101.5q-143 0 -222 98t-79 281zM147 -29l1002 1532l188 -121l-1003 -1532zM233 1075q0 -105 29.5 -153t89.5 -48q125 0 125 197q0 199 -127 199q-117 0 -117 -195zM883 371 q0 168 84 268t217 100q143 0 223 -97t80 -275q0 -172 -85 -273.5t-218 -101.5q-143 0 -222 98t-79 281zM1061 373q0 -105 29.5 -153t89.5 -48q125 0 125 197q0 198 -127 198q-117 0 -117 -194z" />
<glyph unicode="&#x26;" horiz-adv-x="1323" d="M72 414q0 69 20.5 128t59.5 105.5t79.5 79.5t96.5 68q-59 73 -91 138.5t-32 141.5q0 157 111.5 250.5t267.5 93.5q90 0 169 -40t128 -115t49 -168q0 -66 -18.5 -120.5t-55 -96t-75 -71t-93.5 -60.5l195 -209l90 151l201 -98l-132 -217l258 -297h-296l-95 102 q-81 -93 -174.5 -140.5t-218.5 -47.5q-191 0 -317.5 115.5t-126.5 306.5zM287 414q0 -95 69 -154t172 -59q130 0 236 133l-297 307q-82 -51 -131 -104.5t-49 -122.5zM432 1079q0 -78 100 -186q175 90 175 197q0 55 -36 88.5t-93 33.5q-61 0 -103.5 -37t-42.5 -96z" />
<glyph unicode="'" horiz-adv-x="436" d="M113 932v516h225l-27 -516h-198z" />
<glyph unicode="(" horiz-adv-x="602" d="M76 680q0 222 79 455t220 432l182 -121q-126 -159 -189 -366.5t-63 -399.5t66 -378t194 -392l-182 -119q-148 207 -227.5 440.5t-79.5 448.5z" />
<glyph unicode=")" horiz-adv-x="608" d="M37 -137q127 163 195.5 368t68.5 392q0 396 -258 802l182 121q147 -204 228.5 -453.5t81.5 -469.5q0 -221 -79.5 -454t-222.5 -433z" />
<glyph unicode="*" horiz-adv-x="913" d="M55 1087l58 199l243 -78v246h205v-248l238 76l59 -199l-235 -71l149 -201l-162 -123l-153 205l-148 -205l-170 119l154 207z" />
<glyph unicode="+" horiz-adv-x="1175" d="M63 565v230h418v405h228v-405h401v-230h-401v-411h-228v411h-418z" />
<glyph unicode="," horiz-adv-x="497" d="M0 -250l154 537h256l-181 -537h-229z" />
<glyph unicode="-" horiz-adv-x="790" d="M111 489v230h569v-230h-569z" />
<glyph unicode="." horiz-adv-x="464" d="M84 137q0 63 42 106.5t105 43.5t106.5 -43.5t43.5 -106.5t-43.5 -106t-106.5 -43t-105 43t-42 106z" />
<glyph unicode="/" horiz-adv-x="901" d="M43 -6l606 1528l209 -74l-602 -1530z" />
<glyph unicode="0" horiz-adv-x="1249" d="M102 412v624q0 87 31 160t82.5 123t119.5 84.5t142 50.5t150 16t149.5 -16t141.5 -50.5t119 -84.5t81.5 -123t30.5 -160v-624q0 -86 -30.5 -158.5t-81.5 -122t-119 -84.5t-141.5 -51t-149.5 -16t-150 16t-142 51t-119.5 84.5t-82.5 122t-31 158.5zM332 403 q0 -54 27 -95.5t71.5 -64t94 -33.5t102.5 -11t102.5 11t93.5 33.5t70.5 64t26.5 95.5v625q0 56 -26.5 97.5t-71 64t-93 33t-102.5 10.5t-103 -10.5t-93.5 -33t-71.5 -64t-27 -97.5v-625z" />
<glyph unicode="1" horiz-adv-x="688" d="M10 1073l357 377h196v-1450h-227v1094l-150 -162z" />
<glyph unicode="2" horiz-adv-x="1163" d="M66 162l669 643q63 70 90 144.5t14.5 137.5t-77 106.5t-174.5 49.5q-103 1 -187 -55.5t-127 -151.5l-206 84q71 166 213.5 258t314.5 92q122 0 218.5 -40t154.5 -105.5t85.5 -152t19.5 -177.5t-52.5 -183.5t-122.5 -168.5l-424 -412h602v-229h-942z" />
<glyph unicode="3" horiz-adv-x="1212" d="M49 319l215 101q43 -93 138 -147t198 -54q124 0 211.5 57.5t87.5 159.5q0 229 -264 226h-170v215h170q93 0 149 46t56 132q0 90 -69.5 137t-168.5 47q-86 0 -167 -47t-130 -133l-205 106q72 145 208 225t284 80q94 0 179 -25.5t153.5 -75t109.5 -131t41 -183.5 q0 -83 -37.5 -154.5t-122.5 -109.5q65 -26 109.5 -64t68 -86t33 -97.5t9.5 -109.5q-1 -110 -47 -198t-122.5 -142t-171.5 -82t-200 -28q-109 0 -212 36t-192.5 113t-140.5 186z" />
<glyph unicode="4" horiz-adv-x="1157" d="M14 526l719 924h217v-885h131v-217h-131v-344h-229v344h-594zM293 565h434l4 383q33 248 35 248h-10l-144 -211z" />
<glyph unicode="5" horiz-adv-x="1181" d="M63 303l209 98q44 -88 131 -136t183 -48q77 0 142.5 22.5t110 72.5t44.5 120v84q0 102 -82.5 153.5t-206.5 51.5q-89 0 -166 -19t-168 -61l-131 -4v811h915v-236h-686v-303q127 40 236 37q99 -1 187.5 -25.5t163.5 -74t120.5 -134t46.5 -194.5v-88q0 -109 -45.5 -196.5 t-121 -142t-169 -83t-194.5 -28.5q-158 0 -300 84t-219 239z" />
<glyph unicode="6" horiz-adv-x="1241" d="M102 414v622q0 105 45.5 190t122 137.5t171.5 80t198 26.5q166 0 296.5 -70t203.5 -222l-209 -93q-34 72 -113.5 110t-177.5 38q-81 0 -149 -22t-113 -70.5t-45 -114.5v-215q54 70 138 99.5t169 29.5q82 -1 158.5 -18.5t144 -53t117.5 -86.5t79 -122.5t29 -155.5v-90 q0 -84 -29 -155.5t-79 -122t-117.5 -86.5t-144 -53t-158.5 -17q-103 -1 -198 26.5t-171.5 80t-122 137.5t-45.5 190zM332 426q0 -67 45 -115.5t113 -71t149 -22.5q123 0 211 55.5t88 153.5v76q0 98 -88 153.5t-211 55.5q-81 0 -149 -22.5t-113 -71t-45 -115.5v-76z" />
<glyph unicode="7" horiz-adv-x="1044" d="M55 1219v229h906l71 -141l-663 -1307h-256l610 1219h-668z" />
<glyph unicode="8" horiz-adv-x="1257" d="M78 451q0 46 11.5 93.5t35 95.5t65.5 90t97 67q-76 32 -113 109.5t-37 156.5q1 106 41 186.5t108 127.5t149.5 70t174.5 23h35q92 0 174.5 -24t150.5 -71.5t108 -127.5t40 -184q0 -83 -35 -156t-110 -104q207 -83 207 -352q-3 -148 -74.5 -256t-190.5 -161.5t-270 -53.5 h-35q-233 0 -381 125t-151 346zM309 436q0 -75 47 -131.5t114 -83t140 -26.5h35q72 0 139 26.5t114.5 83t47.5 131.5q0 88 -43.5 146.5t-108.5 82t-149 23.5h-35q-84 0 -149 -23.5t-108.5 -82t-43.5 -146.5zM367 1069q0 -65 39 -108.5t93.5 -60.5t118.5 -17q47 0 92 10 t85.5 31t65 58.5t24.5 86.5q0 89 -71.5 142t-168.5 53h-35q-98 0 -170.5 -53t-72.5 -142z" />
<glyph unicode="9" horiz-adv-x="1257" d="M78 942v86q0 106 45.5 192t121.5 139.5t171 82t198 28.5q83 1 161 -16.5t146.5 -53.5t120.5 -88t83 -125t32 -159v-608q0 -107 -46.5 -192.5t-124 -138.5t-173 -81t-199.5 -28q-106 0 -205.5 35t-186 108.5t-136.5 175.5l193 94q117 -182 335 -182q129 0 219.5 55.5 t90.5 155.5v207q-42 -64 -130 -94.5t-180 -30.5q-103 1 -198 29t-171 81t-121.5 138t-45.5 190zM313 942q0 -99 88 -154t213 -55q129 0 219.5 54.5t90.5 154.5v84q0 101 -90 154t-220 53q-126 0 -213.5 -53.5t-87.5 -153.5v-84z" />
<glyph unicode=":" horiz-adv-x="520" d="M111 164q0 64 43 106.5t106 42.5t106.5 -42.5t43.5 -106.5q0 -63 -43.5 -105.5t-106.5 -42.5t-106 42.5t-43 105.5zM111 850q0 63 43 105t106 42t106.5 -42t43.5 -105t-43.5 -106.5t-106.5 -43.5t-106 43.5t-43 106.5z" />
<glyph unicode=";" horiz-adv-x="542" d="M39 -250l133 537h274l-180 -537h-227zM113 823q0 63 42.5 105.5t106.5 42.5q63 0 104.5 -42.5t41.5 -105.5t-41.5 -106t-104.5 -43q-64 0 -106.5 43t-42.5 106z" />
<glyph unicode="&#x3c;" horiz-adv-x="911" d="M51 530v158l760 453v-262l-461 -269q23 -14 65.5 -37.5t147.5 -82.5t248 -142v-262z" />
<glyph unicode="=" horiz-adv-x="1085" d="M113 313v217h860v-217h-860zM113 664v221h860v-221h-860z" />
<glyph unicode="&#x3e;" horiz-adv-x="911" d="M100 86v262l467 264l-467 265v264l762 -453v-158z" />
<glyph unicode="?" horiz-adv-x="1003" d="M47 1229q78 124 189 182.5t235 58.5t229.5 -49t173 -151t66.5 -240q-1 -96 -30 -175.5t-80 -134t-118 -89t-147 -47.5l-16 -254h-203l-16 448q159 -32 271 61q84 69 100 171q17 106 -51 171q-63 62 -183 62q-66 0 -135 -37t-125 -106zM309 115q0 57 41 98t99 41t98.5 -41 t40.5 -98q0 -55 -40.5 -95t-98.5 -40t-99 40t-41 95z" />
<glyph unicode="@" horiz-adv-x="1538" d="M80 723q0 152 56.5 288.5t153.5 235t232 156t285 57.5q191 0 346.5 -80t243.5 -219.5t88 -310.5q0 -122 -40.5 -233.5t-105.5 -189t-149.5 -123.5t-171.5 -46q-45 0 -84 20t-60 60q-66 -44 -138 -54t-134 12.5t-112.5 66.5t-79.5 110.5t-29 140.5q0 171 66 307t196 199 q59 29 132 39.5t142.5 -12t92.5 -84.5l14 47l152 -29l-127 -622q57 2 111 62t86.5 149.5t33.5 175.5q1 102 -36 183.5t-101.5 133t-149 78.5t-182.5 27q-122 0 -225 -47t-170 -124.5t-105 -175t-41 -200.5q-5 -188 90 -332t267 -197t409 27l86 -164q-180 -71 -317 -71 q-182 0 -323 57t-227.5 158.5t-130.5 233.5t-44 290zM592 616q0 -49 26.5 -84.5t67.5 -35.5q63 0 120 58.5t88.5 137.5t31.5 148q0 59 -21.5 94t-62.5 35q-61 1 -110.5 -32.5t-79 -87.5t-45 -114.5t-15.5 -118.5z" />
<glyph unicode="A" horiz-adv-x="1290" d="M-2 0l522 1450h248l524 -1450h-248l-141 377h-520l-131 -377h-254zM463 614h358l-119 367l-55 229h-8l-59 -233z" />
<glyph unicode="B" horiz-adv-x="1277" d="M137 0v1450h565q92 0 171 -25t140 -73.5t95.5 -125.5t34.5 -175q0 -80 -33.5 -156t-99.5 -119q76 -33 121.5 -88.5t61 -116t15.5 -139.5q-2 -94 -28 -167.5t-71 -122.5t-109 -81.5t-138 -46.5t-162 -14h-563zM375 227h327h13q113 1 183 49q72 52 73 164q0 219 -262 219 h-7h-327v-432zM375 872h327q95 0 151 46t56 141q0 80 -58 122t-149 42h-327v-351z" />
<glyph unicode="C" horiz-adv-x="1230" d="M98 446v558q0 112 47.5 202.5t127 147t179 86.5t207.5 30q167 0 313.5 -85.5t221.5 -245.5l-211 -105q-51 95 -141 147t-189 52q-83 0 -154 -24.5t-118 -77.5t-47 -127v-558q0 -74 47 -127t118 -77.5t154 -24.5q101 0 191 51t139 146l211 -99q-51 -109 -139.5 -186 t-190.5 -113t-211 -36q-106 0 -203.5 30t-177 86t-127 147t-47.5 203z" />
<glyph unicode="D" horiz-adv-x="1300" d="M137 0v1450h520q109 0 204.5 -27.5t172.5 -81.5t121.5 -143.5t44.5 -204.5v-544q0 -92 -29.5 -167.5t-80 -127t-120 -87t-148 -51.5t-165.5 -16h-520zM373 238h284q133 0 219.5 52t86.5 159v544q0 109 -87 164t-219 55h-284v-974z" />
<glyph unicode="E" horiz-adv-x="1179" d="M137 0v1452h957v-238h-719v-370h661v-238h-661v-368h719v-238h-957z" />
<glyph unicode="F" horiz-adv-x="1150" d="M137 0v1450h955v-238h-717v-407h629v-238h-629v-567h-238z" />
<glyph unicode="G" horiz-adv-x="1294" d="M98 451v555q0 90 31 166.5t84.5 130.5t125 92.5t151.5 56.5t165 18q169 0 311 -79t218 -238l-213 -102q-45 92 -132 137t-188 45q-82 0 -152.5 -24.5t-117.5 -77.5t-47 -127v-553q0 -75 47.5 -130t119 -79.5t154.5 -24.5q84 0 156.5 24.5t121 79.5t48.5 130v114h-408v228 h644v-342q0 -92 -31.5 -170t-85 -133t-125.5 -93.5t-153 -56.5t-167 -18t-166 18t-151.5 56.5t-124.5 93.5t-84 133t-31 170z" />
<glyph unicode="H" horiz-adv-x="1394" d="M137 0v1450h238v-608h645v608h237v-1450h-237v606h-645v-606h-238z" />
<glyph unicode="I" horiz-adv-x="512" d="M139 0v1450h236v-1450h-236z" />
<glyph unicode="J" horiz-adv-x="1224" d="M20 422l238 39q22 -119 109.5 -184.5t195.5 -65.5q56 0 108.5 15t95 42.5t68 72.5t25.5 101v791h-360v217h598v-1008q0 -111 -46.5 -201t-124 -146t-172.5 -85.5t-198 -29.5q-91 0 -177 28t-159.5 81.5t-127 139.5t-73.5 193z" />
<glyph unicode="K" horiz-adv-x="1292" d="M137 0v1450h236v-641l628 641h293l-651 -700l655 -750h-301l-522 582l-102 -103v-479h-236z" />
<glyph unicode="L" horiz-adv-x="1062" d="M137 0v1450h236v-1212h661v-238h-897z" />
<glyph unicode="M" horiz-adv-x="1607" d="M137 0v1450h264l400 -942l403 942h266v-1450h-237v666l45 393h-21l-122 -342l-238 -516h-186l-240 516l-121 348h-20l43 -401v-664h-236z" />
<glyph unicode="N" horiz-adv-x="1394" d="M137 0v1450h250l504 -856l149 -289l15 4l-35 312v829h237v-1450h-276l-494 840l-135 276l-14 -4l37 -303v-809h-238z" />
<glyph unicode="O" d="M98 451v550q0 91 32.5 168.5t88.5 132t131 93t159.5 57t174.5 18.5q112 0 216 -30t187.5 -86.5t134 -148t50.5 -204.5v-550q0 -113 -50.5 -205t-134 -148.5t-187.5 -87t-216 -30.5q-90 0 -174.5 18.5t-159.5 57.5t-131 94t-88.5 132.5t-32.5 168.5zM334 453 q0 -75 51.5 -130t129.5 -80.5t169 -25.5q92 0 170.5 25.5t130 80.5t51.5 130v544q0 79 -52.5 134t-129.5 78.5t-170 23.5q-92 -1 -169 -25t-129 -79t-52 -132v-544z" />
<glyph unicode="P" horiz-adv-x="1251" d="M137 0v1450h561q121 0 218.5 -41t158.5 -109.5t93 -152.5t32 -174q0 -92 -32 -176t-92.5 -150t-158 -105.5t-217.5 -39.5h-329v-502h-234zM371 719h327q125 0 196 75.5t71 174.5q0 98 -71 170.5t-196 72.5h-327v-493z" />
<glyph unicode="Q" d="M98 451v550q0 91 32.5 168.5t88.5 132t131 93t159.5 57t174.5 18.5q112 0 216 -30t187.5 -86.5t134 -148t50.5 -204.5v-550q0 -165 -107 -285l117 -148l-152 -114l-120 147q-145 -71 -326 -71q-90 0 -174.5 18.5t-159.5 57.5t-131 94t-88.5 132.5t-32.5 168.5zM334 453 q0 -75 51 -130t129 -80.5t170 -25.5q100 0 178 19l-112 137l159 114l109 -137q18 43 18 103v544q0 79 -52.5 134t-129.5 78.5t-170 23.5q-92 -1 -169 -25t-129 -79t-52 -132v-544z" />
<glyph unicode="R" horiz-adv-x="1273" d="M137 0v1450h561q227 0 364.5 -110.5t143.5 -338.5q0 -195 -103.5 -301t-279.5 -131l449 -569h-289l-434 561h-174v-561h-238zM375 768h325q128 0 198.5 56.5t70.5 174.5q0 115 -70.5 164t-198.5 49h-325v-444z" />
<glyph unicode="S" horiz-adv-x="1202" d="M53 330l217 98q46 -101 135.5 -156t194.5 -55q119 0 205 48t92 138q2 30 -3 55.5t-19 45.5t-29 35t-42.5 28.5t-48.5 22t-58.5 18t-61 14.5t-66.5 13q-80 16 -143 34.5t-131 52.5t-113 77.5t-74 110.5t-30 151q8 127 85.5 222t191 141t243.5 46q84 0 159.5 -17t144.5 -53 t125.5 -98t92.5 -145l-215 -96q-43 95 -120.5 133.5t-186.5 38.5q-114 0 -198.5 -51t-84.5 -138q0 -28 11.5 -51.5t34.5 -41.5t48.5 -31t64.5 -24t70 -18t77 -16q61 -11 110 -23t106 -32.5t100.5 -45t84.5 -61t66.5 -80.5t39.5 -104q10 -46 10 -99q0 -16 -1 -32 q-4 -100 -52 -179t-124.5 -127.5t-169.5 -73.5t-195 -25q-172 0 -320.5 91t-222.5 259z" />
<glyph unicode="T" horiz-adv-x="1175" d="M29 1212v238h1118v-238h-440v-1212h-238v1212h-440z" />
<glyph unicode="U" horiz-adv-x="1376" d="M129 455v995h238v-993q0 -114 95 -177t226 -63q132 0 228 63t96 177v993h237v-995q0 -92 -31.5 -170.5t-85.5 -134t-126 -94.5t-152.5 -57.5t-165.5 -18.5q-108 0 -206.5 30.5t-178 87.5t-127 149.5t-47.5 207.5z" />
<glyph unicode="V" horiz-adv-x="1292" d="M-2 1450h252l319 -922q-1 0 16.5 -68t35.5 -136l18 -68h20l62 276l323 918h250l-522 -1450h-250z" />
<glyph unicode="W" horiz-adv-x="1896" d="M12 1450h246l256 -907q-1 0 10 -67.5t22 -135.5l11 -68h18l46 281l229 684h199l225 -688q-1 0 14.5 -68t31.5 -137l15 -68h19l32 271l254 903h244l-420 -1450h-252l-229 709l-29 182h-14q-2 -11 -5.5 -30t-11 -58.5t-12.5 -65.5t-4 -26l-223 -711h-252z" />
<glyph unicode="X" horiz-adv-x="1277" d="M-2 0l496 723l-492 727h287l350 -545l350 545h287l-494 -727l496 -723h-289l-350 539l-350 -539h-291z" />
<glyph unicode="Y" horiz-adv-x="1228" d="M-8 1450h272l350 -659l349 659h276l-506 -887v-563h-237v563z" />
<glyph unicode="Z" horiz-adv-x="1210" d="M39 156l805 1056h-762v238h1012l71 -154l-807 -1079h779v-217h-1035z" />
<glyph unicode="[" horiz-adv-x="581" d="M119 -240v1731h395v-217h-164v-1299h164v-215h-395z" />
<glyph unicode="\" horiz-adv-x="894" d="M45 1413l213 74l594 -1495l-213 -72z" />
<glyph unicode="]" horiz-adv-x="583" d="M70 -29h161v1311h-161v211h395v-1731h-395v209z" />
<glyph unicode="^" horiz-adv-x="1198" d="M68 868l452 578h146l464 -578h-280l-258 314l-248 -314h-276z" />
<glyph unicode="_" horiz-adv-x="1253" d="M113 68h1028v-226h-1028v226z" />
<glyph unicode="`" horiz-adv-x="526" d="M-31 1858h289l186 -310h-233z" />
<glyph unicode="a" horiz-adv-x="1001" d="M61 303q0 84 33.5 151t90 107t125.5 61t145 21q122 0 215 -41v123q0 74 -64 116q-62 40 -149 40h-8q-65 0 -125.5 -22.5t-98.5 -65.5l-127 131q80 89 173 123t206 34q80 0 153 -21.5t133 -63t96 -110t36 -155.5v-680q-188 -71 -401 -71q-70 0 -130.5 9t-117 32t-97 59 t-64.5 93t-24 130zM283 305q0 -70 55.5 -103.5t140.5 -33.5q101 0 191 22v236q-83 37 -183 37q-96 0 -150 -43.5t-54 -114.5z" />
<glyph unicode="b" horiz-adv-x="1042" d="M117 61v1391h225v-414q90 43 199 43q106 -1 198.5 -42.5t153.5 -126.5t61 -197v-379q-7 -95 -43 -165t-94.5 -110.5t-128 -59.5t-153.5 -21h-14q-200 0 -404 81zM342 197q66 -29 156 -29q59 0 108 15.5t84.5 55t38.5 97.5v389q-7 80 -72.5 122t-154.5 42q-93 0 -160 -43 v-649z" />
<glyph unicode="c" horiz-adv-x="968" d="M88 344v373q0 89 36 160t96 114.5t133 66.5t153 23q65 0 127 -15.5t119.5 -47t101 -87t64.5 -128.5l-205 -78q-19 67 -73.5 102t-123.5 35q-78 0 -140.5 -39t-62.5 -104v-377q0 -66 57.5 -104.5t135.5 -38.5q71 0 129.5 35t77.5 102l209 -78q-21 -73 -65.5 -128.5 t-102.5 -87t-120.5 -47t-127.5 -15.5q-80 0 -153 23t-133 66.5t-96 114.5t-36 160z" />
<glyph unicode="d" horiz-adv-x="1042" d="M88 336v379q0 85 35.5 156t95 116t134 69.5t153.5 24.5q107 0 194 -43v414h226v-1391q-200 -81 -398 -81h-14q-84 1 -155 20t-130.5 59t-96.5 110.5t-44 166.5zM313 336q3 -58 38.5 -97.5t85.5 -55t110 -15.5q87 0 153 29v649q-67 43 -161 43q-89 0 -154 -42t-72 -122 v-389z" />
<glyph unicode="e" horiz-adv-x="995" d="M88 344v373q0 90 36 161t96 114.5t134 66t154 22.5q78 0 150.5 -22.5t132 -66t95.5 -115t36 -160.5v-291h-607v-74q0 -69 56.5 -111t132.5 -42q144 0 196 106l189 -108q-59 -104 -164.5 -160.5t-216.5 -56.5q-80 0 -154 23t-134 67t-96 115t-36 159zM315 612h390v101 q0 70 -58 109.5t-137 39.5q-82 0 -140 -40q-55 -38 -55 -106v-7v-97z" />
<glyph unicode="f" horiz-adv-x="587" d="M119 0v1092q0 179 125 278q112 87 275 87q19 0 40 -1v-221q-102 0 -158.5 -38.5t-56.5 -106.5v-66h205v-221h-205v-803h-225z" />
<glyph unicode="g" horiz-adv-x="1032" d="M88 348v361q0 93 37 166t101 116.5t142 66t167 23.5q103 0 205.5 -31t174.5 -85v-985q0 -97 -34.5 -173.5t-93 -122.5t-131.5 -70t-154 -24q-124 0 -234.5 48.5t-169.5 140.5l135 129q43 -59 116.5 -92t150.5 -33q90 0 145 56t55 179q-86 -38 -194 -38q-109 0 -202.5 41 t-154.5 127t-61 200zM313 346q4 -78 65 -122t144 -44q105 0 170 47v604q-61 43 -168 43q-87 0 -149 -42t-62 -123v-363z" />
<glyph unicode="h" horiz-adv-x="1062" d="M119 0v1450h225v-410q94 41 197 41h14q77 0 146.5 -23t126 -67t89.5 -116.5t33 -163.5v-711h-223v713q0 66 -42.5 106.5t-103.5 50.5q-29 5 -59 4q-33 0 -67 -6q-65 -10 -111 -39v-829h-225z" />
<glyph unicode="i" horiz-adv-x="462" d="M86 1327q0 61 40.5 102t100.5 41q63 0 103.5 -40.5t40.5 -102.5q0 -61 -41 -102t-103 -41q-60 0 -100.5 41.5t-40.5 101.5zM119 0v1061h225v-1061h-225z" />
<glyph unicode="j" horiz-adv-x="462" d="M-27 -152v-210q371 0 371 360v1063h-225v-1063q0 -75 -28.5 -112.5t-117.5 -37.5zM86 1327q0 61 41.5 102t101.5 41q62 0 103 -41t41 -102q0 -60 -41.5 -101.5t-102.5 -41.5q-60 0 -101.5 41.5t-41.5 101.5z" />
<glyph unicode="k" horiz-adv-x="1021" d="M119 0v1450h225v-817l381 428h283l-443 -490l441 -571h-265l-333 434l-64 -63v-371h-225z" />
<glyph unicode="l" horiz-adv-x="534" d="M111 344v1106h225v-1106q0 -68 46.5 -111t137.5 -43v-210q-195 0 -302 97t-107 267z" />
<glyph unicode="m" horiz-adv-x="1583" d="M117 0v969q69 50 166.5 80.5t193.5 31.5q225 0 309 -141q44 67 122 103t169 38h6q71 0 137 -21q69 -22 125.5 -64t90.5 -111t34 -154v-731h-223v723q0 68 -49 103.5t-121 35.5q-70 0 -124 -36t-54 -95v-731h-221v727q0 68 -53.5 101.5t-132.5 33.5q-87 0 -154 -43v-819 h-221z" />
<glyph unicode="n" horiz-adv-x="1058" d="M117 0v995q163 83 362 86h9q88 0 166 -20q82 -21 148.5 -64.5t105 -118.5t38.5 -173v-705h-223v702q-4 83 -71 125.5t-158 42.5q-96 0 -152 -36v-834h-225z" />
<glyph unicode="o" horiz-adv-x="1011" d="M88 346v369q0 88 36 159t96 115t134 67.5t154 24.5q79 -1 152 -24.5t132.5 -67.5t95.5 -115t36 -159v-369q0 -89 -36 -160.5t-95.5 -115t-132.5 -66.5t-152 -24q-81 1 -154.5 24t-133.5 66.5t-96 114.5t-36 161zM313 356q0 -71 59.5 -114t135.5 -43q72 0 131 43t59 114 v359q0 70 -58 108.5t-132 38.5q-78 0 -136.5 -38.5t-58.5 -108.5v-359z" />
<glyph unicode="p" horiz-adv-x="1044" d="M117 -346v1341q194 86 394 86h13q88 -1 162.5 -21t136 -62t96.5 -115.5t35 -171.5v-375q0 -85 -35.5 -154t-94.5 -112t-131.5 -66t-151.5 -24h-15q-96 0 -184 36v-362h-225zM342 203q77 -25 147 -25h15q92 0 155 38.5t70 119.5v379q0 86 -62 128t-155 42q-95 0 -170 -35 v-647z" />
<glyph unicode="q" horiz-adv-x="1044" d="M90 336v375q0 98 34.5 171t95 115t135 62.5t163.5 21.5h14q205 0 396 -86v-1341h-226v362q-85 -36 -194 -36q-107 0 -200 38.5t-155.5 121.5t-62.5 196zM315 336q7 -79 68.5 -117.5t151.5 -40.5h15q73 0 152 25v647q-78 35 -163 35h-13q-91 0 -151 -42.5t-60 -127.5v-379 z" />
<glyph unicode="r" horiz-adv-x="665" d="M111 0v717q0 109 53.5 190.5t142.5 128.5q43 23 108.5 34t102.5 11q65 0 121 -12v-199q-33 12 -70 12q-13 0 -27 -2q-53 -6 -98.5 -22t-76.5 -55t-31 -90v-713h-225z" />
<glyph unicode="s" horiz-adv-x="911" d="M55 231l168 109q41 -72 114 -113q70 -39 137 -39h7q60 0 100.5 30.5t43.5 88.5q0 22 -11 40.5t-25.5 30t-39.5 21t-43.5 14.5t-46.5 11q-54 11 -97.5 23t-99 38t-92 60t-62.5 89t-26 124q0 84 36 149t95 101.5t126 54.5t138 18q88 0 179 -38.5t167 -112.5l-135 -148 q-43 43 -106.5 66.5t-126.5 23.5q-62 0 -104 -24.5t-46 -71.5v-10q1 -56 53 -88q58 -34 140 -47q57 -10 102 -23t93 -37.5t80.5 -58t53 -85t21.5 -116.5q0 -106 -53 -183.5t-136 -114t-182 -36.5q-133 0 -249.5 66t-172.5 188z" />
<glyph unicode="t" horiz-adv-x="610" d="M111 358v953h202l21 -250h203v-205h-203v-496q0 -49 13.5 -83t33 -52.5t53.5 -28.5t62.5 -12t72.5 -2v-196q-43 -6 -84 -6q-80 0 -146.5 22t-118.5 66t-80.5 118t-28.5 172z" />
<glyph unicode="u" horiz-adv-x="1058" d="M111 348v713h225v-717q4 -84 70 -127t159 -43q85 0 154 37v850h223v-993q-206 -88 -407 -88q-90 1 -164.5 22t-133.5 63.5t-92.5 114.5t-33.5 168z" />
<glyph unicode="v" horiz-adv-x="1001" d="M10 1061h238l213 -619l35 -211h14l37 211l207 619h239l-377 -1061h-231z" />
<glyph unicode="w" horiz-adv-x="1452" d="M23 1061h231l143 -559l37 -258h6q9 105 174 790h224l176 -786h6l39 258l141 555h227l-297 -1061h-235l-168 721h-2l-168 -721h-235z" />
<glyph unicode="x" horiz-adv-x="1015" d="M20 0l361 530l-361 531h263l102 -160l125 -219l125 221l98 158h258l-346 -531l348 -530h-260l-110 174l-113 203l-117 -205l-110 -172h-263z" />
<glyph unicode="y" horiz-adv-x="1077" d="M111 350v711h225v-713q4 -79 71.5 -121.5t157.5 -42.5q105 0 170 47v830h223v-1079q0 -97 -35.5 -173.5t-96.5 -123.5t-136 -71t-158 -24q-128 0 -239.5 50.5t-171.5 142.5l135 129q43 -58 122 -90q73 -31 150 -31h9q93 2 154 63q53 53 53 138q0 13 -1 26 q-85 -35 -194 -38q-83 0 -161 24.5t-140 70t-99.5 117t-37.5 158.5z" />
<glyph unicode="z" horiz-adv-x="962" d="M41 133l555 715h-502v213h725l86 -135l-547 -709h531v-217h-756z" />
<glyph unicode="{" horiz-adv-x="636" d="M68 520v211q127 0 127 217v264q0 138 60.5 209.5t205.5 71.5h106v-211h-98q-28 0 -35.5 -18.5t-7.5 -63.5v-291q1 -98 -37 -176.5t-94 -105.5q62 -36 97 -110.5t34 -174.5v-297q0 -74 31 -74h110v-209h-125q-139 0 -193 70t-54 209v264q0 215 -127 215z" />
<glyph unicode="|" horiz-adv-x="462" d="M119 -322v1811h225v-1811h-225z" />
<glyph unicode="}" horiz-adv-x="634" d="M70 -29h90q28 0 39.5 18t11.5 56v297q-1 101 33.5 180t93.5 107q-55 17 -91.5 97t-35.5 183v291q0 30 -2 45t-12.5 26t-32.5 11h-94v211h96q73 0 123.5 -13.5t80 -35t45.5 -60t20.5 -76.5t4.5 -96v-264q0 -217 129 -217v-211q-129 0 -129 -215v-264q0 -69 -11.5 -117 t-41 -86.5t-85.5 -57t-140 -18.5h-92v209z" />
<glyph unicode="~" horiz-adv-x="989" d="M84 618q113 164 256 164q101 0 215 -84q28 -23 50 -32t37.5 -10t34.5 15t32 31.5t39 51.5l157 -131q-105 -185 -270 -185q-16 0 -32 2.5t-33.5 9.5l-30 12t-31.5 16.5t-27.5 16.5t-29.5 19l-27 18q-42 31 -71 34.5t-53.5 -15t-59.5 -66.5z" />
<glyph unicode="&#xa1;" horiz-adv-x="462" d="M84 905q0 63 41.5 105.5t105.5 42.5q63 0 105.5 -42.5t42.5 -105.5q0 -64 -42.5 -106.5t-105.5 -42.5q-64 0 -105.5 42t-41.5 107zM117 -403v1087h229v-1087h-229z" />
<glyph unicode="&#xa2;" horiz-adv-x="989" d="M92 350v359q0 78 28 142.5t76 108t108.5 70.5t129.5 37v158h152v-158q118 -17 210 -84t126 -188l-205 -78q-28 99 -131 127v-631q103 31 131 129l209 -78q-23 -82 -78 -142t-120.5 -90t-141.5 -40v-148h-152v148q-69 10 -129.5 36.5t-108.5 70t-76 108t-28 143.5z M317 348q6 -46 38 -79.5t79 -49.5v621q-106 -40 -117 -129v-363z" />
<glyph unicode="&#xa3;" horiz-adv-x="1067" d="M80 0v215h188v430h-188v209h188v180q0 60 12 118t43 116.5t77.5 102.5t122 71.5t169.5 27.5q189 0 299 -149l-135 -139q-50 55 -114.5 69t-118 -9t-90.5 -75.5t-37 -119.5v-193h297v-209h-297v-430h495v-215h-911z" />
<glyph unicode="&#xa4;" horiz-adv-x="1249" d="M94 322l105 100q-86 122 -86 280q0 155 84 279l-27 31l-76 71l146 158l108 -111q119 80 277 80q152 0 276 -80l111 111l143 -158l-104 -100q86 -125 86 -281q0 -159 -86 -280l28 -29l76 -71l-143 -158l-111 110q-119 -79 -276 -79q-150 0 -277 79l-33 -36l-75 -72z M334 700q0 -120 85 -205t204 -85t203.5 85t84.5 205q0 123 -84.5 209t-203.5 86t-204 -86t-85 -209z" />
<glyph unicode="&#xa5;" horiz-adv-x="1296" d="M45 1450h266l336 -627l336 627h270l-413 -721h204l-43 -186h-239v-78h285l-43 -178h-242v-287h-230v287h-292l43 178h249v78h-288l45 186h168z" />
<glyph unicode="&#xa6;" horiz-adv-x="473" d="M123 -262v758h227v-758h-227zM123 645v756h227v-756h-227z" />
<glyph unicode="&#xa7;" horiz-adv-x="964" d="M72 -23l188 103q19 -42 55 -73t77 -44.5t84.5 -13.5t78 15t56.5 46.5t22 75.5t-30.5 80.5t-78.5 63.5t-106.5 53.5t-117.5 57.5t-107 68.5t-78.5 94t-30.5 125.5q0 150 137 243q-94 94 -94 220q0 90 40.5 164t104 118.5t145 63t161 7t154.5 -61t122 -130.5l-180 -110 q-33 62 -88 84t-104.5 8t-86.5 -53.5t-37 -89.5q0 -41 29.5 -76t76.5 -62t103.5 -53t113.5 -57.5t104 -68t76.5 -90.5t29.5 -120q0 -153 -117 -243q92 -95 92 -220q-1 -83 -28.5 -151t-74 -112.5t-107.5 -73t-127 -35.5t-135 5t-129.5 41.5t-111.5 81.5t-81 119zM311 633 q0 -45 24 -69.5t73 -49.5l167 -80q95 68 95 121q0 65 -119 131l-115 64q-125 -49 -125 -117z" />
<glyph unicode="&#xa8;" horiz-adv-x="696" d="M-45 1702q0 58 39 97.5t96 39.5t96 -39.5t39 -97.5q0 -57 -39 -96t-96 -39t-96 39t-39 96zM408 1702q0 59 38.5 98t96.5 39q59 0 98 -39.5t39 -97.5q0 -57 -39.5 -96t-97.5 -39t-96.5 39t-38.5 96z" />
<glyph unicode="&#xa9;" horiz-adv-x="1622" d="M76 719q0 198 99 367.5t268.5 268.5t369.5 99q148 0 284 -58.5t234 -157.5t156.5 -235t58.5 -284q0 -200 -98.5 -369t-267.5 -267.5t-367 -98.5q-200 0 -369.5 98.5t-268.5 267.5t-99 369zM262 719q0 -149 73.5 -276t200.5 -201t277 -74q148 0 274 74t199.5 201t73.5 276 q0 150 -73.5 276.5t-199.5 199.5t-274 73q-112 0 -214 -43t-176 -116.5t-117.5 -175.5t-43.5 -214zM416 600q0 -84 34 -151.5t91 -109t126.5 -63.5t145.5 -22q85 0 161 24.5t142 86t92 153.5l-198 74q-19 -67 -78.5 -101t-123.5 -30t-117 40.5t-60 96.5v231q6 48 41.5 82.5 t85.5 45.5t101 5.5t93.5 -39t57.5 -87.5l194 73q-26 92 -91 153.5t-140.5 86.5t-159.5 25q-102 0 -190.5 -37t-147.5 -118t-59 -192v-227z" />
<glyph unicode="&#xaa;" horiz-adv-x="798" d="M80 913q0 65 23.5 113t63 75t85 39.5t96.5 12.5q68 0 123 -18q0 60 -36 91t-91 31q-87 -3 -149 -71l-101 96q51 77 133 117.5t170 38.5q122 0 208.5 -74t86.5 -203v-477q-163 -46 -301 -43q-311 7 -311 272zM287 918q0 -51 35 -75t86 -26q27 0 63 8v162q-30 12 -70 12 q-46 0 -79.5 -20.5t-34.5 -60.5z" />
<glyph unicode="&#xab;" horiz-adv-x="997" d="M57 596l303 451l195 -117l-227 -334l227 -336l-195 -115zM426 596l301 451l197 -117l-228 -336q3 -5 26 -39q82 -118 202 -293l-197 -117z" />
<glyph unicode="&#xac;" horiz-adv-x="1204" d="M98 623v223h987v-539h-223v316h-764z" />
<glyph unicode="&#xad;" horiz-adv-x="817" d="M123 385v229h569v-229h-569z" />
<glyph unicode="&#xae;" horiz-adv-x="1622" d="M76 719q0 198 99 367.5t268.5 268.5t369.5 99q148 0 284 -58.5t234 -157.5t156.5 -235t58.5 -284q0 -200 -98.5 -369t-267.5 -267.5t-367 -98.5q-200 0 -369.5 98.5t-268.5 267.5t-99 369zM262 719q0 -149 73.5 -276t200.5 -201t277 -74q148 0 274 74t199.5 201t73.5 276 q0 150 -73.5 276.5t-199.5 199.5t-274 73q-112 0 -214 -43t-176 -116.5t-117.5 -175.5t-43.5 -214zM514 346v733h332q79 0 140 -29t93 -74.5t43 -101.5t-1 -109t-49 -98t-93 -67l176 -254h-237l-160 240h-43v-240h-201zM715 750h125q31 0 52 16t25 39t-1 45.5t-26.5 38.5 t-51.5 16h-123v-155z" />
<glyph unicode="&#xaf;" horiz-adv-x="624" d="M20 1620v207h601v-207h-601z" />
<glyph unicode="&#xb0;" horiz-adv-x="743" d="M68 1151q0 127 88.5 215t216.5 88q125 0 214 -88t89 -215q0 -124 -90 -214.5t-213 -90.5q-127 0 -216 89t-89 216zM262 1149q0 -44 33.5 -76.5t77.5 -32.5t76 32.5t32 76.5q0 45 -32 78t-76 33t-77.5 -33.5t-33.5 -77.5z" />
<glyph unicode="&#xb1;" horiz-adv-x="1112" d="M104 106v224h902v-224h-902zM109 729v225h329v316h228v-316h338v-225h-338v-315h-228v315h-329z" />
<glyph unicode="&#xb2;" horiz-adv-x="843" d="M82 1245q94 213 328 213q72 0 133.5 -24.5t103 -65.5t64.5 -95.5t22.5 -112t-27.5 -118t-81 -110.5l-203 -182h321v-207h-596l-61 145l385 381q35 29 44.5 72.5t-17 77.5t-86.5 32q-91 -3 -152 -98z" />
<glyph unicode="&#xb3;" horiz-adv-x="792" d="M76 768l168 86q38 -82 131 -86q33 -3 68.5 8t56.5 35l-4 -4q14 22 14 49q0 37 -29 65.5t-75 24.5h-87v162h89q51 7 65 42.5t-12.5 68t-75.5 32.5q-66 0 -109 -47l-16 -22l-176 90q50 93 127 134.5t158 45.5q79 5 150 -22.5t114 -83.5q34 -45 46 -103t-10 -115t-81 -86 q61 -25 95 -71.5t38.5 -99.5t-14 -108t-56.5 -99q-51 -57 -129.5 -84t-159.5 -25q-87 5 -160.5 53.5t-115.5 132.5z" />
<glyph unicode="&#xb4;" horiz-adv-x="583" d="M63 1548l187 310h289l-242 -310h-234z" />
<glyph unicode="&#xb5;" horiz-adv-x="1064" d="M113 -412v1469h231v-651q0 -116 94 -167t188.5 0.5t94.5 184.5v633h231l4 -1061h-213l-14 82q-37 -61 -115.5 -87t-157.5 -2t-114 95v-496h-229z" />
<glyph unicode="&#xb6;" horiz-adv-x="1284" d="M57.5 887q-8.5 80 0 160.5t49 152.5t98 128t147.5 89t197 33h606v-1679h-229v1468h-154v-1468h-231v714q-105 0 -193 33t-145 89t-97 128t-48.5 152z" />
<glyph unicode="&#xb7;" horiz-adv-x="483" d="M94 637q0 63 43 106t107 43q63 0 104 -43t41 -106t-41 -105.5t-104 -42.5q-64 0 -107 42.5t-43 105.5z" />
<glyph unicode="&#xb8;" horiz-adv-x="514" d="M14 -432l52 137q102 -62 171 -34q41 16 43 53q2 42 -50 66q-43 20 -111 17l94 216h195l-60 -132q97 -34 129 -103.5t2 -154.5q-48 -133 -243 -133q-107 0 -222 68z" />
<glyph unicode="&#xb9;" horiz-adv-x="571" d="M33 1151l239 262h179v-891h-215v586l-89 -84z" />
<glyph unicode="&#xba;" horiz-adv-x="847" d="M86 922v208q0 70 29.5 127t78.5 91.5t108 52.5t122 18q87 0 162 -30.5t126.5 -98t51.5 -160.5v-208q0 -70 -29.5 -126.5t-78.5 -91t-108.5 -53t-123.5 -18.5q-85 0 -160.5 31t-126.5 98.5t-51 159.5zM301 922q2 -33 28.5 -55.5t62 -28t71 -0.5t60 28t24.5 56v208 q-2 36 -28 60.5t-61.5 30t-71 0t-60.5 -30t-25 -60.5v-208z" />
<glyph unicode="&#xbb;" horiz-adv-x="999" d="M72 260l231 336l-227 334l192 117l303 -451l-303 -451zM442 262l228 334l-228 336l195 115l303 -451l-303 -451z" />
<glyph unicode="&#xbc;" horiz-adv-x="1525" d="M47 1194l115 -127l88 84v-586h215v891h-178zM186 29l889 1460l191 -113l-891 -1460zM723 362l102 -157h334v-205h225v205h74v190h-74v541h-194zM987 393l180 221l-4 -221h-176z" />
<glyph unicode="&#xbd;" horiz-adv-x="1673" d="M45 1194l115 -127l88 84v-586h215v891h-178zM190 31l889 1458l187 -113l-891 -1460zM936 702l178 -92q62 96 152 99q60 2 86.5 -32t17 -78t-44.5 -73l-385 -381l61 -145h596v207h-321l203 182q54 50 81 110.5t27.5 118t-22.5 112t-64.5 95.5t-103 65.5t-133.5 24.5 q-234 0 -328 -213z" />
<glyph unicode="&#xbe;" horiz-adv-x="1660" d="M53 768l10 -27q42 -84 116 -132.5t161 -53.5q81 -2 159.5 25t129.5 84q52 59 67 133.5t-18 143.5t-113 101q59 29 81 86t10 115t-46 103q-82 106 -264 106q-78 0 -156 -43t-129 -137l177 -90l16 22q43 47 108 47q55 0 81 -46q23 -40 1 -72q-19 -25 -59 -25h-88v-162h86 q46 4 75 -24.5t29 -65.5q0 -41 -39 -64.5t-96 -23.5q-38 0 -74.5 21t-56.5 65zM322 31l890 1458l187 -113l-891 -1460zM866 362l103 -157h334v-205h225v205h74v190h-74v541h-195zM1130 393l181 221l-4 -221h-177z" />
<glyph unicode="&#xbf;" horiz-adv-x="991" d="M59 27q1 96 30 175.5t80 134t118 89t147 47.5l17 254h202l17 -448q-159 32 -271 -61q-84 -69 -101 -171q-17 -105 51 -171q63 -62 183 -62q66 0 135.5 37t125.5 106l159 -129q-78 -124 -189 -183t-235 -59q-92 0 -176 29t-150 83t-105 139.5t-38 189.5zM412 942 q0 55 40.5 95t98.5 40t98.5 -40t40.5 -95q0 -57 -40.5 -98t-98.5 -41t-98.5 41t-40.5 98z" />
<glyph unicode="&#xc0;" horiz-adv-x="1290" d="M-2 0l522 1450h248l524 -1450h-248l-141 377h-520l-131 -377h-254zM340 1858h289l186 -310h-233zM463 614h358l-119 367l-55 229h-8l-59 -233z" />
<glyph unicode="&#xc1;" horiz-adv-x="1290" d="M-2 0l522 1450h248l524 -1450h-248l-141 377h-520l-131 -377h-254zM463 614h358l-119 367l-55 229h-8l-59 -233zM496 1548l186 310h289l-242 -310h-233z" />
<glyph unicode="&#xc2;" horiz-adv-x="1290" d="M-2 0l522 1450h248l524 -1450h-248l-141 377h-520l-131 -377h-254zM276 1548l283 310h166l283 -310h-256l-111 123l-104 -123h-261zM463 614h358l-119 367l-55 229h-8l-59 -233z" />
<glyph unicode="&#xc3;" horiz-adv-x="1290" d="M-2 0l522 1450h248l524 -1450h-248l-141 377h-520l-131 -377h-254zM328 1634q22 108 73.5 166t124.5 58q52 0 97.5 -21.5t78 -43t52.5 -21.5q44 0 59 57l154 -49q-21 -107 -70 -162t-119 -55q-56 0 -103.5 20.5t-80.5 41t-53 20.5q-41 0 -62 -66zM463 614h358l-119 367 l-55 229h-8l-59 -233z" />
<glyph unicode="&#xc4;" horiz-adv-x="1290" d="M-2 0l522 1450h248l524 -1450h-248l-141 377h-520l-131 -377h-254zM283 1702q0 58 39 97.5t96 39.5t96 -39.5t39 -97.5q0 -57 -39 -96t-96 -39t-96 39t-39 96zM463 614h358l-119 367l-55 229h-8l-59 -233zM735 1702q0 59 38.5 98t96.5 39q59 0 98.5 -39.5t39.5 -97.5 q0 -57 -40 -96t-98 -39t-96.5 39t-38.5 96z" />
<glyph unicode="&#xc5;" horiz-adv-x="1290" d="M-2 0l522 1448q-106 61 -106 201q0 104 64.5 167.5t168.5 63.5q102 0 164.5 -64t62.5 -169q0 -69 -27 -121t-77 -80l522 -1446h-248l-141 377h-520l-131 -377h-254zM463 614h358l-119 367l-55 229h-8l-59 -233zM555 1647q0 -38 25 -62t65 -24q38 0 62 24t24 62 q0 40 -24 64t-62 24q-40 0 -65 -24t-25 -64z" />
<glyph unicode="&#xc6;" horiz-adv-x="1679" d="M-25 0l773 1450h847v-238h-563v-370h508v-236h-508v-373h563v-233h-794v440h-336l-219 -440h-271zM567 664h234v276l14 225h-12l-76 -198z" />
<glyph unicode="&#xc7;" horiz-adv-x="1230" d="M98 446v558q0 112 47.5 202.5t127 147t179 86.5t207.5 30q167 0 313.5 -85.5t221.5 -245.5l-211 -105q-51 95 -141 147t-189 52q-83 0 -154 -24.5t-118 -77.5t-47 -127v-558q0 -74 47 -127t118 -77.5t154 -24.5q101 0 191 51t139 146l211 -99q-64 -134 -178.5 -217.5 t-251.5 -107.5l-45 -99q97 -34 129 -103.5t2 -154.5q-48 -133 -244 -133q-106 0 -221 68l51 137q102 -62 171 -34q41 16 43 53q2 42 -50 66q-43 20 -111 17l78 177q-95 12 -177.5 46.5t-148.5 90.5t-104.5 140t-38.5 185z" />
<glyph unicode="&#xc8;" horiz-adv-x="1179" d="M137 0v1452h957v-238h-719v-370h661v-238h-661v-368h719v-238h-957zM332 1858h289l186 -310h-234z" />
<glyph unicode="&#xc9;" horiz-adv-x="1179" d="M137 0v1452h957v-238h-719v-370h661v-238h-661v-368h719v-238h-957zM487 1548l187 310h289l-242 -310h-234z" />
<glyph unicode="&#xca;" horiz-adv-x="1179" d="M137 0v1452h957v-238h-719v-370h661v-238h-661v-368h719v-238h-957zM268 1548l283 310h166l282 -310h-256l-110 123l-105 -123h-260z" />
<glyph unicode="&#xcb;" horiz-adv-x="1179" d="M137 0v1452h957v-238h-719v-370h661v-238h-661v-368h719v-238h-957zM274 1702q0 58 39.5 97.5t96.5 39.5t96 -39.5t39 -97.5q0 -57 -39 -96t-96 -39t-96.5 39t-39.5 96zM727 1702q0 59 38.5 98t96.5 39t97.5 -39.5t39.5 -97.5q0 -57 -39.5 -96t-97.5 -39t-96.5 39 t-38.5 96z" />
<glyph unicode="&#xcc;" horiz-adv-x="512" d="M-47 1858h289l186 -310h-233zM139 0v1450h236v-1450h-236z" />
<glyph unicode="&#xcd;" horiz-adv-x="512" d="M109 1548l186 310h289l-242 -310h-233zM139 0v1450h236v-1450h-236z" />
<glyph unicode="&#xce;" horiz-adv-x="512" d="M-111 1548l283 310h166l283 -310h-256l-111 123l-104 -123h-261zM139 0v1450h236v-1450h-236z" />
<glyph unicode="&#xcf;" horiz-adv-x="512" d="M-63 1702q0 58 39 97.5t96 39.5t96 -39.5t39 -97.5q0 -57 -39 -96t-96 -39t-96 39t-39 96zM139 0v1450h236v-1450h-236zM307 1702q0 59 38.5 98t96.5 39q59 0 98.5 -39.5t39.5 -97.5q0 -57 -40 -96t-98 -39t-96.5 39t-38.5 96z" />
<glyph unicode="&#xd0;" horiz-adv-x="1312" d="M33 618v195h117v637h544q85 0 161 -16t142 -51.5t113.5 -87.5t74.5 -127.5t27 -168.5v-550q0 -114 -41 -202t-113.5 -141t-164.5 -79.5t-199 -26.5h-544v618h-117zM387 238h307q130 0 206.5 51t76.5 160v550q0 110 -76.5 161.5t-206.5 51.5h-307v-399h234v-195h-234v-380 z" />
<glyph unicode="&#xd1;" horiz-adv-x="1394" d="M137 0v1450h250l504 -856l149 -289l15 4l-35 312v829h237v-1450h-276l-494 840l-135 276l-14 -4l37 -303v-809h-238zM381 1634q22 108 74 166t125 58q41 0 79 -13.5t60.5 -29.5t46.5 -29.5t41 -13.5q44 0 59 57l154 -49q-21 -107 -70 -162t-119 -55q-56 0 -103.5 20.5 t-80.5 41t-53 20.5q-41 0 -62 -66z" />
<glyph unicode="&#xd2;" d="M98 451v550q0 91 32.5 168.5t88.5 132t131 93t159.5 57t174.5 18.5q112 0 216 -30t187.5 -86.5t134 -148t50.5 -204.5v-550q0 -113 -50.5 -205t-134 -148.5t-187.5 -87t-216 -30.5q-90 0 -174.5 18.5t-159.5 57.5t-131 94t-88.5 132.5t-32.5 168.5zM334 453 q0 -75 51.5 -130t129.5 -80.5t169 -25.5q92 0 170.5 25.5t130 80.5t51.5 130v544q0 79 -52.5 134t-129.5 78.5t-170 23.5q-92 -1 -169 -25t-129 -79t-52 -132v-544zM379 1858h289l186 -310h-233z" />
<glyph unicode="&#xd3;" d="M98 451v550q0 91 32.5 168.5t88.5 132t131 93t159.5 57t174.5 18.5q112 0 216 -30t187.5 -86.5t134 -148t50.5 -204.5v-550q0 -113 -50.5 -205t-134 -148.5t-187.5 -87t-216 -30.5q-90 0 -174.5 18.5t-159.5 57.5t-131 94t-88.5 132.5t-32.5 168.5zM334 453 q0 -75 51.5 -130t129.5 -80.5t169 -25.5q92 0 170.5 25.5t130 80.5t51.5 130v544q0 79 -52.5 134t-129.5 78.5t-170 23.5q-92 -1 -169 -25t-129 -79t-52 -132v-544zM535 1548l186 310h289l-242 -310h-233z" />
<glyph unicode="&#xd4;" d="M98 451v550q0 91 32.5 168.5t88.5 132t131 93t159.5 57t174.5 18.5q112 0 216 -30t187.5 -86.5t134 -148t50.5 -204.5v-550q0 -113 -50.5 -205t-134 -148.5t-187.5 -87t-216 -30.5q-90 0 -174.5 18.5t-159.5 57.5t-131 94t-88.5 132.5t-32.5 168.5zM315 1548l283 310h166 l283 -310h-256l-111 123l-105 -123h-260zM334 453q0 -75 51.5 -130t129.5 -80.5t169 -25.5q92 0 170.5 25.5t130 80.5t51.5 130v544q0 79 -52.5 134t-129.5 78.5t-170 23.5q-92 -1 -169 -25t-129 -79t-52 -132v-544z" />
<glyph unicode="&#xd5;" d="M98 451v550q0 91 32.5 168.5t88.5 132t131 93t159.5 57t174.5 18.5q112 0 216 -30t187.5 -86.5t134 -148t50.5 -204.5v-550q0 -113 -50.5 -205t-134 -148.5t-187.5 -87t-216 -30.5q-90 0 -174.5 18.5t-159.5 57.5t-131 94t-88.5 132.5t-32.5 168.5zM334 453 q0 -75 51.5 -130t129.5 -80.5t169 -25.5q92 0 170.5 25.5t130 80.5t51.5 130v544q0 79 -52.5 134t-129.5 78.5t-170 23.5q-92 -1 -169 -25t-129 -79t-52 -132v-544zM367 1634q22 108 73.5 166t124.5 58q52 0 97.5 -21.5t78 -43t52.5 -21.5q44 0 59 57l154 -49 q-21 -107 -70 -162t-119 -55q-56 0 -103.5 20.5t-80.5 41t-53 20.5q-41 0 -62 -66z" />
<glyph unicode="&#xd6;" d="M98 451v550q0 91 32.5 168.5t88.5 132t131 93t159.5 57t174.5 18.5q112 0 216 -30t187.5 -86.5t134 -148t50.5 -204.5v-550q0 -113 -50.5 -205t-134 -148.5t-187.5 -87t-216 -30.5q-90 0 -174.5 18.5t-159.5 57.5t-131 94t-88.5 132.5t-32.5 168.5zM322 1702 q0 58 39 97.5t96 39.5t96 -39.5t39 -97.5q0 -57 -39 -96t-96 -39t-96 39t-39 96zM334 453q0 -75 51.5 -130t129.5 -80.5t169 -25.5q92 0 170.5 25.5t130 80.5t51.5 130v544q0 79 -52.5 134t-129.5 78.5t-170 23.5q-92 -1 -169 -25t-129 -79t-52 -132v-544zM774 1702 q0 59 38.5 98t96.5 39q59 0 98.5 -39.5t39.5 -97.5q0 -57 -40 -96t-98 -39t-96.5 39t-38.5 96z" />
<glyph unicode="&#xd7;" horiz-adv-x="1054" d="M76 905l157 158l297 -295l291 293l158 -162l-287 -289l285 -284l-158 -160l-287 287l-296 -297l-154 163l291 289z" />
<glyph unicode="&#xd8;" d="M98 451v550q0 91 32.5 168.5t88.5 132t131 93t159.5 57t174.5 18.5q111 0 209 -26l70 178l163 -57l-73 -189q102 -62 160.5 -156.5t58.5 -218.5v-550q0 -113 -50.5 -205t-134 -148.5t-187.5 -87t-216 -30.5q-90 0 -176 18l-76 -193l-162 58l76 194q-114 60 -181 160 t-67 234zM334 453q0 -107 102 -172l371 940q-61 12 -123 12q-92 -1 -169 -25t-129 -79t-52 -132v-544zM598 223q44 -6 86 -6q92 0 170.5 25.5t130 80.5t51.5 130v544q0 96 -71 154z" />
<glyph unicode="&#xd9;" horiz-adv-x="1376" d="M129 455v995h238v-993q0 -114 95 -177t226 -63q132 0 228 63t96 177v993h237v-995q0 -92 -31.5 -170.5t-85.5 -134t-126 -94.5t-152.5 -57.5t-165.5 -18.5q-108 0 -206.5 30.5t-178 87.5t-127 149.5t-47.5 207.5zM385 1858h289l186 -310h-233z" />
<glyph unicode="&#xda;" horiz-adv-x="1376" d="M129 455v995h238v-993q0 -114 95 -177t226 -63q132 0 228 63t96 177v993h237v-995q0 -92 -31.5 -170.5t-85.5 -134t-126 -94.5t-152.5 -57.5t-165.5 -18.5q-108 0 -206.5 30.5t-178 87.5t-127 149.5t-47.5 207.5zM541 1548l186 310h289l-242 -310h-233z" />
<glyph unicode="&#xdb;" horiz-adv-x="1376" d="M129 455v995h238v-993q0 -114 95 -177t226 -63q132 0 228 63t96 177v993h237v-995q0 -92 -31.5 -170.5t-85.5 -134t-126 -94.5t-152.5 -57.5t-165.5 -18.5q-108 0 -206.5 30.5t-178 87.5t-127 149.5t-47.5 207.5zM322 1548l282 310h166l283 -310h-256l-111 123l-104 -123 h-260z" />
<glyph unicode="&#xdc;" horiz-adv-x="1376" d="M129 455v995h238v-993q0 -114 95 -177t226 -63q132 0 228 63t96 177v993h237v-995q0 -92 -31.5 -170.5t-85.5 -134t-126 -94.5t-152.5 -57.5t-165.5 -18.5q-108 0 -206.5 30.5t-178 87.5t-127 149.5t-47.5 207.5zM328 1702q0 58 39 97.5t96 39.5t96 -39.5t39 -97.5 q0 -57 -39 -96t-96 -39t-96 39t-39 96zM780 1702q0 59 38.5 98t96.5 39q59 0 98.5 -39.5t39.5 -97.5q0 -57 -40 -96t-98 -39t-96.5 39t-38.5 96z" />
<glyph unicode="&#xdd;" horiz-adv-x="1228" d="M-8 1450h272l350 -659l349 659h276l-506 -887v-563h-237v563zM467 1548l186 310h289l-242 -310h-233z" />
<glyph unicode="&#xde;" horiz-adv-x="1247" d="M137 0v1450h234l-2 -242h329q121 0 218.5 -41t158.5 -109.5t93 -152.5t32 -174q0 -92 -32 -176t-92.5 -150t-158 -105.5t-217.5 -39.5h-329v-260h-234zM371 477h327q125 0 196 75.5t71 174.5q0 98 -71 171t-196 73h-327v-494z" />
<glyph unicode="&#xdf;" horiz-adv-x="1181" d="M119 0v1063q0 95 40 173.5t107 127.5t149.5 75.5t170.5 26.5t170 -24.5t149 -71.5t107.5 -123.5t40.5 -171.5q0 -90 -35.5 -174t-106.5 -121q201 -100 201 -338q-2 -107 -44 -194t-112 -141.5t-156 -83t-181 -23.5t-183 41v229q65 -41 143.5 -49t144.5 14t110.5 77 t44.5 130q0 110 -72 163.5t-189 53.5h-188v215h188q84 0 143.5 56t59.5 145q0 87 -70 132.5t-165 45.5q-96 0 -168 -49.5t-72 -140.5v-1063h-227z" />
<glyph unicode="&#xe0;" horiz-adv-x="1001" d="M61 303q0 84 33.5 151t90 107t125.5 61t145 21q122 0 215 -41v123q0 74 -64.5 116t-156.5 40q-65 0 -125.5 -22.5t-98.5 -65.5l-127 131q80 89 173 123t206 34q80 0 153 -21.5t133 -63t96 -110t36 -155.5v-680q-188 -71 -401 -71q-70 0 -130.5 9t-117 32t-97 59t-64.5 93 t-24 130zM221 1493h275l186 -309h-219zM283 305q0 -70 55.5 -103.5t140.5 -33.5q101 0 191 22v236q-83 37 -183 37q-96 0 -150 -43.5t-54 -114.5z" />
<glyph unicode="&#xe1;" horiz-adv-x="1001" d="M61 303q0 84 33.5 151t90 107t125.5 61t145 21q122 0 215 -41v123q0 74 -64.5 116t-156.5 40q-65 0 -125.5 -22.5t-98.5 -65.5l-127 131q80 89 173 123t206 34q80 0 153 -21.5t133 -63t96 -110t36 -155.5v-680q-188 -71 -401 -71q-70 0 -130.5 9t-117 32t-97 59t-64.5 93 t-24 130zM283 305q0 -70 55.5 -103.5t140.5 -33.5q101 0 191 22v236q-83 37 -183 37q-96 0 -150 -43.5t-54 -114.5zM307 1184l187 309h268l-242 -309h-213z" />
<glyph unicode="&#xe2;" horiz-adv-x="1001" d="M61 303q0 84 33.5 151t90 107t125.5 61t145 21q122 0 215 -41v123q0 74 -64.5 116t-156.5 40q-65 0 -125.5 -22.5t-98.5 -65.5l-127 131q80 89 173 123t206 34q80 0 153 -21.5t133 -63t96 -110t36 -155.5v-680q-188 -71 -401 -71q-70 0 -130.5 9t-117 32t-97 59t-64.5 93 t-24 130zM129 1184l283 309h166l282 -309h-256l-110 123l-105 -123h-260zM283 305q0 -70 55.5 -103.5t140.5 -33.5q101 0 191 22v236q-83 37 -183 37q-96 0 -150 -43.5t-54 -114.5z" />
<glyph unicode="&#xe3;" horiz-adv-x="1001" d="M61 303q0 84 33.5 151t90 107t125.5 61t145 21q122 0 215 -41v123q0 74 -64.5 116t-156.5 40q-65 0 -125.5 -22.5t-98.5 -65.5l-127 131q80 89 173 123t206 34q80 0 153 -21.5t133 -63t96 -110t36 -155.5v-680q-188 -71 -401 -71q-70 0 -130.5 9t-117 32t-97 59t-64.5 93 t-24 130zM180 1270q22 108 74 165.5t125 57.5q41 0 79 -13.5t60.5 -29.5t46.5 -29.5t41 -13.5q45 0 60 57l153 -49q-21 -107 -69.5 -162t-118.5 -55q-44 0 -84 13t-64 28t-48.5 28t-41.5 13q-40 0 -61 -66zM283 305q0 -70 55.5 -103.5t140.5 -33.5q101 0 191 22v236 q-83 37 -183 37q-96 0 -150 -43.5t-54 -114.5z" />
<glyph unicode="&#xe4;" horiz-adv-x="1001" d="M61 303q0 84 33.5 151t90 107t125.5 61t145 21q122 0 215 -41v123q0 74 -64.5 116t-156.5 40q-65 0 -125.5 -22.5t-98.5 -65.5l-127 131q80 89 173 123t206 34q80 0 153 -21.5t133 -63t96 -110t36 -155.5v-680q-188 -71 -401 -71q-70 0 -130.5 9t-117 32t-97 59t-64.5 93 t-24 130zM156 1313q0 58 39 97.5t96 39.5t96 -39.5t39 -97.5q0 -57 -39 -96t-96 -39t-96 39t-39 96zM283 305q0 -70 55.5 -103.5t140.5 -33.5q101 0 191 22v236q-83 37 -183 37q-96 0 -150 -43.5t-54 -114.5zM526 1313q0 59 39 98t97 39t97.5 -39t39.5 -98q0 -57 -39.5 -96 t-97.5 -39t-97 39t-39 96z" />
<glyph unicode="&#xe5;" horiz-adv-x="1001" d="M61 303q0 84 33.5 151t90 107t125.5 61t145 21q122 0 215 -41v123q0 74 -64.5 116t-156.5 40q-65 0 -125.5 -22.5t-98.5 -65.5l-127 131q80 89 173 123t206 34q80 0 153 -21.5t133 -63t96 -110t36 -155.5v-680q-188 -71 -401 -71q-70 0 -130.5 9t-117 32t-97 59t-64.5 93 t-24 130zM258 1370q0 103 68 164t174 61q104 0 170.5 -62t66.5 -165q0 -102 -66 -162.5t-171 -60.5q-106 0 -174 61t-68 164zM283 305q0 -70 55.5 -103.5t140.5 -33.5q101 0 191 22v236q-83 37 -183 37q-96 0 -150 -43.5t-54 -114.5zM383 1368q0 -49 32 -80t83 -31 q49 0 79.5 30.5t30.5 80.5q0 51 -30 82t-80 31q-51 0 -83 -31t-32 -82z" />
<glyph unicode="&#xe6;" horiz-adv-x="1572" d="M57 330q0 84 31 149.5t84.5 104.5t120 58.5t143.5 19.5q114 0 230 -33v94q0 73 -53 110t-134 37q-75 0 -143 -24.5t-107 -73.5l-123 125q71 88 168.5 133t202.5 47q95 0 177 -40.5t126 -116.5q55 77 139.5 117t178.5 40q75 0 146.5 -25t128.5 -70t91.5 -116t34.5 -155 v-283h-608v-86q0 -71 51.5 -112t119.5 -45t137 24.5t101 83.5l166 -92q-67 -106 -170 -162.5t-213 -56.5q-92 0 -163 23.5t-121 86.5q-110 -110 -324 -110q-66 0 -125.5 11.5t-113.5 37.5t-93.5 65.5t-62.5 99.5t-23 134zM283 334q1 -50 29.5 -82t69.5 -44.5t95 -12.5 q141 0 213 38q-16 58 -16 113v115q-102 28 -187 28q-89 0 -146 -36t-58 -119zM891 616h385v97q0 65 -58 102t-135 37q-78 0 -135 -35.5t-57 -97.5v-103z" />
<glyph unicode="&#xe7;" horiz-adv-x="968" d="M88 344v373q0 89 36 160t96 114.5t133 66.5t153 23q65 0 127 -15.5t119.5 -47t101 -87t64.5 -128.5l-205 -78q-19 67 -73.5 102t-123.5 35q-78 0 -140.5 -39t-62.5 -104v-377q0 -66 57.5 -104.5t135.5 -38.5q71 0 129.5 35t77.5 102l209 -78q-32 -112 -114.5 -178 t-191.5 -88l-45 -101q97 -34 129 -103.5t2 -154.5q-48 -133 -243 -133q-106 0 -221 68l51 137q102 -62 171 -34q41 16 43 53q2 42 -50 66q-43 20 -111 17l78 179q-92 15 -165 58t-120 121t-47 179z" />
<glyph unicode="&#xe8;" horiz-adv-x="995" d="M88 344v373q0 90 36 161t96 114.5t134 66t154 22.5q78 0 150.5 -22.5t132 -66t95.5 -115t36 -160.5v-291h-607v-74q0 -69 56.5 -111t132.5 -42q144 0 196 106l189 -108q-59 -104 -164.5 -160.5t-216.5 -56.5q-80 0 -154 23t-134 67t-96 115t-36 159zM203 1489h289 l186 -309h-234zM315 612h390v101q0 70 -58 109.5t-137 39.5q-82 0 -140 -40t-55 -113v-97z" />
<glyph unicode="&#xe9;" horiz-adv-x="995" d="M88 344v373q0 90 36 161t96 114.5t134 66t154 22.5q78 0 150.5 -22.5t132 -66t95.5 -115t36 -160.5v-291h-607v-74q0 -69 56.5 -111t132.5 -42q144 0 196 106l189 -108q-59 -104 -164.5 -160.5t-216.5 -56.5q-80 0 -154 23t-134 67t-96 115t-36 159zM315 612h390v101 q0 70 -58 109.5t-137 39.5q-82 0 -140 -40t-55 -113v-97zM358 1180l187 309h289l-242 -309h-234z" />
<glyph unicode="&#xea;" horiz-adv-x="995" d="M88 344v373q0 90 36 161t96 114.5t134 66t154 22.5q78 0 150.5 -22.5t132 -66t95.5 -115t36 -160.5v-291h-607v-74q0 -69 56.5 -111t132.5 -42q144 0 196 106l189 -108q-59 -104 -164.5 -160.5t-216.5 -56.5q-80 0 -154 23t-134 67t-96 115t-36 159zM139 1180l283 309 h166l282 -309h-256l-110 123l-105 -123h-260zM315 612h390v101q0 70 -58 109.5t-137 39.5q-82 0 -140 -40t-55 -113v-97z" />
<glyph unicode="&#xeb;" horiz-adv-x="995" d="M88 344v373q0 90 36 161t96 114.5t134 66t154 22.5q78 0 150.5 -22.5t132 -66t95.5 -115t36 -160.5v-291h-607v-74q0 -69 56.5 -111t132.5 -42q144 0 196 106l189 -108q-59 -104 -164.5 -160.5t-216.5 -56.5q-80 0 -154 23t-134 67t-96 115t-36 159zM186 1313 q0 58 39.5 97.5t96.5 39.5t96 -39.5t39 -97.5q0 -57 -39 -96t-96 -39t-96.5 39t-39.5 96zM315 612h390v101q0 70 -58 109.5t-137 39.5q-82 0 -140 -40t-55 -113v-97zM557 1313q0 59 38.5 98t96.5 39t97.5 -39t39.5 -98q0 -57 -39.5 -96t-97.5 -39t-96.5 39t-38.5 96z" />
<glyph unicode="&#xec;" horiz-adv-x="468" d="M-63 1460h282l184 -303h-229zM119 0v1059h231v-1059h-231z" />
<glyph unicode="&#xed;" horiz-adv-x="468" d="M88 1157l184 303h283l-238 -303h-229zM119 0v1059h231v-1059h-231z" />
<glyph unicode="&#xee;" horiz-adv-x="468" d="M-92 1159l242 309h165l242 -309h-250l-76 101l-67 -101h-256zM119 0v1059h231v-1059h-231z" />
<glyph unicode="&#xef;" horiz-adv-x="468" d="M-86 1313q0 58 39 97.5t96 39.5t96 -39.5t39 -97.5q0 -57 -39 -96t-96 -39t-96 39t-39 96zM119 0v1059h231v-1059h-231zM285 1313q0 59 38.5 98t96.5 39t97.5 -39t39.5 -98q0 -57 -39.5 -96t-97.5 -39t-96.5 39t-38.5 96z" />
<glyph unicode="&#xf0;" horiz-adv-x="1030" d="M88 350v277q0 79 29.5 142.5t78.5 101.5t112.5 60.5t130 25t132 -10t119.5 -39.5v154q0 70 -59 106l-45 -125l-158 45l39 109q-42 0 -90 -18t-84 -48l-133 154q80 70 184 107t195 20l53 162l156 -43l-52 -148q102 -36 159.5 -119t57.5 -202v-998q-257 -75 -419 -75 q-77 1 -148.5 24.5t-129.5 67t-93 113.5t-35 157zM311 334q0 -65 55.5 -104.5t127.5 -39.5q111 0 196 29v494q-45 32 -110 46t-125 7.5t-102 -42.5t-42 -97v-293z" />
<glyph unicode="&#xf1;" horiz-adv-x="1058" d="M117 0v995q163 83 362 86q94 1 175.5 -20t148 -64.5t105 -118.5t38.5 -173v-705h-223v702q-4 83 -71 125.5t-158 42.5q-96 0 -152 -36v-834h-225zM215 1266q22 108 74 165.5t125 57.5q41 0 79 -13.5t60.5 -29.5t46.5 -29.5t41 -13.5q44 0 59 57l154 -49 q-21 -107 -69.5 -162t-118.5 -55q-44 0 -84 13t-64 28t-48.5 28t-41.5 13q-40 0 -61 -66z" />
<glyph unicode="&#xf2;" horiz-adv-x="1011" d="M88 346v369q0 88 36 159t96 115t134 67.5t154 24.5q79 -1 152 -24.5t132.5 -67.5t95.5 -115t36 -159v-369q0 -89 -36 -160.5t-95.5 -115t-132.5 -66.5t-152 -24q-81 1 -154.5 24t-133.5 66.5t-96 114.5t-36 161zM203 1489h289l186 -309h-234zM313 356q0 -71 59.5 -114 t135.5 -43q72 0 131 43t59 114v359q0 70 -58 108.5t-132 38.5q-78 0 -136.5 -38.5t-58.5 -108.5v-359z" />
<glyph unicode="&#xf3;" horiz-adv-x="1011" d="M88 346v369q0 88 36 159t96 115t134 67.5t154 24.5q79 -1 152 -24.5t132.5 -67.5t95.5 -115t36 -159v-369q0 -89 -36 -160.5t-95.5 -115t-132.5 -66.5t-152 -24q-81 1 -154.5 24t-133.5 66.5t-96 114.5t-36 161zM313 356q0 -71 59.5 -114t135.5 -43q72 0 131 43t59 114 v359q0 70 -58 108.5t-132 38.5q-78 0 -136.5 -38.5t-58.5 -108.5v-359zM358 1180l187 309h289l-242 -309h-234z" />
<glyph unicode="&#xf4;" horiz-adv-x="1011" d="M88 346v369q0 88 36 159t96 115t134 67.5t154 24.5q79 -1 152 -24.5t132.5 -67.5t95.5 -115t36 -159v-369q0 -89 -36 -160.5t-95.5 -115t-132.5 -66.5t-152 -24q-81 1 -154.5 24t-133.5 66.5t-96 114.5t-36 161zM139 1180l283 309h166l282 -309h-256l-110 123l-105 -123 h-260zM313 356q0 -71 59.5 -114t135.5 -43q72 0 131 43t59 114v359q0 70 -58 108.5t-132 38.5q-78 0 -136.5 -38.5t-58.5 -108.5v-359z" />
<glyph unicode="&#xf5;" horiz-adv-x="1011" d="M88 346v369q0 88 36 159t96 115t134 67.5t154 24.5q79 -1 152 -24.5t132.5 -67.5t95.5 -115t36 -159v-369q0 -89 -36 -160.5t-95.5 -115t-132.5 -66.5t-152 -24q-81 1 -154.5 24t-133.5 66.5t-96 114.5t-36 161zM190 1266q22 108 74 165.5t125 57.5q41 0 79 -13.5 t60.5 -29.5t46.5 -29.5t41 -13.5q45 0 60 57l153 -49q-21 -107 -69.5 -162t-118.5 -55q-44 0 -84 13t-64 28t-48.5 28t-41.5 13q-40 0 -61 -66zM313 356q0 -71 59.5 -114t135.5 -43q72 0 131 43t59 114v359q0 70 -58 108.5t-132 38.5q-78 0 -136.5 -38.5t-58.5 -108.5v-359z " />
<glyph unicode="&#xf6;" horiz-adv-x="1011" d="M88 346v369q0 88 36 159t96 115t134 67.5t154 24.5q79 -1 152 -24.5t132.5 -67.5t95.5 -115t36 -159v-369q0 -89 -36 -160.5t-95.5 -115t-132.5 -66.5t-152 -24q-81 1 -154.5 24t-133.5 66.5t-96 114.5t-36 161zM186 1313q0 58 39.5 97.5t96.5 39.5t96 -39.5t39 -97.5 q0 -57 -39 -96t-96 -39t-96.5 39t-39.5 96zM313 356q0 -71 59.5 -114t135.5 -43q72 0 131 43t59 114v359q0 70 -58 108.5t-132 38.5q-78 0 -136.5 -38.5t-58.5 -108.5v-359zM557 1313q0 59 38.5 98t96.5 39t97.5 -39t39.5 -98q0 -57 -39.5 -96t-97.5 -39t-96.5 39t-38.5 96z " />
<glyph unicode="&#xf7;" horiz-adv-x="1054" d="M74 555v231h907v-231h-907zM373 999q0 64 45 108t108 44q64 0 110 -44t46 -108q0 -63 -46.5 -109t-109.5 -46t-108 46t-45 109zM381 340q0 65 45 107.5t109 44.5q65 0 110 -44t45 -108q0 -66 -45 -111t-108 -45q-64 0 -110 45.5t-46 110.5z" />
<glyph unicode="&#xf8;" horiz-adv-x="1011" d="M88 346v369q0 88 36 159t96 115t134 67.5t154 24.5q51 0 119 -14l57 145l158 -55l-64 -158q146 -104 146 -284v-369q0 -89 -36 -160.5t-95.5 -115t-132.5 -66.5t-152 -24q-59 0 -125 16l-59 -152l-156 56l63 161q-143 101 -143 285zM313 356q0 -28 13 -57l219 561 q-12 2 -37 2q-78 0 -136.5 -38.5t-58.5 -108.5v-359zM465 203q28 -4 43 -4q72 0 131 43t59 114v359q0 26 -10 53z" />
<glyph unicode="&#xf9;" horiz-adv-x="1058" d="M111 348v713h225v-717q4 -84 70 -127t159 -43q85 0 154 37v850h223v-993q-206 -88 -407 -88q-90 1 -164.5 22t-133.5 63.5t-92.5 114.5t-33.5 168zM221 1489h289l186 -309h-233z" />
<glyph unicode="&#xfa;" horiz-adv-x="1058" d="M111 348v713h225v-717q4 -84 70 -127t159 -43q85 0 154 37v850h223v-993q-206 -88 -407 -88q-90 1 -164.5 22t-133.5 63.5t-92.5 114.5t-33.5 168zM377 1180l186 309h289l-242 -309h-233z" />
<glyph unicode="&#xfb;" horiz-adv-x="1058" d="M111 348v713h225v-717q4 -84 70 -127t159 -43q85 0 154 37v850h223v-993q-206 -88 -407 -88q-90 1 -164.5 22t-133.5 63.5t-92.5 114.5t-33.5 168zM158 1180l282 309h166l283 -309h-256l-111 123l-104 -123h-260z" />
<glyph unicode="&#xfc;" horiz-adv-x="1058" d="M111 348v713h225v-717q4 -84 70 -127t159 -43q85 0 154 37v850h223v-993q-206 -88 -407 -88q-90 1 -164.5 22t-133.5 63.5t-92.5 114.5t-33.5 168zM164 1333q0 58 39 97.5t96 39.5t96 -39.5t39 -97.5q0 -57 -39 -96t-96 -39t-96 39t-39 96zM616 1333q0 59 39 98t97 39 t97.5 -39t39.5 -98q0 -57 -39.5 -96t-97.5 -39t-97 39t-39 96z" />
<glyph unicode="&#xfd;" horiz-adv-x="1077" d="M111 350v711h225v-713q4 -79 71.5 -121.5t157.5 -42.5q105 0 170 47v830h223v-1079q0 -97 -35.5 -173.5t-96.5 -123.5t-136 -71t-158 -24q-128 0 -239.5 50.5t-171.5 142.5l135 129q43 -58 121.5 -90.5t159.5 -30.5q93 2 154 63t52 164q-85 -35 -194 -38q-83 0 -161 24.5 t-140 70t-99.5 117t-37.5 158.5zM406 1180l186 309h289l-242 -309h-233z" />
<glyph unicode="&#xfe;" horiz-adv-x="1044" d="M119 -346v1749h225v-363q96 41 203 41q63 1 121.5 -12t110.5 -42t90.5 -71t61 -103t23.5 -134v-375q2 -107 -58 -191.5t-153.5 -128t-197.5 -44.5q-115 0 -201 51v-377h-225zM344 223q74 -47 182 -47q83 2 141 43.5t62 124.5v389q-4 79 -62 117.5t-141 38.5 q-105 3 -182 -41v-625z" />
<glyph unicode="&#xff;" horiz-adv-x="1077" d="M111 350v711h225v-713q4 -79 71.5 -121.5t157.5 -42.5q105 0 170 47v830h223v-1079q0 -97 -35.5 -173.5t-96.5 -123.5t-136 -71t-158 -24q-128 0 -239.5 50.5t-171.5 142.5l135 129q43 -58 121.5 -90.5t159.5 -30.5q93 2 154 63t52 164q-85 -35 -194 -38q-83 0 -161 24.5 t-140 70t-99.5 117t-37.5 158.5zM233 1313q0 58 39.5 97.5t96.5 39.5t96 -39.5t39 -97.5q0 -57 -39 -96t-96 -39t-96.5 39t-39.5 96zM604 1313q0 59 38.5 98t96.5 39q59 0 98.5 -39.5t39.5 -97.5q0 -57 -40 -96t-98 -39t-96.5 39t-38.5 96z" />
<glyph unicode="&#x152;" horiz-adv-x="1851" d="M104 406v624q-2 78 24.5 146.5t75 118.5t112 87.5t137 55.5t148.5 20.5t149 -16.5t135 -56v62h882v-238h-657v-370h600v-236h-600v-368h657v-238h-882v45q-67 -32 -143.5 -48t-151.5 -13t-147.5 20t-134.5 53.5t-108 85.5t-72 117.5t-24 147.5zM340 410q0 -57 29 -98.5 t80 -64.5t110.5 -33.5t128.5 -10.5q106 0 197 69v879q-44 44 -115 68t-144.5 21t-139 -25t-106.5 -71.5t-40 -115.5v-618z" />
<glyph unicode="&#x153;" horiz-adv-x="1595" d="M88 350v367q0 112 60 197t151.5 126.5t194.5 40.5q93 0 175.5 -41.5t135.5 -119.5q54 81 139 122t182 39q75 0 146 -25t127.5 -70.5t90.5 -115.5t34 -153v-283h-613v-86q0 -68 59.5 -108.5t139.5 -40.5q63 0 118.5 28t82.5 80l170 -119q-60 -99 -166 -154.5t-221 -53.5 q-88 2 -165 39t-128 110q-57 -73 -142.5 -112t-177.5 -37q-75 1 -145.5 27t-125.5 72.5t-88.5 117t-33.5 153.5zM311 338q0 -67 57 -103t134 -36q76 0 134 36.5t58 102.5v387q0 67 -58 102t-134 35q-77 0 -134 -35.5t-57 -103.5v-385zM911 614h392v103q0 68 -61.5 105.5 t-143.5 35.5q-77 -2 -132 -38.5t-55 -102.5v-103z" />
<glyph unicode="&#x178;" horiz-adv-x="1228" d="M-8 1450h272l350 -659l349 659h276l-506 -887v-563h-237v563zM254 1702q0 58 39 97.5t96 39.5t96 -39.5t39 -97.5q0 -57 -39 -96t-96 -39t-96 39t-39 96zM707 1702q0 59 38.5 98t96.5 39t97.5 -39.5t39.5 -97.5q0 -57 -39.5 -96t-97.5 -39t-96.5 39t-38.5 96z" />
<glyph unicode="&#x2c6;" horiz-adv-x="802" d="M270 1548l283 310h166l282 -310h-256l-110 123l-105 -123h-260z" />
<glyph unicode="&#x2dc;" horiz-adv-x="555" d="M-41 1634q22 108 74 166t125 58q41 0 79 -13.5t60.5 -29.5t46.5 -29.5t41 -13.5q44 0 59 57l154 -49q-21 -107 -69.5 -162t-118.5 -55q-44 0 -84 13t-64 28t-48.5 28t-41.5 13q-40 0 -61 -66z" />
<glyph unicode="&#x2000;" horiz-adv-x="940" />
<glyph unicode="&#x2001;" horiz-adv-x="1880" />
<glyph unicode="&#x2002;" horiz-adv-x="940" />
<glyph unicode="&#x2003;" horiz-adv-x="1880" />
<glyph unicode="&#x2004;" horiz-adv-x="626" />
<glyph unicode="&#x2005;" horiz-adv-x="470" />
<glyph unicode="&#x2006;" horiz-adv-x="313" />
<glyph unicode="&#x2007;" horiz-adv-x="313" />
<glyph unicode="&#x2008;" horiz-adv-x="235" />
<glyph unicode="&#x2009;" horiz-adv-x="376" />
<glyph unicode="&#x200a;" horiz-adv-x="104" />
<glyph unicode="&#x2010;" horiz-adv-x="790" d="M111 489v230h569v-230h-569z" />
<glyph unicode="&#x2011;" horiz-adv-x="790" d="M111 489v230h569v-230h-569z" />
<glyph unicode="&#x2012;" horiz-adv-x="790" d="M111 489v230h569v-230h-569z" />
<glyph unicode="&#x2013;" horiz-adv-x="1185" d="M111 489v228h964v-228h-964z" />
<glyph unicode="&#x2014;" horiz-adv-x="1968" d="M111 489v228h1747v-228h-1747z" />
<glyph unicode="&#x2018;" horiz-adv-x="532" d="M70 911l176 537h235l-153 -537h-258z" />
<glyph unicode="&#x2019;" horiz-adv-x="528" d="M74 913l149 537h262l-180 -537h-231z" />
<glyph unicode="&#x201a;" horiz-adv-x="507" d="M2 -250l148 510h266l-187 -510h-227z" />
<glyph unicode="&#x201c;" horiz-adv-x="882" d="M70 907l178 537h231l-147 -537h-262zM420 907l180 537h229l-147 -537h-262z" />
<glyph unicode="&#x201d;" horiz-adv-x="872" d="M74 911l149 537h262l-180 -537h-231zM418 911l147 537h262l-178 -537h-231z" />
<glyph unicode="&#x201e;" horiz-adv-x="868" d="M0 -250l150 502h264l-185 -502h-229zM362 -250l152 502h262l-182 -502h-232z" />
<glyph unicode="&#x2022;" horiz-adv-x="837" d="M117 702q0 126 88 215t215 89q126 0 213.5 -89t87.5 -215t-87.5 -215.5t-213.5 -89.5q-127 0 -215 89t-88 216z" />
<glyph unicode="&#x2026;" horiz-adv-x="1220" d="M84 129q0 63 43 106.5t106 43.5t106.5 -43.5t43.5 -106.5t-43.5 -106t-106.5 -43t-106 43t-43 106zM463 129q0 63 42 106.5t105 43.5t106.5 -43.5t43.5 -106.5t-43.5 -106t-106.5 -43t-105 43t-42 106zM840 129q0 63 42 106.5t105 43.5q64 0 107 -43.5t43 -106.5 t-43 -106t-107 -43q-63 0 -105 43t-42 106z" />
<glyph unicode="&#x202f;" horiz-adv-x="376" />
<glyph unicode="&#x2039;" horiz-adv-x="628" d="M57 596l303 451l195 -117l-229 -334l229 -336l-195 -115z" />
<glyph unicode="&#x203a;" horiz-adv-x="628" d="M72 260l229 336l-225 334l194 117l301 -451l-301 -451z" />
<glyph unicode="&#x205f;" horiz-adv-x="470" />
<glyph unicode="&#x20ac;" horiz-adv-x="1249" d="M51 502l37 178h100v90h-120l32 166h88v78q0 109 42.5 197.5t114 144t160.5 85t185 29.5q149 0 283.5 -84t208.5 -239l-207 -109q-47 95 -125 145t-160 50q-111 0 -192.5 -59.5t-81.5 -163.5v-74h504l-33 -166h-465v-90h493l-32 -178h-467v-70q0 -70 40 -120t99.5 -72.5 t130.5 -22.5q87 0 164.5 46t124.5 140l207 -100q-75 -157 -209.5 -240t-286.5 -83q-96 0 -184 28.5t-159 83t-113 142.5t-42 198v70h-137z" />
<glyph unicode="&#x2122;" horiz-adv-x="1718" d="M63 1212v209h642v-209h-213v-618h-218v618h-211zM795 594v827h194l207 -415l211 415h188v-827h-217l15 371l-138 -256h-108l-148 262l13 -377h-217z" />
<glyph unicode="&#x25fc;" horiz-adv-x="1064" d="M0 0v1065h1065v-1065h-1065z" />
</font>
</defs>
</svg>
