<?xml version="1.0" standalone="no"?>
<!DOCTYPE svg PUBLIC "-//W3C//DTD SVG 1.1//EN" "http://www.w3.org/Graphics/SVG/1.1/DTD/svg11.dtd" >
<svg xmlns="http://www.w3.org/2000/svg">
<metadata></metadata>
<defs>
<font id="uni_sanslight_italic" horiz-adv-x="1062" >
<font-face units-per-em="2048" ascent="1548" descent="-500" />
<missing-glyph horiz-adv-x="487" />
<glyph unicode="&#xfb01;" horiz-adv-x="923" d="M-45 -307q79 64 98 196l176 1260q22 157 118.5 244.5t240.5 70.5l-10 -63q-110 18 -186.5 -55.5t-92.5 -196.5l-23 -141h230l-8 -62h-230l-145 -1057q-10 -77 -46.5 -140t-88.5 -103zM608 -2l150 1063h73l-149 -1063h-74zM764 1393q4 29 28.5 50t53.5 21t47 -21t14 -50 q-3 -29 -28 -50.5t-54 -21.5t-46.5 21t-14.5 51z" />
<glyph unicode="&#xfb02;" horiz-adv-x="987" d="M-45 -307q79 64 98 196l176 1260q22 157 118.5 244.5t240.5 70.5l-10 -63q-110 18 -186.5 -55.5t-92.5 -196.5l-23 -141h230l-8 -62h-230l-145 -1057q-10 -77 -46.5 -140t-88.5 -103zM645 295l160 1155h74l-160 -1155q-31 -242 174 -242l-10 -73q-137 5 -198.5 84 t-39.5 231z" />
<glyph horiz-adv-x="2048" />
<glyph horiz-adv-x="2048" />
<glyph unicode="&#xd;" horiz-adv-x="2048" />
<glyph unicode=" "  horiz-adv-x="487" />
<glyph unicode="&#x09;" horiz-adv-x="487" />
<glyph unicode="&#xa0;" horiz-adv-x="487" />
<glyph unicode="!" horiz-adv-x="403" d="M47 70q4 32 31 54.5t59 22.5t51.5 -22.5t14.5 -54.5t-30.5 -55t-57.5 -23t-52 23t-16 55zM113 268l166 1184h79l-165 -1184h-80z" />
<glyph unicode="&#x22;" horiz-adv-x="546" d="M207 1061l55 389h82q-16 -77 -45.5 -197.5t-44.5 -191.5h-47zM395 1061l56 389h79l-88 -389h-47z" />
<glyph unicode="#" horiz-adv-x="1499" d="M55 475l25 70h332l159 370h-372l26 72h379l201 463h80l-203 -463h379l201 463h81l-204 -463h331l-30 -72h-336l-158 -370h377q-6 -17 -15.5 -38t-13.5 -32h-383q-25 -59 -96.5 -226.5t-105.5 -248.5h-78l205 475h-381q-26 -63 -98 -229t-105 -246h-78l205 475h-324z M489 545h379l160 370h-379z" />
<glyph unicode="$" horiz-adv-x="1173" d="M33 233l78 31q33 -88 131 -142t227 -65l94 666q-81 18 -132.5 32.5t-114 44.5t-94.5 67.5t-49 98t-3 138.5q14 82 61.5 150t116 112t150 70.5t170.5 33.5l28 197h60l-29 -197q333 -6 410 -227l-76 -29q-37 91 -119.5 131t-224.5 48l-86 -607q44 -8 79 -15.5t76 -19 t72.5 -24.5t64.5 -32t55.5 -41.5t41 -52.5t27 -65t8 -79t-12.5 -95q-26 -112 -106.5 -198t-188 -131t-229.5 -53l-29 -207h-59l29 207q-158 11 -273 74.5t-153 178.5zM241.5 1043.5q-0.5 -26.5 5.5 -48.5t15 -41t25 -35t32.5 -29.5t40.5 -25t46.5 -20.5t52 -17.5t55.5 -15.5 t59 -14l84 596q-100 -8 -184 -42t-145.5 -99t-79.5 -152q-6 -30 -6.5 -56.5zM528 57q102 7 192 43t156.5 104t86.5 158q9 43 10 79t-2.5 64t-19 52t-29.5 40.5t-43.5 32.5t-51 25.5t-62.5 21t-67.5 17.5t-76.5 17z" />
<glyph unicode="%" horiz-adv-x="1456" d="M78 -76l1251 1620l62 -43l-1250 -1618zM152 1079q24 174 115 270.5t218 96.5q133 0 194 -97.5t36 -273.5q-23 -169 -116 -268.5t-218 -99.5q-136 0 -195.5 95.5t-33.5 276.5zM231 1079q-23 -155 16 -225t144 -70q207 0 246 291q42 295 -164 295q-201 0 -242 -291z M772 373q25 179 115 272.5t219 93.5q131 0 192.5 -98.5t36.5 -271.5q-24 -169 -115.5 -268t-215.5 -99q-137 0 -197.5 95.5t-34.5 275.5zM852 373q-22 -156 17.5 -225.5t146.5 -69.5q202 0 244 291q21 150 -22.5 223.5t-143.5 73.5q-102 0 -161 -71.5t-81 -221.5z" />
<glyph unicode="&#x26;" horiz-adv-x="1267" d="M59 399q8 60 35 113.5t60 93t86.5 80t97 67t108.5 62.5q-35 50 -54.5 80.5t-43 76.5t-31.5 89t-2 86q20 138 131 222.5t250 84.5q122 0 200.5 -81.5t61.5 -203.5q-10 -67 -42 -122t-87.5 -99t-104 -72t-124.5 -65l-35 -18l338 -402l148 201l57 -31l-162 -215l201 -272 h-96l-154 202q-115 -131 -228.5 -197.5t-250.5 -66.5q-176 0 -279.5 106.5t-79.5 280.5zM139 403q-20 -147 61 -233t244 -86q112 0 216.5 69.5t191.5 174.5l-8 12l-352 424q-59 -32 -94 -52.5t-86.5 -57t-82 -70t-56.5 -81.5t-34 -100zM395 1151q-5 -40 4 -81t35 -86 t41.5 -68t48.5 -68q12 6 42.5 20.5t46 22t44.5 23t45.5 26t42 27.5t40.5 31t33 34t29 39t20 42t12 48q13 96 -43 157.5t-156 61.5q-104 0 -187 -65t-98 -164z" />
<glyph unicode="'" horiz-adv-x="364" d="M207 1059l55 391h80l-76 -391h-59z" />
<glyph unicode="(" horiz-adv-x="512" d="M108 389.5q-19 314.5 87.5 625.5t318.5 566l55 -45q-196 -237 -296.5 -535.5t-84 -601.5t155.5 -542q-21 -13 -70 -39q-147 257 -166 571.5z" />
<glyph unicode=")" horiz-adv-x="518" d="M-45 -203q207 256 305 562.5t78.5 603.5t-145.5 553q26 16 67 38q142 -254 162.5 -573t-85 -644t-323.5 -583z" />
<glyph unicode="*" horiz-adv-x="903" d="M176 1182q11 31 27 57l295 -100l39 313h63l-47 -313q39 12 148 45t165 51l11 -59l-318 -95l162 -260l-53 -39l-160 265q-39 -48 -128 -151t-97 -112q-9 7 -23 20t-18 17l233 264z" />
<glyph unicode="+" horiz-adv-x="1202" d="M104 659l11 78h473l65 461h76l-65 -461h454l-10 -78h-455l-65 -464h-76l66 464h-474z" />
<glyph unicode="," horiz-adv-x="428" d="M-66 -262l175 377h98q-36 -77 -100.5 -191.5t-98.5 -185.5h-74z" />
<glyph unicode="-" horiz-adv-x="868" d="M137 575l10 78h580l-10 -78h-580z" />
<glyph unicode="." horiz-adv-x="430" d="M63 72q4 32 31.5 55t59.5 23t51 -23t14 -55t-30.5 -55t-57.5 -23t-52 23t-16 55z" />
<glyph unicode="/" horiz-adv-x="780" d="M-39 -27l821 1526l66 -22l-819 -1526q-15 6 -37 12.5t-31 9.5z" />
<glyph unicode="0" horiz-adv-x="1282" d="M104 381l97 688q11 80 50.5 147.5t95.5 113.5t126 78t143 47t146 15q72 0 140.5 -15t129 -47t103 -78t62.5 -113.5t9 -147.5l-96 -688q-11 -79 -50 -146.5t-95 -113.5t-125.5 -78.5t-142 -47.5t-144.5 -15q-73 0 -142 15t-130 47.5t-104.5 78.5t-63.5 113.5t-9 146.5z M184 381q-10 -69 8 -124.5t54.5 -92t89.5 -60.5t109.5 -34.5t117.5 -10.5q77 0 150.5 17.5t142 53.5t115.5 101t59 150l96 688q10 69 -7.5 125t-54 92t-88.5 60.5t-107.5 34.5t-116.5 10q-78 0 -152 -17t-143 -53t-116.5 -101t-59.5 -151z" />
<glyph unicode="1" horiz-adv-x="602" d="M100 1126l353 326h94l-203 -1452h-78l191 1362l-307 -283z" />
<glyph unicode="2" horiz-adv-x="1132" d="M6 66l803 714q178 158 199 301q18 129 -74 217.5t-262 94.5q-131 5 -238.5 -50t-173.5 -161l-65 32q82 138 200 196t289 60q202 -2 314 -109t87 -282q-24 -169 -229 -352l-723 -647h819l-10 -80h-915z" />
<glyph unicode="3" horiz-adv-x="1175" d="M23 219l77 35q38 -95 143 -145t240 -50q111 0 209.5 35.5t171.5 112.5t88 184q26 179 -61.5 272t-267.5 91h-101l10 69h101q143 0 239 71t115 212q10 72 -13 129.5t-71 92t-109.5 52t-131.5 17.5q-111 0 -211.5 -42.5t-161.5 -121.5l-60 37q68 98 188.5 149t258.5 51 q85 0 159 -22t130.5 -65t83.5 -114.5t14 -162.5q-9 -64 -31 -119t-72 -109.5t-122 -84.5q240 -92 194 -404q-16 -99 -70.5 -179t-133 -129t-171 -75t-188.5 -26q-159 0 -277 59.5t-169 179.5z" />
<glyph unicode="4" horiz-adv-x="1167" d="M29 469l936 981h104l-137 -981h121l-11 -70h-120l-56 -399h-80l56 399h-781zM119 469h735l129 897z" />
<glyph unicode="5" horiz-adv-x="1185" d="M55 221l78 35q38 -89 138.5 -137.5t226.5 -48.5q110 0 213.5 40.5t179.5 124.5t88 193l10 98q18 164 -88 259.5t-276 95.5q-115 0 -210.5 -20.5t-201.5 -69.5l-39 -5l94 664h856l-12 -80h-776l-68 -481q200 77 367 74q73 -1 141.5 -18.5t126.5 -54t99 -87.5t59.5 -122 t7.5 -153l-10 -100q-13 -82 -51.5 -153.5t-95 -123t-126.5 -89t-146 -56t-153 -18.5q-332 0 -432 233z" />
<glyph unicode="6" horiz-adv-x="1269" d="M102 381l95 688q13 97 68.5 175.5t136 127t176 74t194.5 24.5q154 0 271 -57.5t161 -167.5l-76 -37q-40 88 -141 136.5t-227 48.5q-85 0 -165.5 -20.5t-148 -60t-113.5 -103t-57 -142.5l-51 -360q51 60 110 101t121 61t117 28t119 8q99 -1 184 -27t149.5 -74t96.5 -126 t21 -174l-15 -123q-11 -96 -64.5 -174t-132.5 -126.5t-173 -74.5t-193 -26q-79 -1 -151.5 14.5t-134.5 48.5t-105 80t-63 113.5t-9 144.5zM182 383q-10 -79 18.5 -142.5t84.5 -103t130.5 -60t159.5 -20.5q113 0 214 35t174 111t86 180l14 119q13 104 -38 179.5t-140.5 110.5 t-202.5 35q-116 0 -219 -34.5t-178 -110t-88 -180.5z" />
<glyph unicode="7" horiz-adv-x="1017" d="M35 0l954 1374h-817l10 76h881l22 -68l-960 -1382h-90z" />
<glyph unicode="8" horiz-adv-x="1261" d="M76 391q19 144 106 246t228 143q-100 35 -140.5 123t-25.5 197q18 117 93.5 202.5t177 125.5t214.5 40h39q113 0 204.5 -40t143.5 -125.5t35 -202.5q-14 -100 -75 -187.5t-169 -124.5q126 -47 181 -151.5t32 -245.5q-21 -126 -108.5 -221.5t-206.5 -142.5t-248 -47h-39 q-95 0 -180 28t-148 79t-94.5 130t-19.5 174zM154 393q-12 -82 16.5 -148t85 -106.5t127 -62t145.5 -21.5h39q75 0 152 21.5t145 62t116 106.5t60 148q12 81 -2 143.5t-47 101.5t-85 63.5t-110 34t-128 9.5h-39q-423 0 -475 -352zM319 1100q-40 -281 320 -281h39 q357 0 397 281q10 73 -11.5 130.5t-68 92.5t-107 53.5t-130.5 18.5h-39q-148 0 -263.5 -76.5t-136.5 -218.5z" />
<glyph unicode="9" horiz-adv-x="1269" d="M90 205l78 37q40 -88 139.5 -136.5t224.5 -48.5q85 0 166 20.5t149 60t114 103t57 142.5l49 356q-51 -57 -109.5 -95.5t-120.5 -57t-115 -25t-118 -6.5q-78 1 -149.5 17t-131.5 49t-102 79.5t-61 112t-8 143.5l16 111q13 96 66.5 174t132.5 126.5t172 74.5t192 26 q79 1 151 -14.5t133.5 -48.5t104.5 -80t63.5 -113.5t10.5 -144.5l-96 -686q-14 -97 -69.5 -175.5t-136 -127t-176 -74t-194.5 -24.5q-154 0 -271 57.5t-161 167.5zM231 958q-11 -79 16 -142t82 -102.5t128 -60t157 -20.5q116 0 218 34.5t176.5 110t89.5 180.5l16 107 q11 79 -17 142.5t-84.5 103t-131.5 60t-160 20.5q-84 0 -162.5 -21t-144.5 -60.5t-110.5 -102.5t-55.5 -142z" />
<glyph unicode=":" horiz-adv-x="442" d="M72 117q3 32 29 55t59 23q32 0 51 -22.5t16 -55.5q-4 -32 -31 -55t-59 -23t-51 23t-14 55zM180 891q5 32 30.5 55t57.5 23t52 -23t16 -55t-31 -55t-59 -23t-51.5 23t-14.5 55z" />
<glyph unicode=";" horiz-adv-x="538" d="M16 -217l150 340h117l-187 -340h-80zM227 860q3 32 29 55t59 23q32 0 51.5 -22.5t16.5 -55.5q-4 -32 -31 -55t-59 -23t-51.5 23t-14.5 55z" />
<glyph unicode="&#x3c;" horiz-adv-x="894" d="M78 584l10 73l735 406l-12 -88l-659 -354q63 -40 262 -163.5t299 -187.5l-13 -86z" />
<glyph unicode="=" horiz-adv-x="1091" d="M123 444l10 72h793l-11 -72h-792zM162 727l10 70h793l-11 -70h-792z" />
<glyph unicode="&#x3e;" horiz-adv-x="897" d="M70 184l12 82l659 355l-561 354l13 88l624 -406l-10 -73z" />
<glyph unicode="?" horiz-adv-x="925" d="M147 1298q156 156 379 156q68 0 129.5 -16t113.5 -49t87.5 -79.5t50.5 -112t4 -142.5q-14 -93 -59.5 -169t-112.5 -128t-144.5 -85t-164.5 -48q-34 -192 -72 -394h-59l53 459q115 4 219 47.5t178 127.5t87 192q19 152 -78 236.5t-246 84.5q-78 0 -170 -37t-158 -92z M231 66q4 32 30 54.5t58 22.5q31 0 49.5 -22.5t14.5 -54.5t-28.5 -54t-55.5 -22q-33 0 -52.5 22t-15.5 54z" />
<glyph unicode="@" horiz-adv-x="1579" d="M102 440q-11 84 4 176q28 200 148 366.5t299.5 262.5t378.5 96q187 0 328.5 -76t209.5 -209t46 -296q-16 -116 -76 -226.5t-137.5 -186.5t-163 -120.5t-154.5 -40.5q-54 3 -71.5 40.5t-6.5 119.5q-69 -76 -153 -118t-158 -42q-119 0 -173 78t-38 197q15 102 61 202 t114 181.5t162.5 131.5t195.5 50q33 0 65.5 -11.5t63 -35t49 -67t18.5 -101.5q9 16 41.5 82.5t46.5 91.5h70l-264 -555q-35 -76 -39 -102q-4 -29 9 -51.5t52 -22.5q72 0 164 76.5t164.5 196t89.5 233.5q16 113 -19.5 211.5t-108.5 165.5t-175.5 105t-218.5 38 q-143 0 -275 -54.5t-230 -145.5t-163.5 -212t-83.5 -252q-10 -90 -0.5 -174.5t45.5 -159t86 -136t121 -105.5t150.5 -68t174.5 -23t193 30q16 -46 21 -56q-94 -30 -186.5 -37t-173 8t-155 48t-132.5 83.5t-105.5 114t-73.5 139.5t-37 160zM455 465q-12 -94 31.5 -153.5 t129.5 -59.5q72 0 149 49t135.5 121.5t100.5 156t52 152.5q14 109 -23.5 169.5t-130.5 60.5q-71 1 -138 -30.5t-117.5 -84t-91 -118.5t-64.5 -133.5t-33 -129.5z" />
<glyph unicode="A" horiz-adv-x="1226" d="M-66 0l738 1450h116l326 -1450h-86l-113 504h-649l-246 -504h-86zM307 584h594l-180 807z" />
<glyph unicode="B" horiz-adv-x="1290" d="M90 -2l205 1454h545q109 0 191.5 -40.5t124.5 -123.5q30 -60 31 -136q0 -29 -5 -60q-11 -92 -60 -174t-131 -125l-63 -25l65 -14q168 -70 168 -267q0 -44 -8 -94q-16 -106 -63 -184t-117.5 -123t-154.5 -66.5t-185 -21.5h-543zM182 78h465h14q171 0 278 70 q111 73 136 247q5 38 5 72q0 123 -68 185q-85 79 -264 79h-9h-465zM285 803h465q144 0 240.5 72t115.5 215q4 27 4 52q0 102 -64 162q-78 74 -217 74h-464z" />
<glyph unicode="C" horiz-adv-x="1202" d="M111 399l90 648q14 100 71 181.5t139.5 132t179.5 78t197 27.5q154 0 273.5 -58t163.5 -171l-76 -37q-41 89 -145 137.5t-232 48.5q-84 0 -165 -21.5t-150.5 -62.5t-117 -107t-58.5 -148l-91 -648q-3 -23 -3 -44q0 -57 21 -105q29 -66 86.5 -107t132.5 -62.5t159 -21.5 q127 0 245.5 49t186.5 138l63 -35q-75 -112 -214 -171.5t-294 -59.5q-78 0 -150.5 16.5t-134.5 51t-106 82.5q-42 48 -62 118q-12 44 -13 94q0 28 4 57z" />
<glyph unicode="D" horiz-adv-x="1312" d="M90 0l203 1450h504q80 0 148.5 -14.5t125.5 -45.5t94 -77.5t53 -114.5q9 -38 8 -81q0 -33 -5 -70l-91 -646q-14 -103 -62.5 -181.5t-122 -125.5t-162 -70.5t-189.5 -23.5h-504zM180 80h424q85 0 158.5 18.5t135 56t101.5 100.5t52 146l90 646q4 31 4 59q-1 120 -81 184 q-100 80 -278 80h-424z" />
<glyph unicode="E" horiz-adv-x="1153" d="M90 0l203 1450h876l-10 -80h-797l-86 -604h736l-13 -82h-735l-84 -604h797l-10 -80h-877z" />
<glyph unicode="F" horiz-adv-x="1120" d="M90 2l203 1448h864l-10 -80h-785l-90 -633h707l-10 -80h-707l-92 -655h-80z" />
<glyph unicode="G" horiz-adv-x="1294" d="M113 406l88 645q13 100 69.5 181.5t138 132t178 78t195.5 27.5q153 0 272 -59t163 -172l-76 -37q-38 94 -140 141.5t-233 47.5q-84 0 -164.5 -21.5t-149 -62.5t-115.5 -107.5t-58 -148.5l-88 -645q-3 -24 -3 -46q0 -57 20 -105q28 -67 85 -108.5t131.5 -63.5t159.5 -22 t166 22t150.5 63.5t117 109t59.5 150.5l31 215h-444l10 79h524l-41 -294q-15 -103 -71.5 -186t-138 -134.5t-178 -78.5t-196.5 -27q-80 0 -152.5 16.5t-134.5 51.5t-105 84.5t-62 119.5q-12 45 -12 95q0 29 4 59z" />
<glyph unicode="H" horiz-adv-x="1402" d="M90 0l203 1450h80l-97 -686h887l97 686h79l-202 -1450h-80l94 684h-887l-94 -684h-80z" />
<glyph unicode="I" horiz-adv-x="436" d="M90 0l203 1448h80l-203 -1448h-80z" />
<glyph unicode="J" horiz-adv-x="1189" d="M-4 299l78 16q10 -84 65 -144.5t134 -89t171 -28.5q107 0 205 37t171 117.5t89 189.5l138 973h-484l10 80h564l-148 -1053q-14 -100 -68.5 -181t-133.5 -131.5t-171 -77.5t-188 -27q-111 0 -202.5 34t-155 107.5t-74.5 177.5z" />
<glyph unicode="K" horiz-adv-x="1224" d="M90 2l203 1448h80l-119 -846l950 846h107l-776 -702l571 -746h-100l-537 692l-231 -202l-68 -490h-80z" />
<glyph unicode="L" horiz-adv-x="1013" d="M90 2l203 1450h80l-193 -1370h725l-10 -80h-805z" />
<glyph unicode="M" horiz-adv-x="1636" d="M90 0l203 1450h139l342 -1139l664 1139h135l-203 -1450h-80l195 1389l-680 -1170h-86l-354 1172l-195 -1391h-80z" />
<glyph unicode="N" horiz-adv-x="1376" d="M90 0l203 1450h100l649 -1350l191 1350h80l-203 -1450h-117l-637 1327l-186 -1327h-80z" />
<glyph unicode="O" horiz-adv-x="1390" d="M109 406l90 641q14 102 73 184.5t145 133.5t187 78t207 27t200 -27t166 -78t108 -133q26 -59 26 -129q0 -27 -4 -56l-90 -641q-14 -102 -73 -185t-146 -134.5t-188.5 -79t-207.5 -27.5t-199.5 27.5t-165 79t-107.5 134.5q-25 60 -25 129q0 27 4 56zM188 406 q-4 -24 -4 -46q0 -40 12 -78q18 -58 58 -98.5t96.5 -69t123 -42t138.5 -13.5q91 0 178 22t161 64t124 109.5t62 151.5l90 641q4 25 4 48q-1 43 -13 81q-18 58 -58 98t-97.5 67t-124 39.5t-139.5 12.5q-92 -1 -177 -22t-158.5 -61.5t-123 -108t-61.5 -154.5z" />
<glyph unicode="P" horiz-adv-x="1236" d="M90 2l203 1448h526q220 -3 327 -147q73 -98 74 -229q0 -28 -4 -57q-18 -167 -133 -291q-143 -154 -366 -163h-21h-448l-78 -561h-80zM260 643h447q200 1 324 135q99 106 109 250q1 16 2 31q0 123 -76 209q-91 101 -257 102h-447z" />
<glyph unicode="Q" horiz-adv-x="1386" d="M111 406l86 641q19 136 112.5 234t223.5 143.5t278 45.5q106 0 199 -27t164.5 -78t107.5 -133q25 -60 25 -129q0 -27 -4 -56l-86 -641q-23 -154 -152 -273l84 -123l-72 -41l-78 117q-186 -106 -395 -106q-106 0 -199.5 27.5t-165 79t-107.5 134.5q-25 60 -25 129 q0 27 4 56zM190 406q-3 -22 -3 -43q0 -59 23 -109q30 -67 91.5 -109t141.5 -64t171 -22q189 0 347 91l-99 161l68 43l96 -155q97 104 111 207l86 641q4 25 4 48q0 44 -13 81q-18 59 -58 98.5t-97 66.5t-123 39.5t-139 12.5q-92 -1 -177 -22t-159 -61.5t-123.5 -108 t-61.5 -154.5z" />
<glyph unicode="R" horiz-adv-x="1251" d="M90 0l203 1450h526q100 0 179 -24t135.5 -72t81.5 -128q16 -52 16 -115q0 -33 -4 -69q-16 -114 -60.5 -194.5t-114.5 -126t-154 -66t-191 -20.5h-48l400 -635h-94l-400 635h-307l-88 -635h-80zM268 705h449q196 0 300 77.5t130 257.5q5 37 5 70q0 122 -72 184 q-88 77 -256 76h-13h-449z" />
<glyph unicode="S" horiz-adv-x="1191" d="M41 233l76 33q26 -65 88 -113.5t142 -72t167 -23.5q103 0 193 29t163.5 98t100.5 170q7 34 7 65q0 35 -9 65q-17 56 -48 90t-95 62.5t-111.5 41.5t-128.5 31q-74 16 -131.5 34.5t-118.5 51.5t-98 75q-36 42 -54 106q-10 36 -10 75q0 32 6 67q21 114 103.5 196t193 119 t234.5 37q158 0 283 -62.5t169 -180.5l-76 -31q-37 95 -147 149t-240 54q-106 0 -194 -26t-158 -91.5t-90 -165.5q-7 -32 -7 -60q1 -38 13 -72q22 -58 76 -97.5t121 -65t157 -43.5q84 -17 143.5 -34.5t126.5 -51t105 -76t56 -110.5q10 -36 9 -77q0 -36 -7 -77 q-22 -117 -108.5 -203t-201.5 -126.5t-241 -40.5q-155 0 -285 65.5t-174 185.5z" />
<glyph unicode="T" horiz-adv-x="1118" d="M139 1370l11 80h1046l-10 -80h-484l-192 -1370h-80l193 1370h-484z" />
<glyph unicode="U" horiz-adv-x="1384" d="M139 412l146 1038h80l-146 -1038q-4 -26 -4 -50q0 -56 20 -104q28 -68 85.5 -110.5t132 -64.5t159.5 -22t166.5 22t151 64.5t117 111t59.5 153.5l145 1038h80l-145 -1038q-15 -104 -71.5 -188t-138 -136t-178 -80t-196.5 -28t-189 28t-156 80t-100 136q-23 58 -23 125 q0 31 5 63z" />
<glyph unicode="V" horiz-adv-x="1232" d="M141 1450h88l308 -1391l700 1389h86l-729 -1448h-129z" />
<glyph unicode="W" horiz-adv-x="1900" d="M158 1450h82l196 -1380h8l551 1169h84l213 -1169h8l596 1380h82l-632 -1450h-119l-203 1141l-532 -1141h-119z" />
<glyph unicode="X" horiz-adv-x="1132" d="M-51 0l583 723l-376 725h90l344 -655l524 655h94l-581 -725l381 -723h-97l-340 666l-526 -666h-96z" />
<glyph unicode="Y" horiz-adv-x="1097" d="M137 1448h92l324 -803l547 803h94l-612 -875l-80 -573h-80l80 573z" />
<glyph unicode="Z" horiz-adv-x="1138" d="M-31 47l1106 1329h-876l10 74h946l37 -45l-1108 -1331h893l-10 -74h-969z" />
<glyph unicode="[" horiz-adv-x="495" d="M29 -252l254 1798h266l-10 -65h-189l-233 -1667h188l-10 -66h-266z" />
<glyph unicode="\" horiz-adv-x="806" d="M174 1528l74 22l416 -1603l-76 -25z" />
<glyph unicode="]" horiz-adv-x="499" d="M-43 -268l8 75h185l235 1668h-184l10 71h266l-256 -1814h-264z" />
<glyph unicode="^" horiz-adv-x="1058" d="M150 911l456 539h74q54 -90 158 -269.5t159 -269.5h-92l-270 480q-56 -68 -190.5 -232.5t-202.5 -247.5h-92z" />
<glyph unicode="_" horiz-adv-x="1236" d="M25 -129l10 74h983l-10 -74h-983z" />
<glyph unicode="`" horiz-adv-x="430" d="M102 1794h99l125 -227h-76z" />
<glyph unicode="a" horiz-adv-x="1050" d="M86 297l64 455q13 89 56 155t107.5 102t137 53t155.5 17q204 0 344 -67l-141 -1012h-70l15 113q-139 -133 -340 -133q-70 0 -131.5 18.5t-110.5 55t-73 99.5q-16 43 -16 95q0 24 3 49zM158 297q-3 -22 -3 -43q0 -94 65 -145q79 -62 206 -62q92 0 182.5 38.5t155.5 104.5 l106 768q-105 54 -264 54q-70 0 -131.5 -13.5t-116 -42.5t-91 -80.5t-46.5 -121.5z" />
<glyph unicode="b" horiz-adv-x="1044" d="M72 41l198 1409h74l-63 -440q171 71 319 71h5q96 0 175 -35q80 -36 126 -112q35 -58 36 -130q0 -22 -4 -46l-61 -441q-15 -103 -81.5 -180.5t-155.5 -115t-187 -39.5q-201 0 -381 59zM154 98q126 -45 309 -45q78 0 150 29.5t124.5 90t63.5 140.5l61 445q3 20 3 38 q0 92 -67 146q-80 64 -206 66q-137 0 -322 -82z" />
<glyph unicode="c" horiz-adv-x="929" d="M82 303l61 455q10 78 52 141.5t102 102t130 59t142 20.5q105 0 190 -39.5t122 -115.5l-64 -39q-33 59 -102 90t-156 31q-126 0 -226 -64t-116 -182l-61 -459q-3 -20 -2 -38q0 -93 67 -147q81 -64 207 -65q95 0 181.5 41t129.5 115l64 -33q-57 -92 -163 -144t-222 -52 q-98 0 -178 34q-80 35 -126 110q-36 58 -35 132q0 23 3 47z" />
<glyph unicode="d" horiz-adv-x="1048" d="M84 303l61 455q14 101 80.5 176.5t157.5 111.5q89 35 185 35h5q161 0 301 -67l62 436h74l-197 -1407q-208 -63 -399 -63q-57 1 -108.5 14t-96 39.5t-75.5 63.5q-30 37 -44 90q-8 33 -9 71q0 22 3 45zM160 303q-3 -21 -3 -40q0 -93 65 -147q78 -66 202 -65q172 0 324 49 l114 840q-142 68 -301 68q-81 -1 -152 -27t-124 -83.5t-64 -137.5z" />
<glyph unicode="e" horiz-adv-x="978" d="M84 301l61 449q11 81 52.5 146t101.5 104.5t130 60t144 20.5q57 0 109.5 -12.5t97.5 -38.5t76 -64q30 -36 44 -90q8 -32 9 -68q0 -24 -4 -50q-16 -110 -83 -189.5t-157.5 -116t-193.5 -36.5q-159 0 -293 67l-26 -184q-3 -21 -4 -41q0 -40 14 -73q20 -50 61.5 -79 t93.5 -44t111 -15q91 0 172 34.5t129 100.5l55 -30q-58 -82 -157.5 -127t-206.5 -45q-73 0 -137 20t-113.5 58.5t-73.5 101.5q-16 43 -16 93q0 23 4 48zM186 547q155 -66 303 -66q85 0 156 27t124 91.5t67 158.5q3 21 3 41q1 59 -27 105q-36 60 -101 87t-146 27 q-129 0 -230.5 -69t-119.5 -197z" />
<glyph unicode="f" horiz-adv-x="507" d="M-45 -307q79 64 98 196l176 1260q22 157 119 245q80 73 194 73q23 0 46 -3l-10 -63q-22 4 -42 4q-83 0 -144 -59q-77 -74 -93 -197l-23 -141h230l-8 -62h-230l-145 -1057q-10 -77 -46.5 -140t-88.5 -103z" />
<glyph unicode="g" horiz-adv-x="1038" d="M53 -319l47 47q46 -42 119 -66t148 -24q132 0 226.5 60t113.5 181l28 176q-166 -75 -315 -75h-7q-69 0 -131 20q-64 21 -112 60t-72 102q-16 42 -16 91q0 23 4 48l64 461q21 149 142.5 233t272.5 86q98 0 179.5 -18.5t195.5 -58.5l-162 -1123q-11 -78 -51.5 -140 t-99 -98.5t-126.5 -55.5t-141 -19q-94 0 -175.5 29.5t-131.5 83.5zM160 301q-3 -21 -3 -39q0 -92 65 -147q77 -66 202 -66q93 1 155 17.5t166 62.5l115 819q-56 26 -139.5 44t-165.5 18q-79 0 -148.5 -26t-121 -83.5t-62.5 -136.5z" />
<glyph unicode="h" horiz-adv-x="1069" d="M70 0l202 1450h74l-59 -444q170 75 317 75h10q92 1 168 -33q80 -36 127 -112q35 -57 35 -128q0 -23 -4 -48l-109 -760h-73l108 760q3 20 3 38q0 39 -13 71q-19 48 -59 77.5t-91 45t-110 16.5q-155 0 -320 -64l-133 -944h-73z" />
<glyph unicode="i" horiz-adv-x="389" d="M70 0l149 1061h74l-150 -1061h-73zM221 1307q4 26 27 44.5t49 18.5q27 0 43 -18q13 -15 13 -35q0 -5 -1 -10q-3 -27 -24.5 -46.5t-48.5 -19.5q-27 -1 -44 19q-14 17 -14 39v8z" />
<glyph unicode="j" horiz-adv-x="389" d="M-211 -373l10 74q230 6 264 254l156 1106h74l-156 -1106q-21 -153 -114 -237.5t-234 -90.5zM225 1307q4 26 27 44.5t49 18.5q27 0 43 -18q13 -15 13 -35q0 -5 -1 -10q-3 -27 -24.5 -46.5t-48.5 -19.5t-44 19q-14 17 -14 39v8z" />
<glyph unicode="k" horiz-adv-x="960" d="M70 0l202 1450h74l-139 -997l674 608h90l-525 -477l377 -584h-88l-348 530l-194 -170l-50 -360h-73z" />
<glyph unicode="l" horiz-adv-x="448" d="M104 295l160 1155h74l-160 -1155q-4 -32 -4 -59q0 -183 178 -183l-10 -73q-136 5 -198 84q-45 58 -46 156q0 35 6 75z" />
<glyph unicode="m" horiz-adv-x="1656" d="M66 0l139 995q131 86 344 86q106 0 185.5 -32t133.5 -115q77 81 153.5 112.5t170.5 34.5h20q148 -1 238 -83q79 -72 78 -192q0 -28 -4 -58l-105 -748h-76l103 743q6 29 6 56q0 98 -82 156q-73 51 -175 51q-20 0 -42 -2q-131 -13 -209 -92q-51 -53 -61 -124l-111 -788h-72 l111 788q2 14 2 26q0 50 -28 88q-35 48 -98 71t-137 29q-21 2 -42 2q-54 0 -107 -12q-74 -16 -127 -46l-133 -946h-75z" />
<glyph unicode="n" d="M66 0l141 1004q227 77 397 77q71 -2 134 -23t111 -59.5t71 -100.5q16 -42 16 -92q0 -23 -4 -48l-107 -758h-73l106 758q3 20 3 38q0 39 -13 72q-19 49 -58.5 78t-89.5 44.5t-106 15.5q-82 0 -171 -18t-153 -44l-131 -944h-73z" />
<glyph unicode="o" horiz-adv-x="1015" d="M82 305l61 451q10 78 52 141.5t102 102.5t130.5 59.5t143.5 21.5q73 -1 137 -21.5t113 -59.5q49 -38 73 -102q16 -45 16 -97q0 -22 -3 -45l-61 -451q-10 -78 -51.5 -141.5t-101.5 -102.5t-130.5 -59.5t-144.5 -21.5q-72 1 -136 21.5t-113 59.5t-73 103q-17 45 -17 96 q0 22 3 45zM156 305q-3 -20 -3 -38q-1 -40 13 -75q20 -50 60.5 -79.5t92 -44.5t109.5 -15q78 0 149 25t127 84.5t68 142.5l62 451q3 20 3 38q0 40 -14 74q-20 50 -61 79t-92.5 44t-108.5 15q-58 0 -113.5 -14.5t-104.5 -44t-83 -79t-43 -112.5z" />
<glyph unicode="p" horiz-adv-x="1048" d="M14 -371l195 1391q109 34 197 47.5t200 13.5q73 -1 136 -20t112 -56.5t72 -100.5q16 -43 16 -95q0 -24 -4 -51l-61 -451q-14 -102 -81.5 -178.5t-157.5 -112.5q-89 -36 -184 -36h-5q-183 4 -302 63l-59 -414h-74zM158 121q148 -66 303 -66q80 1 151.5 27.5t124.5 84 t64 136.5l61 455q3 21 3 40q0 40 -13 73q-18 49 -57 77.5t-89.5 43t-109.5 14.5q-193 0 -322 -43z" />
<glyph unicode="q" horiz-adv-x="1044" d="M82 311l61 447q10 78 51 140.5t101 101.5t129.5 59.5t142.5 21.5q121 0 193 -13t186 -52l-194 -1387h-74l59 424q-158 -70 -319 -73h-5q-96 0 -175 36q-80 38 -125 116q-34 59 -34 132q0 23 3 47zM158 311q-3 -20 -3 -39q0 -56 27 -100q37 -59 101 -85.5t145 -27.5 q163 0 322 80l116 826q-112 41 -311 41q-123 0 -220.5 -65t-113.5 -179z" />
<glyph unicode="r" horiz-adv-x="602" d="M61 0l105 754q18 126 107.5 209.5t215.5 107.5q27 5 68 5q32 0 72 -3l-11 -72q-32 3 -59 3q-43 0 -74 -7q-95 -22 -163.5 -84t-81.5 -159l-105 -754h-74z" />
<glyph unicode="s" horiz-adv-x="890" d="M27 172l65 39q98 -164 292 -164h7q59 1 120 24.5t112.5 77t60.5 125.5q3 17 3 33q0 155 -236 201q-55 10 -97 21.5t-88 34t-74.5 52t-43.5 75.5q-10 30 -10 65q0 19 3 39q11 79 54.5 140t104 93.5t133.5 46.5q45 9 89 9q26 0 52 -4q68 -8 129 -37t96 -74l-54 -54 q-29 38 -77 62.5t-102 32.5q-25 4 -50 4q-30 0 -62 -6q-58 -10 -105.5 -34.5t-83 -71t-46.5 -107.5q-1 -13 -2 -25q0 -21 5 -39q7 -29 18.5 -48.5t37 -36.5t42.5 -26t52 -18t50.5 -12.5t50.5 -9.5q63 -12 113.5 -33t93.5 -56t63 -91q14 -38 14 -83q0 -21 -3 -43 q-13 -90 -70.5 -158t-135.5 -101t-165 -35h-13q-110 0 -198 46q-93 50 -145 146z" />
<glyph unicode="t" horiz-adv-x="532" d="M102 301l144 1006h69l-32 -246h229l-8 -66h-230l-98 -694q-3 -21 -3 -41q-1 -58 25 -102q34 -60 96 -85q56 -24 123 -24h11l-10 -69q-72 0 -133 21t-106 60t-67 101q-14 41 -14 89q0 24 4 50z" />
<glyph unicode="u" d="M104 303l107 758h74l-107 -758q-3 -20 -3 -38q0 -39 13 -72q19 -49 58.5 -78t89.5 -44.5t106 -15.5q83 0 172.5 18.5t151.5 43.5l131 944h74l-140 -1004q-231 -77 -399 -77q-71 2 -133.5 23t-110.5 59q-49 40 -72 102q-16 42 -16 91q0 23 4 48z" />
<glyph unicode="v" horiz-adv-x="948" d="M102 1061h80l211 -1004l498 1004h78l-529 -1061h-108z" />
<glyph unicode="w" horiz-adv-x="1464" d="M111 1061h75l160 -1022l389 1022h113l106 -1018l445 1018h76l-467 -1061h-125l-97 1012l-387 -1012h-118z" />
<glyph unicode="x" horiz-adv-x="909" d="M-27 0l420 530l-272 531h92l236 -479l370 479h90l-417 -531l270 -530h-90l-238 479l-371 -479h-90z" />
<glyph unicode="y" d="M76 -319l53 45q47 -42 115.5 -65t144.5 -23q82 0 152 24t122.5 80t65.5 137l27 176q-166 -75 -316 -75h-7q-69 0 -131 20q-65 21 -113 60t-72 102q-16 43 -16 93q0 22 3 46l105 758h74l-105 -758q-3 -20 -3 -39q0 -92 65 -148q78 -67 204 -67q92 1 152 17.5t170 62.5 l129 932h72l-166 -1178q-11 -78 -51.5 -140t-99 -98.5t-126.5 -55.5t-141 -19q-94 0 -175.5 29.5t-131.5 83.5z" />
<glyph unicode="z" horiz-adv-x="915" d="M-18 57l809 934h-637l8 70h708l25 -49l-811 -940h668l-9 -72h-729z" />
<glyph unicode="{" horiz-adv-x="550" d="M82 608l8 62q41 6 75 36.5t56.5 78t37.5 101.5t24 118l43 296q7 58 19.5 98.5t35.5 75.5t62 52.5t94 17.5h61l-8 -69h-55q-72 0 -97 -39.5t-37 -137.5l-43 -299q-21 -157 -74 -246t-104 -108q12 -10 18 -16.5t22 -26.5t23.5 -45.5t15.5 -63t7 -91.5t-10 -119l-43 -301 q-12 -84 7 -122t91 -38h45l-10 -72h-49q-193 0 -160 227l41 299q44 309 -96 332z" />
<glyph unicode="|" horiz-adv-x="378" d="M16 -344l265 1888h73l-264 -1888h-74z" />
<glyph unicode="}" horiz-adv-x="550" d="M-43 -250l10 72h45q72 0 102.5 38.5t41.5 121.5l43 301q39 271 178 362q-46 19 -75 108t-5 246l43 299q7 58 7.5 97t-20.5 59.5t-71 20.5h-55l8 69h61q73 0 109.5 -32t40.5 -86t-4 -126l-43 -296q-19 -134 2.5 -227.5t95.5 -106.5l-8 -62q-54 -9 -94.5 -59.5t-62.5 -118 t-34 -154.5l-41 -299q-33 -227 -225 -227h-49z" />
<glyph unicode="~" horiz-adv-x="1087" d="M139 569q112 156 250 156q35 0 72 -14.5t56 -26.5t56 -39q87 -61 140 -61q57 0 104 34t98 97l33 -35q-45 -69 -109.5 -114.5t-136.5 -45.5q-87 0 -174 68q-4 3 -24 17t-26 17.5t-23 13.5t-26.5 13t-24.5 6.5t-29 3.5q-58 0 -105 -33t-98 -96q-9 8 -18.5 21t-14.5 18z" />
<glyph unicode="&#xa1;" horiz-adv-x="395" d="M6 -434l162 1153h82l-162 -1153h-82zM168 983q5 32 30.5 55t57.5 23t52 -23t16 -55q-5 -32 -30.5 -55t-57.5 -23t-52 23t-16 55z" />
<glyph unicode="&#xa2;" horiz-adv-x="950" d="M82 324l61 438q19 139 130 221.5t259 97.5l25 176h64l-25 -176q99 -6 173 -44.5t110 -106.5l-64 -39q-29 51 -89 82t-140 39l-131 -938q211 17 286 155l60 -32q-49 -87 -145 -137.5t-212 -59.5l-28 -195h-64l29 195q-144 16 -231 100t-68 224zM156 324q-14 -106 53 -169 t182 -79l131 934q-121 -16 -206 -78.5t-99 -165.5z" />
<glyph unicode="&#xa3;" horiz-adv-x="1032" d="M16 0l9 68h213l92 659h-213l10 70h213l39 276q8 56 27 109t54.5 106t84 92t121 63.5t159.5 24.5q72 0 127 -21.5t109 -70.5l-60 -51q-71 74 -192 74q-79 0 -144.5 -28.5t-107.5 -75.5t-67 -102t-33 -114l-41 -282h338l-11 -70h-337l-93 -659h502l-8 -68h-791z" />
<glyph unicode="&#xa4;" horiz-adv-x="1263" d="M109 289l122 110q-101 130 -75 326q24 180 172 322q-10 11 -44 52.5t-53 61.5l50 45l94 -112q163 116 340 116t309 -116q15 13 59.5 55t61.5 57l37 -45l-127 -114q105 -134 80 -322q-25 -184 -172 -322q18 -19 102 -114l-53 -45l-94 112q-160 -114 -340 -114 q-87 0 -170 28t-144 82q-18 -14 -63 -56t-56 -52zM225 723q-16 -114 27 -210.5t131 -152t199 -55.5q171 0 311.5 122t165.5 296q16 117 -25 214t-127 152.5t-198 55.5q-110 0 -215 -55t-179 -153t-90 -214z" />
<glyph unicode="&#xa5;" horiz-adv-x="1177" d="M160 344l18 70h332l18 127h-335l22 71h289l-338 840h92l322 -823l557 823h96l-580 -840h305l-24 -71h-332l-18 -127h346l-23 -70h-334l-47 -344h-73l47 344h-340z" />
<glyph unicode="&#xa6;" horiz-adv-x="403" d="M37 -274l100 716h78l-100 -716h-78zM180 750l94 675h78l-94 -675h-78z" />
<glyph unicode="&#xa7;" horiz-adv-x="962" d="M0 -59l80 34q11 -59 56 -100.5t105.5 -58.5t130 -12.5t130 29t104.5 75.5t53 119q5 33 -1 62.5t-25 54.5t-38.5 44t-55 40.5t-60 34.5t-67.5 34q-41 20 -64.5 32t-61 34.5t-59 40.5t-47 45t-37.5 54.5t-18.5 63t-1.5 74.5q13 90 85.5 158.5t182.5 113.5 q-82 55 -118.5 113t-26.5 139q14 94 77.5 164.5t148.5 103.5t177 33t172.5 -39.5t106.5 -121.5q-17 -7 -38 -20t-34 -19q-25 63 -84.5 95t-138.5 32q-68 0 -134 -26t-115.5 -79.5t-59.5 -122.5q-14 -101 92 -176q42 -29 153 -84q38 -19 62 -31.5t59 -34t56.5 -39.5t46 -45 t36.5 -53.5t18 -61t1 -71.5q-12 -82 -77.5 -159t-154.5 -123q70 -44 103 -111.5t24 -134.5q-10 -70 -44 -128t-82.5 -96t-109.5 -62t-124 -30t-125 4.5t-114 36t-90.5 71t-53.5 104.5zM207 645q-12 -82 21 -127t106 -84l215 -108q78 39 144.5 102t76.5 131q9 75 -35.5 135 t-107.5 97l-152 77q-250 -83 -268 -223z" />
<glyph unicode="&#xa8;" horiz-adv-x="614" d="M168 1681q3 26 24 44t46 18q26 0 41 -18t12 -44q-3 -25 -23.5 -43t-46.5 -18q-25 0 -40.5 18t-12.5 43zM526 1681q3 26 23.5 44t46.5 18q25 0 40.5 -18t12.5 -44q-3 -25 -23.5 -43t-45.5 -18q-26 0 -41.5 18t-12.5 43z" />
<glyph unicode="&#xa9;" horiz-adv-x="1699" d="M123 725q21 150 99.5 287.5t191.5 236.5t259 158t296 59t279 -59t214.5 -158t125 -236.5t18.5 -287.5t-99.5 -287.5t-191.5 -236.5t-259 -158t-296 -59t-279 59t-214.5 158t-125 236.5t-18.5 287.5zM193 725q-19 -138 16.5 -262t112.5 -214t194 -143t254 -53 q184 0 351 89.5t278.5 244.5t136.5 338q20 137 -15.5 261.5t-113 214.5t-195 143t-254.5 53q-183 0 -350 -89.5t-278 -244t-137 -338.5zM463 571l43 310q15 104 82.5 179t156.5 109.5t187 34.5q105 0 189.5 -39.5t121.5 -115.5l-63 -39q-33 59 -102 89.5t-156 30.5 q-80 0 -151.5 -25.5t-125 -82.5t-65.5 -137l-43 -314q-9 -62 10 -111t59 -78.5t92 -44.5t111 -15q95 0 181.5 40.5t129.5 114.5l64 -33q-57 -92 -163 -144t-222 -52q-72 0 -136.5 20.5t-113.5 59t-73 102t-13 141.5z" />
<glyph unicode="&#xaa;" horiz-adv-x="768" d="M162 997q18 109 101.5 162t195.5 53q91 0 170 -36l12 90q10 68 -38.5 102.5t-125.5 34.5q-46 0 -97 -17.5t-89 -50.5l-43 45q106 93 241 93q103 0 170.5 -55.5t53.5 -155.5l-66 -459q-132 -40 -282 -37q-101 2 -159.5 65t-43.5 166zM233 997q-10 -76 31 -122t113 -48 q93 0 207 21l37 264q-93 33 -177 33q-189 0 -211 -148z" />
<glyph unicode="&#xab;" horiz-adv-x="790" d="M86 604l317 389q13 -8 32.5 -22.5t25.5 -18.5l-285 -348q28 -54 184 -348q-16 -8 -35 -20t-32 -19zM340 604l317 389q13 -8 32.5 -22.5t25.5 -18.5l-289 -348q32 -63 99 -185t89 -163q-16 -8 -35 -20t-32 -19z" />
<glyph unicode="&#xac;" horiz-adv-x="1236" d="M156 725l10 72h936l-60 -428h-71l49 356h-864z" />
<glyph unicode="&#xad;" horiz-adv-x="688" d="M94 514l10 76h465l-10 -76h-465z" />
<glyph unicode="&#xae;" horiz-adv-x="1699" d="M123 725q21 150 99.5 287.5t191.5 236.5t259 158t296 59t279 -59t214.5 -158t125 -236.5t18.5 -287.5t-99.5 -287.5t-191.5 -236.5t-259 -158t-296 -59t-279 59t-214.5 158t-125 236.5t-18.5 287.5zM195 725q-25 -183 42.5 -337t209 -243.5t323.5 -89.5q137 0 268.5 53 t234 142.5t172.5 213.5t89 261q26 182 -42 336.5t-209.5 244t-324.5 89.5q-182 0 -348.5 -89.5t-277.5 -243.5t-137 -337zM547 309l117 842h292q133 0 198.5 -68t51.5 -172q-14 -106 -88 -170.5t-178 -83.5q85 -152 203 -348h-82l-207 348h-188l-50 -348h-69zM674 723h162 q44 0 79.5 3.5t75 15.5t67.5 32t49 55t28 82q12 88 -46 131t-147 43h-217z" />
<glyph unicode="&#xaf;" horiz-adv-x="647" d="M135 1614l10 67h461l-10 -67h-461z" />
<glyph unicode="&#xb0;" horiz-adv-x="724" d="M190 1206q15 104 100.5 178t190.5 74q104 0 168 -74t49 -178q-13 -105 -98 -180.5t-190 -75.5q-104 0 -168.5 75t-51.5 181zM256 1204q-11 -80 36.5 -136t125.5 -56t141.5 56.5t73.5 135.5q11 80 -36.5 136.5t-125.5 56.5t-141.5 -57t-73.5 -136z" />
<glyph unicode="&#xb1;" horiz-adv-x="1159" d="M104 215l11 70h839l-10 -70h-840zM178 801l10 71h385l54 367h71l-53 -367h399l-10 -71h-399l-51 -373h-72l51 373h-385z" />
<glyph unicode="&#xb2;" horiz-adv-x="835" d="M129 651l463 396q50 43 84 103.5t26 113.5q-19 59 -71.5 88t-115.5 28t-126 -24q-70 -28 -106 -76l-56 27q60 82 156 116h-2q58 19 119 22t116.5 -10t98 -51t57.5 -96q15 -74 -24 -153t-109 -134l-399 -335h456l-8 -64h-547z" />
<glyph unicode="&#xb3;" horiz-adv-x="800" d="M135 786l55 27q19 -52 76.5 -82t122.5 -33q46 -3 100 12t97 46q59 42 71 121q13 91 -38 135t-140 39h-41l6 51h41q32 0 72.5 14.5t67.5 36.5q45 38 51.5 97.5t-23.5 99.5q-48 63 -149 63q-64 0 -121 -24t-92 -72l-45 26q40 62 112.5 92.5t143.5 34.5q59 3 114 -17t86 -60 q51 -59 37 -149.5t-90 -143.5l-33 -17q72 -24 97.5 -97.5t-1.5 -154t-94 -126.5q-50 -37 -114.5 -55t-128.5 -15h2q-84 5 -152 43.5t-90 107.5z" />
<glyph unicode="&#xb4;" horiz-adv-x="450" d="M203 1567l159 227h99l-178 -227h-80z" />
<glyph unicode="&#xb5;" horiz-adv-x="1060" d="M-2 -446l211 1509h78l-94 -674q-5 -39 -5.5 -74.5t5 -73.5t20.5 -68.5t39 -55t63.5 -38t90.5 -13.5q100 0 183 43.5t143 137t79 226.5l82 590h78l-142 -1063h-73l24 211q-58 -100 -165.5 -157.5t-219.5 -57.5q-90 0 -148.5 31.5t-90.5 109.5l-82 -583h-76z" />
<glyph unicode="&#xb6;" horiz-adv-x="1136" d="M113 1012q12 84 53 161t107 139.5t165 100t215 37.5h445l-238 -1688h-67l229 1633h-307l-230 -1633h-69l116 824q-112 0 -199.5 36.5t-138 97t-72 136t-9.5 156.5z" />
<glyph unicode="&#xb7;" horiz-adv-x="430" d="M147 651q5 29 28 49.5t52 20.5t46.5 -20.5t13.5 -49.5q-3 -29 -26.5 -49t-53.5 -20q-29 0 -46 20t-14 49z" />
<glyph unicode="&#xb8;" horiz-adv-x="499" d="M10 -375l21 58q81 -50 145 -50q105 0 135 80q12 35 1.5 58.5t-34.5 31t-53 9.5t-53 -7l-10 17l114 198h62l-86 -153q78 0 117 -43.5t18 -114.5q-17 -50 -51 -81.5t-73 -43.5t-85 -12q-98 0 -168 53z" />
<glyph unicode="&#xb9;" horiz-adv-x="489" d="M156 1237l221 215h74l-117 -827h-70l105 735l-164 -164z" />
<glyph unicode="&#xba;" horiz-adv-x="837" d="M176 997l35 238q7 57 39 103t78.5 74t100 43t108.5 15q74 0 135.5 -25t98 -80t26.5 -130l-35 -238q-16 -111 -112.5 -173t-213.5 -62q-118 0 -197 62t-63 173zM248 1004q-12 -89 47.5 -132t150.5 -43q57 0 107.5 16t91.5 57t49 102l31 225q12 89 -48 131.5t-151 42.5 q-57 0 -107.5 -15.5t-91 -56.5t-48.5 -102z" />
<glyph unicode="&#xbb;" horiz-adv-x="784" d="M68 256l288 348q-32 63 -99 185t-89 163q16 8 35.5 20t32.5 19l206 -387l-317 -389q-13 8 -31.5 22.5t-25.5 18.5zM317 256l289 348q-32 63 -99 185t-89 163q16 8 35 20t32 19l207 -387l-317 -389q-13 8 -32.5 22.5t-25.5 18.5z" />
<glyph unicode="&#xbc;" horiz-adv-x="1370" d="M78 -6l1124 1497q13 -8 28.5 -20t22.5 -17l-1124 -1495zM147 1237l222 215h69l-116 -827h-66l104 735l-165 -162zM631 270l524 566h94l-80 -572h68l-8 -57h-68l-28 -207h-66l29 207h-432zM702 264h402l78 514z" />
<glyph unicode="&#xbd;" horiz-adv-x="1509" d="M82 -6l1124 1497q13 -8 28.5 -20t22.5 -17l-1124 -1495zM145 1237l222 215h69l-117 -827h-65l104 735l-165 -162zM772 49q80 66 236 207.5t229 202.5q70 59 92 108.5t12 110.5q-22 76 -95.5 102t-155.5 -0.5t-134 -89.5l-61 29q26 38 69 70t87 47h-2q55 20 112.5 23 t109 -11t91 -52t55.5 -96q14 -74 -24.5 -152.5t-108.5 -133.5l-393 -346h448l-8 -68h-547z" />
<glyph unicode="&#xbe;" horiz-adv-x="1488" d="M100 786l56 27q19 -52 76 -82t122 -33q46 -3 100 12t97 46q60 43 72 121q13 91 -38.5 135t-140.5 39h-41l7 51h41q32 0 72 14t67 37q45 38 51.5 97.5t-23.5 99.5q-48 63 -149 63q-64 0 -121 -24t-92 -72l-45 26q40 62 112.5 92.5t143.5 34.5q59 3 114.5 -17t86.5 -60 q51 -59 36.5 -149.5t-90.5 -143.5l-32 -17q72 -24 97.5 -97.5t-1.5 -154t-94 -126.5q-49 -37 -114.5 -55t-129.5 -15h2q-84 5 -152 43.5t-90 107.5zM248 -6l1124 1497q13 -8 27.5 -20t21.5 -17l-1124 -1495zM743 270l525 566h94l-80 -572h68l-9 -57h-67l-29 -207h-65l28 207 h-432zM815 264h402l77 514z" />
<glyph unicode="&#xbf;" horiz-adv-x="919" d="M-16 4q11 75 43 139.5t78 111.5t105 84t122 60t131 35q7 42 34.5 188.5t37.5 204.5h59l-51 -458q-116 -4 -220 -47.5t-177.5 -127.5t-86.5 -192q-19 -152 78 -236.5t246 -84.5q78 0 170 37t156 92l39 -50q-155 -155 -381 -155q-85 0 -159.5 26t-130 74t-81.5 125.5 t-12 173.5zM512 993q4 32 28.5 54t55.5 22q33 0 52.5 -22t15.5 -54t-31.5 -55t-59.5 -23q-31 0 -48.5 22.5t-12.5 55.5z" />
<glyph unicode="&#xc0;" horiz-adv-x="1226" d="M-66 0l738 1450h116l326 -1450h-86l-113 504h-649l-246 -504h-86zM307 584h594l-180 807zM573 1794h99l125 -227h-76z" />
<glyph unicode="&#xc1;" horiz-adv-x="1226" d="M-66 0l738 1450h116l326 -1450h-86l-113 504h-649l-246 -504h-86zM307 584h594l-180 807zM639 1567l160 227h98l-178 -227h-80z" />
<glyph unicode="&#xc2;" horiz-adv-x="1226" d="M-66 0l738 1450h116l326 -1450h-86l-113 504h-649l-246 -504h-86zM307 584h594l-180 807zM465 1567l278 227h76l197 -227h-103l-137 162l-196 -162h-115z" />
<glyph unicode="&#xc3;" horiz-adv-x="1226" d="M-66 0l738 1450h116l326 -1450h-86l-113 504h-649l-246 -504h-86zM307 584h594l-180 807zM485 1616q13 74 60 118t108 44q41 0 77 -20.5t57.5 -45t49.5 -45t54 -20.5q78 0 110 108l56 -14q-12 -70 -58.5 -117t-109.5 -47q-38 0 -71.5 21.5t-54.5 46.5t-52 45.5t-64 19.5 q-36 -2 -64.5 -30t-43.5 -81z" />
<glyph unicode="&#xc4;" horiz-adv-x="1226" d="M-66 0l738 1450h116l326 -1450h-86l-113 504h-649l-246 -504h-86zM307 584h594l-180 807zM518 1681q3 26 24 44t46 18q26 0 41 -18t12 -44q-3 -25 -23.5 -43t-46.5 -18q-25 0 -40.5 18t-12.5 43zM877 1681q3 26 23 44t46 18q25 0 40.5 -18t12.5 -44q-3 -25 -23.5 -43 t-45.5 -18q-26 0 -41 18t-12 43z" />
<glyph unicode="&#xc5;" horiz-adv-x="1226" d="M-66 0l723 1423q-40 17 -59 57t-12 95q9 74 61.5 120t126.5 46q73 0 110.5 -45.5t28.5 -120.5q-7 -56 -38.5 -96t-79.5 -58l319 -1421h-86l-113 504h-649l-246 -504h-86zM307 584h594l-180 807zM645 1575q-8 -50 15.5 -80.5t70.5 -30.5t81.5 31t41.5 80q6 50 -17.5 80.5 t-70.5 30.5t-81 -31t-40 -80z" />
<glyph unicode="&#xc6;" horiz-adv-x="1599" d="M-82 -2l934 1452h764l-10 -76h-623l-88 -631h559l-12 -77h-559l-82 -592h622l-10 -74h-698l69 504h-450l-328 -506h-88zM381 580h414l112 802l-16 2z" />
<glyph unicode="&#xc7;" horiz-adv-x="1202" d="M111 399l90 648q14 100 71 181.5t139.5 132t179.5 78t197 27.5q154 0 273.5 -58t163.5 -171l-76 -37q-41 89 -145 137.5t-232 48.5q-84 0 -165 -21.5t-150.5 -62.5t-117 -107t-58.5 -148l-91 -648q-11 -82 18 -148.5t86.5 -107.5t132.5 -62.5t159 -21.5q127 0 245.5 49 t186.5 138l63 -35q-66 -99 -184.5 -157.5t-253.5 -69.5l-65 -117q78 0 117 -43.5t18 -114.5q-17 -50 -51 -81.5t-73 -43.5t-85 -12q-98 0 -168 53l20 58q81 -50 146 -50q105 0 135 80q12 35 1.5 58.5t-34.5 31t-53 9.5t-53 -7l-11 17l91 158h-5q-78 0 -150.5 16.5t-134.5 51 t-105.5 83t-63 118t-8.5 150.5z" />
<glyph unicode="&#xc8;" horiz-adv-x="1153" d="M90 0l203 1450h876l-10 -80h-797l-86 -604h736l-13 -82h-735l-84 -604h797l-10 -80h-877zM586 1794h98l125 -227h-76z" />
<glyph unicode="&#xc9;" horiz-adv-x="1153" d="M90 0l203 1450h876l-10 -80h-797l-86 -604h736l-13 -82h-735l-84 -604h797l-10 -80h-877zM651 1567l160 227h98l-178 -227h-80z" />
<glyph unicode="&#xca;" horiz-adv-x="1153" d="M90 0l203 1450h876l-10 -80h-797l-86 -604h736l-13 -82h-735l-84 -604h797l-10 -80h-877zM477 1567l279 227h75l197 -227h-102l-138 162l-196 -162h-115z" />
<glyph unicode="&#xcb;" horiz-adv-x="1153" d="M90 0l203 1450h876l-10 -80h-797l-86 -604h736l-13 -82h-735l-84 -604h797l-10 -80h-877zM530 1681q3 26 24 44t46 18q26 0 41 -18t12 -44q-3 -25 -23 -43t-46 -18q-25 0 -41 18t-13 43zM889 1681q3 26 23 44t46 18q25 0 41 -18t13 -44q-3 -25 -24 -43t-46 -18 q-26 0 -41 18t-12 43z" />
<glyph unicode="&#xcc;" horiz-adv-x="436" d="M90 0l203 1448h80l-203 -1448h-80zM201 1794h98l125 -227h-76z" />
<glyph unicode="&#xcd;" horiz-adv-x="436" d="M90 0l203 1448h80l-203 -1448h-80zM266 1567l160 227h98l-178 -227h-80z" />
<glyph unicode="&#xce;" horiz-adv-x="436" d="M90 0l203 1448h80l-203 -1448h-80zM92 1567l279 227h75l197 -227h-102l-138 162l-196 -162h-115z" />
<glyph unicode="&#xcf;" horiz-adv-x="436" d="M90 0l203 1448h80l-203 -1448h-80zM162 1681q3 26 23.5 44t45.5 18q26 0 41.5 -18t12.5 -44q-3 -25 -23.5 -43t-46.5 -18q-25 0 -40.5 18t-12.5 43zM463 1681q3 26 23 44t46 18q25 0 41 -18t13 -44q-3 -25 -24 -43t-46 -18q-26 0 -41 18t-12 43z" />
<glyph unicode="&#xd0;" horiz-adv-x="1306" d="M63 686l9 66h129l98 698h463q100 0 188.5 -27t155.5 -77.5t100 -133.5t19 -186l-86 -604q-14 -102 -70 -184.5t-138 -133t-178 -77.5t-196 -27h-463l99 686h-130zM186 80h383q85 0 166 22t150 63t116 107.5t58 149.5l86 604q12 84 -16 151t-85.5 108t-132 63t-159.5 22 h-383l-88 -618h256l-9 -66h-256z" />
<glyph unicode="&#xd1;" horiz-adv-x="1376" d="M90 0l203 1450h100l649 -1350l191 1350h80l-203 -1450h-117l-637 1327l-186 -1327h-80zM578 1616q13 74 59.5 118t107.5 44q41 0 77 -20.5t57.5 -45t49.5 -45t54 -20.5q79 0 111 108l55 -14q-12 -70 -58.5 -117t-109.5 -47q-38 0 -71.5 21.5t-54.5 46.5t-52 45.5 t-64 19.5q-36 -2 -64.5 -30t-43.5 -81z" />
<glyph unicode="&#xd2;" horiz-adv-x="1390" d="M109 406l90 641q14 102 73 184.5t145 133.5t187 78t207 27t200 -27t166 -78t108 -133.5t22 -184.5l-90 -641q-14 -102 -73 -185t-146 -134.5t-188.5 -79t-207.5 -27.5t-199.5 27.5t-165 79t-107 134.5t-21.5 185zM188 406q-10 -67 8.5 -124.5t58 -98t96 -69t123 -42 t138.5 -13.5q91 0 178 22t161 64t124 109.5t62 151.5l90 641q10 71 -8.5 129.5t-58.5 98t-97.5 66.5t-124 39.5t-139.5 12.5q-92 -1 -177 -22t-158.5 -61.5t-123 -108t-61.5 -154.5zM678 1794h98l125 -227h-76z" />
<glyph unicode="&#xd3;" horiz-adv-x="1390" d="M109 406l90 641q14 102 73 184.5t145 133.5t187 78t207 27t200 -27t166 -78t108 -133.5t22 -184.5l-90 -641q-14 -102 -73 -185t-146 -134.5t-188.5 -79t-207.5 -27.5t-199.5 27.5t-165 79t-107 134.5t-21.5 185zM188 406q-10 -67 8.5 -124.5t58 -98t96 -69t123 -42 t138.5 -13.5q91 0 178 22t161 64t124 109.5t62 151.5l90 641q10 71 -8.5 129.5t-58.5 98t-97.5 66.5t-124 39.5t-139.5 12.5q-92 -1 -177 -22t-158.5 -61.5t-123 -108t-61.5 -154.5zM743 1567l160 227h98l-178 -227h-80z" />
<glyph unicode="&#xd4;" horiz-adv-x="1390" d="M109 406l90 641q14 102 73 184.5t145 133.5t187 78t207 27t200 -27t166 -78t108 -133.5t22 -184.5l-90 -641q-14 -102 -73 -185t-146 -134.5t-188.5 -79t-207.5 -27.5t-199.5 27.5t-165 79t-107 134.5t-21.5 185zM188 406q-10 -67 8.5 -124.5t58 -98t96 -69t123 -42 t138.5 -13.5q91 0 178 22t161 64t124 109.5t62 151.5l90 641q10 71 -8.5 129.5t-58.5 98t-97.5 66.5t-124 39.5t-139.5 12.5q-92 -1 -177 -22t-158.5 -61.5t-123 -108t-61.5 -154.5zM569 1567l279 227h76l196 -227h-102l-137 162l-197 -162h-115z" />
<glyph unicode="&#xd5;" horiz-adv-x="1390" d="M109 406l90 641q14 102 73 184.5t145 133.5t187 78t207 27t200 -27t166 -78t108 -133.5t22 -184.5l-90 -641q-14 -102 -73 -185t-146 -134.5t-188.5 -79t-207.5 -27.5t-199.5 27.5t-165 79t-107 134.5t-21.5 185zM188 406q-10 -67 8.5 -124.5t58 -98t96 -69t123 -42 t138.5 -13.5q91 0 178 22t161 64t124 109.5t62 151.5l90 641q10 71 -8.5 129.5t-58.5 98t-97.5 66.5t-124 39.5t-139.5 12.5q-92 -1 -177 -22t-158.5 -61.5t-123 -108t-61.5 -154.5zM590 1616q13 74 60 118t108 44q41 0 77 -20.5t57 -45t49 -45t54 -20.5q79 0 111 108 l55 -14q-12 -70 -58.5 -117t-109.5 -47q-38 0 -71.5 21.5t-54 46.5t-51.5 45.5t-64 19.5q-36 -2 -65 -30t-44 -81z" />
<glyph unicode="&#xd6;" horiz-adv-x="1390" d="M109 406l90 641q14 102 73 184.5t145 133.5t187 78t207 27t200 -27t166 -78t108 -133.5t22 -184.5l-90 -641q-14 -102 -73 -185t-146 -134.5t-188.5 -79t-207.5 -27.5t-199.5 27.5t-165 79t-107 134.5t-21.5 185zM188 406q-10 -67 8.5 -124.5t58 -98t96 -69t123 -42 t138.5 -13.5q91 0 178 22t161 64t124 109.5t62 151.5l90 641q10 71 -8.5 129.5t-58.5 98t-97.5 66.5t-124 39.5t-139.5 12.5q-92 -1 -177 -22t-158.5 -61.5t-123 -108t-61.5 -154.5zM623 1681q3 26 23.5 44t45.5 18q26 0 41 -18t12 -44q-3 -25 -23 -43t-46 -18 q-25 0 -40.5 18t-12.5 43zM981 1681q3 26 23.5 44t46.5 18q25 0 40.5 -18t12.5 -44q-3 -25 -24 -43t-46 -18q-26 0 -41 18t-12 43z" />
<glyph unicode="&#xd7;" horiz-adv-x="1011" d="M86 362l375 328l-287 336l64 53l286 -334l371 326l47 -53l-373 -326l277 -321l-62 -56l-276 322l-375 -330z" />
<glyph unicode="&#xd8;" horiz-adv-x="1388" d="M109 408l90 636q12 82 53 152.5t101 119.5t135.5 84t157 51.5t165.5 16.5q119 0 240 -38l82 145l61 -23l-82 -149q105 -58 159 -149t36 -210l-90 -636q-14 -102 -73 -185t-146 -134.5t-188.5 -79t-207.5 -27.5q-109 0 -231 38l-80 -151l-66 20l84 158q-107 59 -161.5 150 t-38.5 211zM188 408q-22 -181 160 -291l662 1243q-112 31 -211 31q-91 -1 -176.5 -22t-158.5 -61.5t-122.5 -108.5t-62.5 -155zM412 92q105 -31 202 -31q122 0 233 37.5t192.5 118.5t97.5 191l90 636q25 183 -154 289z" />
<glyph unicode="&#xd9;" horiz-adv-x="1384" d="M139 412l146 1038h80l-146 -1038q-12 -85 16 -153.5t85.5 -111t132 -64.5t159.5 -22t166.5 22t151 64.5t117 111t59.5 153.5l145 1038h80l-145 -1038q-15 -104 -71.5 -188t-138 -136t-178 -80t-196.5 -28t-189 28t-156 80t-100 136t-18 188zM664 1794h98l125 -227h-76z " />
<glyph unicode="&#xda;" horiz-adv-x="1384" d="M139 412l146 1038h80l-146 -1038q-12 -85 16 -153.5t85.5 -111t132 -64.5t159.5 -22t166.5 22t151 64.5t117 111t59.5 153.5l145 1038h80l-145 -1038q-15 -104 -71.5 -188t-138 -136t-178 -80t-196.5 -28t-189 28t-156 80t-100 136t-18 188zM729 1567l160 227h98 l-178 -227h-80z" />
<glyph unicode="&#xdb;" horiz-adv-x="1384" d="M139 412l146 1038h80l-146 -1038q-12 -85 16 -153.5t85.5 -111t132 -64.5t159.5 -22t166.5 22t151 64.5t117 111t59.5 153.5l145 1038h80l-145 -1038q-15 -104 -71.5 -188t-138 -136t-178 -80t-196.5 -28t-189 28t-156 80t-100 136t-18 188zM555 1567l279 227h75 l197 -227h-102l-138 162l-196 -162h-115z" />
<glyph unicode="&#xdc;" horiz-adv-x="1384" d="M139 412l146 1038h80l-146 -1038q-12 -85 16 -153.5t85.5 -111t132 -64.5t159.5 -22t166.5 22t151 64.5t117 111t59.5 153.5l145 1038h80l-145 -1038q-15 -104 -71.5 -188t-138 -136t-178 -80t-196.5 -28t-189 28t-156 80t-100 136t-18 188zM608 1681q3 26 24 44t46 18 q26 0 41 -18t12 -44q-3 -25 -23 -43t-46 -18q-25 0 -41 18t-13 43zM967 1681q3 26 23 44t46 18q25 0 41 -18t13 -44q-3 -25 -24 -43t-46 -18q-26 0 -41 18t-12 43z" />
<glyph unicode="&#xdd;" horiz-adv-x="1097" d="M137 1448h92l324 -803l547 803h94l-612 -875l-80 -573h-80l80 573zM573 1567l160 227h98l-178 -227h-80z" />
<glyph unicode="&#xde;" horiz-adv-x="1239" d="M90 2l203 1448h80l-33 -229h446q220 0 328 -143q89 -118 72 -285q-18 -167 -132 -293q-141 -154 -363 -165q-13 -1 -27 -1h-449l-45 -332h-80zM227 414h447q201 1 323 137q98 108 106.5 252.5t-77.5 238.5q-89 99 -250 99h-446z" />
<glyph unicode="&#xdf;" horiz-adv-x="1193" d="M68 0l155 1100q17 116 89.5 201.5t176 127t224.5 41.5q83 0 157 -22.5t130.5 -65.5t84.5 -113t15 -157q-13 -99 -74 -187t-170 -145q130 -48 181 -145.5t32 -216.5q-16 -102 -73 -187.5t-138 -139.5t-177 -83.5t-192 -27.5q-49 1 -110.5 17.5t-108.5 37.5l15 84 q132 -55 213 -58q111 -2 215.5 39t180.5 125.5t93 194.5q24 155 -72 239t-266 82h-213l10 74h213q137 0 239.5 78t121.5 219q10 74 -13 131t-70.5 89.5t-107 48.5t-127.5 16t-132.5 -18t-122 -52.5t-97 -93t-49.5 -133.5l-156 -1100h-77z" />
<glyph unicode="&#xe0;" horiz-adv-x="1050" d="M86 297l64 455q13 89 56 155t107.5 102t137 53t155.5 17q204 0 344 -67l-141 -1012h-70l15 113q-139 -133 -340 -133q-70 0 -131.5 18.5t-110.5 55t-73 99.5t-13 144zM158 297q-17 -126 62 -188t206 -62q92 0 182.5 38.5t155.5 104.5l106 768q-105 54 -264 54 q-70 0 -131.5 -13.5t-116 -42.5t-91 -80.5t-46.5 -121.5zM494 1425h98l125 -227h-76z" />
<glyph unicode="&#xe1;" horiz-adv-x="1050" d="M86 297l64 455q13 89 56 155t107.5 102t137 53t155.5 17q204 0 344 -67l-141 -1012h-70l15 113q-139 -133 -340 -133q-70 0 -131.5 18.5t-110.5 55t-73 99.5t-13 144zM158 297q-17 -126 62 -188t206 -62q92 0 182.5 38.5t155.5 104.5l106 768q-105 54 -264 54 q-70 0 -131.5 -13.5t-116 -42.5t-91 -80.5t-46.5 -121.5zM559 1198l160 227h98l-178 -227h-80z" />
<glyph unicode="&#xe2;" horiz-adv-x="1050" d="M86 297l64 455q13 89 56 155t107.5 102t137 53t155.5 17q204 0 344 -67l-141 -1012h-70l15 113q-139 -133 -340 -133q-70 0 -131.5 18.5t-110.5 55t-73 99.5t-13 144zM158 297q-17 -126 62 -188t206 -62q92 0 182.5 38.5t155.5 104.5l106 768q-105 54 -264 54 q-70 0 -131.5 -13.5t-116 -42.5t-91 -80.5t-46.5 -121.5zM385 1198l279 227h75l197 -227h-102l-138 162l-196 -162h-115z" />
<glyph unicode="&#xe3;" horiz-adv-x="1050" d="M86 297l64 455q13 89 56 155t107.5 102t137 53t155.5 17q204 0 344 -67l-141 -1012h-70l15 113q-139 -133 -340 -133q-70 0 -131.5 18.5t-110.5 55t-73 99.5t-13 144zM158 297q-17 -126 62 -188t206 -62q92 0 182.5 38.5t155.5 104.5l106 768q-105 54 -264 54 q-70 0 -131.5 -13.5t-116 -42.5t-91 -80.5t-46.5 -121.5zM406 1247q13 74 59.5 118t107.5 44q41 0 77 -20.5t57.5 -45t49.5 -45t54 -20.5q79 0 111 108l55 -14q-12 -70 -58.5 -117t-109.5 -47q-38 0 -71.5 21.5t-54.5 46.5t-52 45.5t-64 19.5q-36 -2 -64.5 -29.5 t-43.5 -80.5z" />
<glyph unicode="&#xe4;" horiz-adv-x="1050" d="M86 297l64 455q13 89 56 155t107.5 102t137 53t155.5 17q204 0 344 -67l-141 -1012h-70l15 113q-139 -133 -340 -133q-70 0 -131.5 18.5t-110.5 55t-73 99.5t-13 144zM158 297q-17 -126 62 -188t206 -62q92 0 182.5 38.5t155.5 104.5l106 768q-105 54 -264 54 q-70 0 -131.5 -13.5t-116 -42.5t-91 -80.5t-46.5 -121.5zM438 1313q3 26 24 43.5t46 17.5q26 0 41 -17.5t12 -43.5q-3 -25 -23 -43.5t-46 -18.5q-25 0 -41 18.5t-13 43.5zM797 1313q3 26 23 43.5t46 17.5q25 0 41 -17.5t13 -43.5q-3 -25 -24 -43.5t-46 -18.5q-26 0 -41 18.5 t-12 43.5z" />
<glyph unicode="&#xe5;" horiz-adv-x="1050" d="M86 297l64 455q13 89 56 155t107.5 102t137 53t155.5 17q204 0 344 -67l-141 -1012h-70l15 113q-139 -133 -340 -133q-70 0 -131.5 18.5t-110.5 55t-73 99.5t-13 144zM158 297q-17 -126 62 -188t206 -62q92 0 182.5 38.5t155.5 104.5l106 768q-105 54 -264 54 q-70 0 -131.5 -13.5t-116 -42.5t-91 -80.5t-46.5 -121.5zM522 1337q9 74 62 120t127 46q73 0 110.5 -45.5t28.5 -120.5q-10 -75 -61 -120.5t-125 -45.5t-113 45.5t-29 120.5zM582 1337q-8 -50 15.5 -80t70.5 -30t81.5 30.5t41.5 79.5q6 50 -18 80.5t-71 30.5t-80.5 -31 t-39.5 -80z" />
<glyph unicode="&#xe6;" horiz-adv-x="1673" d="M82 295l63 457q13 89 58.5 155.5t113 103t142 53.5t157.5 17q204 0 351 -104q60 51 140 77.5t161 26.5q72 0 135.5 -20t112 -58.5t71.5 -102t12 -142.5q-16 -110 -83 -189.5t-157.5 -116t-193.5 -36.5q-161 0 -295 67l-26 -186q-12 -79 27.5 -137.5t106 -85.5t144.5 -27 q91 0 171 34.5t128 100.5l58 -30q-58 -82 -158 -127t-207 -45q-92 0 -171.5 34.5t-123.5 96.5l-12 -111h-72l19 121q-72 -69 -162.5 -106.5t-181.5 -37.5q-69 0 -131 18.5t-111 55.5t-73 100t-13 144zM154 295q-17 -126 62 -188t206 -62q90 0 181.5 43t158.5 111l78 544 q16 114 75 185q-49 44 -134 66t-171 22q-69 0 -132.5 -14.5t-119.5 -44t-93.5 -82t-47.5 -121.5zM879 547q155 -66 305 -66q85 0 155.5 27t123.5 91.5t67 158.5q9 64 -9.5 115.5t-58 82.5t-91 47.5t-111.5 16.5q-82 0 -155.5 -30t-129 -94t-68.5 -151z" />
<glyph unicode="&#xe7;" horiz-adv-x="929" d="M82 303l61 455q10 78 52 141.5t102 102t130 59t142 20.5q105 0 190 -39.5t122 -115.5l-64 -39q-33 59 -102 90t-156 31q-126 0 -226 -64t-116 -182l-61 -459q-16 -121 65 -185.5t207 -64.5q95 0 181.5 41t129.5 115l64 -33q-49 -77 -131 -126.5t-178 -63.5l-64 -115 q78 0 117 -43.5t18 -114.5q-17 -50 -51 -81.5t-73 -43.5t-85 -12q-98 0 -168 53l21 58q79 -49 145 -49q105 0 135 79q12 35 1.5 58.5t-34.5 31.5t-53 10t-53 -7l-10 16l88 154h-10q-98 0 -177.5 34.5t-126 109.5t-32.5 179z" />
<glyph unicode="&#xe8;" horiz-adv-x="978" d="M84 301l61 449q11 81 52.5 146t101.5 104.5t130 60t144 20.5q57 0 109.5 -12.5t97.5 -38.5t76 -63.5t44.5 -91t4.5 -117.5q-16 -110 -83 -189.5t-157.5 -116t-193.5 -36.5q-159 0 -293 67l-26 -184q-10 -64 10 -114t61.5 -79t93.5 -44t111 -15q91 0 172 34.5t129 100.5 l55 -30q-58 -82 -157.5 -127t-206.5 -45q-73 0 -137 20t-113.5 58.5t-73 101.5t-12.5 141zM186 547q155 -66 303 -66q85 0 156 27t124 91.5t67 158.5q12 85 -24.5 145.5t-101 87.5t-145.5 27q-129 0 -230.5 -69t-119.5 -197zM422 1425h98l125 -227h-76z" />
<glyph unicode="&#xe9;" horiz-adv-x="978" d="M84 301l61 449q11 81 52.5 146t101.5 104.5t130 60t144 20.5q57 0 109.5 -12.5t97.5 -38.5t76 -63.5t44.5 -91t4.5 -117.5q-16 -110 -83 -189.5t-157.5 -116t-193.5 -36.5q-159 0 -293 67l-26 -184q-10 -64 10 -114t61.5 -79t93.5 -44t111 -15q91 0 172 34.5t129 100.5 l55 -30q-58 -82 -157.5 -127t-206.5 -45q-73 0 -137 20t-113.5 58.5t-73 101.5t-12.5 141zM186 547q155 -66 303 -66q85 0 156 27t124 91.5t67 158.5q12 85 -24.5 145.5t-101 87.5t-145.5 27q-129 0 -230.5 -69t-119.5 -197zM487 1198l160 227h98l-178 -227h-80z" />
<glyph unicode="&#xea;" horiz-adv-x="978" d="M84 301l61 449q11 81 52.5 146t101.5 104.5t130 60t144 20.5q57 0 109.5 -12.5t97.5 -38.5t76 -63.5t44.5 -91t4.5 -117.5q-16 -110 -83 -189.5t-157.5 -116t-193.5 -36.5q-159 0 -293 67l-26 -184q-10 -64 10 -114t61.5 -79t93.5 -44t111 -15q91 0 172 34.5t129 100.5 l55 -30q-58 -82 -157.5 -127t-206.5 -45q-73 0 -137 20t-113.5 58.5t-73 101.5t-12.5 141zM186 547q155 -66 303 -66q85 0 156 27t124 91.5t67 158.5q12 85 -24.5 145.5t-101 87.5t-145.5 27q-129 0 -230.5 -69t-119.5 -197zM313 1198l279 227h76l196 -227h-102l-137 162 l-197 -162h-115z" />
<glyph unicode="&#xeb;" horiz-adv-x="978" d="M84 301l61 449q11 81 52.5 146t101.5 104.5t130 60t144 20.5q57 0 109.5 -12.5t97.5 -38.5t76 -63.5t44.5 -91t4.5 -117.5q-16 -110 -83 -189.5t-157.5 -116t-193.5 -36.5q-159 0 -293 67l-26 -184q-10 -64 10 -114t61.5 -79t93.5 -44t111 -15q91 0 172 34.5t129 100.5 l55 -30q-58 -82 -157.5 -127t-206.5 -45q-73 0 -137 20t-113.5 58.5t-73 101.5t-12.5 141zM186 547q155 -66 303 -66q85 0 156 27t124 91.5t67 158.5q12 85 -24.5 145.5t-101 87.5t-145.5 27q-129 0 -230.5 -69t-119.5 -197zM367 1313q3 26 23.5 43.5t45.5 17.5 q26 0 41 -17.5t12 -43.5q-3 -25 -23 -43.5t-46 -18.5q-25 0 -40.5 18.5t-12.5 43.5zM725 1313q3 26 23.5 43.5t46.5 17.5q25 0 40.5 -17.5t12.5 -43.5q-3 -25 -24 -43.5t-46 -18.5q-26 0 -41 18.5t-12 43.5z" />
<glyph unicode="&#xec;" horiz-adv-x="389" d="M70 0l147 1061h76l-148 -1061h-75zM123 1405h98l125 -227h-76z" />
<glyph unicode="&#xed;" horiz-adv-x="389" d="M70 0l147 1061h76l-148 -1061h-75zM188 1178l160 227h98l-178 -227h-80z" />
<glyph unicode="&#xee;" horiz-adv-x="389" d="M39 1178l256 227h78l170 -227h-99l-114 161l-180 -161h-111zM70 0l147 1061h76l-148 -1061h-75z" />
<glyph unicode="&#xef;" horiz-adv-x="389" d="M70 0l147 1061h76l-148 -1061h-75zM90 1292q3 26 24 44t46 18q26 0 41 -18t12 -44q-3 -25 -23.5 -43t-46.5 -18q-25 0 -40.5 18t-12.5 43zM387 1292q3 26 23.5 44t46.5 18q25 0 40.5 -18t12.5 -44q-3 -25 -24 -43t-46 -18q-26 0 -41 18t-12 43z" />
<glyph unicode="&#xf0;" horiz-adv-x="1034" d="M80 303l47 336q15 100 81 176t156 112.5t187 35.5q156 0 295 -72l35 248q11 87 -36.5 146t-133.5 89l-76 -166l-53 21l71 157q-107 12 -184 -10t-145 -84l-41 45q76 72 182.5 101t216.5 14l63 133q11 -4 30 -9.5t26 -8.5l-60 -127q109 -35 168 -111t43 -190l-155 -1098 l-103 -31q-102 -28 -291 -28q-95 1 -172 36t-121 109.5t-30 175.5zM152 303q-16 -119 62.5 -184.5t201.5 -65.5q87 0 174.5 14t144.5 37l101 713q-149 70 -301 70q-123 -2 -220.5 -65.5t-115.5 -180.5z" />
<glyph unicode="&#xf1;" d="M66 0l141 1004q227 77 397 77q71 -2 134 -23t111 -59.5t71 -101t12 -139.5l-107 -758h-73l106 758q9 61 -10 110t-58.5 78t-89.5 44.5t-106 15.5q-82 0 -171 -18t-153 -44l-131 -944h-73zM360 1247q13 74 60 118t108 44q41 0 77 -20.5t57.5 -45t49.5 -45t54 -20.5 q79 0 111 108l55 -14q-12 -70 -58.5 -117t-109.5 -47q-38 0 -71.5 21.5t-54.5 46.5t-52 45.5t-64 19.5q-36 -2 -64.5 -29.5t-43.5 -80.5z" />
<glyph unicode="&#xf2;" horiz-adv-x="1015" d="M82 305l61 451q10 78 52 141.5t102 102.5t130.5 59.5t143.5 21.5q73 -1 137 -21.5t113 -59.5t72.5 -102.5t13.5 -141.5l-61 -451q-10 -78 -51.5 -141.5t-101.5 -102.5t-130.5 -59.5t-144.5 -21.5q-72 1 -136 21.5t-113 59.5t-73 102.5t-14 141.5zM156 305 q-9 -63 10.5 -113t60 -79.5t92 -44.5t109.5 -15q78 0 149 25t127 84.5t68 142.5l62 451q9 63 -11 112.5t-61 78.5t-92.5 44t-108.5 15q-58 0 -113.5 -14.5t-104.5 -44t-83 -79t-43 -112.5zM418 1425h98l125 -227h-76z" />
<glyph unicode="&#xf3;" horiz-adv-x="1015" d="M82 305l61 451q10 78 52 141.5t102 102.5t130.5 59.5t143.5 21.5q73 -1 137 -21.5t113 -59.5t72.5 -102.5t13.5 -141.5l-61 -451q-10 -78 -51.5 -141.5t-101.5 -102.5t-130.5 -59.5t-144.5 -21.5q-72 1 -136 21.5t-113 59.5t-73 102.5t-14 141.5zM156 305 q-9 -63 10.5 -113t60 -79.5t92 -44.5t109.5 -15q78 0 149 25t127 84.5t68 142.5l62 451q9 63 -11 112.5t-61 78.5t-92.5 44t-108.5 15q-58 0 -113.5 -14.5t-104.5 -44t-83 -79t-43 -112.5zM483 1198l160 227h98l-178 -227h-80z" />
<glyph unicode="&#xf4;" horiz-adv-x="1015" d="M82 305l61 451q10 78 52 141.5t102 102.5t130.5 59.5t143.5 21.5q73 -1 137 -21.5t113 -59.5t72.5 -102.5t13.5 -141.5l-61 -451q-10 -78 -51.5 -141.5t-101.5 -102.5t-130.5 -59.5t-144.5 -21.5q-72 1 -136 21.5t-113 59.5t-73 102.5t-14 141.5zM156 305 q-9 -63 10.5 -113t60 -79.5t92 -44.5t109.5 -15q78 0 149 25t127 84.5t68 142.5l62 451q9 63 -11 112.5t-61 78.5t-92.5 44t-108.5 15q-58 0 -113.5 -14.5t-104.5 -44t-83 -79t-43 -112.5zM309 1198l279 227h76l196 -227h-102l-137 162l-197 -162h-115z" />
<glyph unicode="&#xf5;" horiz-adv-x="1015" d="M82 305l61 451q10 78 52 141.5t102 102.5t130.5 59.5t143.5 21.5q73 -1 137 -21.5t113 -59.5t72.5 -102.5t13.5 -141.5l-61 -451q-10 -78 -51.5 -141.5t-101.5 -102.5t-130.5 -59.5t-144.5 -21.5q-72 1 -136 21.5t-113 59.5t-73 102.5t-14 141.5zM156 305 q-9 -63 10.5 -113t60 -79.5t92 -44.5t109.5 -15q78 0 149 25t127 84.5t68 142.5l62 451q9 63 -11 112.5t-61 78.5t-92.5 44t-108.5 15q-58 0 -113.5 -14.5t-104.5 -44t-83 -79t-43 -112.5zM330 1247q13 74 60 118t108 44q41 0 77 -20.5t57 -45t49 -45t54 -20.5q79 0 111 108 l55 -14q-12 -70 -58.5 -117t-109.5 -47q-38 0 -71.5 21.5t-54 46.5t-51.5 45.5t-64 19.5q-36 -2 -65 -30t-44 -80z" />
<glyph unicode="&#xf6;" horiz-adv-x="1015" d="M82 305l61 451q10 78 52 141.5t102 102.5t130.5 59.5t143.5 21.5q73 -1 137 -21.5t113 -59.5t72.5 -102.5t13.5 -141.5l-61 -451q-10 -78 -51.5 -141.5t-101.5 -102.5t-130.5 -59.5t-144.5 -21.5q-72 1 -136 21.5t-113 59.5t-73 102.5t-14 141.5zM156 305 q-9 -63 10.5 -113t60 -79.5t92 -44.5t109.5 -15q78 0 149 25t127 84.5t68 142.5l62 451q9 63 -11 112.5t-61 78.5t-92.5 44t-108.5 15q-58 0 -113.5 -14.5t-104.5 -44t-83 -79t-43 -112.5zM362 1313q3 26 24 43.5t46 17.5q26 0 41 -17.5t12 -43.5q-3 -25 -23 -43.5 t-46 -18.5q-25 0 -41 18.5t-13 43.5zM721 1313q3 26 23.5 43.5t46.5 17.5q25 0 40.5 -17.5t12.5 -43.5q-3 -25 -24 -43.5t-46 -18.5q-26 0 -41 18.5t-12 43.5z" />
<glyph unicode="&#xf7;" horiz-adv-x="1173" d="M150 641l12 78h874l-12 -78h-874zM481 356q4 33 28.5 53.5t57.5 22.5q32 0 51 -22t15 -54t-29 -53.5t-57 -21.5t-51 21.5t-15 53.5zM569 981q4 33 28.5 53.5t57.5 22.5q32 0 51 -22t15 -54q-5 -32 -29.5 -54t-56.5 -22t-51 22t-15 54z" />
<glyph unicode="&#xf8;" horiz-adv-x="1015" d="M82 305l61 451q10 78 52 141.5t102 102.5t130.5 59.5t143.5 21.5q85 -3 164 -30l84 153l60 -20l-86 -158q137 -96 114 -270l-61 -451q-10 -78 -51.5 -141.5t-101.5 -102.5t-130 -59.5t-143 -21.5q-83 3 -168 32l-90 -155l-53 22l88 158q-138 99 -115 268zM156 305 q-14 -118 75 -201l465 879q-80 23 -135 23q-58 0 -113.5 -14.5t-104.5 -44t-83 -79t-43 -112.5zM285 78q80 -25 145 -25q78 0 148.5 25t126 84.5t67.5 142.5l62 451q14 114 -80 198z" />
<glyph unicode="&#xf9;" d="M104 303l107 758h74l-107 -758q-9 -61 10 -110t58.5 -78t89.5 -44.5t106 -15.5q83 0 172.5 18.5t151.5 43.5l131 944h74l-140 -1004q-231 -77 -399 -77q-71 2 -133.5 23t-111 59.5t-71.5 101t-12 139.5zM442 1425h99l125 -227h-76z" />
<glyph unicode="&#xfa;" d="M104 303l107 758h74l-107 -758q-9 -61 10 -110t58.5 -78t89.5 -44.5t106 -15.5q83 0 172.5 18.5t151.5 43.5l131 944h74l-140 -1004q-231 -77 -399 -77q-71 2 -133.5 23t-111 59.5t-71.5 101t-12 139.5zM508 1198l160 227h98l-178 -227h-80z" />
<glyph unicode="&#xfb;" d="M104 303l107 758h74l-107 -758q-9 -61 10 -110t58.5 -78t89.5 -44.5t106 -15.5q83 0 172.5 18.5t151.5 43.5l131 944h74l-140 -1004q-231 -77 -399 -77q-71 2 -133.5 23t-111 59.5t-71.5 101t-12 139.5zM334 1198l278 227h76l197 -227h-103l-137 162l-196 -162h-115z" />
<glyph unicode="&#xfc;" d="M104 303l107 758h74l-107 -758q-9 -61 10 -110t58.5 -78t89.5 -44.5t106 -15.5q83 0 172.5 18.5t151.5 43.5l131 944h74l-140 -1004q-231 -77 -399 -77q-71 2 -133.5 23t-111 59.5t-71.5 101t-12 139.5zM387 1313q3 26 24 43.5t46 17.5q26 0 41 -17.5t12 -43.5 q-3 -25 -23.5 -43.5t-46.5 -18.5q-25 0 -40.5 18.5t-12.5 43.5zM745 1313q3 26 23.5 43.5t46.5 17.5q25 0 40.5 -17.5t12.5 -43.5q-3 -25 -23.5 -43.5t-45.5 -18.5q-26 0 -41.5 18.5t-12.5 43.5z" />
<glyph unicode="&#xfd;" d="M76 -319l53 45q47 -42 115.5 -65t144.5 -23q82 0 152 24t122.5 80t65.5 137l27 176q-166 -75 -316 -75q-73 -1 -138 20t-113 60t-72 102t-13 139l105 758h74l-105 -758q-16 -120 62 -187t204 -67q92 1 152 17.5t170 62.5l129 932h72l-166 -1178q-11 -78 -51.5 -140 t-99 -98.5t-126.5 -55.5t-141 -19q-94 0 -175.5 29.5t-131.5 83.5zM510 1198l160 227h98l-178 -227h-80z" />
<glyph unicode="&#xfe;" horiz-adv-x="1050" d="M14 -381l258 1829h74l-59 -408q165 41 321 41q72 -1 135.5 -22.5t111.5 -61t71.5 -102.5t13.5 -141l-61 -449q-14 -101 -81.5 -177t-158 -112.5t-188.5 -35.5q-182 4 -301 63l-62 -424h-74zM160 123q148 -68 305 -68q80 1 150.5 27t123.5 83t64 136l61 453 q16 121 -62 185.5t-204 64.5q-191 0 -322 -43z" />
<glyph unicode="&#xff;" d="M76 -319l53 45q47 -42 115.5 -65t144.5 -23q82 0 152 24t122.5 80t65.5 137l27 176q-166 -75 -316 -75q-73 -1 -138 20t-113 60t-72 102t-13 139l105 758h74l-105 -758q-16 -120 62 -187t204 -67q92 1 152 17.5t170 62.5l129 932h72l-166 -1178q-11 -78 -51.5 -140 t-99 -98.5t-126.5 -55.5t-141 -19q-94 0 -175.5 29.5t-131.5 83.5zM389 1313q3 26 24 43.5t46 17.5q26 0 41 -17.5t12 -43.5q-3 -25 -23.5 -43.5t-46.5 -18.5q-25 0 -40.5 18.5t-12.5 43.5zM748 1313q3 26 23 43.5t46 17.5q25 0 40.5 -17.5t12.5 -43.5q-3 -25 -23.5 -43.5 t-45.5 -18.5q-26 0 -41 18.5t-12 43.5z" />
<glyph unicode="&#x152;" horiz-adv-x="1914" d="M104 420l89 618q14 102 72.5 184t144 133t186 78.5t205.5 28.5q71 0 152.5 -22.5t140.5 -65.5l10 76h825l-10 -74h-745l-87 -614h682l-10 -76h-682l-86 -610h746l-11 -76h-825l8 68q-163 -79 -325 -76q-104 2 -195.5 30.5t-161 81t-103.5 134.5t-20 182zM184 420 q-12 -84 18.5 -151.5t92 -109.5t141.5 -64.5t170 -22.5q163 0 316 75l161 1158q-143 80 -292 77q-91 0 -176.5 -20.5t-158.5 -61t-122.5 -108t-61.5 -154.5z" />
<glyph unicode="&#x153;" horiz-adv-x="1669" d="M82 305l61 451q10 78 52 141.5t102 102.5t130.5 59.5t143.5 21.5q110 -2 198 -48t122 -130q59 86 160.5 132t212.5 46q72 0 135.5 -20t112 -58.5t71.5 -102t12 -142.5q-16 -110 -83 -189.5t-157.5 -116t-193.5 -36.5q-160 0 -293 65l-28 -207q-2 -58 21 -102.5t63.5 -71 t89.5 -40t104 -13.5q91 0 171 34.5t128 100.5l58 -30q-58 -82 -158 -127t-207 -45q-72 0 -135.5 19t-114 59.5t-74.5 97.5q-58 -84 -157.5 -129t-210.5 -47q-72 1 -136 21.5t-113 59.5t-73 102.5t-14 141.5zM156 305q-9 -63 10.5 -113t60 -79.5t92 -44.5t109.5 -15 q78 0 149 25t127 84.5t68 142.5l62 451q9 63 -11 112.5t-61 78.5t-92.5 44t-108.5 15q-58 0 -113.5 -14.5t-104.5 -44t-83 -79t-43 -112.5zM879 545q146 -64 301 -64q85 0 155.5 27t123.5 91.5t67 158.5q12 85 -24.5 146t-101 88.5t-145.5 27.5q-130 0 -224 -63.5 t-124 -200.5z" />
<glyph unicode="&#x178;" horiz-adv-x="1097" d="M137 1448h92l324 -803l547 803h94l-612 -875l-80 -573h-80l80 573zM453 1681q3 26 23.5 44t45.5 18q26 0 41 -18t12 -44q-3 -25 -23 -43t-46 -18q-25 0 -40.5 18t-12.5 43zM811 1681q3 26 23.5 44t46.5 18q25 0 40.5 -18t12.5 -44q-3 -25 -24 -43t-46 -18q-26 0 -41 18 t-12 43z" />
<glyph unicode="&#x2c6;" horiz-adv-x="618" d="M53 1567l279 227h76l196 -227h-102l-137 162l-197 -162h-115z" />
<glyph unicode="&#x2dc;" horiz-adv-x="555" d="M-2 1616q13 74 60 118t108 44q41 0 77 -20.5t57 -45t49 -45t54 -20.5q79 0 111 108l55 -14q-12 -70 -58.5 -117t-109.5 -47q-38 0 -71.5 21.5t-54 46.5t-51.5 45.5t-64 19.5q-36 -2 -65 -30t-44 -81z" />
<glyph unicode="&#x2000;" horiz-adv-x="897" />
<glyph unicode="&#x2001;" horiz-adv-x="1794" />
<glyph unicode="&#x2002;" horiz-adv-x="897" />
<glyph unicode="&#x2003;" horiz-adv-x="1794" />
<glyph unicode="&#x2004;" horiz-adv-x="598" />
<glyph unicode="&#x2005;" horiz-adv-x="448" />
<glyph unicode="&#x2006;" horiz-adv-x="299" />
<glyph unicode="&#x2007;" horiz-adv-x="299" />
<glyph unicode="&#x2008;" horiz-adv-x="224" />
<glyph unicode="&#x2009;" horiz-adv-x="358" />
<glyph unicode="&#x200a;" horiz-adv-x="99" />
<glyph unicode="&#x2010;" horiz-adv-x="868" d="M137 575l10 78h580l-10 -78h-580z" />
<glyph unicode="&#x2011;" horiz-adv-x="868" d="M137 575l10 78h580l-10 -78h-580z" />
<glyph unicode="&#x2012;" horiz-adv-x="868" d="M137 575l10 78h580l-10 -78h-580z" />
<glyph unicode="&#x2013;" horiz-adv-x="1198" d="M137 575l10 76h910l-10 -76h-910z" />
<glyph unicode="&#x2014;" horiz-adv-x="2082" d="M137 575l10 76h1795l-11 -76h-1794z" />
<glyph unicode="&#x2018;" horiz-adv-x="438" d="M180 1061q36 74 100 194.5t99 194.5h74l-170 -389h-103z" />
<glyph unicode="&#x2019;" horiz-adv-x="436" d="M180 1059l172 391h107q-36 -78 -102.5 -199t-100.5 -192h-76z" />
<glyph unicode="&#x201a;" horiz-adv-x="401" d="M-72 -262l164 344h105l-191 -344h-78z" />
<glyph unicode="&#x201c;" horiz-adv-x="694" d="M180 1059l189 391h77l-159 -391h-107zM440 1059l189 391h78l-160 -391h-107z" />
<glyph unicode="&#x201d;" horiz-adv-x="671" d="M184 1061l148 389h102l-176 -389h-74zM438 1061l148 389h102l-176 -389h-74z" />
<glyph unicode="&#x201e;" horiz-adv-x="688" d="M-61 -262l165 364h107q-34 -66 -97 -180t-98 -184h-77zM197 -262l165 364h107q-34 -66 -97 -180t-98 -184h-77z" />
<glyph unicode="&#x2022;" horiz-adv-x="776" d="M174 725q13 92 89.5 158.5t168.5 66.5t149 -66.5t44 -158.5q-12 -92 -88 -158.5t-168 -66.5t-149.5 66.5t-45.5 158.5z" />
<glyph unicode="&#x2026;" horiz-adv-x="1384" d="M74 86q7 51 46.5 85t90.5 34t79.5 -34t20.5 -85q-6 -51 -45 -85t-90 -34t-79.5 34t-22.5 85zM502 86q7 51 46.5 85t90.5 34t79.5 -34t20.5 -85q-6 -51 -45 -85t-90 -34t-79.5 34t-22.5 85zM928 86q7 51 46.5 85t90.5 34t79.5 -34t20.5 -85q-6 -51 -45 -85t-90 -34 t-79.5 34t-22.5 85z" />
<glyph unicode="&#x202f;" horiz-adv-x="358" />
<glyph unicode="&#x2039;" horiz-adv-x="536" d="M86 604l317 389q13 -8 32.5 -22.5t25.5 -18.5l-289 -348q32 -63 99 -185t89 -163q-16 -8 -35 -20t-32 -19z" />
<glyph unicode="&#x203a;" horiz-adv-x="532" d="M68 256l288 348q-32 63 -99 185t-89 163q16 8 35.5 20t32.5 19l206 -387l-317 -389q-13 8 -31.5 22.5t-25.5 18.5z" />
<glyph unicode="&#x205f;" horiz-adv-x="448" />
<glyph unicode="&#x20ac;" horiz-adv-x="1232" d="M82 618l20 66h119l17 121h-125l22 65h113l24 177q14 102 66.5 184.5t128 134.5t164 79.5t180.5 27.5q139 0 249 -60t154 -174l-77 -37q-38 96 -128.5 142.5t-207.5 46.5q-105 0 -200 -38t-165.5 -118t-85.5 -188l-24 -177h551l-23 -65h-539l-16 -121h551l-16 -66h-543 l-27 -215q-11 -83 13.5 -149.5t75 -108t117 -63t142.5 -21.5q120 0 226 47t170 142l67 -37q-75 -114 -204 -173.5t-271 -59.5q-91 0 -170 27t-139 78t-89 133t-16 185l27 215h-131z" />
<glyph unicode="&#x2122;" horiz-adv-x="1683" d="M168 1391l8 59h598l-8 -59h-266l-99 -699h-65l98 699h-266zM807 692l106 758h93l188 -594q57 97 356 594h92l-106 -758h-66l107 694l-358 -598h-66l-190 586q-15 -101 -47 -343t-46 -339h-63z" />
</font>
</defs>
</svg>
